<?xml version="1.0" encoding="UTF-8"?>
<svg xmlns="http://www.w3.org/2000/svg" xmlns:xlink="http://www.w3.org/1999/xlink" width="px" height="px" viewBox="0 0 683 777" version="1.1">
<defs>
<clipPath id="clip1">
  <path d="M 155 300 L 544 300 L 544 677.0625 L 155 677.0625 Z M 155 300 "/>
</clipPath>
<clipPath id="clip2">
  <path d="M 155 327 L 542 327 L 542 677.0625 L 155 677.0625 Z M 155 327 "/>
</clipPath>
<clipPath id="clip3">
  <path d="M 152 318 L 548 318 L 548 677.0625 L 152 677.0625 Z M 152 318 "/>
</clipPath>
</defs>
<g id="surface1">
<g clip-path="url(#clip1)" clip-rule="nonzero">
<path style=" stroke:none;fill-rule:nonzero;fill:rgb(100%,99.607843%,99.215686%);fill-opacity:1;" d="M 178.835938 672.847656 C 244.15625 682.765625 310.664062 683.261719 376.53125 679.660156 C 402.597656 677.714844 428.746094 677.359375 454.789062 679.855469 C 470.179688 680.996094 537.660156 686.148438 543.175781 672.375 C 539.703125 599.019531 532.675781 525.042969 511.117188 454.492188 C 502.25 429.441406 494.636719 408.648438 477.332031 387.921875 C 471.875 382.261719 460.113281 370.390625 453.375 366.519531 C 447.535156 363.164062 445.09375 364.359375 441.742188 358.695312 C 438.410156 352.4375 435.953125 341.988281 431.222656 337.574219 C 426.40625 333.078125 419.269531 334.6875 410.421875 336.136719 C 412.046875 314.183594 401.910156 308.59375 387.941406 304.417969 C 363.390625 295.054688 339.140625 299.757812 332.960938 329.628906 C 321.503906 329.628906 315.066406 334.554688 308.113281 339.289062 C 305.265625 341.226562 307.246094 346.15625 303.847656 347.679688 C 297.5625 349.914062 286.457031 349.367188 280.402344 352.121094 C 252.875 364.636719 228.363281 382.785156 212.265625 409.296875 C 176.175781 465.890625 151.382812 585.113281 155.671875 652.195312 C 153.792969 655.140625 156.394531 659.363281 157.054688 662.53125 C 157.878906 665.289062 160.539062 667.078125 163.40625 666.804688 C 167.339844 671.03125 173.421875 671.972656 178.835938 672.847656 Z M 178.835938 672.847656 "/>
</g>
<g clip-path="url(#clip2)" clip-rule="nonzero">
<path style=" stroke:none;fill-rule:nonzero;fill:rgb(100%,100%,100%);fill-opacity:1;" d="M 314.734375 334.113281 C 318.761719 329.914062 325.070312 327.410156 331.046875 327.550781 L 331.328125 327.558594 L 333.355469 327.652344 L 332.003906 334.296875 L 331.933594 334.613281 L 331.65625 335.769531 L 331.289062 337.277344 L 331.160156 337.835938 L 331.019531 338.449219 C 331 338.550781 330.976562 338.648438 330.957031 338.746094 L 330.898438 339.035156 L 330.320312 341.859375 L 330.425781 342.109375 L 330.394531 342.753906 C 330.304688 345.074219 330.804688 346.347656 331.90625 346.757812 L 331.996094 346.785156 L 332.625 346.988281 L 333.136719 348.097656 C 334.316406 350.640625 335.417969 352.863281 336.550781 354.957031 C 340.035156 361.335938 343.964844 367.464844 348.3125 373.289062 C 352.621094 379.117188 357.109375 384.671875 361.777344 389.957031 C 363.878906 392.332031 366.09375 394.714844 368.453125 397.140625 L 370.484375 399.21875 L 371.128906 399.871094 L 371.5625 400.304688 L 372.105469 400.835938 L 372.886719 401.578125 L 373.453125 402.136719 L 373.636719 402.308594 C 373.8125 402.480469 374.003906 402.636719 374.207031 402.773438 L 374.265625 402.808594 L 374.445312 402.914062 L 383.859375 412.808594 L 387.183594 414.636719 L 388.761719 415.511719 L 389.082031 414.875 L 389.148438 414.667969 L 392.648438 406.988281 L 394.785156 402.285156 C 399.167969 392.609375 402.585938 384.910156 405.703125 377.582031 L 406.089844 376.667969 L 407.242188 373.941406 L 407.851562 372.484375 C 410.636719 365.804688 412.699219 360.652344 414.542969 355.644531 L 414.804688 354.933594 L 415.191406 353.863281 L 415.769531 352.25 L 415.875 351.972656 C 416.375 350.691406 415.144531 346.035156 413.933594 343.484375 L 413.863281 343.339844 L 413.550781 342.710938 L 413.210938 342.042969 C 412.363281 340.328125 411.738281 338.515625 411.339844 336.648438 C 411.261719 336.308594 411.1875 335.964844 411.117188 335.621094 L 411.015625 335.097656 L 410.953125 334.757812 L 410.863281 334.28125 L 410.734375 333.597656 L 413.445312 333.144531 L 414.933594 332.902344 L 415.582031 332.800781 C 416.421875 332.671875 417.171875 332.566406 417.875 332.476562 L 418.136719 332.441406 L 418.609375 332.386719 L 418.625 332.480469 L 419.59375 332.574219 L 420.3125 332.648438 C 423.066406 332.902344 425.804688 333.316406 428.511719 333.890625 L 428.703125 333.9375 L 429.050781 334.027344 L 429.207031 334.066406 C 430.921875 334.535156 432.414062 335.601562 433.402344 337.078125 C 434.222656 338.292969 434.886719 339.605469 435.375 340.988281 L 435.648438 341.667969 L 436.546875 343.894531 C 436.652344 344.164062 436.816406 344.597656 437.035156 345.195312 L 437.800781 347.273438 L 441.636719 357.855469 L 445.558594 359.917969 C 447.382812 360.871094 448.714844 361.558594 449.375 361.882812 L 449.609375 361.996094 L 449.773438 362.074219 L 451.125 362.609375 L 450.980469 363.03125 L 451.144531 363.125 C 467.292969 372.40625 479.75 386.691406 489.445312 405.652344 L 489.738281 406.230469 L 490.039062 406.828125 C 497.769531 422.273438 503.304688 439.507812 508.710938 462.519531 L 509.046875 463.949219 L 509.308594 465.089844 L 510.71875 471.230469 C 516.015625 494.414062 519.652344 511.707031 522.664062 528.671875 L 522.859375 529.777344 L 523.359375 532.660156 C 527.144531 554.617188 530.304688 576.375 532.84375 597.925781 L 533.265625 601.550781 C 534.320312 610.808594 535.277344 620.378906 536.316406 631.871094 L 536.453125 633.417969 L 536.910156 638.578125 C 537.394531 644.140625 537.839844 649.691406 538.242188 655.230469 L 538.4375 658 L 538.84375 664.019531 L 539.082031 667.453125 L 539.113281 667.914062 L 539.207031 669.703125 L 539.234375 670.125 C 539.269531 670.660156 539.3125 671.113281 539.363281 671.535156 L 539.40625 671.84375 L 539.449219 672.140625 C 539.59375 672.972656 539.875 673.777344 540.285156 674.515625 L 540.398438 674.71875 L 541.148438 676.0625 L 539.789062 676.777344 C 532.695312 680.515625 518.726562 682.15625 499.566406 682.242188 L 497.785156 682.242188 C 488.472656 682.238281 478.605469 681.878906 468.308594 681.265625 L 465.980469 681.121094 L 464.035156 681 C 463.199219 680.945312 462.386719 680.890625 461.539062 680.832031 L 460.242188 680.738281 L 454.828125 680.34375 C 430.472656 678.011719 404.933594 678.050781 376.792969 680.15625 C 303.425781 684.167969 240.097656 682.476562 180.578125 673.597656 L 178.777344 673.324219 L 177.449219 673.109375 L 176.65625 672.976562 C 170.34375 671.898438 166.378906 670.519531 163.285156 667.621094 L 163.121094 667.46875 L 162.988281 667.335938 L 162.929688 667.335938 C 159.761719 667.289062 156.960938 665.273438 155.914062 662.285156 L 155.855469 662.125 L 155.789062 661.902344 L 155.738281 661.679688 C 155.6875 661.460938 155.625 661.226562 155.550781 660.972656 L 155.492188 660.777344 L 155.003906 659.167969 L 156.660156 658.867188 C 156.84375 658.816406 157 658.699219 157.09375 658.53125 L 157.234375 658.332031 L 157.472656 658.003906 L 158.046875 657.210938 C 158.515625 656.632812 158.878906 655.972656 159.117188 655.265625 C 159.261719 654.625 159.320312 653.96875 159.285156 653.3125 L 159.273438 652.894531 L 159.207031 651.375 C 159.203125 651.253906 159.199219 651.148438 159.199219 651.042969 L 159.199219 648.753906 L 159.203125 646.40625 C 159.207031 645.378906 159.214844 644.378906 159.222656 643.398438 L 159.234375 641.9375 L 159.25 640.757812 C 159.328125 634.25 159.519531 627.75 159.820312 621.253906 C 160.414062 608.574219 161.425781 595.925781 162.863281 583.304688 C 165.71875 557.796875 170.285156 532.511719 176.539062 507.617188 L 177.15625 505.179688 C 183.835938 479.101562 190.273438 458.996094 198.457031 440.402344 C 208.863281 416.757812 221.554688 397.296875 237.53125 381.738281 C 246.105469 373.320312 255.816406 366.148438 266.382812 360.421875 C 271.300781 357.808594 276.386719 355.523438 281.609375 353.582031 L 282.386719 353.292969 L 283.636719 352.835938 L 284.601562 352.480469 L 287.699219 351.324219 C 288.351562 351.082031 289.058594 350.808594 289.898438 350.480469 L 290.417969 350.273438 L 295.96875 348.0625 L 296.890625 347.699219 L 297.914062 347.300781 L 298.667969 347.011719 C 299.898438 346.542969 301.015625 346.132812 302.050781 345.773438 L 302.660156 345.5625 L 303.214844 345.375 L 305.585938 344.554688 L 305.539062 346.707031 C 305.507812 348.140625 305.878906 349.222656 306.695312 350 L 306.726562 350.023438 L 306.753906 350.046875 L 306.777344 350.0625 L 306.921875 350.058594 L 307.480469 350.054688 C 307.539062 350.023438 307.59375 349.988281 307.644531 349.945312 C 308.441406 349.269531 308.8125 348.363281 309.171875 346.28125 L 309.265625 345.703125 L 309.433594 344.621094 L 309.496094 344.210938 C 309.632812 343.125 309.921875 342.066406 310.351562 341.0625 C 310.957031 339.714844 311.71875 338.445312 312.625 337.28125 L 312.839844 337.011719 L 313.6875 335.988281 L 313.820312 335.824219 C 314.050781 335.5625 314.226562 335.257812 314.335938 334.925781 L 314.351562 334.859375 L 314.4375 334.429688 Z M 314.734375 334.113281 "/>
</g>
<g clip-path="url(#clip3)" clip-rule="nonzero">
<path style=" stroke:none;fill-rule:nonzero;fill:rgb(0%,0%,0%);fill-opacity:1;" d="M 543.269531 680.019531 C 541.996094 680.015625 540.804688 679.382812 540.082031 678.332031 L 539.691406 677.738281 C 538.75 676.441406 538.101562 674.953125 537.789062 673.382812 C 537.621094 672.214844 537.515625 671.035156 537.476562 669.855469 C 537.449219 669.351562 537.421875 668.832031 537.386719 668.324219 C 537.261719 666.613281 537.148438 664.890625 537.039062 663.21875 L 537.035156 663.179688 C 536.945312 661.84375 536.855469 660.460938 536.757812 659.105469 C 536.308594 652.6875 535.796875 646.164062 535.230469 639.707031 C 533.480469 619.699219 532.292969 608.773438 531.449219 601.488281 C 528.898438 579.390625 525.617188 556.65625 521.699219 533.914062 C 517.824219 511.410156 512.910156 489.253906 508.179688 468.664062 L 507.664062 466.421875 C 505.03125 455.011719 502.585938 445.800781 499.960938 437.441406 C 496.980469 427.695312 493.242188 418.199219 488.785156 409.035156 C 486.558594 404.523438 484.082031 400.136719 481.363281 395.902344 C 478.671875 391.710938 475.6875 387.710938 472.4375 383.933594 C 469.183594 380.160156 465.621094 376.660156 461.792969 373.472656 C 457.871094 370.222656 453.664062 367.335938 449.214844 364.855469 C 449.082031 364.792969 449.011719 364.640625 449.050781 364.496094 C 449.09375 364.300781 449.292969 364.175781 449.492188 364.222656 C 449.519531 364.226562 449.542969 364.238281 449.570312 364.25 C 459.121094 368.792969 467.816406 374.953125 475.257812 382.464844 C 482.699219 389.976562 489.089844 398.457031 494.257812 407.675781 C 499.210938 416.398438 503.539062 426.257812 507.484375 437.824219 C 511.234375 448.808594 514.183594 460.019531 516.578125 469.539062 L 516.769531 470.304688 C 521.941406 490.9375 526.796875 513.316406 531.609375 538.71875 C 533.761719 550.058594 535.769531 561.804688 537.582031 573.636719 C 539.324219 585.015625 540.9375 596.820312 542.378906 608.734375 C 543.933594 621.558594 545.121094 632.957031 546.015625 643.585938 C 546.503906 649.398438 546.949219 655.273438 547.34375 661.046875 C 547.527344 663.734375 547.667969 665.957031 547.78125 668.035156 L 547.875 669.78125 C 547.886719 670.03125 547.902344 670.289062 547.917969 670.53125 C 548.066406 671.863281 548.011719 673.207031 547.75 674.519531 C 547.425781 675.621094 546.976562 676.679688 546.40625 677.675781 C 546.300781 677.875 546.183594 678.105469 546.070312 678.328125 C 545.546875 679.390625 544.453125 680.050781 543.269531 680.019531 Z M 237.082031 678.855469 C 236.476562 678.839844 235.890625 678.609375 235.433594 678.207031 L 235.121094 677.960938 L 234.898438 677.789062 L 234.890625 677.78125 C 233.917969 677.136719 233.113281 676.269531 232.542969 675.253906 C 231.636719 673.496094 231.488281 671.632812 231.328125 669.65625 L 231.328125 669.609375 C 231.148438 667.367188 231.195312 665.066406 231.238281 662.84375 C 231.253906 662.136719 231.269531 661.40625 231.277344 660.683594 C 231.335938 654.777344 231.421875 648.773438 231.527344 642.832031 C 231.945312 618.960938 232.773438 597.558594 234.050781 577.402344 C 234.730469 566.671875 235.644531 556.316406 236.765625 546.628906 L 236.992188 544.714844 C 237.167969 543.257812 237.332031 541.785156 237.496094 540.355469 C 237.671875 538.792969 237.855469 537.179688 238.046875 535.578125 C 232.554688 531.691406 227.671875 527.007812 223.566406 521.679688 C 223.464844 521.546875 223.445312 521.371094 223.519531 521.21875 C 223.578125 521.085938 223.710938 520.996094 223.859375 520.988281 C 223.964844 520.992188 224.0625 521.039062 224.128906 521.117188 C 226.21875 523.273438 228.484375 525.246094 230.90625 527.019531 C 233.324219 528.777344 235.875 530.34375 238.539062 531.699219 C 239.265625 526.375 240.417969 519.429688 242.871094 512.925781 C 242.949219 512.730469 243.136719 512.605469 243.34375 512.605469 C 243.535156 512.601562 243.699219 512.734375 243.730469 512.925781 C 244.960938 518.457031 245.148438 524.230469 245.332031 529.8125 C 245.34375 530.160156 245.351562 530.507812 245.363281 530.851562 C 245.535156 536.035156 245.570312 541.699219 245.464844 548.675781 C 245.21875 565.582031 244.796875 582.753906 244.386719 599.363281 L 244.382812 599.582031 C 244.265625 604.332031 244.144531 609.242188 244.03125 614.074219 C 243.804688 623.675781 243.542969 635.074219 243.34375 646.796875 C 243.273438 650.816406 243.214844 654.945312 243.164062 659.070312 L 243.101562 664.464844 C 243.105469 666.847656 242.976562 669.226562 242.71875 671.589844 C 242.578125 673.152344 242.074219 674.660156 241.253906 675.996094 C 240.773438 676.671875 240.164062 677.246094 239.460938 677.679688 C 239.277344 677.8125 239.09375 677.945312 238.910156 678.082031 L 238.75 678.207031 C 238.285156 678.609375 237.699219 678.835938 237.082031 678.855469 Z M 379.84375 675.34375 C 379.335938 675.378906 378.878906 675.035156 378.777344 674.535156 C 377.550781 666.9375 377.332031 659.085938 377.121094 651.488281 L 377.121094 651.433594 C 377.089844 650.347656 377.058594 649.222656 377.027344 648.121094 L 376.96875 646.359375 C 376.640625 636.804688 376.492188 627.257812 376.523438 617.984375 C 376.625 590.171875 377.246094 561.902344 377.851562 534.566406 L 377.851562 534.5625 L 377.855469 534.394531 C 377.980469 528.667969 378.113281 522.75 378.238281 516.929688 C 378.332031 512.386719 378.421875 507.769531 378.507812 503.304688 L 378.507812 503.183594 C 378.746094 491.046875 378.988281 478.496094 379.398438 466.152344 C 379.699219 456.949219 380.019531 448.644531 380.371094 440.761719 L 380.402344 440.039062 L 380.402344 440.03125 C 380.554688 436.558594 380.714844 432.96875 380.953125 429.4375 L 381.066406 427.824219 C 381.105469 427.300781 381.140625 426.773438 381.171875 426.265625 L 381.171875 426.257812 C 381.207031 425.746094 381.242188 425.214844 381.28125 424.691406 C 380.640625 424.929688 379.960938 425.046875 379.273438 425.046875 C 377.152344 425.046875 375.117188 423.929688 373.148438 422.84375 C 372.664062 422.578125 372.167969 422.304688 371.683594 422.054688 L 368.773438 420.558594 L 368.558594 420.449219 C 366.117188 419.191406 363.589844 417.894531 361.070312 416.601562 L 357.53125 414.789062 L 350.441406 411.175781 C 350.171875 411.039062 349.90625 410.902344 349.648438 410.765625 L 349.644531 410.765625 C 347.796875 409.804688 346.203125 408.976562 344.445312 408.976562 C 343.367188 408.992188 342.316406 409.289062 341.390625 409.839844 C 330.578125 415.902344 319.539062 424.28125 307.652344 435.457031 C 306.851562 436.167969 305.8125 436.550781 304.746094 436.53125 C 303.902344 436.542969 303.078125 436.300781 302.378906 435.835938 C 301.664062 435.34375 301.183594 434.578125 301.058594 433.71875 C 300.566406 430.613281 300.238281 427.484375 300.082031 424.34375 C 299.921875 421.394531 299.878906 418.3125 299.957031 414.929688 C 300.097656 408.648438 300.625 402.269531 301.132812 396.101562 L 301.140625 396 C 301.199219 395.316406 301.253906 394.636719 301.3125 393.953125 L 301.710938 389.042969 C 302.144531 383.808594 302.683594 377.625 303.421875 371.484375 L 303.453125 371.21875 L 303.453125 371.207031 C 303.753906 368.730469 304.058594 366.171875 304.390625 363.65625 L 304.65625 361.703125 C 304.738281 361.136719 304.8125 360.566406 304.882812 360.011719 L 304.882812 359.996094 C 305.140625 357.488281 305.613281 355.007812 306.292969 352.578125 C 305.984375 352.480469 305.703125 352.316406 305.472656 352.09375 C 304.246094 350.929688 303.707031 349.257812 303.875 347.128906 C 304.078125 345.285156 304.558594 343.480469 305.304688 341.78125 C 306.5625 338.730469 308.445312 335.972656 310.832031 333.691406 C 311.367188 333.175781 312.078125 332.871094 312.820312 332.84375 C 314.824219 331.492188 316.980469 330.390625 319.246094 329.5625 C 321.417969 328.769531 323.710938 328.355469 326.023438 328.339844 C 327.890625 328.339844 329.75 328.628906 331.53125 329.199219 C 331.753906 328.125 331.929688 327.304688 332.105469 326.550781 L 332.308594 325.667969 C 332.417969 325.195312 332.515625 324.65625 332.613281 324.082031 C 332.78125 323.007812 333.023438 321.941406 333.339844 320.902344 C 333.601562 319.933594 334.144531 319.066406 334.898438 318.40625 C 334.941406 318.375 334.992188 318.355469 335.042969 318.351562 C 335.089844 318.351562 335.132812 318.371094 335.164062 318.40625 C 336.15625 319.5625 336.148438 321.261719 336.140625 322.761719 C 336.140625 323.070312 336.140625 323.355469 336.144531 323.644531 L 336.148438 323.804688 C 336.222656 326.03125 336.25 328.394531 336.242188 331.46875 L 336.214844 339.609375 C 336.214844 340.023438 336.203125 340.449219 336.1875 340.863281 C 336.167969 341.574219 336.144531 342.308594 336.179688 343.015625 L 336.210938 343.453125 C 336.851562 344.105469 337.113281 345.042969 336.910156 345.933594 C 336.867188 347.0625 336.285156 348.101562 335.347656 348.730469 L 337.285156 351.476562 L 339.226562 354.226562 C 344.070312 361.089844 347.847656 366.273438 351.484375 371.023438 C 355.636719 376.457031 360.238281 381.917969 365.160156 387.257812 C 367.679688 389.988281 370.023438 392.441406 372.328125 394.75 C 373.015625 395.441406 373.722656 396.128906 374.40625 396.792969 C 374.710938 397.089844 375.027344 397.398438 375.339844 397.699219 L 376.339844 398.6875 C 376.476562 398.824219 376.617188 398.957031 376.765625 399.097656 C 377.277344 399.523438 377.714844 400.035156 378.0625 400.605469 C 378.207031 400.996094 378.300781 401.40625 378.335938 401.824219 C 378.351562 401.988281 378.382812 402.152344 378.425781 402.3125 C 378.777344 403.171875 378.683594 404.148438 378.183594 404.925781 C 377.851562 405.5 377.242188 405.863281 376.578125 405.875 C 376.3125 405.871094 376.050781 405.820312 375.804688 405.722656 L 375.902344 405.660156 C 376.027344 405.570312 376.082031 405.511719 376.074219 405.480469 C 376.070312 405.464844 376.042969 405.457031 376 405.457031 C 375.714844 405.492188 375.4375 405.554688 375.167969 405.648438 C 374.625 405.648438 374.09375 405.519531 373.617188 405.269531 L 373.472656 405.1875 C 372.894531 404.847656 372.371094 404.417969 371.917969 403.921875 C 371.820312 403.820312 371.730469 403.734375 371.636719 403.644531 L 371.5 403.515625 C 370.433594 402.515625 369.394531 401.449219 368.386719 400.417969 L 367.832031 399.847656 C 365.164062 397.125 362.753906 394.542969 360.457031 391.945312 C 355.804688 386.679688 351.246094 381.039062 346.914062 375.179688 C 342.523438 369.292969 338.554688 363.105469 335.035156 356.664062 C 333.839844 354.453125 332.667969 352.085938 331.34375 349.210938 C 330.300781 348.878906 329.476562 348.074219 329.125 347.035156 C 328.734375 345.859375 328.597656 344.613281 328.714844 343.378906 C 327.859375 341.464844 327.179688 339.476562 326.691406 337.441406 C 326.660156 337.257812 326.78125 337.085938 326.964844 337.054688 C 326.976562 337.050781 326.988281 337.050781 327.003906 337.046875 C 327.082031 337.050781 327.152344 337.085938 327.203125 337.144531 C 327.925781 337.972656 328.605469 338.835938 329.238281 339.734375 C 329.460938 338.644531 329.714844 337.617188 329.9375 336.707031 L 329.9375 336.699219 C 330.105469 336.03125 330.246094 335.453125 330.34375 334.980469 L 331.34375 330.070312 C 331.03125 330.050781 330.707031 330.042969 330.378906 330.042969 C 327.628906 330.0625 324.90625 330.609375 322.363281 331.660156 C 319.832031 332.675781 317.539062 334.203125 315.625 336.148438 C 315.460938 336.992188 314.917969 337.632812 314.289062 338.375 L 314.285156 338.378906 C 314.128906 338.5625 313.96875 338.75 313.8125 338.949219 C 312.894531 340.085938 312.125 341.335938 311.523438 342.667969 C 311.058594 343.890625 310.753906 345.171875 310.621094 346.472656 C 310.304688 348.582031 309.980469 350.761719 308.417969 352.085938 C 308.164062 352.300781 307.871094 352.460938 307.550781 352.5625 C 308.484375 357.125 308.367188 362.050781 308.253906 366.816406 L 308.253906 366.824219 C 308.222656 368.1875 308.191406 369.597656 308.183594 370.949219 L 308.183594 371.476562 C 308.191406 378.476562 307.941406 385.519531 307.707031 391.574219 L 307.445312 398.199219 C 307.117188 406.699219 306.867188 415.742188 307.738281 424.660156 C 311.65625 421.195312 315.75 417.851562 319.914062 414.714844 C 322.65625 412.652344 325.492188 410.632812 328.351562 408.710938 L 330.679688 407.15625 L 330.777344 407.089844 C 333.523438 405.25 336.363281 403.347656 339.382812 402.027344 C 340.917969 401.335938 342.582031 400.980469 344.265625 400.980469 C 346.617188 401.039062 348.929688 401.617188 351.03125 402.671875 C 353.664062 403.898438 356.28125 405.28125 358.816406 406.621094 C 359.980469 407.234375 361.179688 407.867188 362.367188 408.476562 C 365.292969 409.980469 368.265625 411.496094 371.140625 412.964844 L 371.550781 413.175781 L 373.878906 414.359375 C 374.492188 414.675781 375.171875 414.980469 375.890625 415.300781 C 378.097656 416.289062 380.597656 417.410156 382.007812 419.21875 C 382.132812 418.671875 382.273438 418.136719 382.429688 417.640625 C 382.226562 416.796875 382.347656 415.90625 382.765625 415.148438 C 388.863281 403.949219 394.441406 392.652344 400.582031 380.101562 C 402.007812 377.1875 403.421875 374.203125 404.789062 371.324219 L 404.796875 371.3125 C 406.222656 368.3125 407.695312 365.207031 409.183594 362.171875 L 412.023438 356.375 C 412.59375 355.214844 413.03125 354.320312 413.449219 353.480469 C 413.867188 352.640625 414.292969 351.808594 414.710938 350.992188 C 415.015625 350.398438 415.328125 349.78125 415.636719 349.171875 C 415.777344 348.890625 415.9375 348.605469 416.09375 348.328125 L 416.097656 348.324219 C 416.277344 348.003906 416.464844 347.671875 416.621094 347.347656 L 416.761719 347.039062 C 416.769531 347.027344 417.28125 345.417969 417.082031 345.105469 C 417.0625 345.074219 417.027344 345.054688 416.992188 345.054688 C 416.96875 345.058594 416.945312 345.0625 416.925781 345.070312 L 416.882812 345.09375 C 416.839844 345.117188 416.792969 345.128906 416.746094 345.132812 C 416.652344 345.128906 416.570312 345.074219 416.53125 344.988281 C 416.484375 344.890625 416.5 344.773438 416.570312 344.6875 C 416.746094 344.441406 417.027344 344.289062 417.332031 344.28125 C 417.9375 344.28125 418.515625 344.882812 418.792969 345.441406 C 419.734375 347.324219 418.558594 350.050781 417.613281 352.238281 C 417.375 352.792969 417.148438 353.316406 416.980469 353.777344 L 416.933594 353.90625 C 414.273438 361.429688 411.273438 368.742188 408.433594 375.519531 C 402.945312 388.605469 396.964844 401.71875 391.183594 414.398438 L 390.359375 416.207031 L 390.285156 416.441406 C 391.035156 415.867188 391.8125 415.324219 392.5625 414.796875 L 392.566406 414.796875 C 393.140625 414.398438 393.683594 414.015625 394.199219 413.636719 C 397.289062 411.347656 400.566406 409.113281 403.457031 407.136719 C 408.707031 403.550781 414.441406 399.945312 420.984375 396.105469 L 422.179688 395.40625 C 423.410156 394.660156 424.699219 394.019531 426.035156 393.484375 C 427.34375 392.964844 428.738281 392.691406 430.148438 392.675781 C 430.648438 392.679688 431.144531 392.714844 431.636719 392.789062 C 434.359375 393.1875 436.925781 394.46875 439.40625 395.707031 C 439.910156 395.957031 440.429688 396.21875 440.9375 396.464844 L 441.242188 396.609375 L 450.40625 400.964844 C 449.503906 397.382812 448.480469 393.566406 447.257812 389.304688 C 445.132812 381.871094 442.742188 374.316406 440.152344 366.855469 C 437.832031 360.171875 435.296875 353.4375 432.398438 346.265625 L 431.570312 344.226562 L 431.476562 344 L 431.449219 343.929688 C 430.960938 342.558594 430.324219 341.246094 429.542969 340.015625 C 428.75 338.789062 427.535156 337.898438 426.128906 337.511719 C 424.949219 337.238281 423.742188 337.125 422.535156 337.167969 L 421.578125 337.167969 C 419.710938 337.167969 417.90625 337.085938 416.324219 336.101562 C 416.191406 336.015625 416.125 335.859375 416.152344 335.707031 C 416.167969 335.566406 416.273438 335.449219 416.414062 335.414062 L 418.21875 334.960938 C 420.738281 334.335938 423.40625 333.753906 425.875 333.753906 C 426.855469 333.746094 427.835938 333.855469 428.792969 334.089844 C 430.550781 334.574219 432.167969 335.476562 433.503906 336.71875 C 434.847656 337.9375 435.984375 339.367188 436.863281 340.957031 C 438.332031 343.753906 439.605469 346.652344 440.679688 349.625 C 440.945312 350.316406 441.222656 351.03125 441.503906 351.738281 L 441.730469 352.304688 C 443.382812 356.433594 444.976562 360.582031 446.453125 364.632812 C 449.429688 372.785156 452.203125 381.21875 454.703125 389.703125 C 455.84375 393.570312 456.964844 397.578125 458.132812 401.953125 C 458.296875 402.570312 458.515625 403.253906 458.746094 403.976562 L 458.746094 403.984375 C 458.960938 404.652344 459.183594 405.339844 459.386719 406.050781 C 459.894531 406.542969 460.355469 407.082031 460.765625 407.660156 C 461.050781 408.039062 461.160156 408.519531 461.078125 408.984375 C 460.949219 409.582031 460.589844 410.101562 460.078125 410.433594 C 460.078125 411.429688 459.796875 412.40625 459.269531 413.25 C 458.4375 414.492188 457.039062 415.226562 455.542969 415.210938 C 454.46875 415.234375 453.433594 414.820312 452.671875 414.0625 C 451.992188 413.316406 451.65625 412.316406 451.746094 411.308594 C 451.789062 410.644531 452.03125 410.007812 452.429688 409.476562 L 452.421875 409.386719 L 452.375 409.230469 C 451.8125 408.960938 451.257812 408.679688 450.675781 408.378906 L 450.671875 408.378906 C 450.253906 408.167969 449.824219 407.949219 449.386719 407.730469 L 439.769531 402.984375 C 439.027344 402.617188 438.28125 402.203125 437.484375 401.769531 C 435.316406 400.574219 433.074219 399.34375 430.800781 398.957031 C 430.515625 398.910156 430.230469 398.886719 429.941406 398.886719 C 427.824219 398.886719 425.648438 400.105469 423.726562 401.183594 C 423.261719 401.441406 422.820312 401.691406 422.386719 401.917969 L 422.226562 402 C 415.667969 405.359375 409.226562 408.8125 404.347656 411.445312 C 402.664062 412.351562 400.964844 413.296875 399.324219 414.214844 L 399.300781 414.226562 C 398.125 414.878906 396.910156 415.558594 395.710938 416.214844 C 395.050781 416.578125 394.386719 416.976562 393.683594 417.398438 C 391.847656 418.496094 389.953125 419.636719 387.988281 420.179688 C 387.46875 420.59375 386.828125 420.820312 386.164062 420.820312 C 385.519531 420.8125 384.894531 420.621094 384.351562 420.277344 C 384.675781 422.621094 384.855469 424.980469 384.886719 427.34375 C 384.914062 428.152344 384.941406 428.984375 384.980469 429.808594 C 385.152344 433.339844 385.203125 436.9375 385.253906 440.417969 C 385.265625 441.144531 385.277344 441.898438 385.289062 442.640625 L 385.316406 444.242188 C 385.492188 453.300781 385.59375 462.582031 385.632812 472.617188 C 385.714844 494.082031 385.589844 515.902344 385.46875 537.003906 C 385.402344 549.019531 385.332031 561.445312 385.300781 573.675781 C 385.261719 588.476562 385.007812 604.136719 384.480469 624.453125 C 384.285156 631.945312 383.863281 639.472656 383.480469 645.9375 L 383.25 649.84375 C 383.179688 651.011719 383.113281 652.203125 383.050781 653.351562 C 382.65625 660.339844 382.253906 667.5625 380.945312 674.535156 C 380.824219 675.035156 380.359375 675.378906 379.84375 675.34375 Z M 395.230469 674.136719 C 394.773438 674.136719 394.320312 674.074219 393.882812 673.957031 C 391.183594 673.210938 389.597656 670.421875 390.339844 667.722656 L 390.464844 667.429688 C 390.953125 665.664062 392.332031 664.28125 394.101562 663.792969 C 394.546875 663.671875 395.003906 663.609375 395.464844 663.609375 C 396.851562 663.609375 398.183594 664.15625 399.171875 665.132812 C 401.203125 667.167969 401.203125 670.464844 399.167969 672.496094 C 398.578125 673.085938 397.855469 673.527344 397.058594 673.777344 L 396.871094 673.832031 L 396.578125 673.957031 C 396.136719 674.074219 395.683594 674.136719 395.230469 674.136719 Z M 500.53125 663.144531 C 500.085938 663.140625 499.644531 663.101562 499.207031 663.03125 C 498.175781 662.835938 497.277344 662.222656 496.71875 661.335938 C 496.136719 660.484375 495.796875 659.492188 495.726562 658.464844 C 495.171875 646.828125 494.40625 634.542969 493.394531 620.910156 C 492.296875 606.195312 491.46875 591.207031 490.671875 576.710938 L 490.671875 576.679688 C 490.265625 569.339844 489.847656 561.753906 489.398438 554.296875 L 488.929688 546.539062 C 488.46875 538.898438 487.96875 530.019531 487.8125 521.296875 C 487.765625 518.769531 487.804688 516.203125 487.839844 513.722656 C 487.882812 510.722656 487.929688 507.621094 487.828125 504.570312 C 487.800781 503.699219 487.757812 502.796875 487.722656 501.925781 C 487.527344 497.53125 487.328125 492.976562 488.269531 488.777344 C 488.300781 488.675781 488.398438 488.605469 488.507812 488.609375 C 488.585938 488.605469 488.664062 488.652344 488.699219 488.722656 C 489.847656 491.257812 490.6875 493.921875 491.203125 496.65625 C 494.117188 492.972656 497.265625 489.046875 500.539062 485.292969 C 500.597656 485.214844 500.6875 485.171875 500.785156 485.167969 C 500.917969 485.175781 501.039062 485.25 501.105469 485.367188 C 501.179688 485.480469 501.1875 485.625 501.128906 485.746094 C 498.300781 491.285156 495.183594 496.722656 492.167969 501.976562 C 492.402344 503.414062 492.648438 504.894531 492.933594 506.351562 C 493.347656 508.472656 493.804688 510.621094 494.246094 512.695312 L 494.246094 512.703125 C 495.066406 516.570312 495.914062 520.566406 496.535156 524.566406 C 500.101562 547.621094 501.871094 571.097656 503.253906 591.292969 C 504.742188 613.109375 504.96875 635.320312 505.1875 656.800781 L 505.207031 658.464844 C 505.1875 659.503906 504.847656 660.507812 504.226562 661.339844 C 503.640625 662.203125 502.746094 662.808594 501.726562 663.03125 C 501.332031 663.105469 500.929688 663.144531 500.527344 663.140625 Z M 156.390625 661.371094 C 155.664062 661.351562 154.992188 660.984375 154.578125 660.382812 L 154.230469 659.914062 L 154.175781 659.84375 C 153.175781 658.515625 152.226562 657.265625 152.085938 655.546875 C 151.980469 654.238281 152 652.890625 152.019531 651.582031 C 152.027344 651.011719 152.035156 650.425781 152.035156 649.847656 C 152.019531 646.4375 152.054688 642.816406 152.140625 638.457031 C 152.285156 631.21875 152.574219 623.878906 153 616.636719 C 153.878906 601.695312 155.335938 586.859375 157.332031 572.535156 C 159.132812 559.636719 161.414062 546.585938 164.117188 533.738281 C 166.800781 520.984375 169.96875 508.113281 173.523438 495.492188 C 177.308594 482.054688 181 470.441406 184.800781 459.980469 C 188.988281 448.285156 193.914062 436.863281 199.542969 425.789062 C 202.242188 420.535156 205.109375 415.46875 208.074219 410.726562 C 211.203125 405.726562 214.523438 400.941406 217.945312 396.515625 C 221.460938 391.949219 225.238281 387.59375 229.253906 383.460938 C 233.28125 379.320312 237.578125 375.453125 242.113281 371.875 C 246.339844 368.546875 250.773438 365.5 255.390625 362.742188 C 260.007812 359.988281 264.8125 357.5625 269.765625 355.472656 C 274.792969 353.308594 280.039062 351.695312 285.414062 350.660156 C 288.925781 350.097656 292.472656 349.773438 296.027344 349.699219 C 297.765625 349.625 299.558594 349.542969 301.335938 349.40625 L 301.363281 349.40625 C 301.515625 349.398438 301.640625 349.515625 301.648438 349.667969 C 301.648438 349.671875 301.648438 349.675781 301.648438 349.679688 C 301.664062 349.871094 301.527344 350.039062 301.335938 350.0625 C 296.25 350.652344 291.285156 352.511719 286.484375 354.3125 L 286.46875 354.316406 C 285.648438 354.625 284.796875 354.941406 283.96875 355.246094 L 283.488281 355.421875 C 277.789062 357.457031 272.246094 359.90625 266.902344 362.746094 C 256.457031 368.398438 246.859375 375.488281 238.386719 383.8125 C 234.183594 387.914062 230.226562 392.257812 226.527344 396.820312 C 222.855469 401.363281 219.417969 406.09375 216.230469 410.992188 C 213.136719 415.742188 210.140625 420.828125 207.320312 426.125 C 204.660156 431.125 202.078125 436.464844 199.640625 442.007812 C 194.921875 452.84375 190.796875 463.929688 187.277344 475.214844 C 184.128906 485.164062 181.113281 495.894531 177.800781 508.984375 C 174.71875 521.175781 171.996094 533.796875 169.710938 546.5 C 167.488281 558.863281 165.621094 571.640625 164.160156 584.476562 C 162.738281 596.992188 161.714844 609.726562 161.128906 622.324219 C 160.828125 628.765625 160.636719 635.3125 160.554688 641.777344 C 160.519531 644.785156 160.503906 648.042969 160.503906 651.75 C 160.503906 652.171875 160.527344 652.613281 160.550781 653.082031 C 160.671875 654.28125 160.609375 655.488281 160.371094 656.667969 C 159.992188 657.742188 159.425781 658.742188 158.695312 659.617188 C 158.5 659.878906 158.316406 660.128906 158.140625 660.382812 C 157.761719 660.988281 157.105469 661.359375 156.390625 661.371094 Z M 395.46875 632.339844 C 395.378906 632.339844 395.285156 632.339844 395.191406 632.335938 L 395.03125 632.324219 L 395.128906 632.335938 L 394.960938 632.316406 C 394.800781 632.304688 394.640625 632.285156 394.488281 632.269531 C 394.441406 632.261719 394.394531 632.257812 394.347656 632.253906 C 394.289062 632.246094 394.226562 632.238281 394.164062 632.230469 C 394.089844 632.226562 394.035156 632.222656 393.980469 632.222656 C 393.9375 632.222656 393.894531 632.222656 393.855469 632.226562 C 393.769531 632.238281 393.675781 632.242188 393.585938 632.242188 C 392.433594 632.164062 391.351562 631.671875 390.535156 630.855469 C 390.097656 630.421875 389.75 629.902344 389.515625 629.332031 C 389.253906 628.773438 389.132812 628.15625 389.164062 627.539062 L 389.210938 627.089844 C 389.253906 626.457031 389.414062 625.839844 389.683594 625.265625 C 389.984375 624.527344 390.445312 623.863281 391.027344 623.316406 C 392.132812 622.257812 393.597656 621.664062 395.128906 621.648438 L 395.171875 621.648438 C 396.144531 621.632812 397.101562 621.882812 397.941406 622.375 L 399.027344 623.210938 C 399.304688 623.566406 399.589844 623.941406 399.90625 624.347656 C 400.582031 625.230469 400.671875 626.664062 400.53125 627.714844 C 400.5 628.410156 400.285156 629.089844 399.90625 629.675781 L 399.078125 630.746094 C 398.375 631.375 397.554688 631.859375 396.660156 632.164062 C 396.273438 632.285156 395.871094 632.347656 395.46875 632.339844 Z M 395.316406 575.378906 C 394.609375 575.382812 393.90625 575.238281 393.257812 574.960938 C 392.242188 574.546875 391.378906 573.832031 390.78125 572.917969 L 390.683594 572.757812 C 390.644531 572.695312 390.605469 572.628906 390.570312 572.558594 L 390.515625 572.457031 C 389.378906 570.363281 389.710938 567.777344 391.34375 566.042969 C 392.296875 565.046875 393.625 564.496094 395.003906 564.535156 C 395.964844 564.53125 396.914062 564.765625 397.765625 565.214844 C 398.152344 565.441406 398.515625 565.703125 398.847656 566.003906 L 398.851562 566.003906 C 398.945312 566.082031 399.042969 566.164062 399.136719 566.238281 C 400.453125 567.300781 400.675781 569.253906 400.714844 570.042969 C 400.726562 570.75 400.585938 571.449219 400.300781 572.097656 C 400.027344 572.75 399.632812 573.34375 399.136719 573.84375 L 398.910156 574.066406 C 398.320312 574.648438 397.574219 575.050781 396.761719 575.226562 C 396.285156 575.320312 395.800781 575.371094 395.316406 575.378906 Z M 393.042969 521.355469 C 392.597656 521.355469 392.148438 521.292969 391.714844 521.175781 C 389.988281 520.699219 388.640625 519.351562 388.164062 517.625 L 388.0625 516.9375 C 387.910156 516.070312 387.949219 515.183594 388.175781 514.332031 C 388.320312 513.792969 388.53125 513.273438 388.796875 512.785156 C 389.160156 512.144531 389.648438 511.582031 390.234375 511.132812 C 390.820312 510.6875 391.480469 510.351562 392.183594 510.140625 C 392.597656 510.007812 393.03125 509.941406 393.464844 509.941406 C 393.773438 509.941406 394.078125 509.972656 394.378906 510.039062 C 395.800781 510.230469 397.09375 510.972656 397.96875 512.109375 C 398.453125 512.636719 398.792969 513.28125 398.953125 513.980469 L 399.148438 515.441406 L 398.953125 516.902344 L 398.398438 518.214844 C 398.21875 518.449219 398.074219 518.636719 397.9375 518.8125 C 397.414062 519.46875 396.765625 520.015625 396.023438 520.410156 C 395.152344 521.027344 394.109375 521.355469 393.042969 521.355469 Z M 466.589844 477.039062 C 465.769531 477.019531 464.953125 476.960938 464.140625 476.851562 C 463.632812 476.792969 463.105469 476.734375 462.59375 476.699219 C 460.003906 476.527344 457.355469 476.378906 454.714844 476.257812 C 449.238281 476.015625 444.246094 475.886719 439.449219 475.863281 C 438.667969 475.859375 437.847656 475.859375 437.007812 475.859375 C 433.117188 475.859375 428.925781 475.898438 424.199219 475.972656 C 422.757812 475.996094 421.269531 476.050781 419.835938 476.105469 C 417.894531 476.175781 415.890625 476.25 413.925781 476.25 C 412.117188 476.261719 410.308594 476.179688 408.507812 476 C 408.191406 475.980469 407.933594 475.738281 407.898438 475.421875 C 407.863281 475.121094 408.050781 474.84375 408.339844 474.757812 C 412.671875 473.261719 417.457031 472.671875 422.082031 472.105469 C 422.617188 472.039062 423.167969 471.96875 423.710938 471.902344 C 428.789062 471.261719 434.085938 470.78125 439.449219 470.472656 C 445.191406 470.140625 450.507812 469.964844 455.699219 469.925781 C 456.507812 469.921875 457.328125 469.917969 458.136719 469.917969 C 459.414062 469.917969 460.710938 469.925781 462 469.941406 L 463.574219 469.960938 C 463.917969 469.964844 464.257812 469.964844 464.582031 469.964844 C 466.8125 469.964844 468.738281 469.964844 470.542969 471.558594 C 471.136719 472.066406 471.449219 472.820312 471.394531 473.59375 C 471.316406 474.605469 470.789062 475.53125 469.957031 476.113281 C 468.960938 476.769531 467.78125 477.09375 466.589844 477.039062 Z M 392.523438 464.449219 L 392.347656 464.445312 C 391.375 464.445312 390.421875 464.1875 389.582031 463.695312 L 388.472656 462.839844 C 387.800781 462.167969 387.316406 461.335938 387.0625 460.421875 L 386.863281 458.964844 C 386.957031 456.042969 389.253906 453.667969 392.175781 453.480469 L 392.347656 453.484375 C 393.253906 453.480469 394.148438 453.703125 394.945312 454.132812 L 395.117188 454.230469 L 396.226562 455.085938 C 396.898438 455.757812 397.382812 456.589844 397.636719 457.503906 L 397.832031 458.960938 C 397.742188 461.886719 395.441406 464.261719 392.523438 464.445312 Z M 412.089844 351.175781 L 412.085938 351.175781 C 412.046875 351.175781 412.003906 351.175781 411.960938 351.175781 C 410.652344 351.136719 409.410156 350.609375 408.472656 349.695312 C 407.554688 348.75 406.855469 347.605469 406.4375 346.351562 C 405.414062 343.597656 405.144531 340.175781 405.003906 338.335938 C 404.824219 335.953125 405.019531 333.558594 405.582031 331.238281 C 406.125 328.914062 407.09375 326.707031 408.433594 324.730469 C 408.707031 324.265625 409.199219 323.980469 409.738281 323.96875 C 410.277344 323.988281 410.777344 324.242188 411.109375 324.667969 C 411.40625 325.011719 411.53125 325.46875 411.449219 325.914062 C 411.539062 330.144531 411.769531 333.703125 412.605469 337.304688 C 412.976562 339.058594 413.5625 340.753906 414.351562 342.359375 L 414.695312 343.027344 C 415.769531 345.152344 416.546875 347.097656 415.144531 349.347656 C 414.816406 349.875 414.371094 350.324219 413.84375 350.652344 C 413.320312 350.988281 412.710938 351.167969 412.089844 351.175781 Z M 412.089844 351.175781 "/>
</g>
<path style=" stroke:none;fill-rule:nonzero;fill:rgb(100%,100%,100%);fill-opacity:1;" d="M 378.851562 120.6875 C 405.519531 120.6875 433.101562 142.679688 442.878906 156.714844 C 451.097656 168.511719 455.519531 221.867188 455.519531 257.921875 C 455.519531 265.464844 459.433594 279.679688 458.292969 286.890625 C 454.109375 313.324219 435.886719 335.492188 399.816406 335.492188 C 363.746094 335.492188 337.886719 320.28125 311.078125 279.441406 C 298.066406 279.441406 291.765625 268.828125 291.671875 252.078125 C 291.582031 235.332031 304.230469 229.238281 304.230469 229.238281 C 304.230469 229.238281 299.71875 163.140625 311.078125 145.929688 C 322.433594 128.722656 352.183594 120.6875 378.851562 120.6875 Z M 378.851562 120.6875 "/>
<path style=" stroke:none;fill-rule:nonzero;fill:rgb(0%,0%,0%);fill-opacity:1;" d="M 403.425781 335.414062 C 399.246094 335.421875 395.074219 335.042969 390.960938 334.285156 C 386.902344 333.535156 382.941406 332.332031 379.152344 330.695312 C 375.390625 329.074219 371.875 326.9375 368.699219 324.355469 C 365.4375 321.679688 362.613281 318.507812 360.328125 314.960938 C 360.273438 314.886719 360.265625 314.785156 360.308594 314.703125 C 360.367188 314.609375 360.46875 314.550781 360.578125 314.554688 C 360.648438 314.554688 360.714844 314.578125 360.769531 314.621094 C 362.828125 316.292969 365.027344 317.785156 367.339844 319.085938 C 369.597656 320.34375 371.949219 321.429688 374.371094 322.332031 C 379.304688 324.117188 384.417969 325.355469 389.621094 326.023438 C 393.058594 326.5 396.523438 326.738281 399.992188 326.734375 C 403.878906 326.734375 407.757812 326.441406 411.597656 325.863281 C 415.457031 325.285156 419.261719 324.40625 422.984375 323.238281 C 426.679688 322.082031 430.273438 320.613281 433.722656 318.851562 C 437.140625 317.105469 440.386719 315.039062 443.410156 312.683594 C 446.960938 309.886719 458.425781 272.140625 458 266.828125 C 457.925781 264.148438 457.546875 241.125 457.601562 237.121094 C 457.703125 229.109375 457.382812 220.664062 456.652344 212.019531 C 455.875 202.832031 454.300781 193.628906 452.78125 184.730469 C 451.769531 178.835938 450.730469 172.738281 449.929688 166.707031 C 449.46875 167.136719 448.863281 167.378906 448.234375 167.382812 C 447.804688 167.378906 447.378906 167.269531 447 167.0625 L 446.882812 167 L 446.273438 166.652344 C 446.238281 166.652344 446.199219 166.65625 446.164062 166.660156 C 445.289062 166.746094 444.386719 166.789062 443.480469 166.789062 C 440.144531 166.769531 436.835938 166.246094 433.660156 165.238281 C 429.488281 163.953125 425.582031 161.9375 422.117188 159.28125 C 421.476562 162.621094 421.160156 166.011719 421.179688 169.410156 C 421.1875 170.140625 420.882812 170.84375 420.347656 171.339844 C 419.828125 171.804688 419.15625 172.058594 418.460938 172.054688 C 417.996094 172.054688 417.539062 171.945312 417.128906 171.734375 C 409.207031 167.707031 401.613281 163.0625 394.417969 157.847656 L 393.890625 160.539062 L 393.886719 160.566406 C 393.238281 163.90625 392.558594 167.359375 391.894531 170.761719 C 391.78125 171.324219 391.449219 171.820312 390.972656 172.140625 C 390.5 172.460938 389.945312 172.632812 389.375 172.628906 C 388.925781 172.636719 388.488281 172.519531 388.097656 172.300781 C 382.75 169.191406 378.050781 165.078125 374.261719 160.1875 C 373.359375 161.914062 372.632812 163.292969 371.984375 164.523438 L 370.832031 166.683594 C 369.671875 168.851562 368.15625 171.164062 365.691406 171.835938 C 365.300781 171.945312 364.894531 172 364.488281 172 C 363.480469 171.996094 362.503906 171.636719 361.734375 170.988281 C 360.9375 170.320312 360.332031 169.449219 359.984375 168.472656 C 359.722656 167.757812 359.46875 166.996094 359.234375 166.207031 C 357.007812 171.324219 354.457031 176.292969 351.601562 181.082031 C 347.699219 187.589844 342.976562 193.585938 338.410156 199.382812 C 337.949219 199.96875 337.488281 200.554688 337.027344 201.140625 C 336.65625 201.660156 336.058594 201.972656 335.417969 201.984375 C 334.113281 201.984375 332.738281 200.679688 332.582031 199.300781 C 332.464844 198.226562 332.359375 197.113281 332.261719 195.894531 C 328.789062 202.898438 325.761719 208.5625 322.746094 213.710938 L 323.234375 215.617188 C 324.21875 219.578125 325.105469 223.628906 325.960938 227.546875 C 326.320312 229.199219 326.691406 230.90625 327.070312 232.59375 C 327.304688 233.785156 327.058594 235.019531 326.386719 236.03125 C 325.929688 236.734375 325.199219 237.214844 324.371094 237.34375 C 323.601562 237.472656 322.84375 237.640625 322.097656 237.847656 C 320.992188 238.183594 319.851562 238.382812 318.695312 238.433594 C 318.046875 238.4375 317.402344 238.332031 316.789062 238.125 C 314.558594 237.359375 313.71875 235.667969 312.828125 233.878906 C 312.578125 233.378906 312.320312 232.859375 312.027344 232.347656 C 311.761719 231.890625 311.453125 231.457031 311.113281 231.050781 L 311.027344 231.160156 C 310.976562 231.230469 310.890625 231.269531 310.804688 231.269531 C 310.671875 231.265625 310.550781 231.199219 310.476562 231.089844 C 310.417969 231.011719 310.40625 230.910156 310.441406 230.820312 L 310.589844 230.457031 C 309.757812 229.613281 308.878906 228.824219 307.949219 228.089844 C 307.5625 227.769531 307.160156 227.441406 306.773438 227.105469 C 306.007812 226.980469 305.234375 226.917969 304.460938 226.917969 C 302.304688 226.875 300.175781 227.378906 298.265625 228.382812 C 297.101562 229.074219 296.058594 229.953125 295.179688 230.984375 C 294.308594 232.011719 293.582031 233.152344 293.019531 234.375 C 291.890625 236.847656 291.304688 239.53125 291.296875 242.25 C 291.320312 248.757812 293.089844 255.140625 296.414062 260.738281 C 297.125 261.917969 297.984375 263 298.972656 263.960938 C 299.957031 264.921875 301.121094 265.6875 302.394531 266.210938 C 303.707031 266.675781 305.074219 266.96875 306.460938 267.085938 C 307.789062 267.203125 309.101562 267.472656 310.367188 267.890625 C 311.292969 268.222656 312.027344 268.945312 312.375 269.867188 C 312.652344 270.640625 312.554688 271.496094 312.117188 272.191406 C 312.070312 272.273438 312.015625 272.351562 311.964844 272.425781 C 311.941406 272.464844 311.914062 272.5 311.890625 272.535156 L 312.667969 273.566406 C 313.160156 274.222656 313.734375 275.007812 314.28125 275.84375 C 315.113281 276.796875 315.984375 277.742188 316.824219 278.660156 C 317.332031 279.214844 317.855469 279.785156 318.367188 280.351562 C 320.074219 282.242188 321.773438 284.199219 323.421875 286.09375 L 323.425781 286.101562 C 324.191406 286.980469 324.980469 287.890625 325.765625 288.785156 C 327.792969 291.101562 330.121094 293.515625 333.085938 296.386719 C 334.097656 297.367188 335.234375 298.300781 336.335938 299.199219 C 337.882812 300.398438 339.332031 301.71875 340.671875 303.140625 C 341.328125 303.890625 341.820312 304.765625 342.117188 305.714844 C 342.417969 306.617188 342.472656 307.582031 342.273438 308.507812 C 341.976562 309.75 341.074219 310.757812 339.871094 311.179688 C 339.261719 311.425781 338.617188 311.554688 337.960938 311.554688 C 335.121094 311.554688 332.550781 309.148438 330.488281 307.214844 C 330.296875 307.035156 330.097656 306.847656 329.90625 306.671875 L 329.796875 306.570312 C 324.933594 302.15625 320.699219 297.097656 317.203125 291.539062 C 315.375 292.757812 313.222656 293.402344 311.023438 293.394531 C 309.042969 293.425781 307.101562 292.855469 305.449219 291.761719 C 303.59375 290.40625 302.246094 288.464844 301.625 286.253906 C 301.042969 286.390625 300.449219 286.460938 299.851562 286.46875 L 299.75 286.46875 C 299.382812 286.679688 299.082031 286.847656 298.800781 286.996094 C 297.980469 287.425781 297.070312 287.65625 296.140625 287.664062 C 295.28125 287.675781 294.433594 287.441406 293.699219 286.992188 C 292.925781 286.5 292.328125 285.773438 291.992188 284.921875 C 291.507812 283.648438 291.417969 282.265625 291.730469 280.941406 C 292.03125 279.605469 292.445312 278.296875 292.976562 277.03125 L 293.171875 276.527344 C 293.71875 275.042969 294.34375 273.585938 295.046875 272.167969 C 292.976562 270.585938 291.183594 268.671875 289.738281 266.507812 C 287.140625 262.5625 285.28125 258.179688 284.242188 253.570312 C 283.6875 251.230469 283.324219 248.847656 283.164062 246.449219 C 283 244.152344 283.058594 241.847656 283.332031 239.5625 C 283.679688 236.839844 284.472656 234.191406 285.675781 231.726562 C 286.28125 230.484375 286.996094 229.300781 287.816406 228.191406 C 288.628906 227.09375 289.554688 226.085938 290.578125 225.183594 L 290.429688 224.792969 C 289.242188 221.910156 288.285156 218.941406 287.570312 215.910156 C 286.839844 212.289062 286.332031 208.632812 286.046875 204.949219 C 285.328125 197.195312 285.476562 189.382812 286.488281 181.660156 C 287.394531 174.414062 289.070312 167.285156 291.496094 160.398438 C 293.914062 153.515625 297.226562 146.976562 301.351562 140.957031 C 300.148438 139.585938 299.175781 138.03125 298.472656 136.347656 C 298.148438 135.519531 297.941406 134.648438 297.863281 133.761719 C 297.710938 131.90625 298.175781 130.058594 299.1875 128.496094 C 299.679688 127.730469 300.328125 127.070312 301.085938 126.566406 C 301.550781 126.289062 302.050781 126.078125 302.574219 125.9375 C 302.992188 125.820312 303.394531 125.660156 303.785156 125.46875 L 304.039062 125.328125 C 304.265625 125.195312 304.246094 125.152344 304.148438 124.910156 C 304.042969 124.660156 303.960938 124.394531 303.902344 124.128906 C 303.421875 121.917969 303.472656 120.027344 304.054688 118.503906 C 304.730469 116.730469 306.117188 115.515625 308.179688 114.894531 C 308.871094 114.683594 309.589844 114.578125 310.316406 114.578125 C 311.992188 114.609375 313.625 115.117188 315.023438 116.042969 C 316.457031 116.960938 317.71875 118.125 318.75 119.476562 C 322.101562 117.191406 325.742188 115.359375 329.574219 114.023438 C 333.335938 112.640625 337.207031 111.554688 341.171875 110.476562 C 349.6875 108.222656 358.375 106.671875 367.148438 105.84375 C 372.371094 105.320312 377.613281 105.0625 382.863281 105.066406 C 389.125 105.078125 395.378906 105.40625 401.605469 106.050781 C 407.554688 106.65625 413.667969 107.523438 420.300781 108.707031 C 421.476562 108.878906 422.425781 109.75 422.703125 110.902344 C 427.683594 111.128906 432.75 111.441406 437.648438 111.746094 C 440.929688 111.953125 444.324219 112.164062 447.660156 112.347656 C 448.363281 112.378906 449.046875 112.585938 449.648438 112.945312 C 450.773438 113.628906 451.46875 114.839844 451.492188 116.152344 C 451.503906 116.855469 451.339844 117.554688 451.011719 118.175781 C 450.730469 118.726562 450.4375 119.257812 450.160156 119.75 L 450.527344 119.628906 C 451.855469 119.167969 453.25 118.917969 454.660156 118.886719 C 455.875 118.867188 457.078125 119.148438 458.160156 119.707031 C 459.640625 120.480469 460.789062 121.765625 461.394531 123.320312 C 462 124.867188 462.136719 126.558594 461.789062 128.183594 C 461.601562 129.019531 461.332031 129.832031 460.984375 130.613281 C 461.234375 130.597656 461.480469 130.589844 461.71875 130.589844 C 462.15625 130.589844 462.59375 130.617188 463.03125 130.675781 C 463.90625 130.789062 464.757812 131.046875 465.546875 131.441406 C 467.902344 132.621094 469.429688 134.988281 469.53125 137.621094 C 469.660156 140.230469 468.960938 142.992188 467.449219 145.824219 C 466.011719 148.441406 464.167969 150.8125 461.980469 152.84375 C 462.621094 154.167969 462.828125 155.65625 462.574219 157.105469 C 462.34375 158.484375 461.691406 159.757812 460.710938 160.753906 C 459.734375 161.722656 458.582031 162.496094 457.316406 163.039062 C 458.417969 166.425781 458.851562 169.992188 458.585938 173.542969 C 458.523438 174.140625 458.261719 174.699219 457.835938 175.125 C 457.425781 175.550781 456.902344 175.851562 456.324219 175.984375 C 458.371094 181.71875 459.996094 187.597656 461.1875 193.570312 C 462.269531 198.824219 463.1875 204.539062 464.074219 211.550781 C 465.132812 220.03125 465.691406 228.570312 465.742188 237.117188 C 465.773438 240.984375 465.710938 244.882812 465.550781 248.703125 L 465.484375 250.152344 C 465.441406 251.027344 465.40625 251.921875 465.375 252.789062 C 465 270.324219 458 315.296875 446.464844 321.742188 C 441.90625 325.035156 436.964844 327.765625 431.746094 329.875 C 426.566406 331.988281 421.164062 333.507812 415.644531 334.410156 C 411.605469 335.074219 407.519531 335.40625 403.425781 335.414062 Z M 311.792969 250.582031 C 311.097656 250.570312 310.421875 250.355469 309.851562 249.957031 C 307.757812 248.550781 306.335938 246.375 304.964844 244.269531 C 304.832031 244.066406 304.679688 243.835938 304.535156 243.613281 L 304.378906 243.375 C 304.242188 243.171875 304.109375 242.960938 303.980469 242.757812 L 303.976562 242.753906 C 303.476562 241.894531 302.859375 241.105469 302.140625 240.414062 L 301.933594 240.234375 C 301.632812 239.957031 301.277344 239.742188 300.890625 239.613281 C 300.710938 239.566406 300.527344 239.542969 300.34375 239.542969 C 299.933594 239.546875 299.527344 239.636719 299.152344 239.808594 C 298.785156 239.964844 298.492188 240.257812 298.339844 240.625 L 298.308594 240.71875 C 298.265625 240.898438 298.097656 241.023438 297.914062 241.019531 C 297.683594 241.027344 297.488281 240.847656 297.480469 240.617188 C 297.480469 240.613281 297.480469 240.609375 297.480469 240.605469 C 297.453125 239.371094 297.929688 238.175781 298.804688 237.300781 C 299.824219 236.304688 301.199219 235.75 302.625 235.765625 C 302.953125 235.765625 303.285156 235.792969 303.609375 235.851562 C 305.6875 236.210938 307.402344 237.453125 308.980469 238.695312 L 309.761719 239.3125 L 310.179688 239.640625 L 310.191406 239.648438 C 312 241.0625 314.050781 242.664062 315.132812 244.679688 C 315.777344 245.9375 315.707031 247.441406 314.949219 248.632812 C 314.613281 249.195312 314.15625 249.675781 313.605469 250.03125 C 313.066406 250.382812 312.4375 250.574219 311.792969 250.582031 Z M 311.792969 250.582031 "/>
<path style=" stroke:none;fill-rule:nonzero;fill:rgb(0%,0%,0%);fill-opacity:1;" d="M 419.441406 256.375 C 417.308594 256.339844 415.199219 255.914062 413.21875 255.121094 C 410.605469 254.070312 408.140625 252.675781 405.898438 250.96875 C 405.378906 250.566406 405.015625 249.988281 404.878906 249.347656 C 404.757812 248.738281 404.804688 248.105469 405.023438 247.523438 C 405.269531 246.832031 405.695312 246.214844 406.253906 245.742188 C 406.785156 245.273438 407.464844 245.007812 408.175781 244.992188 C 408.703125 244.996094 409.21875 245.15625 409.660156 245.449219 C 409.820312 245.570312 409.984375 245.699219 410.160156 245.832031 C 411.613281 247 413.144531 248.066406 414.742188 249.019531 C 416.8125 250.195312 418.609375 250.769531 420.234375 250.769531 C 421.03125 250.773438 421.820312 250.617188 422.558594 250.3125 C 423.375 249.957031 424.109375 249.433594 424.71875 248.78125 C 425.886719 247.269531 426.347656 245.324219 425.976562 243.449219 C 425.535156 241.65625 424.609375 240.023438 423.300781 238.71875 C 422.101562 237.453125 420.742188 236.355469 419.25 235.453125 C 418.835938 235.097656 418.699219 234.515625 418.910156 234.011719 C 419.023438 233.65625 419.242188 233.34375 419.535156 233.113281 C 419.878906 232.847656 420.300781 232.710938 420.730469 232.71875 C 420.875 232.71875 421.019531 232.730469 421.160156 232.753906 C 422.847656 233.023438 424.464844 233.609375 425.933594 234.480469 C 427.195312 235.238281 428.289062 236.242188 429.148438 237.4375 C 430.742188 239.730469 431.46875 242.515625 431.195312 245.292969 C 431.078125 246.714844 430.722656 248.109375 430.148438 249.414062 C 429.574219 250.726562 428.773438 251.925781 427.78125 252.957031 C 425.59375 255.199219 422.574219 256.4375 419.441406 256.375 Z M 419.441406 256.375 "/>
<path style=" stroke:none;fill-rule:nonzero;fill:rgb(0%,0%,0%);fill-opacity:1;" d="M 363.734375 237 C 363.242188 236.976562 362.808594 236.664062 362.636719 236.199219 C 362.503906 235.847656 362.617188 235.449219 362.921875 235.226562 C 365.09375 233.460938 367.433594 231.917969 369.914062 230.621094 C 372.414062 229.292969 375.027344 228.1875 377.722656 227.320312 C 377.335938 226.703125 377.089844 226.007812 376.996094 225.28125 C 376.898438 224.574219 376.984375 223.847656 377.242188 223.179688 C 377.328125 222.890625 377.4375 222.613281 377.53125 222.378906 L 377.753906 221.835938 C 377.773438 221.582031 377.824219 221.328125 377.894531 221.082031 L 377.90625 221.007812 L 377.914062 221.011719 C 378.113281 220.367188 378.460938 219.78125 378.933594 219.300781 C 379.402344 218.8125 379.992188 218.457031 380.640625 218.273438 C 380.96875 218.183594 381.300781 218.136719 381.640625 218.136719 C 382.164062 218.136719 382.6875 218.246094 383.167969 218.453125 C 384.035156 218.621094 384.832031 219.039062 385.464844 219.652344 C 386.105469 220.257812 386.578125 221.011719 386.847656 221.851562 C 386.886719 221.992188 386.929688 222.136719 386.980469 222.273438 L 387.058594 222.480469 L 386.851562 221.953125 C 386.925781 222.257812 387.046875 222.550781 387.203125 222.824219 C 387.332031 223.050781 387.4375 223.289062 387.519531 223.539062 C 387.703125 224.210938 387.761719 224.914062 387.691406 225.605469 C 388.328125 225.613281 388.851562 225.636719 389.335938 225.679688 L 389.867188 225.726562 C 392.800781 226 396.078125 226.507812 397.835938 229.0625 C 398.089844 229.453125 398.230469 229.902344 398.234375 230.367188 C 398.246094 230.847656 398.152344 231.328125 397.960938 231.769531 C 397.652344 232.589844 396.941406 233.191406 396.085938 233.367188 C 395.757812 233.414062 395.429688 233.441406 395.097656 233.4375 C 393.789062 233.378906 392.492188 233.121094 391.257812 232.679688 C 390.234375 232.339844 389.183594 232.089844 388.117188 231.941406 C 387.222656 231.84375 386.328125 231.792969 385.429688 231.796875 C 383.65625 231.800781 381.890625 231.96875 380.148438 232.289062 C 377.003906 232.9375 373.914062 233.804688 370.890625 234.882812 C 368.863281 235.550781 366.765625 236.246094 364.65625 236.796875 L 363.945312 236.976562 L 363.945312 236.972656 C 363.875 236.992188 363.804688 237 363.734375 237 Z M 446.898438 232.800781 C 446.078125 232.824219 445.324219 232.347656 444.992188 231.59375 L 444.941406 231.488281 C 444.3125 230.023438 442.585938 229.28125 439.808594 229.28125 C 438.980469 229.289062 438.148438 229.34375 437.324219 229.445312 C 435.746094 229.65625 434.191406 229.996094 432.671875 230.457031 C 432.117188 230.617188 431.578125 230.789062 431.074219 230.953125 L 430.542969 231.125 C 430.308594 231.199219 429.386719 231.695312 429.40625 231.824219 C 429.410156 231.84375 429.4375 231.855469 429.492188 231.855469 C 429.5625 231.851562 429.632812 231.84375 429.703125 231.824219 C 429.722656 231.824219 429.738281 231.820312 429.753906 231.820312 C 429.875 231.824219 429.976562 231.910156 430 232.027344 C 430.027344 232.121094 429.976562 232.21875 429.886719 232.253906 C 429.699219 232.34375 429.496094 232.390625 429.289062 232.390625 C 428.871094 232.382812 428.472656 232.199219 428.191406 231.886719 C 427.851562 231.53125 427.675781 231.050781 427.703125 230.5625 C 427.816406 228.769531 430.335938 227.691406 432.003906 226.976562 C 432.226562 226.882812 432.4375 226.792969 432.621094 226.707031 L 432.714844 226.664062 C 433.328125 226.382812 433.957031 226.117188 434.582031 225.878906 C 434.214844 225.320312 433.90625 224.722656 433.671875 224.097656 C 433.4375 223.503906 433.273438 222.882812 433.191406 222.253906 C 433.105469 221.941406 433.105469 221.613281 433.191406 221.304688 L 433.203125 221.210938 C 433.160156 221 433.140625 220.785156 433.140625 220.570312 L 433.132812 220.488281 L 433.140625 220.488281 C 433.164062 219.734375 433.457031 219.019531 433.96875 218.46875 C 434.46875 217.953125 435.15625 217.664062 435.875 217.664062 C 436.613281 217.683594 437.328125 217.9375 437.910156 218.394531 L 438.070312 218.519531 C 439.191406 219.109375 440.113281 220.011719 440.734375 221.117188 C 441.386719 222.089844 441.753906 223.222656 441.808594 224.390625 C 444.910156 224.402344 447.414062 225.433594 449.257812 227.460938 C 449.84375 228.105469 450.386719 229.226562 450 230.269531 L 449.785156 230.851562 C 449.289062 232.011719 448.160156 232.773438 446.898438 232.800781 Z M 361.222656 217.898438 C 360.707031 217.875 360.257812 217.535156 360.09375 217.046875 C 359.71875 215.789062 359.761719 214.441406 360.21875 213.210938 C 360.640625 211.960938 361.203125 210.761719 361.902344 209.640625 C 363.46875 207.171875 365.589844 205.097656 368.09375 203.585938 C 370.84375 201.847656 373.851562 200.886719 376.699219 200.050781 L 377.449219 199.832031 C 378 199.671875 378.558594 199.492188 379.101562 199.320312 C 380.878906 198.753906 382.714844 198.171875 384.457031 198.171875 C 386.050781 198.144531 387.59375 198.726562 388.769531 199.792969 C 389.457031 200.445312 389.882812 201.320312 389.976562 202.261719 C 390.113281 203.191406 389.921875 204.144531 389.4375 204.949219 C 388.691406 206.164062 387.53125 207.066406 386.171875 207.492188 C 384.855469 207.839844 383.5 208.015625 382.136719 208.007812 C 381.5625 208.035156 380.96875 208.058594 380.371094 208.109375 C 375.40625 208.632812 370.664062 210.445312 366.617188 213.371094 C 365.796875 213.988281 365.042969 214.6875 364.355469 215.449219 C 363.597656 216.316406 362.730469 217.082031 361.78125 217.734375 C 361.613281 217.839844 361.417969 217.898438 361.222656 217.898438 Z M 446.597656 212.605469 C 445.1875 212.550781 443.878906 211.847656 443.054688 210.703125 L 442.976562 210.601562 C 441.929688 209.210938 440.71875 207.953125 439.363281 206.859375 C 438.007812 205.765625 436.511719 204.851562 434.917969 204.140625 C 433.316406 203.414062 431.632812 202.890625 429.902344 202.578125 L 429.351562 202.484375 C 428.785156 202.378906 428.210938 202.320312 427.632812 202.304688 C 427.417969 202.300781 427.203125 202.320312 426.992188 202.355469 C 426.625 202.402344 426.273438 202.523438 425.957031 202.714844 C 426.011719 202.835938 426 202.980469 425.921875 203.089844 C 425.84375 203.21875 425.707031 203.296875 425.554688 203.300781 C 425.484375 203.300781 425.417969 203.28125 425.355469 203.246094 C 424.75 202.96875 424.316406 202.410156 424.207031 201.753906 C 424.183594 200.878906 424.582031 200.042969 425.269531 199.503906 C 426.117188 198.726562 427.417969 198.164062 429.136719 197.832031 C 430.550781 197.578125 431.984375 197.460938 433.417969 197.476562 L 433.421875 197.476562 C 436.710938 197.503906 439.9375 198.363281 442.804688 199.972656 C 445.675781 201.558594 448.144531 203.792969 450.007812 206.492188 C 450.554688 207.324219 450.730469 208.347656 450.484375 209.3125 C 450.242188 210.453125 449.539062 211.445312 448.546875 212.0625 C 447.957031 212.414062 447.285156 212.601562 446.597656 212.605469 Z M 446.597656 212.605469 "/>
<path style=" stroke:none;fill-rule:nonzero;fill:rgb(0%,0%,0%);fill-opacity:1;" d="M 412.253906 283.949219 C 405.453125 284.347656 398.738281 283.769531 392.949219 282.285156 C 389.941406 281.539062 387.210938 280.570312 384.839844 279.417969 C 382.769531 278.421875 381.066406 277.253906 379.800781 275.960938 C 378.554688 274.683594 377.886719 273.273438 377.839844 271.816406 C 377.828125 271.511719 378.039062 271.203125 378.433594 270.949219 C 378.839844 270.691406 379.390625 270.496094 380.011719 270.390625 C 380.238281 270.351562 380.476562 270.328125 380.714844 270.3125 C 381.117188 270.289062 381.515625 270.308594 381.886719 270.367188 C 382.4375 270.453125 382.886719 270.636719 383.15625 270.882812 C 383.75 271.214844 384.535156 271.652344 385.320312 272.074219 C 387.949219 273.527344 390.945312 274.808594 394.257812 275.886719 C 397.503906 276.914062 401.246094 277.546875 405.210938 277.742188 C 406.851562 277.824219 408.523438 277.820312 410.195312 277.726562 C 413.058594 277.5625 415.886719 277.152344 418.546875 276.519531 C 423.054688 275.4375 427.019531 273.835938 430.066406 271.867188 C 431.195312 271.089844 432.929688 270.570312 434.804688 270.445312 L 434.84375 270.445312 C 436.777344 270.363281 438.632812 270.652344 440.011719 271.25 C 441.460938 271.835938 442.359375 272.6875 442.539062 273.632812 C 442.65625 274.546875 441.992188 275.480469 440.703125 276.210938 C 438.320312 277.621094 435.582031 278.882812 432.5625 279.964844 C 429.550781 281.042969 426.292969 281.929688 422.871094 282.609375 C 419.4375 283.292969 415.863281 283.742188 412.253906 283.949219 Z M 412.253906 283.949219 "/>
</g>
</svg>
