<?xml version="1.0" encoding="UTF-8"?>
<svg xmlns="http://www.w3.org/2000/svg" xmlns:xlink="http://www.w3.org/1999/xlink" width="px" height="px" viewBox="0 0 120 162" version="1.1">
<g id="surface1">
<path style=" stroke:none;fill-rule:evenodd;fill:rgb(100%,100%,100%);fill-opacity:1;" d="M 96.398438 135.738281 C 96.140625 133.355469 95.984375 130.960938 95.894531 128.566406 C 95.800781 126.175781 95.921875 123.757812 95.972656 121.367188 C 96.078125 116.5 96.25 111.625 95.863281 106.769531 C 95.5 102.179688 94.660156 97.621094 93.332031 93.210938 C 92.6875 91.0625 92.007812 88.828125 90.945312 86.84375 C 89.878906 84.847656 88.1875 83.519531 86.332031 82.300781 C 84.351562 81.003906 82.390625 79.683594 80.421875 78.375 C 78.769531 77.273438 75.792969 75.996094 74.4375 74.523438 C 73.007812 72.980469 72.742188 69.148438 71.789062 67.316406 C 70.863281 65.53125 68.242188 64.367188 66.226562 64.367188 C 62.886719 64.367188 60.355469 64.195312 57.609375 67.289062 C 56.238281 68.828125 57.328125 70.386719 55.894531 71.867188 C 54.574219 73.230469 51.195312 74.628906 49.492188 75.417969 C 47.457031 76.363281 45.367188 77.199219 43.246094 77.941406 C 41.082031 78.699219 38.867188 79.265625 36.691406 79.980469 C 34.605469 80.667969 31.882812 83.496094 30.265625 84.996094 C 28.761719 86.386719 28.386719 86.230469 27.246094 87.921875 C 24.734375 91.632812 22.222656 95.382812 20.222656 99.402344 C 19.226562 101.402344 18.261719 103.507812 17.902344 105.730469 C 17.515625 108.101562 17.898438 110.390625 18.523438 112.683594 C 19.160156 115.019531 21.179688 117.246094 21.835938 119.574219 C 22.140625 120.648438 21.097656 121.820312 21.578125 122.832031 C 21.816406 123.335938 22.117188 123.785156 22.460938 124.226562 C 22.726562 124.566406 23.757812 124.492188 23.890625 124.90625 C 24.023438 125.324219 23.277344 126.195312 23.265625 126.628906 C 23.25 127.25 23.226562 127.871094 23.207031 128.492188 L 23.085938 132.164062 C 23.007812 134.578125 22.929688 136.988281 22.847656 139.402344 C 22.824219 140.191406 22.785156 140.960938 22.972656 141.707031 C 22.90625 141.644531 22.839844 141.574219 22.78125 141.496094 C 22.609375 141.273438 22.242188 141.464844 22.386719 141.726562 C 22.632812 142.167969 22.988281 142.480469 23.402344 142.703125 C 23.882812 143.414062 96.816406 145 97.171875 142.921875 C 97.375 141.757812 97.007812 140.511719 96.863281 139.351562 C 96.710938 138.148438 96.527344 136.945312 96.398438 135.738281 Z M 96.398438 135.738281 "/>
<path style=" stroke:none;fill-rule:evenodd;fill:rgb(0%,0%,0%);fill-opacity:1;" d="M 22.3125 105.734375 C 22.492188 105.222656 23.308594 105.445312 23.128906 105.957031 C 22.203125 108.605469 22.859375 111.484375 23.859375 114.011719 C 24.058594 114.519531 23.242188 114.738281 23.042969 114.238281 C 21.992188 111.578125 21.34375 108.511719 22.3125 105.734375 M 28.507812 120.851562 C 31.109375 121.21875 33.71875 121.445312 36.339844 121.628906 C 36.457031 121.636719 36.558594 121.617188 36.648438 121.578125 C 36.570312 122.78125 36.503906 123.984375 36.457031 125.1875 C 35.742188 125.167969 35.011719 125.214844 34.300781 125.195312 C 33.375 125.167969 32.449219 125.125 31.527344 125.050781 C 29.738281 124.917969 27.949219 124.703125 26.179688 124.402344 C 25.519531 124.292969 24.679688 124.226562 23.925781 124.003906 C 23.214844 123.796875 22.582031 123.453125 22.25 122.804688 C 21.964844 122.253906 21.914062 121.582031 21.914062 120.972656 C 21.914062 120.554688 21.984375 120.128906 22.027344 119.707031 C 22.082031 119.671875 22.132812 119.625 22.171875 119.574219 C 22.957031 119.824219 23.773438 119.996094 24.570312 120.164062 C 25.871094 120.441406 27.191406 120.667969 28.507812 120.851562 M 27.035156 111.082031 C 27.050781 111.886719 27.273438 112.621094 27.710938 113.300781 C 28.003906 113.761719 27.273438 114.1875 26.980469 113.730469 C 26.46875 112.929688 26.207031 112.03125 26.191406 111.082031 C 26.183594 110.535156 27.027344 110.539062 27.035156 111.082031 M 93.8125 119.890625 C 94.164062 119.910156 94.519531 119.925781 94.871094 119.941406 C 95.183594 120.210938 95.617188 120.347656 96.011719 120.261719 C 96.023438 120.296875 96.035156 120.335938 96.046875 120.378906 C 96.117188 120.648438 96.152344 120.941406 96.191406 121.21875 C 96.234375 121.492188 96.265625 121.765625 96.285156 122.039062 C 96.296875 122.179688 96.363281 122.492188 96.277344 122.613281 C 96.203125 122.722656 96.035156 122.710938 95.917969 122.726562 C 95.605469 122.757812 95.289062 122.773438 94.972656 122.800781 C 94.378906 122.851562 93.785156 122.90625 93.191406 122.957031 C 92.609375 123.007812 91.96875 122.992188 91.398438 123.144531 C 91.300781 122.003906 91.214844 120.859375 91.132812 119.71875 C 92.011719 119.847656 92.933594 119.84375 93.8125 119.890625 M 19.855469 117.996094 C 20.210938 118.683594 20.535156 119.359375 21.214844 119.769531 C 21.304688 119.824219 21.402344 119.851562 21.503906 119.859375 C 21.429688 120.183594 21.382812 120.519531 21.339844 120.828125 C 21.246094 121.507812 21.226562 122.210938 21.398438 122.878906 C 21.5625 123.53125 21.835938 124.113281 22.375 124.53125 C 22.625 124.726562 22.898438 124.875 23.1875 124.992188 C 23.140625 125.128906 23.109375 125.261719 23.125 125.410156 C 23.054688 125.757812 23.011719 126.109375 22.960938 126.445312 C 22.851562 127.195312 22.742188 127.945312 22.65625 128.695312 C 22.488281 130.191406 22.351562 131.6875 22.238281 133.191406 C 22.125 134.6875 22.046875 136.1875 21.976562 137.6875 C 21.941406 138.457031 21.914062 139.222656 21.882812 139.992188 C 21.855469 140.78125 21.726562 141.585938 22.074219 142.320312 C 22.355469 142.910156 23.308594 142.878906 23.597656 142.320312 C 23.96875 141.609375 23.859375 140.769531 23.867188 139.992188 C 23.878906 139.257812 23.890625 138.523438 23.90625 137.792969 C 23.9375 136.292969 23.984375 134.792969 24.023438 133.296875 C 24.058594 131.832031 24.101562 130.367188 24.132812 128.90625 C 24.148438 128.140625 24.148438 127.371094 24.152344 126.605469 C 24.152344 126.183594 24.171875 125.730469 24.140625 125.285156 C 24.402344 125.347656 24.671875 125.402344 24.933594 125.453125 C 26.941406 125.867188 28.972656 126.167969 31.011719 126.351562 C 32.039062 126.445312 33.066406 126.511719 34.097656 126.550781 C 34.851562 126.578125 35.636719 126.628906 36.402344 126.601562 C 36.34375 128.433594 36.316406 130.269531 36.320312 132.105469 C 36.320312 133.429688 36.339844 134.753906 36.371094 136.078125 C 36.390625 136.773438 36.40625 137.472656 36.425781 138.167969 C 36.4375 138.480469 36.4375 138.796875 36.457031 139.109375 C 36.464844 139.207031 36.476562 139.300781 36.496094 139.394531 C 36.425781 139.589844 36.367188 139.785156 36.320312 139.96875 C 36.085938 140.855469 36.085938 141.710938 36.191406 142.613281 C 36.28125 143.378906 36.925781 144.09375 37.777344 143.824219 C 37.914062 143.777344 38.054688 143.734375 38.191406 143.6875 C 39.445312 143.828125 40.707031 143.863281 41.980469 143.886719 C 43.84375 143.921875 45.703125 143.933594 47.566406 143.945312 C 51.214844 143.964844 54.867188 143.972656 58.519531 143.984375 C 65.855469 144.003906 73.195312 144.023438 80.535156 144.046875 C 82.570312 144.050781 84.605469 144.058594 86.644531 144.0625 C 87.699219 144.066406 88.75 144.066406 89.804688 144.109375 C 90.292969 144.125 90.785156 144.152344 91.277344 144.160156 C 91.847656 144.171875 92.351562 144.007812 92.894531 143.855469 C 93.203125 143.773438 93.324219 143.464844 93.257812 143.203125 C 93.75 143.320312 94.347656 143.070312 94.515625 142.515625 C 94.636719 142.113281 94.59375 141.675781 94.410156 141.304688 L 94.410156 141.300781 C 94.058594 139.074219 93.609375 136.855469 93.257812 134.625 C 92.871094 132.183594 92.5 129.734375 92.175781 127.285156 C 91.929688 125.433594 91.726562 126.746094 91.554688 124.886719 C 92.3125 124.945312 93.171875 124.714844 93.925781 124.613281 C 94.464844 124.546875 95.007812 124.488281 95.546875 124.414062 C 95.507812 124.960938 95.519531 125.515625 95.503906 126.039062 C 95.476562 127.078125 95.488281 128.113281 95.515625 129.152344 C 95.566406 131.15625 95.679688 129.988281 95.859375 131.984375 C 96.042969 133.996094 96.265625 136 96.539062 138 C 96.679688 139.03125 96.828125 140.0625 96.984375 141.089844 C 97.058594 141.570312 97.132812 142.046875 97.210938 142.527344 C 97.300781 143.09375 97.332031 143.628906 97.753906 144.054688 C 98.078125 144.375 98.734375 144.347656 98.949219 143.898438 C 99.21875 143.332031 99.097656 142.847656 98.996094 142.25 C 98.914062 141.769531 98.835938 141.292969 98.757812 140.8125 C 98.59375 139.789062 98.4375 138.761719 98.289062 137.734375 C 98.007812 135.75 97.742188 133.765625 97.5 131.78125 C 97.261719 129.777344 97.011719 130.945312 96.773438 128.945312 C 96.65625 127.933594 96.535156 126.925781 96.398438 125.917969 C 96.324219 125.402344 96.28125 124.847656 96.1875 124.316406 C 96.21875 124.3125 96.246094 124.304688 96.277344 124.300781 C 96.917969 124.183594 97.46875 123.820312 97.628906 123.160156 C 97.785156 122.527344 97.601562 121.796875 97.46875 121.175781 C 97.359375 120.648438 97.257812 119.972656 96.917969 119.519531 C 98.117188 117.988281 98.898438 116.066406 99.398438 114.214844 C 99.9375 112.199219 100.167969 110.097656 100.214844 108.015625 C 100.269531 105.601562 100.089844 103.203125 99.675781 100.84375 C 99.664062 100.34375 99.640625 99.84375 99.605469 99.34375 C 99.242188 94.445312 97.714844 88.648438 92.878906 86.359375 C 92.863281 86.347656 92.839844 86.339844 92.820312 86.332031 C 92.441406 85.878906 91.96875 85.46875 91.585938 85.089844 C 90.910156 84.414062 90.203125 83.765625 89.453125 83.171875 C 87.964844 81.988281 86.335938 81.046875 84.644531 80.199219 C 82.933594 79.339844 81.195312 78.535156 79.519531 77.597656 C 78.0625 76.777344 76.75 75.792969 75.503906 74.679688 C 74.105469 73.429688 73.109375 71.746094 72.71875 69.90625 C 72.699219 69.808594 72.554688 69.835938 72.554688 69.929688 C 72.453125 73.300781 74.726562 76.28125 77.347656 78.164062 C 80.476562 80.417969 84.257812 81.484375 87.433594 83.667969 C 88.222656 84.210938 88.960938 84.820312 89.664062 85.46875 C 88.585938 85.359375 87.492188 85.429688 86.480469 85.730469 C 86.085938 85.703125 85.6875 85.695312 85.289062 85.679688 C 84.375 85.632812 83.464844 85.589844 82.554688 85.550781 C 80.695312 85.46875 78.835938 85.394531 76.976562 85.328125 C 73.328125 85.199219 69.679688 85.101562 66.03125 85.035156 C 58.699219 84.90625 51.359375 84.882812 44.027344 85.09375 C 42.039062 85.152344 31.585938 84.753906 30.617188 84.867188 C 32.042969 83.632812 33.601562 82.628906 35.320312 81.800781 C 37.46875 80.769531 39.6875 80.078125 41.980469 79.449219 C 46.703125 78.152344 51.605469 76.902344 55.386719 73.609375 C 56.324219 72.789062 57.160156 71.847656 57.84375 70.804688 C 58.496094 69.808594 59.222656 68.535156 59.238281 67.320312 C 59.253906 66.457031 58.054688 66.144531 57.625 66.882812 C 57.359375 67.339844 57.230469 67.84375 57.011719 68.324219 C 56.796875 68.796875 56.542969 69.257812 56.257812 69.695312 C 55.699219 70.558594 55.007812 71.328125 54.253906 72.019531 C 52.644531 73.503906 50.695312 74.589844 48.679688 75.410156 C 44.105469 77.273438 39.101562 78.058594 34.765625 80.515625 C 32.867188 81.589844 31.050781 83.070312 29.910156 84.964844 C 29.726562 84.992188 29.542969 85.027344 29.363281 85.0625 C 29.496094 84.890625 29.636719 84.71875 29.773438 84.546875 C 29.863281 84.4375 29.722656 84.289062 29.613281 84.386719 C 27.457031 86.304688 25.472656 88.378906 23.671875 90.636719 C 21.949219 92.800781 20.34375 95.066406 19.207031 97.597656 C 17.164062 102.144531 16.714844 107.347656 17.769531 112.210938 C 18.058594 113.535156 18.460938 114.835938 18.980469 116.089844 C 19.246094 116.738281 19.535156 117.375 19.855469 117.996094 "/>
<path style=" stroke:none;fill-rule:evenodd;fill:rgb(100%,100%,100%);fill-opacity:1;" d="M 66.398438 23.140625 C 72.398438 23.140625 79.910156 29.984375 82.109375 32.898438 C 83.957031 35.347656 83.695312 47.960938 83.695312 55.445312 C 83.695312 57.011719 82.988281 59.972656 82.730469 61.46875 C 81.789062 66.957031 77.691406 71.558594 69.578125 71.558594 C 62.972656 71.558594 57.890625 69.464844 52.972656 64.109375 C 51.851562 62.890625 46.375 67.261719 45.253906 65.6875 C 42.328125 65.6875 39.882812 38.339844 45.628906 30.140625 C 51.371094 21.9375 60.402344 23.140625 66.398438 23.140625 Z M 66.398438 23.140625 "/>
<path style=" stroke:none;fill-rule:evenodd;fill:rgb(0%,0%,0%);fill-opacity:1;" d="M 48.371094 25.066406 C 51.835938 21.914062 56.453125 20.394531 61.113281 20.507812 C 63.527344 20.566406 65.929688 21.023438 68.207031 21.8125 C 69.347656 22.207031 70.453125 22.722656 71.507812 23.304688 C 71.886719 23.515625 72.238281 23.761719 72.574219 24.023438 L 72.660156 24.089844 C 73.566406 24.414062 74.375 24.996094 75.105469 25.683594 C 76.578125 25.5625 78.058594 25.695312 79.480469 26.148438 C 81.457031 26.78125 83.285156 27.9375 84.570312 29.582031 C 86.070312 31.496094 86.566406 33.816406 86.390625 36.210938 L 86.355469 36.617188 C 86.179688 38.734375 85.867188 41.457031 84.128906 42.847656 C 84 42.953125 83.851562 43.03125 83.703125 43.082031 C 84.820312 45 85.738281 47.125 86.289062 49.277344 C 88.382812 57.484375 86.773438 66.046875 84.25 73.960938 C 84.042969 74.613281 83.058594 75.046875 82.558594 74.410156 C 81.660156 73.269531 80.359375 72.402344 78.894531 72.238281 C 77.992188 72.136719 77.09375 72.320312 76.238281 71.910156 C 75.90625 71.746094 75.582031 71.484375 75.347656 71.164062 C 73.910156 71.707031 72.355469 71.964844 70.816406 71.902344 C 68.292969 71.800781 65.59375 70.925781 63.855469 69.003906 C 63.574219 68.699219 63.503906 68.351562 63.570312 68.039062 C 63.785156 67.960938 64.011719 67.902344 64.242188 67.867188 C 66.445312 69.167969 68.875 70.035156 71.484375 70.089844 C 72.992188 70.121094 74.464844 69.910156 75.6875 68.96875 C 75.953125 68.765625 76.195312 68.539062 76.417969 68.296875 C 78.976562 66.648438 80.78125 63.855469 81.636719 60.859375 C 82.433594 58.070312 82.335938 55.160156 82.0625 52.296875 L 81.917969 50.785156 C 81.707031 48.570312 81.511719 46.34375 81.457031 44.117188 L 81.472656 44.117188 C 82.011719 44.082031 82.015625 43.234375 81.472656 43.269531 C 80.066406 43.363281 78.667969 43.128906 77.265625 43.230469 C 77.253906 42.566406 77.207031 41.90625 77.011719 41.269531 C 76.902344 40.902344 76.265625 40.832031 76.195312 41.269531 C 76.105469 41.851562 76.074219 42.433594 76.0625 43.023438 C 73.964844 42.996094 71.867188 42.820312 69.769531 42.890625 C 69.382812 42.476562 69.257812 41.746094 69.078125 41.234375 C 69.050781 41.160156 69.023438 41.085938 68.996094 41.011719 C 68.835938 41.742188 68.613281 42.453125 68.316406 43.148438 L 67.800781 43.152344 C 64.878906 43.164062 61.898438 43.253906 59.046875 43.859375 C 58.847656 43.707031 58.730469 43.441406 58.695312 43.199219 C 58.492188 41.628906 58.195312 40.101562 57.671875 38.605469 L 57.597656 38.394531 C 57.589844 38.378906 57.585938 38.359375 57.578125 38.339844 C 57.191406 38.960938 56.730469 39.542969 56.230469 40.082031 C 55.933594 40.402344 55.625 40.707031 55.304688 41.003906 C 54.996094 41.347656 54.675781 41.683594 54.367188 42.027344 C 54.378906 42.089844 54.390625 42.15625 54.398438 42.21875 C 54.492188 42.933594 54.503906 43.660156 54.433594 44.378906 C 54.308594 45.675781 53.941406 46.925781 53.355469 48.082031 L 53.335938 48.199219 C 53.246094 48.738281 53.117188 49.300781 52.820312 49.707031 C 53.191406 50.121094 53.476562 50.617188 53.644531 51.167969 C 53.789062 51.660156 53.113281 52.085938 52.761719 51.683594 C 52.480469 51.363281 52.171875 51.101562 51.828125 50.890625 C 51.808594 50.917969 51.769531 50.933594 51.726562 50.910156 C 50.777344 50.382812 49.164062 50.542969 48.214844 51.039062 C 47.035156 51.65625 46.574219 52.921875 46.703125 54.207031 C 46.832031 55.433594 47.367188 56.867188 48.40625 57.496094 C 48.886719 57.785156 49.257812 57.808594 49.765625 57.671875 C 49.925781 57.625 50.125 57.492188 50.214844 57.425781 L 50.296875 57.355469 C 50.628906 57.09375 50.941406 56.914062 51.332031 56.90625 C 51.734375 56.78125 52.136719 56.953125 52.289062 57.375 L 52.300781 57.402344 C 52.371094 57.617188 52.503906 57.886719 52.472656 58.214844 C 52.445312 58.566406 52.285156 58.886719 52.042969 59.140625 C 52.003906 59.1875 51.957031 59.230469 51.914062 59.273438 C 56.042969 63.746094 56.574219 70.714844 54.457031 76.304688 C 54.363281 76.546875 54.265625 76.789062 54.164062 77.03125 C 53.808594 77.851562 52.445312 77.597656 52.273438 76.78125 C 52.222656 76.539062 52.164062 76.296875 52.101562 76.054688 C 51.988281 75.609375 51.855469 75.167969 51.707031 74.734375 L 51.652344 74.570312 C 51.527344 74.210938 51.410156 73.847656 51.28125 73.488281 L 51.269531 73.449219 C 51.265625 73.433594 51.261719 73.414062 51.253906 73.394531 L 51.039062 73.859375 L 50.386719 75.273438 C 50.082031 75.933594 49.113281 75.574219 49.078125 74.941406 L 49.078125 74.917969 C 49.074219 74.800781 49.070312 74.683594 49.0625 74.570312 C 49.015625 73.707031 48.867188 72.867188 48.628906 72.046875 L 48.542969 72.152344 C 47.273438 73.722656 45.78125 75.199219 43.734375 75.558594 C 43.222656 75.652344 42.640625 75.113281 42.992188 74.59375 C 43.140625 74.382812 43.28125 74.160156 43.414062 73.9375 C 43.296875 73.882812 43.1875 73.828125 43.089844 73.769531 C 42.3125 73.335938 41.664062 72.714844 41.132812 72.007812 C 39.996094 70.515625 39.59375 68.632812 39.492188 66.792969 C 39.386719 64.847656 39.558594 62.796875 40.089844 60.917969 C 40.320312 60.109375 40.632812 59.328125 40.992188 58.574219 C 40.964844 58.503906 40.941406 58.4375 40.917969 58.371094 C 40.527344 57.285156 40.210938 56.175781 39.945312 55.054688 C 39.410156 52.792969 39.125 50.457031 39.089844 48.132812 C 39.023438 43.964844 39.742188 39.730469 41.257812 35.84375 C 42.820312 31.839844 45.171875 27.976562 48.371094 25.066406 Z M 46.425781 61.496094 C 46.136719 61.046875 45.417969 61.453125 45.6875 61.90625 L 45.695312 61.925781 C 46.152344 62.640625 46.363281 63.457031 46.625 64.257812 C 46.792969 64.773438 47.609375 64.550781 47.441406 64.03125 L 47.382812 63.859375 C 47.125 63.046875 46.886719 62.222656 46.425781 61.496094 Z M 48.925781 52.867188 L 49.117188 52.773438 C 49.71875 52.484375 50.246094 52.289062 50.957031 52.542969 C 51.90625 52.875 52.925781 53.941406 52.28125 54.976562 C 52.046875 55.359375 51.625 55.511719 51.191406 55.421875 C 50.460938 55.269531 50.273438 54.613281 49.902344 54.070312 L 49.839844 53.980469 C 49.613281 53.652344 49.328125 53.203125 48.953125 53.074219 C 48.867188 53.042969 48.832031 52.910156 48.925781 52.867188 Z M 49.460938 30.898438 L 49.523438 30.84375 C 49.933594 30.484375 49.332031 29.886719 48.925781 30.246094 C 47.0625 31.890625 46.417969 34.46875 45.453125 36.664062 C 45.234375 37.15625 45.964844 37.585938 46.183594 37.089844 C 47.101562 34.996094 47.714844 32.488281 49.460938 30.898438 Z M 71.828125 30.179688 C 71.34375 29.960938 70.917969 30.667969 71.382812 30.902344 L 71.402344 30.910156 C 73.046875 31.652344 73.746094 33.335938 74.414062 34.898438 C 74.628906 35.394531 75.355469 34.964844 75.144531 34.472656 L 75.023438 34.191406 C 74.324219 32.582031 73.507812 30.941406 71.828125 30.179688 Z M 74.40625 29.164062 C 73.890625 28.984375 73.667969 29.800781 74.179688 29.980469 C 75.574219 30.464844 76.527344 31.511719 77.335938 32.707031 C 77.636719 33.15625 78.371094 32.730469 78.0625 32.28125 C 77.128906 30.890625 76.015625 29.726562 74.40625 29.164062 Z M 74.40625 29.164062 "/>
<path style=" stroke:none;fill-rule:evenodd;fill:rgb(0%,0%,0%);fill-opacity:1;" d="M 71.574219 64.136719 C 70.867188 63.847656 70.230469 63.363281 69.769531 62.746094 C 69.609375 62.53125 69.566406 62.304688 69.601562 62.097656 C 69.636719 61.863281 69.777344 61.652344 69.964844 61.511719 C 70.152344 61.371094 70.386719 61.300781 70.617188 61.335938 C 70.816406 61.367188 71.011719 61.472656 71.167969 61.699219 L 71.199219 61.746094 C 71.476562 62.117188 71.835938 62.421875 72.242188 62.621094 C 72.636719 62.808594 73.078125 62.898438 73.535156 62.847656 C 74.402344 62.75 75.003906 62.277344 75.640625 61.640625 C 75.71875 61.558594 75.796875 61.476562 75.875 61.394531 C 75.925781 61.316406 75.996094 61.265625 76.074219 61.242188 C 76.160156 61.210938 76.253906 61.214844 76.34375 61.246094 C 76.429688 61.273438 76.507812 61.332031 76.558594 61.40625 C 76.605469 61.480469 76.632812 61.566406 76.625 61.667969 C 76.566406 62.332031 76.222656 62.921875 75.730469 63.382812 C 75.183594 63.898438 74.460938 64.253906 73.78125 64.378906 C 73.03125 64.519531 72.269531 64.417969 71.574219 64.136719 Z M 74.136719 53.933594 C 74.933594 54.417969 76.148438 55.550781 75.289062 56.75 C 74.28125 57.8125 72.824219 56.597656 72.109375 56.046875 C 71.445312 55.621094 70.699219 56.714844 71.316406 57.214844 C 76.492188 61.050781 78.59375 54.058594 74.539062 53.363281 C 74.09375 53.285156 73.925781 53.78125 74.136719 53.933594 Z M 64.855469 49.472656 C 64.945312 48.378906 66.609375 48.128906 66.773438 49.210938 C 66.921875 50.179688 66.75 51.074219 66.3125 51.945312 C 65.894531 52.78125 64.847656 52.390625 64.765625 51.632812 C 64.660156 50.613281 64.800781 50.152344 64.855469 49.472656 Z M 77.539062 48.988281 C 77.769531 48.683594 78.105469 48.476562 78.507812 48.59375 C 79.761719 48.960938 79.394531 50.742188 78.953125 51.609375 C 78.710938 52.082031 77.9375 52.199219 77.589844 51.785156 C 77.019531 51.109375 76.746094 49.757812 77.46875 49.089844 C 77.488281 49.058594 77.511719 49.023438 77.539062 48.988281 Z M 66.292969 44.683594 L 66.492188 44.648438 C 67.105469 44.542969 67.867188 44.441406 68.304688 44.933594 C 68.535156 45.195312 68.613281 45.679688 68.304688 45.933594 C 67.757812 46.371094 67.15625 46.203125 66.503906 46.238281 C 65.96875 46.269531 65.449219 46.359375 64.933594 46.507812 C 63.796875 46.832031 62.871094 47.425781 61.902344 48.074219 C 61.773438 48.160156 61.644531 47.996094 61.707031 47.878906 C 62.265625 46.78125 63.351562 45.878906 64.4375 45.332031 C 65.019531 45.039062 65.652344 44.792969 66.292969 44.683594 Z M 76.394531 44.191406 L 76.546875 44.222656 C 78.195312 44.566406 80.34375 45.257812 81.125 46.878906 C 81.15625 47.109375 81.125 47.160156 81.097656 47.191406 L 81.089844 47.203125 C 81.070312 47.230469 81.050781 47.265625 80.953125 47.296875 C 80.925781 47.292969 80.898438 47.285156 80.867188 47.277344 C 80.511719 47.183594 80.226562 47.054688 79.953125 46.921875 L 79.652344 46.773438 C 79.308594 46.605469 78.960938 46.441406 78.589844 46.320312 C 77.800781 46.0625 76.992188 45.882812 76.167969 45.785156 C 75.988281 45.765625 75.816406 45.703125 75.683594 45.601562 C 75.554688 45.503906 75.457031 45.367188 75.410156 45.1875 C 75.351562 44.953125 75.371094 44.777344 75.496094 44.566406 C 75.589844 44.40625 75.722656 44.296875 75.878906 44.234375 C 76.035156 44.171875 76.214844 44.15625 76.394531 44.191406 Z M 76.394531 44.191406 "/>
<path style=" stroke:none;fill-rule:evenodd;fill:rgb(0%,0%,0%);fill-opacity:1;" d="M 83.042969 54.878906 C 82.332031 55.835938 81.011719 56.140625 79.796875 56.035156 C 77.171875 55.78125 76.347656 52.800781 76.261719 50.484375 C 78.019531 50.980469 76.113281 47.472656 82.125 47.089844 C 84.246094 46.914062 83.660156 48.191406 84.597656 49.128906 C 84.578125 51.09375 84.25 53.226562 83.042969 54.878906 M 70.550781 52.621094 C 69 59.878906 60.519531 58.152344 59.628906 51.613281 C 60.453125 51.03125 60.234375 49.597656 61.257812 49.078125 C 62.875 48.042969 64.902344 48.085938 66.742188 48.109375 C 69.089844 48.273438 69.761719 49.246094 70.96875 50.308594 C 70.910156 51.019531 70.742188 51.859375 70.550781 52.621094 M 86.402344 45.886719 C 86.316406 45.871094 86.226562 45.859375 86.140625 45.847656 C 86.074219 45.808594 85.992188 45.777344 85.898438 45.761719 C 85.6875 45.707031 85.476562 45.671875 85.269531 45.652344 C 82.253906 44.972656 75.28125 45.9375 74.992188 48.507812 C 74.035156 48.828125 73.203125 48.542969 72.089844 48.570312 C 71.246094 45.03125 56.605469 45.53125 55.902344 47.664062 C 55.898438 47.664062 55.894531 47.664062 55.894531 47.664062 C 55.214844 47.453125 54.21875 47.503906 53.445312 47.46875 C 51.792969 47.433594 50.136719 47.582031 48.519531 47.933594 C 45.488281 48.414062 41.355469 48.976562 43.460938 52.761719 C 43.464844 52.761719 43.464844 52.761719 43.464844 52.761719 C 43.828125 53.136719 44.445312 52.835938 44.464844 52.332031 C 43.757812 50.539062 45.359375 50.324219 46.589844 49.808594 C 49.652344 48.707031 52.769531 48.554688 55.9375 48.894531 C 56.175781 49.175781 56.535156 49.421875 56.917969 49.550781 C 59.035156 49.902344 57.921875 51.472656 59.257812 51.699219 C 59.011719 57.179688 65.664062 60.167969 69.515625 56.566406 C 71.054688 55.0625 71.417969 52.835938 71.777344 50.828125 C 71.964844 50.785156 72.085938 50.679688 72.15625 50.542969 C 72.609375 50.089844 72.894531 49.671875 73.789062 49.550781 C 74.6875 49.425781 75.375 49.675781 75.46875 49.75 C 75.492188 49.796875 75.519531 49.84375 75.546875 49.894531 C 75.589844 49.964844 75.644531 50.019531 75.707031 50.066406 C 74.824219 55.519531 79.054688 58.96875 83.332031 56.140625 C 85.1875 54.394531 85.578125 51.71875 85.65625 49.328125 C 85.910156 49.179688 86.066406 48.882812 85.980469 48.511719 C 85.859375 48.003906 86.144531 47.5625 86.589844 47.339844 C 87.175781 47.050781 87.070312 46 86.402344 45.886719 "/>
</g>
</svg>
