<?xml version="1.0" encoding="UTF-8"?>
<svg xmlns="http://www.w3.org/2000/svg" xmlns:xlink="http://www.w3.org/1999/xlink" width="px" height="px" viewBox="0 0 120 162" version="1.1">
<g id="surface1">
<path style=" stroke:none;fill-rule:evenodd;fill:rgb(100%,100%,100%);fill-opacity:1;" d="M 27.601562 142.738281 C 28.867188 142.816406 30.132812 142.878906 31.394531 142.925781 C 47.929688 143.542969 64.453125 141.65625 80.976562 141.246094 C 86.730469 141.09375 92.457031 141.167969 98.195312 141.632812 C 98.757812 141.675781 99.402344 141.070312 99.332031 140.496094 C 98.273438 131.335938 96.945312 122.203125 96.257812 113.007812 C 96.257812 112.523438 96.320312 112.039062 96.488281 111.578125 C 96.519531 111.542969 96.683594 111.140625 96.828125 111.117188 C 96.78125 111.152344 96.996094 111.089844 96.859375 111.097656 C 97.6875 110.964844 98.503906 110.066406 97.898438 109.210938 C 91.695312 99.699219 83.226562 91.015625 80.503906 79.714844 C 79.859375 76.660156 77.535156 76.472656 75.054688 75.214844 C 74.285156 74.753906 72.394531 73.480469 72.085938 72.59375 C 71.351562 69.402344 72.644531 66.273438 68.863281 64.984375 C 66.371094 64.292969 61.960938 63.707031 59.433594 64.4375 C 56.355469 65.460938 56.585938 68.933594 54.800781 71.320312 C 53.875 72.703125 52.300781 74.59375 50.84375 74.808594 C 50.140625 74.910156 49.621094 73.484375 48.917969 73.582031 C 37.949219 76.246094 23 94.429688 18.285156 104.496094 C 17.222656 107.664062 20.648438 106.707031 20.4375 109.890625 C 20.179688 115.933594 19.613281 123.664062 19.949219 129.710938 C 20.265625 133.222656 20.03125 136.898438 21.121094 140.277344 C 20.828125 140.636719 21.25 140.996094 21.59375 141.148438 C 22.027344 141.886719 26.292969 142.636719 27.601562 142.738281 Z M 27.601562 142.738281 "/>
<path style=" stroke:none;fill-rule:evenodd;fill:rgb(0%,0%,0%);fill-opacity:1;" d="M 56.164062 67.519531 C 56.449219 66.234375 58.492188 66.785156 58.140625 68.0625 C 57.597656 70.039062 56.476562 71.910156 54.890625 73.21875 C 53.664062 74.230469 51.992188 75.136719 50.335938 75.300781 C 50.492188 75.453125 50.640625 75.617188 50.796875 75.769531 C 51.148438 76.121094 51.523438 76.445312 51.910156 76.757812 C 52.707031 77.402344 53.53125 77.980469 54.433594 78.464844 C 58.039062 80.398438 62.109375 80.84375 66.132812 80.394531 C 68.042969 80.179688 69.980469 79.816406 71.777344 79.117188 C 72.609375 78.796875 73.417969 78.371094 74.132812 77.832031 L 74.320312 77.691406 C 74.695312 77.410156 75.195312 77.007812 75.429688 76.570312 C 74.714844 76.734375 73.8125 75.972656 73.316406 75.527344 C 72.777344 75.042969 72.320312 74.417969 71.980469 73.773438 C 71.320312 72.511719 70.972656 70.886719 71.527344 69.535156 C 71.5625 69.445312 71.679688 69.460938 71.691406 69.558594 C 71.855469 71.132812 72.28125 72.609375 73.410156 73.777344 C 73.914062 74.292969 74.511719 74.726562 75.167969 75.027344 L 75.261719 75.070312 C 75.542969 75.199219 75.835938 75.351562 75.953125 75.628906 C 76 75.621094 76.042969 75.628906 76.085938 75.640625 C 76.125 75.648438 76.164062 75.660156 76.195312 75.671875 C 76.117188 75.519531 76.078125 75.339844 76.085938 75.125 C 76.113281 74.296875 77.25 74.273438 77.40625 75.011719 C 77.378906 74.914062 77.339844 75.007812 77.410156 75.035156 C 77.410156 75.027344 77.40625 75.019531 77.40625 75.011719 L 77.40625 75.019531 L 77.410156 75.035156 C 77.414062 75.050781 77.417969 75.0625 77.417969 75.078125 L 77.417969 75.097656 L 77.417969 75.082031 C 77.417969 75.070312 77.414062 75.058594 77.414062 75.050781 L 77.410156 75.035156 C 77.421875 75.042969 77.4375 75.046875 77.453125 75.046875 L 77.460938 75.046875 C 77.488281 75.058594 77.582031 75.101562 77.609375 75.113281 C 77.796875 75.183594 78.007812 75.207031 78.203125 75.265625 C 78.621094 75.394531 78.992188 75.609375 79.246094 75.972656 C 79.429688 76.234375 79.53125 76.53125 79.574219 76.84375 C 81.429688 77.734375 83.1875 78.894531 84.660156 80.332031 C 87.945312 83.535156 90.234375 87.546875 92.113281 91.695312 C 93.070312 93.808594 93.921875 95.96875 94.753906 98.132812 L 94.886719 98.472656 C 95.78125 100.800781 96.570312 103.152344 96.765625 105.652344 C 96.78125 105.875 96.710938 106.085938 96.582031 106.261719 C 96.625 106.449219 96.648438 106.636719 96.644531 106.820312 C 96.644531 106.847656 96.640625 106.878906 96.636719 106.90625 C 96.9375 106.902344 97.230469 107.027344 97.511719 107.378906 C 97.625 107.34375 97.746094 107.339844 97.867188 107.378906 C 98.601562 107.613281 98.71875 108.417969 98.859375 109.09375 C 99 109.792969 99.0625 110.507812 99.0625 111.21875 C 99.0625 111.472656 98.917969 111.792969 98.671875 111.902344 C 98.207031 112.105469 97.707031 112.242188 97.226562 112.425781 C 96.863281 112.566406 96.5 112.699219 96.136719 112.824219 C 96.339844 113.175781 96.402344 113.667969 96.515625 114.042969 C 96.6875 114.625 96.824219 115.207031 96.941406 115.804688 C 97.730469 119.859375 98.273438 123.953125 99.011719 128.015625 C 99.378906 130.050781 99.808594 132.070312 100.246094 134.089844 C 100.460938 135.082031 100.691406 136.074219 100.9375 137.0625 C 101.070312 137.585938 101.203125 138.113281 101.34375 138.636719 C 101.386719 138.789062 101.425781 138.941406 101.46875 139.09375 L 101.542969 139.359375 C 101.703125 139.449219 101.839844 139.582031 101.9375 139.769531 C 102.285156 140.441406 102.082031 141.199219 101.417969 141.574219 C 100.691406 141.988281 99.828125 141.597656 99.429688 140.929688 C 99.148438 140.457031 99.054688 139.832031 98.917969 139.308594 C 98.761719 138.71875 98.613281 138.125 98.46875 137.53125 C 97.492188 133.503906 96.839844 129.40625 96.347656 125.292969 L 96.3125 125 C 96.0625 122.882812 95.820312 120.757812 95.664062 118.628906 C 95.585938 117.585938 95.523438 116.539062 95.484375 115.492188 C 95.46875 114.953125 95.496094 114.410156 95.527344 113.875 C 95.542969 113.636719 95.5625 113.402344 95.570312 113.167969 L 95.570312 113.132812 C 95.574219 113.109375 95.578125 113.078125 95.578125 113.042969 L 95.582031 113.003906 C 94.851562 113.234375 94.113281 113.421875 93.367188 113.582031 C 91.777344 113.925781 90.152344 114.117188 88.53125 114.019531 C 88.757812 116.707031 89.050781 119.386719 89.460938 122.050781 C 89.859375 124.613281 90.316406 127.171875 90.835938 129.714844 C 91.09375 130.992188 91.375 132.265625 91.667969 133.535156 C 91.828125 134.214844 92.007812 134.886719 92.152344 135.570312 C 92.234375 135.976562 92.261719 136.316406 92.09375 136.695312 C 92.277344 137.203125 92.445312 137.71875 92.609375 138.199219 L 92.65625 138.34375 C 92.949219 139.191406 93.496094 140.054688 92.921875 140.886719 C 92.625 141.3125 92.144531 141.558594 91.65625 141.574219 C 91.648438 141.578125 91.636719 141.585938 91.628906 141.589844 C 91.367188 141.730469 91.0625 141.757812 90.777344 141.699219 C 90.339844 141.785156 89.902344 141.867188 89.464844 141.941406 C 88.382812 142.128906 87.292969 142.28125 86.203125 142.414062 C 84.128906 142.660156 82.039062 142.796875 79.949219 142.871094 C 72.304688 143.144531 64.648438 142.664062 57 142.800781 C 53.105469 142.871094 49.207031 143.046875 45.316406 143.28125 C 43.375 143.398438 41.433594 143.519531 39.492188 143.617188 L 38.890625 143.648438 C 37.152344 143.730469 35.414062 143.792969 33.675781 143.667969 C 33.644531 143.664062 33.617188 143.652344 33.597656 143.632812 C 33 143.566406 32.398438 143.011719 32.457031 142.375 C 32.71875 139.660156 32.976562 136.949219 33.234375 134.234375 C 33.699219 129.398438 34.164062 124.558594 34.632812 119.722656 L 34.703125 119.027344 C 34.859375 117.398438 35.011719 115.761719 35.089844 114.128906 C 34.703125 114.101562 34.316406 114.066406 33.929688 114.023438 C 29.753906 113.566406 25.746094 112.300781 21.902344 110.640625 L 21.746094 110.574219 C 21.398438 110.421875 21.019531 110.269531 20.628906 110.109375 C 20.636719 110.847656 20.613281 111.585938 20.609375 112.320312 C 20.605469 113.53125 20.613281 114.746094 20.617188 115.960938 C 20.625 118.460938 20.71875 120.960938 20.84375 123.457031 C 21.0625 127.867188 21.320312 132.269531 21.707031 136.667969 C 21.804688 137.773438 21.941406 138.878906 22.035156 139.984375 C 22.089844 140.636719 21.957031 141.179688 21.359375 141.523438 C 21.066406 141.691406 20.835938 141.621094 20.546875 141.484375 C 19.835938 141.148438 19.8125 140.359375 19.746094 139.671875 C 19.695312 139.15625 19.648438 138.636719 19.601562 138.121094 C 19.5 137.011719 19.414062 135.90625 19.347656 134.796875 C 19.070312 130.394531 18.988281 125.992188 19.179688 121.582031 C 19.269531 119.519531 19.394531 117.453125 19.566406 115.394531 L 19.605469 114.917969 C 19.746094 113.273438 19.835938 111.546875 20.121094 109.890625 C 18.960938 109.375 17.808594 108.71875 17.273438 107.628906 C 16.578125 106.210938 17.339844 105 18.425781 104.167969 C 18.414062 104.027344 18.425781 103.886719 18.457031 103.761719 C 18.765625 102.410156 19.289062 101.078125 19.792969 99.789062 C 20.300781 98.496094 20.863281 97.222656 21.480469 95.976562 C 23.953125 90.988281 27.335938 86.425781 31.371094 82.582031 C 33.371094 80.675781 35.5625 78.910156 37.902344 77.433594 C 39.0625 76.699219 40.253906 76.023438 41.484375 75.421875 L 41.667969 75.332031 C 42.523438 74.917969 43.484375 74.472656 44.441406 74.242188 C 44.539062 74.167969 44.640625 74.097656 44.742188 74.03125 C 45.117188 73.78125 45.625 73.960938 45.847656 74.320312 C 45.953125 74.234375 46.078125 74.160156 46.222656 74.09375 L 46.363281 74.03125 C 47.21875 73.644531 48.246094 73.285156 49.175781 73.539062 C 49.75 73.695312 50.203125 74.121094 50.410156 74.660156 C 50.875 74.414062 51.335938 74.160156 51.785156 73.847656 C 52.507812 73.347656 53.160156 72.730469 53.746094 72.078125 C 54.925781 70.773438 55.78125 69.242188 56.164062 67.519531 Z M 97.03125 108.730469 C 96.953125 108.753906 96.867188 108.761719 96.78125 108.753906 C 96.9375 108.769531 96.621094 108.863281 96.535156 108.910156 L 96.527344 108.914062 C 96.367188 109.003906 96.210938 109.089844 96.046875 109.175781 C 95.671875 109.375 95.285156 109.554688 94.894531 109.722656 C 94.121094 110.050781 93.324219 110.300781 92.503906 110.488281 C 91.703125 110.667969 90.863281 110.773438 90.042969 110.789062 C 89.496094 110.800781 88.84375 110.777344 88.273438 110.613281 C 88.339844 111.609375 88.414062 112.605469 88.492188 113.601562 L 89.617188 113.34375 C 90.738281 113.085938 91.859375 112.820312 92.96875 112.5 C 93.800781 112.257812 94.617188 111.976562 95.429688 111.671875 C 95.855469 111.511719 96.273438 111.34375 96.691406 111.164062 C 96.898438 111.070312 97.09375 110.964844 97.285156 110.855469 L 97.449219 110.761719 C 97.410156 110.316406 97.339844 109.878906 97.238281 109.441406 C 97.1875 109.207031 97.097656 108.96875 97.03125 108.730469 Z M 20.175781 104.039062 C 20.03125 104.5 19.8125 104.933594 19.316406 105.039062 C 19.140625 105.074219 18.992188 105.054688 18.867188 104.996094 L 18.839844 105.054688 C 18.429688 105.894531 18.308594 106.785156 19.253906 107.433594 C 19.679688 107.726562 20.140625 107.980469 20.621094 108.207031 C 21.480469 108.613281 22.390625 108.941406 23.253906 109.277344 L 23.425781 109.34375 C 24.964844 109.949219 26.527344 110.496094 28.117188 110.957031 C 29.730469 111.425781 31.371094 111.796875 33.03125 112.035156 C 33.730469 112.136719 34.4375 112.207031 35.144531 112.25 C 35.15625 111.300781 35.148438 110.347656 35.148438 109.398438 C 34.894531 109.363281 34.644531 109.332031 34.40625 109.300781 C 33.671875 109.21875 32.941406 109.113281 32.214844 108.984375 C 30.695312 108.710938 29.195312 108.335938 27.730469 107.855469 C 25.015625 106.964844 22.488281 105.691406 20.175781 104.039062 Z M 49.941406 74.90625 C 49.324219 74.253906 48.144531 74.488281 47.398438 74.804688 C 47.171875 74.902344 46.945312 75 46.730469 75.117188 L 46.6875 75.140625 C 46.4375 75.285156 46.4375 75.371094 46.5625 75.65625 C 46.722656 76.039062 46.941406 76.402344 47.152344 76.753906 C 48.058594 78.265625 49.25 79.582031 50.609375 80.691406 C 55.421875 84.621094 62.339844 86.007812 68.359375 84.691406 C 71.25 84.0625 74.039062 82.785156 76.164062 80.695312 L 76.359375 80.503906 C 77.21875 79.644531 78.394531 78.402344 78.3125 77.128906 C 78.273438 76.519531 77.773438 76.484375 77.261719 76.363281 C 77.054688 76.316406 76.855469 76.246094 76.679688 76.148438 C 76.820312 76.75 76.078125 77.644531 75.695312 78.019531 C 74.890625 78.808594 73.921875 79.421875 72.898438 79.882812 C 70.953125 80.757812 68.832031 81.171875 66.722656 81.433594 C 64.328125 81.734375 61.882812 81.707031 59.507812 81.265625 C 57.441406 80.882812 55.402344 80.15625 53.625 79.027344 C 52.808594 78.507812 52.003906 77.917969 51.324219 77.230469 L 51.179688 77.082031 C 50.6875 76.585938 50.117188 75.984375 49.824219 75.332031 C 49.710938 75.332031 49.601562 75.328125 49.488281 75.320312 C 49.410156 75.316406 49.371094 75.207031 49.449219 75.164062 C 49.535156 75.117188 49.621094 75.070312 49.710938 75.027344 C 49.695312 74.976562 49.683594 74.929688 49.671875 74.882812 C 49.664062 74.839844 49.707031 74.800781 49.746094 74.824219 C 49.796875 74.855469 49.847656 74.890625 49.898438 74.925781 C 49.914062 74.921875 49.925781 74.914062 49.941406 74.90625 Z M 49.941406 74.90625 "/>
<path style=" stroke:none;fill-rule:evenodd;fill:rgb(100%,100%,100%);fill-opacity:1;" d="M 80.445312 36.109375 C 74.089844 31.902344 61.367188 32.359375 54.375 34.933594 C 47.550781 37.101562 45.164062 43.132812 44.03125 49.648438 C 42.652344 56.972656 42.835938 67.527344 52.738281 67.402344 C 54.132812 68.074219 55.671875 68.367188 57.113281 68.925781 C 59.085938 69.605469 61.019531 70.398438 63.019531 70.996094 C 66.957031 72.265625 71.34375 72.152344 75.078125 70.296875 C 77.144531 69.296875 78 67.742188 79.351562 66.089844 C 83.277344 61.269531 85.253906 54.378906 85.078125 48.25 C 84.765625 43.9375 84.054688 38.945312 80.445312 36.109375 Z M 80.445312 36.109375 "/>
<path style=" stroke:none;fill-rule:evenodd;fill:rgb(0%,0%,0%);fill-opacity:1;" d="M 88.480469 53.863281 C 87.828125 49.816406 87.648438 45.699219 86.796875 41.683594 C 85.992188 37.902344 84.492188 34.332031 81.867188 31.453125 C 79.523438 28.875 76.488281 26.984375 73.230469 25.78125 C 66.882812 23.445312 59.582031 23.976562 53.445312 26.703125 C 47.695312 29.253906 43.113281 33.976562 40.441406 39.640625 C 38.707031 43.324219 37.835938 47.238281 37.445312 51.277344 C 37.015625 55.765625 36.96875 60.300781 36.792969 64.804688 C 36.773438 65.359375 36.742188 65.917969 36.734375 66.472656 C 36.726562 67.082031 36.972656 67.613281 37.175781 68.179688 C 37.1875 68.222656 37.207031 68.257812 37.230469 68.296875 C 37.082031 68.3125 36.929688 68.335938 36.777344 68.359375 C 36.609375 68.386719 36.617188 68.660156 36.777344 68.695312 C 38.148438 68.972656 39.554688 69.011719 40.945312 69.082031 C 42.386719 69.152344 43.828125 69.191406 45.273438 69.242188 C 46.683594 69.289062 48.089844 69.335938 49.5 69.382812 C 50.238281 69.410156 50.976562 69.433594 51.714844 69.457031 C 52.066406 69.46875 52.421875 69.484375 52.773438 69.496094 C 52.949219 69.5 53.125 69.507812 53.300781 69.511719 C 53.441406 69.515625 53.675781 69.609375 53.691406 69.503906 C 53.714844 69.519531 53.746094 69.53125 53.777344 69.542969 C 53.808594 69.558594 53.84375 69.582031 53.875 69.605469 C 54.046875 69.722656 54.308594 69.707031 54.480469 69.605469 C 54.496094 69.59375 54.515625 69.585938 54.53125 69.574219 C 54.660156 69.496094 54.75 69.382812 54.800781 69.257812 C 55.523438 70.128906 56.804688 69.148438 56.066406 68.226562 C 55.667969 67.730469 51.714844 55.554688 53.351562 46.277344 L 59.910156 45.40625 C 60.707031 45.328125 61.851562 45.207031 63.339844 45.042969 C 63.703125 43.855469 63.9375 43.070312 64.042969 42.6875 C 64.054688 42.644531 64.066406 42.601562 64.078125 42.558594 C 64.234375 42.835938 64.390625 43.109375 64.550781 43.386719 L 65.359375 45.03125 C 73.320312 44.898438 78.277344 44.835938 80.230469 44.851562 C 80.28125 44.851562 80.515625 48.410156 80.410156 49.980469 C 80.191406 53.128906 79.964844 56.277344 79.644531 59.417969 C 79.441406 61.425781 78.949219 63.398438 78.21875 65.253906 C 77.066406 68.179688 73.710938 70.964844 70.441406 70.964844 C 68.40625 70.964844 63.808594 69.316406 63.140625 68.980469 C 62.46875 68.648438 62.070312 69.558594 62.679688 69.921875 C 63.917969 70.65625 67.324219 72.21875 70.441406 72.21875 C 74.96875 72.21875 78.386719 67.921875 78.808594 67.304688 C 82.929688 67.078125 87.148438 67.183594 91.265625 67.59375 C 91.609375 67.628906 91.90625 67.210938 91.796875 66.894531 C 90.316406 62.660156 89.191406 58.292969 88.480469 53.863281 Z M 88.480469 53.863281 "/>
<path style=" stroke:none;fill-rule:evenodd;fill:rgb(0%,0%,0%);fill-opacity:1;" d="M 71.574219 64.136719 C 70.867188 63.847656 70.230469 63.363281 69.769531 62.746094 C 69.609375 62.53125 69.566406 62.304688 69.601562 62.097656 C 69.636719 61.863281 69.777344 61.652344 69.964844 61.511719 C 70.152344 61.371094 70.386719 61.300781 70.617188 61.335938 C 70.816406 61.367188 71.011719 61.472656 71.167969 61.699219 L 71.199219 61.746094 C 71.476562 62.117188 71.835938 62.421875 72.242188 62.621094 C 72.636719 62.808594 73.078125 62.898438 73.535156 62.847656 C 74.402344 62.75 75.003906 62.277344 75.640625 61.640625 C 75.71875 61.558594 75.796875 61.476562 75.875 61.394531 C 75.925781 61.316406 75.996094 61.265625 76.074219 61.242188 C 76.160156 61.210938 76.253906 61.214844 76.34375 61.246094 C 76.429688 61.273438 76.507812 61.332031 76.558594 61.40625 C 76.605469 61.480469 76.632812 61.566406 76.625 61.667969 C 76.566406 62.332031 76.222656 62.921875 75.730469 63.382812 C 75.183594 63.898438 74.460938 64.253906 73.78125 64.378906 C 73.03125 64.519531 72.269531 64.417969 71.574219 64.136719 Z M 74.136719 53.933594 C 74.933594 54.417969 76.148438 55.550781 75.289062 56.75 C 74.28125 57.8125 72.824219 56.597656 72.109375 56.046875 C 71.445312 55.621094 70.699219 56.714844 71.316406 57.214844 C 76.492188 61.050781 78.59375 54.058594 74.539062 53.363281 C 74.09375 53.285156 73.925781 53.78125 74.136719 53.933594 Z M 64.855469 49.472656 C 64.945312 48.378906 66.609375 48.128906 66.773438 49.210938 C 66.921875 50.179688 66.75 51.074219 66.3125 51.945312 C 65.894531 52.78125 64.847656 52.390625 64.765625 51.632812 C 64.660156 50.613281 64.800781 50.152344 64.855469 49.472656 Z M 77.539062 48.988281 C 77.769531 48.683594 78.105469 48.476562 78.507812 48.59375 C 79.761719 48.960938 79.394531 50.742188 78.953125 51.609375 C 78.710938 52.082031 77.9375 52.199219 77.589844 51.785156 C 77.019531 51.109375 76.746094 49.757812 77.46875 49.089844 C 77.488281 49.058594 77.511719 49.023438 77.539062 48.988281 Z M 66.292969 44.683594 L 66.492188 44.648438 C 67.105469 44.542969 67.867188 44.441406 68.304688 44.933594 C 68.535156 45.195312 68.613281 45.679688 68.304688 45.933594 C 67.757812 46.371094 67.15625 46.203125 66.503906 46.238281 C 65.96875 46.269531 65.449219 46.359375 64.933594 46.507812 C 63.796875 46.832031 62.871094 47.425781 61.902344 48.074219 C 61.773438 48.160156 61.644531 47.996094 61.707031 47.878906 C 62.265625 46.78125 63.351562 45.878906 64.4375 45.332031 C 65.019531 45.039062 65.652344 44.792969 66.292969 44.683594 Z M 76.394531 44.191406 L 76.546875 44.222656 C 78.195312 44.566406 80.34375 45.257812 81.125 46.878906 C 81.15625 47.109375 81.125 47.160156 81.097656 47.191406 L 81.089844 47.203125 C 81.070312 47.230469 81.050781 47.265625 80.953125 47.296875 C 80.925781 47.292969 80.898438 47.285156 80.867188 47.277344 C 80.511719 47.183594 80.226562 47.054688 79.953125 46.921875 L 79.652344 46.773438 C 79.308594 46.605469 78.960938 46.441406 78.589844 46.320312 C 77.800781 46.0625 76.992188 45.882812 76.167969 45.785156 C 75.988281 45.765625 75.816406 45.703125 75.683594 45.601562 C 75.554688 45.503906 75.457031 45.367188 75.410156 45.1875 C 75.351562 44.953125 75.371094 44.777344 75.496094 44.566406 C 75.589844 44.40625 75.722656 44.296875 75.878906 44.234375 C 76.035156 44.171875 76.214844 44.15625 76.394531 44.191406 Z M 76.394531 44.191406 "/>
<path style=" stroke:none;fill-rule:evenodd;fill:rgb(0%,0%,0%);fill-opacity:1;" d="M 86.402344 45.886719 C 86.316406 45.871094 86.226562 45.859375 86.140625 45.847656 C 86.074219 45.808594 85.992188 45.777344 85.898438 45.761719 C 85.6875 45.707031 85.476562 45.671875 85.269531 45.652344 C 82.253906 44.972656 75.28125 45.9375 74.992188 48.507812 C 74.035156 48.828125 73.203125 48.542969 72.089844 48.570312 C 71.246094 45.03125 56.605469 45.53125 55.902344 47.664062 C 55.898438 47.664062 55.894531 47.664062 55.894531 47.664062 C 55.214844 47.453125 54.21875 47.503906 53.445312 47.46875 C 51.792969 47.433594 50.136719 47.582031 48.519531 47.933594 C 45.488281 48.414062 41.355469 48.976562 43.460938 52.761719 C 43.464844 52.761719 43.464844 52.761719 43.464844 52.761719 C 43.828125 53.136719 44.445312 52.835938 44.464844 52.332031 C 43.757812 50.539062 45.359375 50.324219 46.589844 49.808594 C 49.652344 48.707031 52.769531 48.554688 55.9375 48.894531 C 56.175781 49.175781 56.535156 49.421875 56.917969 49.550781 C 59.035156 49.902344 57.921875 51.472656 59.257812 51.699219 C 59.011719 57.179688 65.664062 60.167969 69.515625 56.566406 C 71.054688 55.0625 71.417969 52.835938 71.777344 50.828125 C 71.964844 50.785156 72.085938 50.679688 72.15625 50.542969 C 72.609375 50.089844 72.894531 49.671875 73.789062 49.550781 C 74.6875 49.425781 75.375 49.675781 75.46875 49.75 C 75.492188 49.796875 75.519531 49.84375 75.546875 49.894531 C 75.589844 49.964844 75.644531 50.019531 75.707031 50.066406 C 74.824219 55.519531 79.054688 58.96875 83.332031 56.140625 C 85.1875 54.394531 85.578125 51.71875 85.65625 49.328125 C 85.910156 49.179688 86.066406 48.882812 85.980469 48.511719 C 85.859375 48.003906 86.144531 47.5625 86.589844 47.339844 C 87.175781 47.050781 87.070312 46 86.402344 45.886719 M 68.039062 48.476562 C 67.507812 48.359375 67.28125 49.175781 67.8125 49.292969 C 68.1875 49.378906 68.507812 49.566406 68.722656 49.890625 L 68.746094 49.925781 C 69.035156 50.386719 69.769531 49.960938 69.476562 49.496094 C 69.148438 48.972656 68.640625 48.609375 68.039062 48.476562 Z M 83.574219 47.96875 C 83.386719 47.835938 83.105469 47.933594 82.996094 48.121094 C 82.875 48.324219 82.953125 48.554688 83.128906 48.6875 L 83.148438 48.699219 C 83.308594 48.8125 83.464844 49.015625 83.484375 49.226562 L 83.488281 49.25 C 83.507812 49.796875 84.351562 49.796875 84.332031 49.25 C 84.3125 48.714844 84 48.269531 83.574219 47.96875 Z M 83.574219 47.96875 "/>
</g>
</svg>
