<?xml version="1.0" encoding="UTF-8"?>
<svg xmlns="http://www.w3.org/2000/svg" xmlns:xlink="http://www.w3.org/1999/xlink" width="px" height="px" viewBox="0 0 683 777" version="1.1">
<defs>
<clipPath id="clip1">
  <path d="M 140 316 L 525 316 L 525 677.0625 L 140 677.0625 Z M 140 316 "/>
</clipPath>
<clipPath id="clip2">
  <path d="M 134 328 L 538 328 L 538 677.0625 L 134 677.0625 Z M 134 328 "/>
</clipPath>
</defs>
<g id="surface1">
<g clip-path="url(#clip1)" clip-rule="nonzero">
<path style=" stroke:none;fill-rule:nonzero;fill:rgb(100%,100%,100%);fill-opacity:1;" d="M 185.15625 687.921875 C 191.140625 688.292969 197.125 688.585938 203.109375 688.808594 C 281.375 691.71875 359.574219 682.804688 437.796875 680.851562 C 465.035156 680.136719 492.128906 680.492188 519.300781 682.679688 C 521.960938 682.894531 525.003906 680.03125 524.679688 677.304688 C 519.660156 634.007812 513.378906 590.820312 510.125 547.34375 C 510.085938 545.042969 510.453125 542.753906 511.210938 540.582031 C 511.359375 540.414062 512.128906 538.507812 512.820312 538.386719 C 512.59375 538.554688 513.613281 538.261719 512.964844 538.3125 C 516.894531 537.667969 520.746094 533.433594 517.894531 529.378906 C 488.53125 484.398438 448.441406 443.34375 435.546875 389.925781 C 432.5 375.476562 421.488281 374.589844 409.765625 368.628906 C 406.105469 366.453125 397.160156 360.433594 395.703125 356.242188 C 392.230469 341.152344 398.351562 326.363281 380.460938 320.257812 C 368.648438 316.984375 347.773438 314.21875 335.824219 317.671875 C 321.25 322.515625 322.339844 338.9375 313.886719 350.230469 C 309.511719 356.761719 302.054688 365.703125 295.175781 366.710938 C 291.839844 367.195312 289.378906 360.449219 286.050781 360.914062 C 234.125 373.515625 163.375 459.496094 141.058594 507.089844 C 136.03125 522.070312 152.25 517.546875 151.253906 532.601562 C 150.023438 561.164062 147.339844 597.730469 148.933594 626.328125 C 150.429688 642.925781 149.324219 660.316406 154.484375 676.289062 C 153.09375 677.972656 155.089844 679.675781 156.71875 680.414062 C 158.773438 683.898438 178.96875 687.441406 185.160156 687.925781 Z M 185.15625 687.921875 "/>
</g>
<path style=" stroke:none;fill-rule:nonzero;fill:rgb(100%,100%,100%);fill-opacity:1;" d="M 286.050781 360.90625 C 289.15625 360.472656 289.359375 369.601562 292.371094 369.996094 C 306.335938 389.589844 327.96875 396.089844 352.996094 396.089844 C 379.558594 396.089844 401.101562 388.105469 417.613281 372.136719 L 419.128906 372.773438 C 426.945312 376.097656 433.339844 379.445312 435.550781 389.917969 C 448.445312 443.34375 488.535156 484.398438 517.898438 529.378906 C 520.75 533.433594 516.898438 537.675781 512.96875 538.3125 C 513.621094 538.261719 512.601562 538.554688 512.824219 538.386719 C 512.136719 538.507812 511.363281 540.414062 511.214844 540.582031 C 510.835938 541.625 510.558594 542.707031 510.390625 543.804688 C 510.390625 543.804688 477.488281 550.769531 468.648438 550.960938 C 379.839844 552.878906 217.433594 550.140625 217.433594 550.140625 L 149.410156 524.425781 C 145.519531 518.589844 137.273438 518.355469 141.054688 507.089844 C 163.375 459.496094 234.121094 373.515625 286.050781 360.914062 Z M 286.050781 360.90625 "/>
<g clip-path="url(#clip2)" clip-rule="nonzero">
<path style=" stroke:none;fill-rule:nonzero;fill:rgb(0%,0%,0%);fill-opacity:1;" d="M 223.429688 692.148438 C 219.804688 692.148438 216.523438 692.039062 213.410156 691.808594 C 213.269531 691.804688 213.136719 691.746094 213.039062 691.644531 C 211.566406 691.453125 210.199219 690.761719 209.171875 689.6875 C 208.09375 688.652344 207.535156 687.191406 207.640625 685.703125 L 207.640625 685.652344 C 208.78125 673.75 210.070312 660.253906 211.320312 647.203125 C 213.621094 623.109375 215.789062 600.667969 217.941406 578.597656 L 218.261719 575.292969 C 218.984375 567.847656 219.71875 559.929688 220.085938 552.132812 C 218.253906 552.003906 216.410156 551.839844 214.605469 551.640625 C 209.789062 551.117188 204.851562 550.335938 199.925781 549.332031 C 195.226562 548.371094 190.386719 547.179688 185.546875 545.773438 C 180.960938 544.445312 176.21875 542.890625 171.460938 541.152344 C 166.988281 539.519531 162.351562 537.664062 157.664062 535.644531 L 156.929688 535.324219 C 155.835938 534.847656 154.683594 534.375 153.46875 533.875 L 153.460938 533.875 C 152.875 533.632812 152.269531 533.382812 151.660156 533.132812 C 151.679688 535.207031 151.644531 537.3125 151.609375 539.351562 C 151.589844 540.738281 151.566406 542.171875 151.558594 543.582031 C 151.546875 547.585938 151.558594 551.660156 151.574219 555.601562 L 151.574219 555.617188 C 151.578125 557.316406 151.589844 559.074219 151.59375 560.800781 C 151.625 571.050781 151.953125 581.984375 152.671875 596.25 C 154.300781 629.035156 155.710938 646.855469 156.761719 658.710938 C 156.980469 661.175781 157.238281 663.679688 157.488281 666.097656 C 157.769531 668.820312 158.066406 671.628906 158.300781 674.394531 C 158.476562 675.804688 158.324219 677.238281 157.859375 678.578125 C 157.335938 679.902344 156.359375 680.996094 155.105469 681.667969 C 154.621094 681.960938 154.058594 682.125 153.496094 682.136719 C 152.710938 682.085938 151.949219 681.867188 151.261719 681.488281 C 149.863281 680.832031 148.804688 679.628906 148.335938 678.160156 C 147.886719 676.691406 147.621094 675.171875 147.539062 673.632812 C 147.515625 673.375 147.496094 673.148438 147.476562 672.921875 C 147.210938 670.253906 146.964844 667.589844 146.785156 665.570312 C 146.304688 660.21875 145.898438 654.933594 145.578125 649.867188 C 144.910156 639.199219 144.5 628.691406 144.359375 618.632812 C 144.210938 608.015625 144.359375 597.5 144.796875 587.382812 C 145.214844 577.523438 145.828125 567.679688 146.613281 558.117188 L 146.804688 555.867188 C 146.945312 554.203125 147.078125 552.484375 147.210938 550.824219 L 147.210938 550.8125 C 147.691406 544.632812 148.183594 538.242188 149.253906 532.097656 C 146.488281 530.9375 143.855469 529.484375 141.394531 527.765625 C 139.019531 526.140625 137.085938 523.953125 135.765625 521.398438 C 134.253906 518.546875 134.101562 515.167969 135.339844 512.183594 C 135.933594 510.777344 136.746094 509.472656 137.746094 508.3125 C 138.785156 507.097656 139.949219 506 141.226562 505.035156 C 141.175781 504.390625 141.226562 503.742188 141.363281 503.109375 C 142.84375 496.71875 145.308594 490.425781 147.695312 484.339844 C 150.128906 478.148438 152.816406 472.082031 155.675781 466.308594 C 161.554688 454.492188 168.464844 443.214844 176.320312 432.605469 C 184.175781 422 192.929688 412.078125 202.488281 402.976562 C 211.976562 393.863281 222.335938 385.703125 233.421875 378.617188 C 238.894531 375.136719 244.550781 371.964844 250.371094 369.109375 L 251.230469 368.6875 C 255.164062 366.777344 259.75 364.648438 264.355469 363.53125 C 264.804688 363.195312 265.285156 362.863281 265.78125 362.535156 C 266.324219 362.175781 266.964844 361.988281 267.613281 361.988281 C 268.296875 361.992188 268.960938 362.171875 269.550781 362.511719 C 270.144531 362.839844 270.648438 363.316406 271.015625 363.894531 C 271.566406 363.476562 272.160156 363.121094 272.789062 362.835938 L 273.453125 362.53125 C 276.28125 361.261719 279.984375 359.804688 283.640625 359.804688 C 284.695312 359.796875 285.746094 359.933594 286.761719 360.203125 C 289.445312 360.9375 291.613281 362.910156 292.605469 365.515625 C 294.851562 364.367188 297.03125 363.082031 299.121094 361.667969 C 302.53125 359.25 305.644531 356.445312 308.410156 353.308594 C 311.179688 350.253906 313.574219 346.882812 315.539062 343.257812 C 317.496094 339.632812 318.945312 335.753906 319.84375 331.738281 C 320.046875 330.6875 320.625 329.746094 321.480469 329.101562 C 322.265625 328.546875 323.203125 328.265625 324.164062 328.277344 C 325 328.277344 325.824219 328.46875 326.578125 328.820312 C 327.335938 329.164062 328 329.6875 328.511719 330.34375 C 329.375 331.476562 329.628906 332.957031 329.203125 334.316406 C 327.914062 339.03125 325.945312 343.535156 323.359375 347.6875 C 320.796875 351.847656 317.570312 355.566406 313.808594 358.699219 C 310.738281 361.234375 307.378906 363.386719 303.800781 365.125 C 300.179688 366.925781 296.273438 368.082031 292.261719 368.554688 C 292.644531 368.925781 293.035156 369.328125 293.410156 369.710938 C 293.746094 370.0625 294.089844 370.417969 294.441406 370.761719 C 296.113281 372.410156 297.878906 373.96875 299.714844 375.4375 C 303.429688 378.496094 307.429688 381.195312 311.65625 383.5 C 314.890625 385.230469 318.246094 386.734375 321.691406 388 C 325.09375 389.25 328.574219 390.273438 332.109375 391.066406 C 339.195312 392.636719 346.433594 393.410156 353.691406 393.382812 C 358.144531 393.371094 362.601562 393.117188 367.023438 392.617188 C 371.578125 392.128906 376.105469 391.414062 380.585938 390.464844 C 385.066406 389.523438 389.464844 388.230469 393.738281 386.589844 C 397.714844 385.082031 401.46875 383.039062 404.890625 380.515625 L 405.773438 379.851562 C 407.78125 378.335938 409.976562 376.523438 411.035156 374.550781 C 410.71875 374.617188 410.394531 374.652344 410.070312 374.652344 C 408.675781 374.652344 407.019531 374.050781 405.148438 372.851562 C 403.695312 371.878906 402.320312 370.800781 401.03125 369.621094 C 398.449219 367.25 396.308594 364.441406 394.710938 361.324219 C 393.074219 358.246094 391.984375 354.910156 391.476562 351.464844 C 391.230469 349.746094 391.183594 348 391.339844 346.273438 C 391.496094 344.558594 391.90625 342.878906 392.546875 341.28125 C 392.605469 341.117188 392.761719 341.003906 392.933594 341 C 393.148438 341 393.320312 341.175781 393.328125 341.390625 C 393.648438 345.042969 394.441406 348.640625 395.679688 352.09375 C 396.308594 353.78125 397.105469 355.40625 398.046875 356.945312 C 399.019531 358.527344 400.171875 360.003906 401.464844 361.34375 C 403.855469 363.804688 406.675781 365.808594 409.789062 367.257812 L 410.226562 367.457031 C 411.578125 368.082031 412.949219 368.800781 413.5 370.097656 C 413.558594 370.09375 413.625 370.085938 413.683594 370.085938 C 413.835938 370.085938 413.988281 370.105469 414.136719 370.148438 C 414.304688 370.191406 414.46875 370.246094 414.65625 370.3125 C 414.261719 369.507812 414.078125 368.617188 414.125 367.722656 C 414.125 366.855469 414.484375 366.019531 415.125 365.429688 C 415.703125 364.929688 416.449219 364.660156 417.214844 364.671875 C 417.921875 364.671875 418.609375 364.886719 419.179688 365.300781 C 419.796875 365.753906 420.21875 366.425781 420.371094 367.171875 C 420.328125 367.046875 420.285156 366.96875 420.246094 366.96875 C 420.226562 366.96875 420.210938 366.988281 420.203125 367.019531 C 420.195312 367.144531 420.273438 367.257812 420.398438 367.296875 C 420.414062 367.363281 420.425781 367.429688 420.429688 367.492188 L 420.429688 367.582031 C 420.429688 367.582031 420.429688 367.507812 420.429688 367.507812 C 420.429688 367.464844 420.421875 367.414062 420.410156 367.363281 L 420.398438 367.296875 C 420.464844 367.328125 420.53125 367.339844 420.601562 367.339844 L 420.636719 367.355469 C 420.683594 367.375 420.773438 367.417969 420.886719 367.464844 C 421.054688 367.542969 421.25 367.628906 421.328125 367.664062 C 421.839844 367.839844 422.359375 367.972656 422.886719 368.074219 C 423.300781 368.164062 423.734375 368.253906 424.140625 368.382812 C 426.371094 369.066406 427.984375 370.160156 429.085938 371.722656 C 429.929688 372.949219 430.460938 374.359375 430.640625 375.839844 C 435.050781 377.953125 439.300781 380.386719 443.355469 383.125 C 447.398438 385.855469 451.199219 388.941406 454.703125 392.335938 C 458.566406 396.113281 462.175781 400.132812 465.523438 404.363281 C 468.855469 408.585938 471.964844 412.980469 474.839844 417.527344 C 480.039062 425.726562 484.996094 435.066406 489.984375 446.078125 C 494.296875 455.585938 498.101562 465.121094 502.496094 476.507812 L 503.113281 478.121094 C 506.433594 486.757812 507.898438 491.5625 508.800781 494.78125 C 510.433594 500.421875 511.503906 506.210938 512.003906 512.058594 C 512.074219 513.09375 511.765625 514.121094 511.136719 514.9375 C 511.355469 515.804688 511.449219 516.691406 511.429688 517.585938 C 511.425781 517.738281 511.414062 517.882812 511.40625 517.992188 L 511.488281 517.992188 C 513.019531 517.992188 514.339844 518.726562 515.535156 520.230469 C 515.816406 520.140625 516.105469 520.09375 516.394531 520.09375 C 516.675781 520.09375 516.953125 520.140625 517.21875 520.226562 C 520.484375 521.269531 521.179688 524.71875 521.796875 527.761719 C 521.835938 527.957031 521.875 528.148438 521.910156 528.339844 C 522.570312 531.644531 522.894531 535.003906 522.886719 538.378906 C 522.875 539.03125 522.703125 539.675781 522.394531 540.257812 C 522.101562 540.847656 521.621094 541.328125 521.023438 541.617188 C 519.734375 542.1875 518.359375 542.644531 517.035156 543.089844 C 516.09375 543.40625 515.125 543.734375 514.179688 544.101562 C 512.421875 544.78125 510.683594 545.410156 509.023438 545.96875 C 509.664062 547.253906 510.121094 548.621094 510.378906 550.035156 C 510.519531 550.640625 510.65625 551.210938 510.808594 551.738281 C 511.585938 554.363281 512.25 557.089844 512.828125 560.074219 C 514.910156 570.773438 516.664062 581.71875 518.363281 592.304688 C 519.703125 600.671875 521.09375 609.328125 522.636719 617.808594 C 524.429688 627.714844 526.511719 637.429688 528.480469 646.535156 C 529.535156 651.386719 530.636719 656.113281 531.75 660.585938 C 532.375 663.082031 533.019531 665.589844 533.679688 668.035156 C 533.863281 668.726562 534.054688 669.429688 534.265625 670.199219 L 534.613281 671.457031 C 535.414062 671.898438 536.066406 672.566406 536.476562 673.382812 C 537.269531 674.851562 537.46875 676.566406 537.050781 678.179688 C 536.835938 678.949219 536.464844 679.664062 535.96875 680.289062 C 535.433594 680.957031 534.769531 681.511719 534.023438 681.929688 C 533.109375 682.457031 532.070312 682.730469 531.015625 682.730469 C 528.359375 682.628906 525.941406 681.175781 524.609375 678.878906 C 523.59375 677.175781 523.105469 675.070312 522.636719 673.03125 C 522.484375 672.386719 522.34375 671.789062 522.191406 671.203125 C 521.496094 668.589844 520.800781 665.839844 520.066406 662.808594 C 517.851562 653.667969 515.925781 644.25 514.183594 634.027344 C 512.640625 624.949219 511.28125 615.433594 510.019531 604.9375 L 509.855469 603.546875 C 508.710938 593.882812 507.53125 583.59375 506.785156 573.4375 C 506.394531 568.125 506.121094 563.273438 505.949219 558.601562 C 505.859375 556.039062 506.003906 553.449219 506.148438 550.945312 C 506.171875 550.570312 506.199219 550.175781 506.21875 549.832031 C 506.269531 549.097656 506.320312 548.34375 506.34375 547.597656 L 506.355469 547.4375 L 506.355469 547.421875 C 506.363281 547.316406 506.375 547.171875 506.386719 547.023438 L 506.394531 546.832031 C 503.105469 547.863281 499.574219 548.78125 495.910156 549.570312 C 489.726562 550.96875 483.410156 551.703125 477.066406 551.761719 C 475.703125 551.761719 474.339844 551.71875 473.019531 551.640625 C 474.195312 565.589844 475.640625 578.007812 477.433594 589.601562 C 479.304688 601.65625 481.488281 613.851562 483.933594 625.84375 C 485.105469 631.617188 486.394531 637.53125 487.878906 643.914062 C 488.15625 645.101562 488.453125 646.300781 488.738281 647.464844 C 489.230469 649.453125 489.734375 651.5 490.160156 653.535156 C 490.570312 655.511719 490.671875 657.09375 489.878906 658.851562 C 490.546875 660.65625 491.148438 662.464844 491.734375 664.210938 C 491.734375 664.210938 491.738281 664.234375 491.738281 664.234375 C 491.933594 664.808594 492.128906 665.398438 492.324219 665.972656 L 492.554688 666.652344 C 492.808594 667.390625 493.109375 668.148438 493.398438 668.878906 C 494.105469 670.453125 494.613281 672.101562 494.921875 673.800781 C 495.039062 674.617188 495.015625 675.441406 494.859375 676.246094 C 494.679688 677.113281 494.320312 677.9375 493.808594 678.664062 C 492.441406 680.636719 490.214844 681.847656 487.808594 681.921875 L 487.765625 681.945312 C 487.738281 681.960938 487.710938 681.980469 487.679688 681.996094 C 486.855469 682.429688 485.933594 682.65625 485 682.644531 C 484.546875 682.644531 484.09375 682.597656 483.648438 682.503906 C 481.238281 682.980469 479.265625 683.34375 477.441406 683.65625 C 472.539062 684.5 467.488281 685.230469 462.003906 685.882812 C 453.085938 686.941406 443.40625 687.652344 432.40625 688.046875 C 424.765625 688.320312 416.621094 688.457031 407.503906 688.457031 C 395.933594 688.457031 384.171875 688.242188 372.789062 688.03125 L 372.730469 688.03125 C 361.351562 687.824219 349.578125 687.601562 338.003906 687.601562 C 332.949219 687.601562 328.300781 687.640625 323.78125 687.722656 C 306.96875 688.027344 288.878906 688.765625 268.476562 689.984375 C 266.335938 690.117188 264.074219 690.25 262.265625 690.359375 C 255.261719 690.785156 248.019531 691.226562 240.894531 691.578125 L 238.050781 691.71875 C 233.65625 691.925781 228.523438 692.148438 223.410156 692.148438 Z M 472.335938 536.019531 C 472.65625 540.863281 473.003906 545.613281 473.375 550.140625 L 478.683594 548.921875 C 483.800781 547.746094 489.234375 546.472656 494.546875 544.9375 C 498.148438 543.894531 501.960938 542.617188 506.195312 541.027344 C 508.339844 540.222656 510.296875 539.433594 512.171875 538.613281 C 513.128906 538.179688 514.070312 537.695312 514.980469 537.160156 L 515.753906 536.71875 C 515.574219 534.617188 515.246094 532.527344 514.765625 530.472656 C 514.621094 529.839844 514.414062 529.179688 514.210938 528.539062 C 514.066406 528.074219 513.910156 527.589844 513.785156 527.117188 C 513.511719 527.195312 513.230469 527.234375 512.945312 527.234375 C 512.828125 527.234375 512.710938 527.230469 512.59375 527.214844 C 512.726562 527.230469 512.789062 527.261719 512.796875 527.296875 C 512.808594 527.40625 512.34375 527.585938 511.933594 527.746094 C 511.730469 527.824219 511.539062 527.898438 511.425781 527.957031 L 511.394531 527.96875 C 510.609375 528.421875 509.871094 528.824219 509.125 529.214844 C 507.488281 530.074219 505.703125 530.917969 503.660156 531.792969 C 500.011719 533.335938 496.226562 534.546875 492.355469 535.414062 C 488.53125 536.273438 484.625 536.753906 480.703125 536.847656 C 480.363281 536.855469 480.023438 536.859375 479.703125 536.859375 C 477.21875 536.914062 474.738281 536.632812 472.328125 536.015625 Z M 143.816406 509.445312 L 143.675781 509.726562 C 142.558594 512.011719 142.09375 513.964844 142.25 515.691406 C 142.335938 516.683594 142.648438 517.636719 143.171875 518.480469 C 143.804688 519.476562 144.644531 520.324219 145.628906 520.96875 C 147.691406 522.359375 149.855469 523.582031 152.109375 524.628906 C 155.355469 526.171875 158.773438 527.476562 162.078125 528.734375 C 162.898438 529.042969 163.746094 529.371094 164.566406 529.6875 L 165.375 530.003906 C 173.289062 533.105469 180.558594 535.605469 187.589844 537.644531 C 191.511719 538.777344 195.394531 539.769531 199.128906 540.597656 C 203.101562 541.476562 207.039062 542.195312 210.84375 542.742188 C 214.03125 543.191406 217.390625 543.535156 220.84375 543.753906 C 220.894531 539.738281 220.878906 535.648438 220.863281 531.699219 L 220.863281 531.6875 C 220.863281 531.214844 220.863281 530.734375 220.863281 530.257812 C 220.453125 530.207031 220.039062 530.152344 219.636719 530.097656 C 218.878906 530 218.105469 529.898438 217.355469 529.808594 C 213.679688 529.378906 210.289062 528.882812 206.984375 528.296875 C 199.796875 527.011719 192.699219 525.230469 185.753906 522.96875 C 179.375 520.878906 173.160156 518.3125 167.164062 515.292969 C 161.191406 512.273438 155.449219 508.800781 150 504.914062 C 149.710938 505.988281 149.234375 507.003906 148.59375 507.914062 C 147.953125 508.808594 147.003906 509.421875 145.929688 509.640625 C 145.664062 509.695312 145.394531 509.726562 145.121094 509.730469 C 144.671875 509.730469 144.21875 509.636719 143.816406 509.4375 Z M 285.546875 365.210938 C 283.238281 365.269531 280.96875 365.78125 278.855469 366.699219 C 277.804688 367.148438 276.726562 367.609375 275.695312 368.167969 L 275.496094 368.277344 C 274.300781 368.960938 274.320312 369.382812 274.894531 370.730469 C 275.683594 372.484375 276.601562 374.179688 277.628906 375.804688 L 277.699219 375.921875 C 282.03125 383.023438 287.558594 389.320312 294.050781 394.53125 C 298.371094 398.039062 303.011719 401.132812 307.914062 403.761719 C 312.855469 406.410156 318.015625 408.628906 323.335938 410.390625 C 328.683594 412.164062 334.171875 413.503906 339.734375 414.394531 C 345.296875 415.28125 350.914062 415.734375 356.546875 415.734375 C 363.78125 415.742188 371 414.976562 378.070312 413.449219 C 384.933594 411.984375 391.59375 409.679688 397.894531 406.589844 C 404.199219 403.5 409.976562 399.441406 415.011719 394.554688 L 415.925781 393.648438 C 418.246094 391.433594 420.351562 389.003906 422.214844 386.402344 C 423.136719 385.082031 423.890625 383.652344 424.460938 382.148438 C 425.003906 380.726562 425.246094 379.210938 425.171875 377.6875 C 425.183594 376.667969 424.671875 375.714844 423.808594 375.164062 C 422.925781 374.699219 421.96875 374.382812 420.980469 374.238281 C 420.726562 374.183594 420.464844 374.128906 420.210938 374.070312 C 419.25 373.859375 418.320312 373.519531 417.453125 373.054688 C 417.601562 373.835938 417.535156 374.640625 417.261719 375.386719 C 416.960938 376.269531 416.554688 377.101562 416.050781 377.882812 C 415.113281 379.339844 414.019531 380.683594 412.785156 381.902344 C 408.929688 385.597656 404.449219 388.574219 399.554688 390.707031 C 394.941406 392.746094 390.140625 394.339844 385.226562 395.464844 C 380.304688 396.59375 375.328125 397.460938 370.320312 398.050781 C 365.40625 398.664062 360.453125 398.976562 355.5 398.984375 C 349.015625 399 342.546875 398.414062 336.171875 397.25 C 331.25 396.34375 326.421875 395.015625 321.734375 393.277344 C 317.046875 391.539062 312.550781 389.320312 308.320312 386.65625 C 304.386719 384.242188 300.734375 381.394531 297.433594 378.160156 L 296.75 377.472656 C 295.640625 376.347656 294.359375 375.027344 293.191406 373.605469 C 292.046875 372.265625 291.085938 370.777344 290.328125 369.183594 L 290.136719 369.183594 C 289.675781 369.183594 289.210938 369.167969 288.75 369.136719 C 288.558594 369.121094 288.40625 368.984375 288.363281 368.796875 C 288.324219 368.636719 288.40625 368.46875 288.550781 368.398438 C 288.945312 368.1875 289.363281 367.96875 289.796875 367.742188 C 289.71875 367.488281 289.660156 367.269531 289.613281 367.058594 C 289.601562 366.984375 289.613281 366.910156 289.671875 366.847656 C 289.714844 366.792969 289.78125 366.757812 289.851562 366.757812 C 289.890625 366.757812 289.929688 366.769531 289.964844 366.792969 C 290.199219 366.933594 290.433594 367.089844 290.691406 367.273438 C 290.753906 367.242188 290.820312 367.207031 290.886719 367.171875 C 289.65625 365.875 287.855469 365.210938 285.546875 365.210938 Z M 285.546875 365.210938 "/>
</g>
<path style=" stroke:none;fill-rule:nonzero;fill:rgb(100%,100%,100%);fill-opacity:1;" d="M 438.476562 170.675781 C 434.933594 157.933594 435.441406 156.558594 430.171875 144.386719 C 412.679688 109.035156 295.800781 120.871094 283.871094 156.160156 C 277.398438 175.300781 278.921875 202.265625 277.234375 218.871094 C 276.71875 227.667969 276.203125 236.472656 275.691406 245.273438 C 275.511719 248.308594 275.324219 251.351562 275.140625 254.390625 C 274.773438 260.308594 274.425781 266.222656 274.089844 272.140625 C 271.890625 290.375 281.058594 292.226562 296.785156 291.6875 C 300.941406 301.710938 307.675781 310.082031 315.996094 316.886719 C 313.988281 322.34375 321.265625 325.171875 325.195312 327.347656 C 346.558594 339.273438 372.804688 346.546875 396.476562 339.839844 C 403.429688 337.871094 432.144531 331.046875 440.976562 309.929688 C 445.308594 299.558594 454.125 245.851562 442.5 197.539062 L 438.476562 170.671875 Z M 438.476562 170.675781 "/>
<path style=" stroke:none;fill-rule:nonzero;fill:rgb(0%,0%,0%);fill-opacity:1;" d="M 389.660156 335.195312 C 386.476562 335.1875 383.296875 334.953125 380.144531 334.496094 C 376.480469 334.003906 372.878906 333.136719 369.398438 331.894531 C 367.605469 331.25 365.910156 330.355469 364.363281 329.238281 C 362.839844 328.105469 361.460938 326.785156 360.265625 325.304688 C 359.589844 324.390625 359.460938 323.1875 359.925781 322.148438 C 360.230469 321.417969 360.949219 320.953125 361.738281 320.96875 C 361.84375 320.96875 361.949219 320.972656 362.050781 320.988281 C 365.609375 321.359375 369.128906 322.046875 372.558594 323.046875 L 373.058594 323.207031 C 376.558594 324.355469 380.171875 325.128906 383.828125 325.515625 C 385.675781 325.695312 387.550781 325.785156 389.394531 325.785156 C 395.054688 325.796875 400.683594 324.941406 406.085938 323.242188 C 409 322.3125 411.820312 321.113281 414.503906 319.65625 C 417.191406 318.195312 419.746094 316.5 422.136719 314.59375 C 426.921875 310.765625 431.019531 306.152344 434.261719 300.953125 C 437.769531 295.320312 440.09375 288.953125 441.375 281.484375 C 442.601562 274.308594 442.714844 266.917969 442.664062 260.636719 C 442.550781 245.703125 442.066406 230.070312 441.21875 214.191406 L 441.078125 211.613281 C 440.726562 205.074219 440.261719 196.449219 439.855469 187.722656 C 439.71875 184.800781 439.53125 182.417969 439.25 180.214844 C 436.320312 178.566406 433.855469 176.191406 432.09375 173.324219 C 428.773438 174.652344 425.359375 175.726562 421.875 176.535156 C 417.101562 177.714844 412.199219 178.320312 407.28125 178.332031 C 404.40625 178.332031 401.535156 178.117188 398.691406 177.691406 C 396.621094 178.546875 394.480469 179.308594 392.324219 179.960938 C 391.726562 180.222656 391.140625 180.480469 390.574219 180.71875 C 385.40625 182.96875 380.070312 184.800781 374.609375 186.207031 L 373.261719 186.539062 C 370.28125 187.339844 367.234375 187.882812 364.160156 188.175781 C 363.625 188.378906 363.074219 188.542969 362.515625 188.679688 C 360.449219 189.179688 358.335938 189.429688 356.210938 189.429688 C 355.453125 189.429688 354.695312 189.398438 353.941406 189.332031 C 352.503906 189.226562 351.226562 188.398438 350.535156 187.140625 C 350.261719 186.621094 350.125 186.046875 350.136719 185.460938 C 350.148438 184.816406 350.335938 184.1875 350.664062 183.632812 C 351.773438 181.726562 352.921875 179.785156 354.070312 177.859375 C 350.074219 179.507812 345.984375 180.914062 341.820312 182.066406 C 338.125 183.105469 334.089844 184.089844 329.125 185.15625 C 328 185.394531 326.851562 185.625 325.738281 185.851562 L 325.730469 185.851562 C 324.605469 186.074219 323.433594 186.308594 322.296875 186.554688 C 321.933594 186.628906 321.53125 186.699219 321.101562 186.773438 C 319.589844 187.03125 317.878906 187.320312 316.851562 188.148438 C 315.714844 189.058594 315.21875 190.878906 314.78125 192.484375 C 314.65625 192.941406 314.539062 193.371094 314.414062 193.75 C 313.636719 196.089844 312.96875 198.253906 312.375 200.375 C 311.128906 204.828125 310.113281 209.339844 309.324219 213.890625 C 308.539062 218.460938 308 223.0625 307.710938 227.683594 C 307.589844 229.585938 307.539062 231.527344 307.488281 233.40625 C 307.421875 236.078125 307.351562 238.839844 307.070312 241.542969 C 307 242.308594 306.65625 243.023438 306.105469 243.554688 C 305.59375 244.039062 304.921875 244.3125 304.214844 244.316406 C 303.488281 244.308594 302.789062 244.027344 302.253906 243.535156 C 302.035156 243.339844 301.804688 243.132812 301.574219 242.929688 L 301.234375 242.617188 C 299.550781 241.144531 298.015625 239.511719 296.648438 237.742188 C 296.414062 237.417969 296.183594 237.074219 295.964844 236.71875 C 295.929688 236.71875 295.894531 236.707031 295.863281 236.683594 L 295.5 236.40625 C 291.644531 233.539062 288.324219 232.085938 285.636719 232.085938 C 283.71875 232.050781 281.90625 232.941406 280.753906 234.480469 C 279.46875 236.109375 278.824219 238.210938 278.320312 240.054688 L 277.386719 243.554688 C 276.75 245.828125 276.246094 248.140625 275.875 250.472656 C 275.449219 253.167969 275.445312 255.90625 275.855469 258.597656 C 276.238281 261.296875 277.363281 263.839844 279.105469 265.945312 C 280.535156 267.65625 282.539062 268.792969 284.746094 269.136719 C 285.070312 269.183594 285.394531 269.203125 285.71875 269.203125 C 286.46875 269.1875 287.214844 269.117188 287.953125 269.007812 L 287.96875 269.007812 C 288.121094 268.988281 288.273438 268.96875 288.425781 268.945312 C 288.734375 268.910156 289.050781 268.890625 289.359375 268.890625 C 289.691406 268.890625 290.023438 268.90625 290.351562 268.921875 C 290.675781 268.9375 291.011719 268.953125 291.34375 268.953125 C 291.625 268.953125 291.875 268.941406 292.113281 268.917969 C 292.191406 268.90625 292.269531 268.90625 292.339844 268.90625 C 293.050781 268.90625 293.710938 269.28125 294.066406 269.894531 C 294.558594 270.710938 294.621094 271.714844 294.21875 272.578125 C 293.851562 273.335938 293.375 274.027344 292.816406 274.652344 C 293.25 275.027344 293.660156 275.421875 294.050781 275.84375 C 295.261719 276.261719 296.308594 277.046875 297.054688 278.085938 C 297.664062 278.890625 298.019531 279.859375 298.074219 280.863281 C 298.140625 281.089844 298.199219 281.324219 298.261719 281.613281 L 299.335938 283.351562 C 299.601562 283.777344 299.828125 284.148438 300.039062 284.480469 C 302.679688 288.6875 305.886719 292.511719 309.566406 295.84375 C 310.90625 297.0625 312.316406 298.257812 313.675781 299.414062 C 316.066406 301.371094 323.351562 303.445312 325.53125 305.632812 L 325.929688 306.054688 C 327.605469 307.703125 329.050781 309.574219 330.226562 311.609375 C 331.445312 313.917969 331.769531 316.113281 331.210938 318.304688 C 330.90625 319.257812 330.03125 319.917969 329.023438 319.9375 C 328.660156 319.9375 328.300781 319.824219 328.003906 319.609375 C 325.816406 317.984375 324.238281 315.746094 322.71875 313.582031 C 321.710938 312.074219 319.703125 313.65625 318.488281 312.308594 C 316.871094 310.585938 311.019531 305.902344 309.339844 304.300781 C 307.703125 302.734375 306.015625 301.121094 304.429688 299.453125 C 301.429688 296.28125 298.984375 292.625 297.195312 288.644531 C 296.121094 289.683594 294.683594 290.273438 293.183594 290.28125 C 292.105469 290.277344 291.054688 289.953125 290.160156 289.355469 C 289.261719 288.757812 288.535156 287.933594 288.050781 286.96875 C 287.355469 287.285156 286.640625 287.554688 285.914062 287.78125 C 285.511719 287.90625 285.085938 287.976562 284.65625 287.976562 C 283.363281 287.964844 282.171875 287.285156 281.503906 286.179688 C 281.085938 285.515625 280.828125 284.761719 280.765625 283.980469 C 280.691406 283.171875 280.828125 282.359375 281.164062 281.613281 C 281.875 280.011719 282.855469 278.539062 284.070312 277.277344 C 280.351562 276.722656 276.894531 275.042969 274.160156 272.464844 C 271.246094 269.53125 269.289062 265.773438 268.566406 261.703125 C 268.171875 259.679688 267.984375 257.625 268.015625 255.566406 C 268.039062 253.507812 268.234375 251.453125 268.589844 249.425781 C 269.34375 245.121094 270.558594 240.921875 272.214844 236.878906 C 272.53125 236.113281 272.828125 235.429688 273.140625 234.792969 C 272.949219 234.792969 272.765625 234.703125 272.644531 234.554688 C 272.265625 234.039062 271.855469 233.550781 271.460938 233.074219 C 270.644531 232.179688 269.945312 231.191406 269.375 230.121094 C 269.210938 229.78125 269.035156 229.433594 268.871094 229.097656 C 268.246094 227.894531 267.679688 226.652344 267.183594 225.390625 C 265.875 221.863281 265.308594 217.914062 264.960938 214.867188 C 264.191406 207.75 264.390625 200.566406 265.550781 193.503906 C 266.484375 187.46875 268.066406 181.554688 270.265625 175.855469 C 272.453125 170.179688 275.230469 164.753906 278.554688 159.664062 C 278.191406 159.46875 277.84375 159.238281 277.523438 158.972656 L 277.363281 158.832031 L 277.105469 158.597656 C 276.246094 157.792969 275.75 156.667969 275.746094 155.488281 C 275.703125 154.175781 276.195312 152.898438 277.105469 151.941406 L 277.648438 151.394531 C 278.378906 150.648438 279.183594 149.984375 280.054688 149.414062 C 280.214844 149.304688 280.386719 149.199219 280.558594 149.105469 C 279.929688 147.964844 279.789062 146.609375 280.179688 145.367188 C 280.554688 144.042969 281.460938 142.933594 282.679688 142.304688 C 283.96875 141.664062 285.394531 141.347656 286.828125 141.390625 C 288.96875 141.410156 291.078125 141.890625 293.019531 142.796875 C 297.945312 138.394531 303.394531 134.625 309.25 131.558594 C 316.378906 127.878906 323.785156 124.753906 331.394531 122.222656 C 339.003906 119.671875 346.765625 117.597656 354.636719 116.023438 C 361.519531 114.5625 368.53125 113.785156 375.566406 113.71875 C 376.523438 113.71875 377.484375 113.738281 378.421875 113.765625 L 379.035156 113.792969 C 382.285156 113.871094 385.523438 114.175781 388.734375 114.703125 C 392.53125 115.390625 395.515625 116.480469 397.859375 118.042969 C 398.070312 117.828125 398.359375 117.703125 398.660156 117.699219 C 398.804688 117.699219 398.949219 117.734375 399.085938 117.792969 C 404.84375 120.542969 411.144531 122.585938 417.234375 124.566406 L 418.683594 125.035156 C 425.203125 127.167969 431.953125 128.542969 438.789062 129.121094 C 439.503906 129.1875 440.195312 129.433594 440.785156 129.839844 C 441.363281 130.230469 441.839844 130.765625 442.148438 131.390625 C 442.671875 132.417969 442.585938 133.648438 441.929688 134.59375 C 441.53125 135.207031 441.144531 135.816406 440.789062 136.386719 L 441.355469 136.328125 C 441.785156 136.28125 442.230469 136.230469 442.671875 136.191406 C 442.761719 136.183594 442.851562 136.175781 442.945312 136.175781 C 443.949219 136.222656 444.894531 136.671875 445.554688 137.425781 C 446.285156 138.160156 446.691406 139.160156 446.679688 140.199219 C 446.605469 141.453125 446.464844 142.707031 446.265625 143.949219 L 446.410156 143.949219 C 447.160156 143.941406 447.898438 144.082031 448.589844 144.371094 C 450.296875 145.089844 451.335938 146.441406 451.769531 148.5 C 452.136719 150.222656 452.015625 152.167969 451.863281 154.015625 C 451.429688 159.277344 449.410156 164.199219 446.324219 167.523438 C 447.566406 168.804688 448.640625 170.246094 449.523438 171.792969 C 450.429688 173.398438 451.140625 175.105469 451.644531 176.882812 C 452.460938 179.578125 452.789062 182.402344 452.625 185.214844 L 452.558594 186.050781 C 452.285156 189.238281 451.738281 192.480469 449.601562 194.621094 C 448.726562 195.527344 447.515625 196.042969 446.253906 196.050781 C 446.101562 196.050781 445.941406 196.039062 445.785156 196.023438 C 446.585938 203.058594 447.105469 210.257812 447.570312 217.035156 L 447.796875 220.382812 C 448.414062 229.789062 448.835938 237.515625 449.105469 244.707031 C 449.441406 253.523438 449.554688 261.488281 449.453125 269.050781 C 449.414062 272.808594 449.175781 276.5625 448.730469 280.292969 C 448.289062 283.972656 447.585938 287.609375 446.625 291.1875 C 445.664062 294.746094 444.390625 298.214844 442.816406 301.546875 C 441.199219 304.949219 439.238281 308.183594 436.96875 311.191406 C 434.855469 313.984375 432.511719 316.597656 429.960938 319.003906 C 427.421875 321.402344 424.675781 323.578125 421.765625 325.511719 C 418.855469 327.4375 415.78125 329.113281 412.578125 330.503906 C 409.359375 331.894531 406.019531 332.996094 402.601562 333.773438 C 398.351562 334.734375 394 335.21875 389.640625 335.210938 Z M 296.003906 259.007812 L 295.921875 259.007812 C 294.640625 258.96875 293.421875 258.480469 292.46875 257.621094 C 291.53125 256.738281 290.695312 255.761719 289.96875 254.699219 C 289.714844 254.359375 289.453125 254.007812 289.195312 253.667969 C 288.984375 254.054688 288.699219 254.402344 288.359375 254.6875 L 288.128906 254.867188 C 287.429688 255.476562 286.546875 255.832031 285.613281 255.886719 C 285.570312 255.886719 285.523438 255.886719 285.480469 255.886719 C 284.761719 255.855469 284.058594 255.664062 283.421875 255.332031 C 282.636719 254.894531 282.03125 254.191406 281.71875 253.347656 C 280.988281 251.503906 281.621094 249.40625 283.25 248.269531 L 282.949219 248.066406 C 282.285156 247.640625 281.710938 247.089844 281.253906 246.445312 L 281.148438 246.28125 L 281.191406 246.28125 C 280.730469 245.515625 280.976562 244.519531 281.746094 244.058594 C 281.863281 243.988281 281.988281 243.933594 282.125 243.894531 C 282.613281 243.738281 283.121094 243.664062 283.636719 243.667969 C 285.753906 243.667969 288.109375 244.761719 290.003906 245.640625 C 290.195312 245.730469 290.390625 245.820312 290.578125 245.90625 C 293.601562 247.289062 296.199219 249.382812 298.566406 251.4375 C 299.640625 252.371094 300.066406 253.988281 299.703125 255.75 L 299.683594 255.839844 C 299.660156 255.960938 299.636719 256.085938 299.609375 256.210938 C 299.421875 257.015625 298.945312 257.71875 298.273438 258.199219 C 297.625 258.703125 296.828125 258.992188 296.011719 259.011719 Z M 296.003906 259.007812 "/>
<path style=" stroke:none;fill-rule:nonzero;fill:rgb(0%,0%,0%);fill-opacity:1;" d="M 409.535156 324.195312 C 409.535156 324.195312 387.339844 327.453125 377.40625 322.847656 C 367.5 318.253906 357.863281 313.8125 348.878906 307.730469 C 339.675781 301.5 331.863281 294.101562 326.289062 284.632812 C 321.105469 275.816406 316.796875 266.46875 312.453125 257.183594 C 312.199219 256.644531 309.710938 251.25 308.828125 249.445312 C 307.476562 246.640625 303.515625 247.519531 303.515625 251.871094 C 303.515625 256.226562 303.320312 289.179688 310.929688 302.140625 C 317.796875 313.847656 329.429688 322.027344 340.988281 329.167969 C 353.78125 337.0625 370.769531 345.597656 386.03125 347.851562 C 399.839844 349.890625 415.601562 344.164062 425.601562 334.722656 C 436.054688 324.851562 439.015625 311.441406 444.410156 298.597656 C 445.613281 295.726562 441.34375 293.996094 440.089844 296.820312 C 437.730469 302.140625 409.535156 324.195312 409.535156 324.195312 Z M 409.535156 324.195312 "/>
<path style=" stroke:none;fill-rule:nonzero;fill:rgb(0%,0%,0%);fill-opacity:1;" d="M 409 317.296875 C 409.355469 317.671875 410.933594 318.539062 410.5 318.296875 C 411 318.296875 412.011719 318.570312 412.878906 318.589844 C 413.125 318.589844 413.371094 318.558594 413.605469 318.5 C 415.511719 318.035156 418.648438 315.898438 421.691406 313.824219 C 423.675781 312.46875 425.550781 311.191406 427.050781 310.390625 C 427.925781 310.125 428.828125 309.980469 429.746094 309.960938 C 431.101562 309.960938 432.128906 310.371094 432.804688 311.183594 C 433.675781 312.230469 433.929688 313.914062 433.535156 316.046875 C 433.363281 316.980469 432.140625 319.347656 430.269531 322.386719 C 428.960938 324.601562 427.484375 326.710938 425.859375 328.703125 C 424.175781 330.507812 422.28125 332.105469 420.226562 333.46875 C 418.160156 334.84375 415.953125 336 413.648438 336.917969 C 409.019531 338.761719 404.078125 339.710938 399.09375 339.714844 C 396.664062 339.714844 394.238281 339.480469 391.855469 339.007812 C 388.515625 338.660156 385.214844 338.039062 381.980469 337.132812 C 378.339844 336.179688 374.375 334.933594 370.511719 333.523438 C 367.101562 332.3125 363.761719 330.910156 360.503906 329.339844 C 357.613281 327.902344 355.71875 326.648438 355.023438 325.714844 C 354.804688 325.476562 354.699219 325.15625 354.734375 324.835938 C 355.191406 322.773438 355.929688 321.324219 357 320.398438 C 358 319.574219 359.265625 319.15625 360.554688 319.214844 C 362.539062 319.214844 364.804688 319.925781 366.988281 320.613281 C 368.148438 320.976562 369.355469 321.359375 370.464844 321.609375 C 375.566406 322.472656 380.726562 322.898438 385.894531 322.882812 C 392.679688 321.40625 391.449219 320.757812 390.988281 316.75 C 390.941406 316.296875 390.894531 315.941406 390.875 315.6875 C 390.789062 314.324219 390.949219 312.957031 391.34375 311.65625 C 391.761719 310.207031 392.480469 308.855469 393.460938 307.707031 C 394.839844 306.097656 396.824219 305.136719 398.941406 305.054688 C 399.066406 305.046875 399.195312 305.042969 399.320312 305.042969 C 400.65625 305.042969 401.960938 305.453125 403.046875 306.234375 C 404.085938 306.996094 404.953125 307.960938 405.609375 309.070312 C 406.738281 310.976562 407.503906 313.070312 407.855469 315.257812 M 426.425781 290.949219 C 424.109375 290.949219 422.378906 290.101562 420.375 289.125 C 418.753906 288.273438 417.054688 287.59375 415.296875 287.101562 C 413.144531 286.535156 410.816406 286.039062 408.554688 285.566406 C 404.289062 284.667969 400.261719 283.8125 398.039062 282.59375 C 393.691406 285.0625 388.839844 285.804688 384.15625 286.53125 L 384.148438 286.53125 L 383.195312 286.679688 C 380.628906 287.160156 378.101562 287.824219 375.636719 288.667969 C 372.128906 289.773438 368.503906 290.914062 365.234375 290.914062 C 364.921875 290.914062 364.605469 290.902344 364.304688 290.882812 C 364.230469 290.914062 364.144531 290.929688 364.058594 290.921875 C 363.324219 290.921875 361.761719 290.226562 360.730469 288.734375 C 360.121094 287.835938 359.765625 286.789062 359.695312 285.707031 C 359.621094 284.148438 359.894531 282.589844 360.496094 281.144531 C 361.179688 279.414062 362.191406 277.832031 363.464844 276.476562 C 364.828125 275.027344 366.386719 273.769531 368.078125 272.722656 C 371.78125 270.496094 375.808594 268.871094 380.019531 267.917969 C 384.054688 266.875 388.199219 266.296875 392.371094 266.203125 C 395.179688 266.203125 397.476562 266.59375 399.191406 267.367188 C 401.089844 266.753906 403.085938 266.457031 405.078125 266.503906 C 408.535156 266.546875 411.96875 267.097656 415.269531 268.136719 C 418.648438 269.136719 421.828125 270.714844 424.671875 272.800781 C 425.863281 273.730469 426.910156 274.839844 427.765625 276.085938 C 428.640625 277.347656 429.363281 278.707031 429.914062 280.140625 C 430.441406 281.472656 430.796875 282.871094 430.980469 284.296875 C 431.148438 285.496094 431.089844 286.71875 430.808594 287.898438 C 430.34375 289.632812 429.285156 290.664062 427.734375 290.863281 C 427.300781 290.921875 426.859375 290.953125 426.421875 290.953125 Z M 426.425781 290.949219 "/>
<path style=" stroke:none;fill-rule:nonzero;fill:rgb(0%,0%,0%);fill-opacity:1;" d="M 397.691406 294.210938 C 395.210938 294.207031 392.761719 293.714844 390.464844 292.773438 C 388.78125 292.082031 387.195312 291.171875 385.75 290.0625 C 384.300781 288.953125 383.011719 287.648438 381.910156 286.195312 C 381.230469 285.332031 380.941406 284.21875 381.109375 283.128906 C 381.308594 282.019531 381.925781 281.027344 382.828125 280.355469 C 383.554688 279.800781 384.441406 279.488281 385.355469 279.476562 C 385.546875 279.476562 385.730469 279.488281 385.921875 279.519531 C 386.996094 279.703125 387.941406 280.328125 388.53125 281.242188 L 388.683594 281.457031 C 389.96875 283.21875 391.664062 284.636719 393.625 285.601562 C 395.148438 286.347656 396.824219 286.742188 398.519531 286.746094 C 398.925781 286.746094 399.328125 286.71875 399.734375 286.675781 C 401.648438 286.460938 403.496094 285.8125 405.125 284.78125 C 406.789062 283.699219 408.324219 282.417969 409.691406 280.972656 C 410.015625 280.640625 410.363281 280.28125 410.808594 279.800781 C 411.03125 279.460938 411.359375 279.210938 411.738281 279.085938 C 411.933594 279.019531 412.140625 278.992188 412.34375 278.992188 C 413.019531 278.992188 413.648438 279.320312 414.035156 279.871094 C 414.285156 280.234375 414.394531 280.667969 414.355469 281.109375 C 414.210938 282.652344 413.75 284.152344 413.003906 285.515625 C 412.246094 286.894531 411.273438 288.148438 410.121094 289.21875 C 408.816406 290.4375 407.34375 291.46875 405.75 292.265625 C 404.21875 293.046875 402.585938 293.605469 400.898438 293.929688 C 399.839844 294.125 398.761719 294.21875 397.679688 294.21875 Z M 402.773438 265.4375 C 400.640625 265.402344 398.53125 264.980469 396.550781 264.183594 C 393.933594 263.136719 391.476562 261.742188 389.230469 260.03125 C 388.710938 259.628906 388.351562 259.054688 388.210938 258.410156 C 388.089844 257.800781 388.140625 257.167969 388.355469 256.585938 C 388.601562 255.894531 389.023438 255.28125 389.585938 254.804688 C 390.113281 254.335938 390.796875 254.070312 391.503906 254.054688 C 392.035156 254.054688 392.550781 254.222656 392.988281 254.511719 C 393.148438 254.632812 393.316406 254.761719 393.484375 254.890625 L 393.488281 254.890625 C 394.941406 256.066406 396.46875 257.125 398.074219 258.078125 C 400.144531 259.257812 401.941406 259.828125 403.566406 259.828125 C 404.359375 259.832031 405.148438 259.679688 405.886719 259.375 C 406.703125 259.019531 407.441406 258.5 408.046875 257.84375 C 409.214844 256.328125 409.675781 254.386719 409.300781 252.511719 C 408.859375 250.71875 407.933594 249.085938 406.625 247.785156 C 405.425781 246.519531 404.066406 245.421875 402.574219 244.519531 C 402.160156 244.164062 402.019531 243.578125 402.234375 243.074219 C 402.351562 242.71875 402.566406 242.402344 402.859375 242.175781 C 403.203125 241.910156 403.625 241.773438 404.054688 241.78125 C 404.199219 241.78125 404.34375 241.792969 404.484375 241.820312 C 406.171875 242.089844 407.789062 242.675781 409.261719 243.542969 C 410.519531 244.304688 411.613281 245.308594 412.46875 246.5 C 414.066406 248.792969 414.789062 251.578125 414.519531 254.355469 C 414.398438 255.78125 414.046875 257.167969 413.46875 258.480469 C 412.898438 259.792969 412.09375 260.992188 411.105469 262.019531 C 408.921875 264.265625 405.898438 265.5 402.769531 265.4375 Z M 344.335938 221.933594 C 344.109375 221.921875 343.90625 221.796875 343.796875 221.601562 C 343.65625 221.386719 343.640625 221.117188 343.75 220.894531 C 345.15625 218.246094 347.023438 215.875 349.28125 213.898438 C 351.515625 211.894531 354 210.195312 356.679688 208.84375 C 359.445312 207.398438 362.40625 206.367188 365.46875 205.777344 L 366.410156 205.613281 C 367.675781 205.367188 368.960938 205.226562 370.246094 205.199219 C 372.386719 205.199219 373.933594 205.777344 374.980469 206.960938 C 375.65625 207.757812 375.996094 208.777344 375.929688 209.816406 C 375.886719 210.542969 375.546875 211.21875 374.980469 211.683594 C 373.476562 212.898438 371.894531 213.148438 369.980469 213.148438 C 369.585938 213.148438 369.179688 213.136719 368.785156 213.128906 L 368.769531 213.128906 C 368.390625 213.117188 367.960938 213.109375 367.535156 213.109375 C 367.144531 213.109375 366.789062 213.117188 366.464844 213.136719 C 363.945312 213.28125 361.449219 213.707031 359.023438 214.40625 C 353.734375 215.917969 349.394531 218.660156 344.679688 221.820312 C 344.578125 221.890625 344.460938 221.933594 344.335938 221.9375 Z M 434.851562 218.148438 C 434.714844 218.121094 434.578125 218.085938 434.453125 218.050781 C 432.953125 217.640625 431.5 217.070312 430.113281 216.355469 L 428.703125 215.660156 C 427.078125 214.832031 425.394531 214.113281 423.671875 213.519531 C 419.941406 212.296875 416.101562 211.449219 412.203125 210.988281 C 411.375 210.910156 410.578125 210.609375 409.90625 210.113281 C 409.261719 209.628906 408.804688 208.941406 408.621094 208.15625 C 408.308594 207.167969 408.453125 206.09375 409.015625 205.222656 C 409.429688 204.519531 410.070312 203.96875 410.828125 203.660156 C 411.324219 203.460938 411.851562 203.359375 412.378906 203.363281 C 412.679688 203.363281 412.980469 203.394531 413.273438 203.453125 L 413.996094 203.597656 C 418.984375 204.644531 423.035156 205.957031 426.378906 207.617188 C 428.34375 208.566406 430.175781 209.769531 431.824219 211.195312 C 433.425781 212.578125 434.734375 214.265625 435.675781 216.164062 C 435.808594 217.207031 435.683594 217.460938 435.546875 217.636719 L 435.503906 217.683594 C 435.503906 217.683594 435.480469 217.714844 435.46875 217.734375 C 435.324219 217.945312 435.105469 218.089844 434.855469 218.144531 Z M 434.851562 218.148438 "/>
<path style=" stroke:none;fill-rule:nonzero;fill:rgb(0%,0%,0%);fill-opacity:1;" d="M 349.328125 242.398438 C 348.835938 242.378906 348.40625 242.0625 348.230469 241.597656 C 348.09375 241.246094 348.214844 240.851562 348.515625 240.625 C 350.683594 238.859375 353.03125 237.316406 355.503906 236.019531 C 358.003906 234.6875 360.621094 233.585938 363.316406 232.714844 C 362.929688 232.09375 362.679688 231.402344 362.589844 230.675781 C 362.496094 229.96875 362.574219 229.242188 362.835938 228.574219 C 362.921875 228.28125 363.03125 228.007812 363.125 227.773438 L 363.34375 227.234375 C 363.363281 226.980469 363.414062 226.722656 363.484375 226.480469 L 363.496094 226.40625 L 363.5 226.40625 C 363.699219 225.765625 364.050781 225.179688 364.519531 224.695312 C 364.988281 224.207031 365.578125 223.851562 366.230469 223.667969 C 366.554688 223.574219 366.890625 223.53125 367.226562 223.53125 C 367.75 223.53125 368.269531 223.640625 368.753906 223.847656 C 369.621094 224.015625 370.421875 224.429688 371.050781 225.046875 C 371.691406 225.648438 372.164062 226.40625 372.429688 227.242188 C 372.46875 227.382812 372.515625 227.527344 372.566406 227.664062 L 372.640625 227.875 L 372.433594 227.347656 C 372.511719 227.652344 372.628906 227.949219 372.789062 228.21875 C 372.914062 228.449219 373.023438 228.6875 373.105469 228.933594 C 373.289062 229.605469 373.34375 230.308594 373.273438 231 C 373.910156 231.007812 374.433594 231.03125 374.921875 231.070312 L 375.449219 231.117188 C 378.386719 231.390625 381.660156 231.894531 383.421875 234.453125 C 383.675781 234.839844 383.816406 235.292969 383.820312 235.757812 C 383.828125 236.242188 383.738281 236.71875 383.546875 237.164062 C 383.234375 237.980469 382.53125 238.582031 381.671875 238.757812 C 381.34375 238.804688 381.011719 238.832031 380.679688 238.832031 C 379.371094 238.769531 378.074219 238.515625 376.84375 238.070312 C 375.820312 237.730469 374.769531 237.480469 373.699219 237.332031 C 372.808594 237.230469 371.910156 237.1875 371.015625 237.1875 C 369.246094 237.191406 367.476562 237.355469 365.730469 237.683594 C 362.589844 238.332031 359.496094 239.195312 356.476562 240.269531 C 354.445312 240.941406 352.351562 241.632812 350.238281 242.183594 L 349.53125 242.363281 C 349.460938 242.378906 349.390625 242.382812 349.320312 242.382812 Z M 349.328125 242.398438 "/>
<path style=" stroke:none;fill-rule:nonzero;fill:rgb(0%,0%,0%);fill-opacity:1;" d="M 432.496094 238.203125 C 431.671875 238.222656 430.921875 237.746094 430.585938 236.992188 L 430.535156 236.886719 C 429.90625 235.421875 428.179688 234.683594 425.40625 234.683594 C 424.574219 234.6875 423.746094 234.742188 422.914062 234.84375 C 421.339844 235.058594 419.785156 235.394531 418.265625 235.859375 C 417.710938 236.019531 417.171875 236.1875 416.664062 236.351562 L 416.136719 236.527344 C 415.898438 236.601562 414.980469 237.097656 415 237.226562 C 415 237.246094 415.03125 237.257812 415.078125 237.257812 C 415.148438 237.257812 415.226562 237.242188 415.296875 237.226562 C 415.308594 237.226562 415.328125 237.222656 415.34375 237.222656 C 415.464844 237.222656 415.566406 237.3125 415.589844 237.425781 C 415.613281 237.523438 415.566406 237.617188 415.476562 237.65625 C 415.289062 237.746094 415.085938 237.796875 414.875 237.796875 C 414.453125 237.785156 414.054688 237.601562 413.773438 237.292969 C 413.441406 236.9375 413.261719 236.457031 413.289062 235.96875 C 413.398438 234.175781 415.925781 233.09375 417.589844 232.378906 C 417.816406 232.285156 418.023438 232.195312 418.210938 232.109375 L 418.304688 232.070312 C 418.921875 231.785156 419.550781 231.519531 420.175781 231.285156 C 419.804688 230.726562 419.5 230.125 419.265625 229.503906 C 419.03125 228.90625 418.871094 228.289062 418.785156 227.660156 C 418.699219 227.347656 418.699219 227.019531 418.785156 226.710938 L 418.800781 226.621094 C 418.753906 226.410156 418.734375 226.195312 418.738281 225.980469 L 418.730469 225.894531 L 418.738281 225.894531 C 418.761719 225.144531 419.054688 224.425781 419.566406 223.875 C 420.066406 223.359375 420.75 223.070312 421.46875 223.070312 C 422.210938 223.085938 422.925781 223.347656 423.503906 223.800781 L 423.664062 223.925781 C 424.785156 224.519531 425.710938 225.421875 426.328125 226.523438 C 426.980469 227.5 427.351562 228.632812 427.40625 229.800781 C 430.503906 229.8125 433.011719 230.847656 434.855469 232.875 C 435.441406 233.515625 435.984375 234.640625 435.601562 235.683594 L 435.386719 236.261719 C 434.886719 237.421875 433.761719 238.183594 432.5 238.210938 Z M 432.496094 238.203125 "/>
</g>
</svg>
