<?xml version="1.0" encoding="UTF-8"?>
<svg xmlns="http://www.w3.org/2000/svg" xmlns:xlink="http://www.w3.org/1999/xlink" width="px" height="px" viewBox="0 0 120 162" version="1.1">
<g id="surface1">
<path style=" stroke:none;fill-rule:evenodd;fill:rgb(100%,100%,100%);fill-opacity:1;" d="M 25.75 142.441406 C 32.21875 142.621094 38.328125 142.820312 44.785156 142.441406 C 55.117188 141.800781 85.433594 142.953125 92.097656 142.441406 C 92.597656 142.402344 94.328125 142.953125 94.363281 142.441406 C 94.65625 138.867188 94.847656 102.722656 93.976562 100.238281 C 93.105469 97.75 88.8125 85.792969 83.335938 80.21875 C 81.808594 78.714844 79.488281 78.128906 78.203125 76.390625 C 77.097656 74.492188 77.183594 73.378906 76.09375 72.378906 C 75.617188 71.945312 74.5 71.769531 73.667969 71.167969 C 72.832031 70.339844 73.625 68.511719 73.28125 67.351562 C 72.574219 64.464844 69.972656 62.613281 67.125 62.175781 C 63.171875 61.230469 58.996094 62.125 57.101562 65.234375 C 56.394531 66.390625 56.769531 67.796875 55.902344 69.648438 C 55.964844 71.050781 54.332031 71.390625 53.351562 71.945312 L 51.414062 73.90625 C 45.433594 77.273438 38.398438 79.089844 33.160156 83.609375 C 28.707031 88.128906 24.277344 93.355469 22.300781 99.46875 C 21.890625 101.136719 21.757812 102.859375 21.589844 104.5625 C 21.105469 109.539062 19.757812 114.367188 18.597656 119.214844 C 17.273438 125.320312 16.042969 131.804688 17.824219 137.96875 C 18.339844 139.273438 24.582031 142.378906 25.75 142.441406 Z M 25.75 142.441406 "/>
<path style=" stroke:none;fill-rule:evenodd;fill:rgb(0%,0%,0%);fill-opacity:1;" d="M 56.757812 65.730469 C 56.808594 65.5625 57.03125 65.609375 57.050781 65.769531 C 57.21875 67.363281 57.007812 69.027344 56.804688 70.613281 C 56.707031 71.375 56.648438 72.171875 56.503906 72.921875 C 56.484375 73.003906 56.464844 73.085938 56.449219 73.164062 C 56.496094 73.253906 56.640625 73.347656 56.710938 73.417969 L 57.007812 73.707031 L 57.605469 74.285156 C 58.773438 75.417969 59.945312 76.550781 61.113281 77.683594 L 62.828125 79.347656 C 63.417969 79.917969 64.085938 80.464844 64.601562 81.101562 C 64.882812 81.449219 64.945312 81.871094 64.671875 82.242188 C 64.535156 82.425781 64.289062 82.558594 64.042969 82.585938 C 64.140625 82.71875 64.214844 82.871094 64.261719 83.042969 C 64.359375 83.390625 64.007812 83.816406 63.636719 83.671875 C 63.210938 83.507812 62.863281 83.214844 62.429688 83.078125 C 61.996094 82.933594 61.523438 82.90625 61.070312 82.984375 C 60.863281 83.019531 60.660156 83.070312 60.464844 83.136719 C 62.578125 84.109375 64.863281 84.667969 67.195312 84.75 C 67.671875 84.765625 68.148438 84.757812 68.617188 84.726562 C 69.414062 84.675781 70.203125 84.554688 70.976562 84.359375 C 71.585938 84.207031 72.191406 84.015625 72.777344 83.78125 C 73.0625 83.667969 73.347656 83.542969 73.621094 83.398438 L 73.644531 83.386719 C 73.707031 83.347656 74.855469 82.695312 74.875 82.597656 C 74.894531 82.5 74.894531 82.464844 74.859375 82.378906 C 74.832031 82.324219 74.785156 82.277344 74.71875 82.234375 C 74.363281 82.085938 73.996094 81.945312 73.609375 81.941406 C 72.714844 81.9375 71.742188 82.59375 71.007812 83.042969 C 70.195312 83.539062 69.449219 84.113281 68.671875 84.648438 C 68.652344 84.660156 68.632812 84.667969 68.613281 84.667969 C 68.53125 84.667969 68.457031 84.566406 68.507812 84.488281 C 69.066406 83.664062 69.820312 82.976562 70.609375 82.378906 L 70.929688 82.140625 C 71.652344 81.601562 72.496094 81.003906 73.375 80.875 C 74.449219 80.71875 75.574219 81.386719 76.535156 81.78125 L 78.234375 82.476562 C 78.539062 82.601562 78.867188 82.707031 79.171875 82.847656 L 78.460938 80.617188 C 78.105469 79.5 77.75 78.386719 77.398438 77.269531 L 77.328125 77.050781 C 76.980469 75.917969 76.65625 74.738281 76.074219 73.703125 C 75.933594 73.453125 75.773438 73.222656 75.617188 72.984375 C 75.453125 72.742188 75.394531 72.472656 75.1875 72.253906 C 74.777344 71.820312 74.195312 71.566406 73.636719 71.402344 C 73.5 71.363281 73.542969 71.183594 73.667969 71.167969 C 74.242188 71.109375 74.789062 71.242188 75.304688 71.484375 L 75.519531 71.585938 C 76.007812 71.816406 76.484375 72.03125 76.847656 72.449219 C 77.675781 73.398438 78.105469 74.59375 78.5 75.769531 L 78.609375 76.085938 C 78.753906 76.039062 79.761719 76.34375 79.886719 76.417969 C 83.652344 78.011719 86.550781 80.976562 88.671875 84.449219 C 90.996094 88.257812 92.261719 92.609375 93.308594 96.914062 C 93.628906 98.242188 93.9375 99.574219 94.234375 100.910156 C 92.914062 101.417969 91.511719 101.683594 90.277344 102.402344 C 89.804688 102.671875 90.230469 103.402344 90.703125 103.128906 C 91.859375 102.460938 93.179688 102.214844 94.417969 101.742188 C 95.089844 104.835938 95.6875 107.945312 96.1875 111.066406 C 97.722656 120.648438 98.695312 130.386719 98.632812 140.101562 C 98.632812 140.316406 98.566406 140.554688 98.449219 140.761719 C 98.519531 140.726562 98.574219 140.6875 98.605469 140.640625 C 98.992188 140.027344 99.972656 140.59375 99.578125 141.210938 L 99.523438 141.300781 C 99.226562 141.753906 98.953125 142.097656 98.4375 142.355469 C 97.914062 142.613281 97.351562 142.65625 96.777344 142.671875 C 94.824219 142.722656 92.867188 142.757812 90.914062 142.78125 C 90.644531 140.6875 90.535156 138.578125 90.167969 136.496094 C 90.070312 135.960938 89.257812 136.1875 89.351562 136.722656 C 89.707031 138.730469 89.824219 140.769531 90.070312 142.789062 C 85.890625 142.835938 81.710938 142.835938 77.53125 142.847656 C 71.871094 142.863281 66.214844 142.851562 60.554688 142.851562 L 58.128906 142.847656 C 51.589844 142.847656 45.050781 142.828125 38.511719 142.785156 L 36.957031 142.773438 C 36.335938 139.125 35.917969 135.445312 35.910156 131.738281 C 35.90625 131.195312 35.0625 131.195312 35.0625 131.738281 C 35.070312 135.441406 35.488281 139.121094 36.101562 142.769531 C 34.550781 142.761719 33.003906 142.765625 31.457031 142.824219 L 30.667969 142.851562 C 29.09375 142.90625 27.511719 142.9375 25.9375 142.8125 C 24.191406 142.671875 22.425781 142.351562 20.859375 141.527344 C 20.152344 141.15625 19.53125 140.679688 19 140.121094 C 19.539062 139.808594 20.085938 139.507812 20.609375 139.164062 C 21.0625 138.867188 20.640625 138.136719 20.183594 138.433594 C 19.621094 138.804688 19.027344 139.125 18.449219 139.464844 C 18.027344 138.90625 17.683594 138.28125 17.421875 137.613281 C 17.007812 136.550781 16.847656 135.410156 16.710938 134.289062 C 16.546875 132.96875 16.480469 131.632812 16.480469 130.304688 C 16.480469 127.503906 16.773438 124.710938 17.183594 121.945312 C 17.578125 119.292969 18.097656 116.664062 18.644531 114.042969 L 18.722656 113.6875 C 19.261719 111.109375 19.78125 108.527344 20.402344 105.96875 C 20.976562 103.601562 21.640625 101.246094 22.429688 98.9375 C 23.132812 99.375 23.871094 99.753906 24.5625 100.207031 C 25.019531 100.507812 25.445312 99.777344 24.992188 99.480469 C 24.25 98.996094 23.460938 98.59375 22.714844 98.121094 C 23.601562 95.648438 24.640625 93.230469 25.882812 90.917969 C 28.375 86.289062 31.734375 82.144531 36.039062 79.085938 C 38.191406 77.554688 40.554688 76.304688 43.035156 75.390625 C 45.566406 74.460938 48.1875 73.953125 50.867188 73.742188 C 50.945312 73.738281 50.988281 73.808594 50.984375 73.875 L 50.984375 73.886719 L 51.089844 73.902344 C 51.128906 73.636719 51.210938 73.382812 51.363281 73.144531 C 51.710938 72.609375 52.371094 72.265625 52.898438 71.933594 L 53.027344 71.855469 C 53.652344 71.46875 54.316406 71.082031 55.046875 70.945312 C 55.074219 70.941406 55.089844 70.96875 55.070312 70.988281 C 54.589844 71.542969 53.972656 71.964844 53.410156 72.429688 L 53.277344 72.539062 C 52.8125 72.925781 52.15625 73.363281 52.140625 74.007812 C 52.121094 74.765625 52.277344 75.554688 52.332031 76.3125 C 52.386719 77.066406 52.425781 77.820312 52.445312 78.578125 C 52.519531 81.285156 52.433594 84 52.191406 86.699219 L 53.253906 85.988281 C 54.902344 84.882812 56.558594 83.78125 58.25 82.746094 C 59.273438 82.121094 60.421875 81.582031 61.648438 81.609375 C 61.988281 81.613281 62.378906 81.664062 62.75 81.769531 C 62.347656 81.390625 61.964844 80.988281 61.574219 80.605469 C 60.929688 79.976562 60.28125 79.347656 59.636719 78.71875 L 57.777344 76.90625 L 55.914062 75.09375 C 55.339844 74.53125 54.664062 74.011719 54.722656 73.125 C 54.773438 72.414062 55.132812 71.710938 55.378906 71.027344 C 55.414062 70.929688 55.445312 70.832031 55.476562 70.734375 C 55.972656 69.085938 56.253906 67.375 56.757812 65.730469 Z M 80.808594 136.554688 C 80.425781 136.167969 79.828125 136.765625 80.210938 137.152344 L 80.417969 137.355469 C 80.757812 137.695312 81.09375 138.042969 81.328125 138.464844 L 81.363281 138.527344 C 81.617188 139.007812 82.347656 138.582031 82.09375 138.101562 C 81.78125 137.503906 81.28125 137.023438 80.808594 136.554688 Z M 64.316406 136.445312 C 63.089844 136.210938 61.910156 136.210938 60.683594 136.445312 C 60.152344 136.546875 60.378906 137.363281 60.910156 137.261719 C 61.980469 137.054688 63.019531 137.054688 64.09375 137.261719 C 64.625 137.359375 64.851562 136.546875 64.316406 136.445312 Z M 47.765625 127.921875 C 47.238281 127.789062 47.015625 128.605469 47.542969 128.738281 L 47.800781 128.804688 C 48.6875 129.023438 49.527344 129.183594 50.445312 128.980469 C 50.96875 128.867188 50.757812 128.070312 50.242188 128.164062 L 50.21875 128.167969 C 49.371094 128.355469 48.589844 128.132812 47.765625 127.921875 Z M 77.160156 122.433594 C 76.769531 122.050781 76.171875 122.648438 76.5625 123.03125 C 77.050781 123.503906 77.625 123.863281 78.320312 123.882812 C 78.855469 123.898438 78.863281 123.078125 78.34375 123.039062 L 78.320312 123.039062 C 77.855469 123.023438 77.480469 122.746094 77.160156 122.433594 Z M 27.425781 120.175781 C 27.910156 119.929688 27.484375 119.199219 26.996094 119.445312 L 24.078125 120.90625 C 23.589844 121.148438 24.019531 121.878906 24.503906 121.632812 Z M 85.136719 120.359375 C 84.589844 120.34375 84.59375 121.191406 85.136719 121.207031 C 85.648438 121.21875 86.171875 121.414062 86.625 121.632812 C 87.113281 121.871094 87.542969 121.144531 87.050781 120.90625 C 86.457031 120.617188 85.804688 120.378906 85.136719 120.359375 Z M 57.847656 116.277344 C 58.292969 115.972656 57.871094 115.242188 57.421875 115.546875 C 56.804688 115.96875 56.246094 116.460938 55.640625 116.894531 L 55.472656 117.007812 C 55.027344 117.3125 55.449219 118.046875 55.898438 117.738281 C 56.570312 117.28125 57.175781 116.734375 57.847656 116.277344 Z M 89.273438 110.132812 C 88.730469 110.132812 88.726562 110.980469 89.273438 110.980469 L 89.375 110.980469 C 89.824219 110.976562 90.296875 110.964844 90.714844 111.144531 L 90.761719 111.164062 C 91.253906 111.394531 91.683594 110.667969 91.191406 110.433594 C 90.578125 110.148438 89.9375 110.132812 89.273438 110.132812 Z M 42.34375 109.53125 L 42.414062 109.503906 C 42.921875 109.320312 42.703125 108.503906 42.1875 108.6875 C 41.414062 108.964844 40.8125 109.492188 40.140625 109.949219 C 39.691406 110.253906 40.113281 110.984375 40.566406 110.679688 C 41.144531 110.285156 41.683594 109.789062 42.34375 109.53125 Z M 74.039062 107.332031 L 74.152344 107.269531 C 74.636719 107.019531 74.210938 106.292969 73.726562 106.539062 C 73.34375 106.738281 73 107 72.625 107.210938 L 72.507812 107.269531 C 72.027344 107.519531 72.453125 108.25 72.9375 108 C 73.320312 107.800781 73.664062 107.539062 74.039062 107.332031 Z M 61.183594 99.140625 L 61.097656 99.058594 C 60.707031 98.675781 60.109375 99.273438 60.5 99.65625 C 61.472656 100.609375 62.621094 101.332031 63.78125 102.03125 L 63.992188 102.15625 C 64.457031 102.4375 64.882812 101.707031 64.417969 101.425781 L 64.109375 101.242188 C 63.078125 100.617188 62.058594 99.976562 61.183594 99.140625 Z M 37.796875 98.351562 C 38.125 97.925781 37.414062 97.511719 37.078125 97.910156 L 37.066406 97.925781 C 36.726562 98.371094 36.324219 98.769531 35.898438 99.136719 L 35.820312 99.203125 C 35.566406 99.417969 35.109375 99.878906 34.753906 99.910156 C 34.21875 99.953125 34.214844 100.800781 34.753906 100.753906 C 35.304688 100.707031 35.773438 100.320312 36.1875 99.992188 C 36.789062 99.511719 37.328125 98.964844 37.796875 98.351562 Z M 82.757812 95.273438 C 83.148438 94.90625 82.570312 94.316406 82.171875 94.664062 L 82.160156 94.675781 C 81.425781 95.367188 80.371094 95.550781 79.425781 95.785156 C 78.898438 95.914062 79.121094 96.730469 79.648438 96.597656 L 80.082031 96.492188 C 81.046875 96.253906 82.015625 95.972656 82.757812 95.273438 Z M 66.019531 89.941406 C 65.492188 89.808594 65.269531 90.621094 65.796875 90.757812 C 66.691406 90.984375 67.542969 91.277344 68.371094 91.6875 C 68.859375 91.925781 69.289062 91.199219 68.796875 90.957031 C 67.90625 90.515625 66.984375 90.1875 66.019531 89.941406 Z M 74.652344 72.121094 C 74.640625 72.082031 74.679688 72.039062 74.71875 72.050781 C 75.667969 72.40625 75.164062 73.648438 74.871094 74.390625 L 74.816406 74.527344 C 74.355469 75.71875 73.710938 76.878906 73.003906 77.949219 C 72.269531 79.066406 71.453125 80.132812 70.566406 81.136719 C 70.183594 81.574219 69.785156 81.996094 69.371094 82.40625 L 69.21875 82.5625 C 68.800781 82.96875 68.265625 83.6875 67.621094 83.609375 C 66.925781 83.527344 66.535156 82.785156 67.042969 82.21875 C 67.402344 81.820312 67.898438 81.5 68.296875 81.136719 C 68.695312 80.777344 69.082031 80.40625 69.457031 80.027344 C 70.222656 79.242188 70.949219 78.414062 71.613281 77.542969 C 72.257812 76.699219 72.871094 75.835938 73.429688 74.933594 L 73.542969 74.753906 C 73.96875 74.050781 74.949219 73.023438 74.652344 72.121094 Z M 41.054688 80.976562 C 40.601562 80.667969 40.179688 81.398438 40.628906 81.703125 C 41.449219 82.265625 42.171875 82.945312 43.0625 83.410156 C 43.535156 83.65625 43.960938 82.949219 43.503906 82.6875 L 43.488281 82.679688 C 42.597656 82.21875 41.875 81.535156 41.054688 80.976562 Z M 41.054688 80.976562 "/>
<path style=" stroke:none;fill-rule:evenodd;fill:rgb(100%,100%,100%);fill-opacity:1;" d="M 69.65625 72.859375 C 67.3125 72.875 65.320312 72.207031 63.796875 71.105469 C 61.902344 70.429688 59.613281 69.386719 58.222656 68.289062 C 57.679688 68.429688 57.03125 67.851562 56.617188 67.546875 C 54.035156 65.621094 52.011719 62.800781 51.410156 59.972656 C 50.484375 61.144531 49.164062 61.191406 47.902344 60.609375 C 45.253906 59.109375 45.355469 55.945312 46.308594 53.582031 C 44.304688 49.085938 42.914062 37.214844 45.972656 32.421875 C 46.597656 31.707031 47.515625 31.277344 48.179688 30.542969 C 48.765625 29.898438 49.324219 29.242188 50.011719 28.734375 C 52.097656 27.144531 55.695312 26.300781 57.945312 25.902344 C 67.347656 23.867188 74.566406 27.523438 83.082031 30.605469 C 82.59375 31.828125 81.914062 32.949219 81.136719 33.992188 C 83.25 34.78125 82.28125 36.554688 80.640625 37.453125 L 79.664062 36.980469 C 81.1875 42.425781 84.6875 55.972656 83.175781 60.320312 C 81.972656 67.109375 76.683594 72.910156 69.65625 72.859375 "/>
<path style=" stroke:none;fill-rule:evenodd;fill:rgb(0%,0%,0%);fill-opacity:1;" d="M 57.859375 25.292969 C 62.089844 24.515625 66.433594 24.476562 70.609375 25.570312 C 72.742188 26.128906 74.804688 26.910156 76.871094 27.671875 C 79.027344 28.46875 81.1875 29.257812 83.347656 30.050781 C 83.539062 30.121094 83.726562 30.34375 83.640625 30.566406 C 83.199219 31.6875 82.632812 32.734375 81.9375 33.707031 C 82.492188 33.984375 82.875 34.589844 82.886719 35.273438 C 82.910156 36.464844 81.792969 37.253906 80.902344 37.832031 C 80.75 37.933594 80.597656 37.929688 80.472656 37.871094 C 81.425781 41.5 82.339844 45.144531 83.109375 48.816406 L 83.164062 49.066406 C 83.933594 52.78125 84.429688 56.570312 83.703125 60.335938 C 83.082031 63.5625 81.632812 66.675781 79.371094 69.078125 C 77.164062 71.425781 74.199219 72.90625 70.992188 73.234375 C 68.015625 73.539062 64.472656 72.851562 62.488281 70.429688 C 62.371094 70.289062 62.515625 70.078125 62.683594 70.171875 L 62.871094 70.277344 C 64.277344 71.054688 65.738281 71.714844 67.332031 71.996094 C 68.980469 72.289062 70.652344 72.257812 72.285156 71.886719 C 78.550781 70.457031 82.300781 64.359375 82.875 58.257812 C 83.234375 54.390625 82.398438 50.546875 81.53125 46.804688 C 80.621094 42.890625 79.628906 38.996094 78.472656 35.148438 C 78.429688 35.003906 78.4375 34.875 78.480469 34.765625 C 77.207031 34.066406 75.609375 35.617188 74.648438 36.273438 C 74 36.71875 73.296875 37.039062 72.507812 37.089844 C 71.675781 37.140625 70.863281 36.878906 70.113281 36.554688 C 68.574219 35.898438 67.128906 35.140625 65.5 34.703125 C 63.878906 34.265625 62.199219 34.050781 60.519531 34.066406 C 57.480469 34.09375 54.445312 34.890625 52.585938 37.457031 C 51.808594 38.527344 51.316406 39.761719 51.710938 41.082031 C 51.921875 41.789062 52.316406 42.429688 52.753906 43.019531 L 52.894531 43.214844 C 53.265625 43.71875 53.570312 44.210938 53.1875 44.828125 C 52.976562 45.175781 52.65625 45.453125 52.421875 45.785156 C 52.214844 46.082031 52.027344 46.398438 51.882812 46.730469 C 51.601562 47.378906 51.480469 48.074219 51.453125 48.777344 C 51.402344 50.179688 51.769531 51.527344 51.847656 52.917969 C 51.855469 53.089844 51.628906 53.085938 51.574219 52.957031 C 50.941406 51.453125 50.523438 49.65625 50.71875 48.015625 C 50.8125 47.238281 51.046875 46.488281 51.429688 45.800781 C 51.648438 45.40625 51.914062 45.042969 52.207031 44.695312 L 52.308594 44.578125 C 52.445312 44.417969 52.550781 44.269531 52.4375 44.023438 C 52.339844 43.820312 52.128906 43.625 51.992188 43.4375 C 51.152344 42.300781 50.515625 40.949219 50.71875 39.503906 C 50.917969 38.082031 51.855469 36.761719 52.847656 35.765625 C 55.054688 33.542969 58.480469 33.046875 61.472656 33.167969 C 63.230469 33.238281 64.988281 33.550781 66.660156 34.089844 C 67.488281 34.359375 68.292969 34.683594 69.078125 35.054688 L 69.253906 35.140625 C 69.980469 35.492188 70.703125 35.875 71.496094 36.070312 C 73.316406 36.519531 74.378906 35.171875 75.789062 34.320312 L 75.859375 34.28125 C 76.949219 33.648438 78.429688 33.390625 79.414062 34.335938 C 79.492188 34.410156 79.535156 34.496094 79.546875 34.582031 C 79.601562 34.644531 79.640625 34.722656 79.667969 34.816406 C 79.871094 35.582031 80.074219 36.34375 80.273438 37.109375 C 80.308594 37.0625 80.351562 37.019531 80.410156 36.984375 L 80.652344 36.828125 C 81.109375 36.53125 81.59375 36.183594 81.820312 35.691406 C 81.996094 35.296875 81.835938 34.429688 81.257812 34.484375 L 81.230469 34.484375 C 80.765625 34.546875 80.4375 34.074219 80.769531 33.691406 C 81.550781 32.789062 82.203125 31.785156 82.683594 30.695312 L 79.421875 29.488281 C 78.335938 29.085938 77.25 28.683594 76.160156 28.285156 L 75.566406 28.066406 C 73.582031 27.335938 71.582031 26.625 69.519531 26.15625 C 65.402344 25.222656 61.113281 25.441406 57.007812 26.320312 L 56.761719 26.375 C 55.035156 26.75 53.285156 27.207031 51.699219 28 C 50.910156 28.394531 50.160156 28.875 49.519531 29.480469 C 48.855469 30.101562 48.339844 30.863281 47.628906 31.4375 L 47.238281 31.75 C 46.632812 32.234375 46.09375 32.714844 45.753906 33.46875 C 45.40625 34.242188 45.238281 35.09375 45.101562 35.925781 C 44.765625 37.984375 44.632812 40.074219 44.644531 42.164062 C 44.667969 45.835938 45.25 49.433594 45.972656 53.023438 C 46.476562 52.097656 47.269531 51.316406 48.359375 51.175781 C 49.53125 51.023438 50.683594 51.613281 51.238281 52.65625 C 51.257812 52.699219 51.207031 52.738281 51.175781 52.707031 C 50.222656 51.804688 48.660156 51.753906 47.691406 52.664062 C 46.773438 53.519531 46.492188 54.910156 46.480469 56.113281 C 46.472656 57.351562 46.777344 58.824219 47.851562 59.585938 C 48.296875 59.902344 48.835938 60.09375 49.382812 60.097656 C 49.953125 60.105469 50.488281 59.851562 51.023438 59.679688 C 51.425781 59.546875 51.671875 60.007812 51.523438 60.332031 C 51.496094 60.394531 51.464844 60.453125 51.429688 60.511719 L 51.71875 60.984375 C 52.585938 62.40625 53.46875 63.800781 54.625 65.023438 C 55.289062 65.726562 55.996094 66.390625 56.769531 66.972656 L 56.882812 67.054688 C 57.164062 67.265625 57.585938 67.691406 57.957031 67.707031 C 58.269531 67.71875 58.4375 67.558594 58.65625 67.882812 C 58.75 68.019531 58.742188 68.226562 58.65625 68.363281 C 58.101562 69.265625 56.960938 68.386719 56.375 67.9375 L 56.304688 67.882812 C 55.476562 67.25 54.6875 66.550781 54 65.769531 C 52.761719 64.363281 51.652344 62.695312 51.144531 60.871094 C 50.285156 61.675781 48.667969 61.46875 47.683594 61 C 45.074219 59.761719 44.726562 56.097656 45.664062 53.679688 C 45.691406 53.617188 45.714844 53.554688 45.742188 53.488281 C 44.113281 49.402344 43.617188 44.859375 43.753906 40.492188 C 43.820312 38.464844 43.957031 36.332031 44.433594 34.355469 C 44.640625 33.492188 45.003906 32.671875 45.582031 31.992188 C 46.214844 31.246094 47.132812 30.824219 47.796875 30.097656 L 47.941406 29.9375 C 48.5 29.324219 49.03125 28.726562 49.703125 28.226562 C 50.4375 27.675781 51.25 27.25 52.09375 26.894531 C 53.929688 26.117188 55.90625 25.652344 57.859375 25.292969 Z M 47.644531 55.421875 C 48.417969 55.054688 49.273438 54.890625 50.125 55.003906 L 50.210938 55.015625 C 50.945312 55.125 52.191406 55.433594 52.335938 56.253906 C 52.382812 56.535156 52.214844 56.839844 51.894531 56.832031 C 51.496094 56.820312 51.285156 56.617188 50.984375 56.390625 C 50.691406 56.171875 50.371094 55.988281 50.03125 55.855469 C 49.289062 55.566406 48.511719 55.472656 47.726562 55.613281 C 47.617188 55.628906 47.53125 55.476562 47.644531 55.421875 Z M 47.644531 55.421875 "/>
<path style=" stroke:none;fill-rule:evenodd;fill:rgb(0%,0%,0%);fill-opacity:1;" d="M 71.574219 64.136719 C 70.867188 63.847656 70.230469 63.363281 69.769531 62.746094 C 69.609375 62.53125 69.566406 62.304688 69.601562 62.097656 C 69.636719 61.863281 69.777344 61.652344 69.964844 61.511719 C 70.152344 61.371094 70.386719 61.300781 70.617188 61.335938 C 70.816406 61.367188 71.011719 61.472656 71.167969 61.699219 L 71.199219 61.746094 C 71.476562 62.117188 71.835938 62.421875 72.242188 62.621094 C 72.636719 62.808594 73.078125 62.898438 73.535156 62.847656 C 74.402344 62.75 75.003906 62.277344 75.640625 61.640625 C 75.71875 61.558594 75.796875 61.476562 75.875 61.394531 C 75.925781 61.316406 75.996094 61.265625 76.074219 61.242188 C 76.160156 61.210938 76.253906 61.214844 76.34375 61.246094 C 76.429688 61.273438 76.507812 61.332031 76.558594 61.40625 C 76.605469 61.480469 76.632812 61.566406 76.625 61.667969 C 76.566406 62.332031 76.222656 62.921875 75.730469 63.382812 C 75.183594 63.898438 74.460938 64.253906 73.78125 64.378906 C 73.03125 64.519531 72.269531 64.417969 71.574219 64.136719 Z M 74.136719 53.933594 C 74.933594 54.417969 76.148438 55.550781 75.289062 56.75 C 74.28125 57.8125 72.824219 56.597656 72.109375 56.046875 C 71.445312 55.621094 70.699219 56.714844 71.316406 57.214844 C 76.492188 61.050781 78.59375 54.058594 74.539062 53.363281 C 74.09375 53.285156 73.925781 53.78125 74.136719 53.933594 Z M 64.855469 49.472656 C 64.945312 48.378906 66.609375 48.128906 66.773438 49.210938 C 66.921875 50.179688 66.75 51.074219 66.3125 51.945312 C 65.894531 52.78125 64.847656 52.390625 64.765625 51.632812 C 64.660156 50.613281 64.800781 50.152344 64.855469 49.472656 Z M 77.539062 48.988281 C 77.769531 48.683594 78.105469 48.476562 78.507812 48.59375 C 79.761719 48.960938 79.394531 50.742188 78.953125 51.609375 C 78.710938 52.082031 77.9375 52.199219 77.589844 51.785156 C 77.019531 51.109375 76.746094 49.757812 77.46875 49.089844 C 77.488281 49.058594 77.511719 49.023438 77.539062 48.988281 Z M 66.292969 44.683594 L 66.492188 44.648438 C 67.105469 44.542969 67.867188 44.441406 68.304688 44.933594 C 68.535156 45.195312 68.613281 45.679688 68.304688 45.933594 C 67.757812 46.371094 67.15625 46.203125 66.503906 46.238281 C 65.96875 46.269531 65.449219 46.359375 64.933594 46.507812 C 63.796875 46.832031 62.871094 47.425781 61.902344 48.074219 C 61.773438 48.160156 61.644531 47.996094 61.707031 47.878906 C 62.265625 46.78125 63.351562 45.878906 64.4375 45.332031 C 65.019531 45.039062 65.652344 44.792969 66.292969 44.683594 Z M 76.394531 44.191406 L 76.546875 44.222656 C 78.195312 44.566406 80.34375 45.257812 81.125 46.878906 C 81.15625 47.109375 81.125 47.160156 81.097656 47.191406 L 81.089844 47.203125 C 81.070312 47.230469 81.050781 47.265625 80.953125 47.296875 C 80.925781 47.292969 80.898438 47.285156 80.867188 47.277344 C 80.511719 47.183594 80.226562 47.054688 79.953125 46.921875 L 79.652344 46.773438 C 79.308594 46.605469 78.960938 46.441406 78.589844 46.320312 C 77.800781 46.0625 76.992188 45.882812 76.167969 45.785156 C 75.988281 45.765625 75.816406 45.703125 75.683594 45.601562 C 75.554688 45.503906 75.457031 45.367188 75.410156 45.1875 C 75.351562 44.953125 75.371094 44.777344 75.496094 44.566406 C 75.589844 44.40625 75.722656 44.296875 75.878906 44.234375 C 76.035156 44.171875 76.214844 44.15625 76.394531 44.191406 Z M 76.394531 44.191406 "/>
<path style=" stroke:none;fill-rule:evenodd;fill:rgb(100%,100%,100%);fill-opacity:1;" d="M 51.066406 53.023438 C 51.8125 53.023438 52.117188 54.761719 52.117188 54.761719 C 54.019531 58.039062 55.84375 61.304688 59.105469 63.558594 C 62.726562 65.007812 66.289062 67.480469 70.414062 67.75 C 72.273438 67.554688 72.816406 65.851562 75.113281 66.453125 C 76.578125 66.808594 78.226562 67.511719 79.578125 66.496094 C 80.726562 65.746094 81.53125 64.613281 82.519531 63.695312 C 82.566406 63.53125 82.894531 65.277344 82.796875 65.867188 L 82.71875 66.203125 C 82.109375 68.90625 81.492188 72.085938 78.753906 73.570312 C 77.921875 74.007812 76.75 74.433594 75.824219 74.1875 C 70.9375 74.964844 65.632812 74.394531 61.351562 71.957031 C 59.84375 71.5625 58.722656 70.359375 57.535156 69.453125 C 54.632812 66.90625 51.304688 63.683594 50.992188 59.820312 C 50.683594 55.953125 50.820312 53.023438 51.066406 53.023438 Z M 65.835938 60.65625 C 67.5 57.984375 70.804688 58.417969 73.378906 59.636719 C 74.800781 58.667969 76.675781 58.847656 78.214844 59.527344 C 79.636719 60.304688 80.710938 61.582031 81.699219 62.800781 C 81.941406 63.125 82.035156 63.5625 81.699219 63.722656 C 80.105469 65.035156 76.792969 64.265625 75.289062 63.289062 C 74.207031 63.199219 74.445312 61.660156 73.191406 62.738281 C 72.359375 63.523438 71.308594 64.011719 70.167969 64.300781 C 67.621094 65.175781 65.277344 65.027344 63.058594 63.664062 C 62.773438 63.636719 61.601562 62.976562 62.019531 62.738281 C 62.46875 62.863281 64.972656 61.425781 65.835938 60.65625 Z M 65.835938 60.65625 "/>
<path style=" stroke:none;fill-rule:evenodd;fill:rgb(0%,0%,0%);fill-opacity:1;" d="M 50.675781 55.898438 C 50.695312 55.757812 50.914062 55.75 50.917969 55.898438 C 51.019531 58.988281 52.023438 62.378906 53.726562 65.027344 C 57.820312 71.710938 66.171875 75.058594 74.210938 73.910156 C 80.082031 73.828125 80.710938 70.5 82.171875 65.851562 C 82.929688 65.226562 83.300781 65.449219 83.066406 66.179688 C 81.253906 71.792969 80.636719 75.007812 73.476562 74.949219 C 61.976562 76.589844 49.503906 67.183594 50.675781 55.898438 Z M 66.921875 58.390625 C 68.800781 57.550781 71.03125 57.671875 72.597656 58.828125 L 72.707031 58.855469 C 72.984375 58.917969 73.246094 58.960938 73.554688 58.929688 C 77.703125 56.746094 80.46875 60.554688 82.597656 63.40625 C 82.757812 63.414062 82.886719 63.539062 82.84375 63.6875 L 82.910156 63.757812 C 82.644531 64.476562 82.160156 65.171875 81.5 65.605469 C 79.328125 68.496094 77.707031 67.59375 74.882812 66.402344 C 71.976562 65.96875 71.859375 69.394531 67.804688 67.824219 L 67.652344 67.777344 C 66.316406 67.335938 64.785156 66.667969 63.816406 65.699219 C 63.785156 65.667969 63.816406 65.609375 63.863281 65.625 C 66.113281 66.300781 69.007812 68.519531 71.296875 67.023438 C 71.875 66.636719 72.394531 66.164062 73.042969 65.871094 C 76.738281 64.636719 78.035156 69.519531 81.269531 64.449219 C 78.636719 64.90625 75.667969 64.453125 73.703125 62.660156 C 70.757812 66.203125 65.035156 65.636719 61.394531 63.433594 C 60.894531 63.503906 60.160156 63.011719 60.617188 62.542969 C 61.121094 62.144531 61.914062 62.300781 62.53125 62.085938 C 64.496094 61.382812 64.960938 59.152344 66.921875 58.390625 Z M 73.5 59.871094 C 71.421875 58.394531 68.3125 58.144531 66.320312 59.890625 C 65.078125 61.136719 64.273438 62.929688 62.269531 63.261719 C 65.707031 65.242188 70.652344 65.273438 73.300781 62.121094 C 73.382812 61.851562 73.816406 61.96875 73.867188 62.203125 C 75.765625 63.527344 78.191406 64.230469 80.554688 63.824219 C 80.933594 63.761719 81.3125 63.675781 81.675781 63.558594 L 81.328125 63.082031 C 79.472656 60.542969 77.089844 57.585938 73.554688 59.675781 C 73.472656 59.714844 73.4375 59.613281 73.429688 59.558594 L 73.386719 59.589844 C 73.417969 59.65625 73.675781 59.871094 73.5 59.871094 Z M 82.015625 64.28125 C 82.03125 64.296875 82.046875 64.3125 82.058594 64.328125 C 82.117188 64.300781 82.175781 64.269531 82.238281 64.238281 L 82.222656 64.226562 C 82.15625 64.246094 82.085938 64.261719 82.015625 64.28125 Z M 50.945312 52.058594 L 50.945312 51.957031 C 50.945312 50.9375 51.21875 52.222656 51.339844 52.476562 C 51.871094 53.429688 52.3125 54.375 52.875 55.304688 C 55.125 59.351562 55.472656 61.105469 60.003906 63.410156 C 60.339844 63.699219 59.984375 64.214844 59.566406 64.109375 C 58.941406 63.949219 58.351562 63.550781 57.808594 63.230469 C 54.722656 61.636719 53.570312 58.390625 52.1875 55.5625 C 51.78125 54.445312 50.84375 53.246094 50.945312 52.058594 Z M 50.945312 52.058594 "/>
<path style=" stroke:none;fill-rule:evenodd;fill:rgb(0%,0%,0%);fill-opacity:1;" d="M 85.363281 51.175781 C 84.355469 57.992188 77.324219 58.746094 76.074219 51.980469 C 76.277344 51.890625 76.417969 51.71875 76.390625 51.382812 C 76.382812 49.910156 76.839844 48.351562 78.167969 47.53125 C 79.542969 46.683594 81.152344 46.601562 82.742188 46.621094 C 85.773438 46.550781 85.710938 49.085938 85.363281 51.175781 M 74.972656 48.210938 C 74.023438 48.171875 72.816406 48.207031 71.964844 48.785156 C 71.730469 48.15625 71.121094 47.480469 70.503906 47.121094 C 72.792969 47.1875 75.148438 46.960938 77.453125 46.785156 C 76.902344 47.164062 76.390625 47.726562 76.054688 48.382812 C 75.746094 48.214844 75.300781 48.230469 74.972656 48.210938 M 70.777344 51.898438 C 68.136719 60.992188 61.546875 57.027344 60.828125 55.863281 C 59.53125 53.933594 59.289062 49.246094 60.417969 47.996094 C 62.03125 46.859375 64.320312 47.152344 66.230469 47.125 C 69.738281 47.171875 72.226562 48.222656 70.777344 51.898438 M 88.480469 47.71875 C 87.761719 47.625 86.996094 47.605469 86.328125 47.921875 C 86.121094 47.046875 85.476562 46.316406 84.75 45.996094 C 84.664062 45.886719 84.675781 45.828125 84.375 45.84375 C 82.527344 45.289062 80.457031 45.582031 78.683594 46.152344 C 75.878906 46.386719 72.933594 46.574219 70.105469 46.898438 C 67.457031 45.707031 59.460938 45.535156 58.964844 48.46875 C 58.339844 48.375 57.273438 47.882812 56.75 48.550781 C 52.898438 47.898438 48.917969 48.804688 45.046875 49.210938 C 44.074219 49.390625 43.570312 51.324219 44.675781 51.296875 C 45.296875 51.128906 44.65625 50.09375 45.496094 50.015625 C 49.226562 49.605469 52.878906 49.027344 56.652344 48.960938 C 56.519531 49.609375 59.144531 49.652344 59.183594 49.273438 C 59.191406 49.277344 59.195312 49.277344 59.203125 49.28125 C 58.554688 51.699219 59.136719 55.179688 60.3125 56.679688 C 61.953125 58.644531 66.078125 59.207031 67.90625 57.945312 C 70.265625 56.777344 72.71875 50.921875 72.03125 48.976562 C 73.28125 48.582031 74.519531 48.699219 75.816406 48.902344 C 75.519531 49.742188 75.007812 51.8125 75.746094 51.988281 C 75.609375 56.09375 79.34375 58.65625 82.789062 56.972656 C 85.769531 55.574219 86.808594 51.144531 86.445312 48.453125 C 86.816406 49.171875 89.929688 48.390625 88.480469 47.71875 "/>
</g>
</svg>
