<?xml version="1.0" encoding="UTF-8"?>
<svg xmlns="http://www.w3.org/2000/svg" xmlns:xlink="http://www.w3.org/1999/xlink" width="px" height="px" viewBox="0 0 120 162" version="1.1">
<g id="surface1">
<path style=" stroke:none;fill-rule:evenodd;fill:rgb(100%,100%,100%);fill-opacity:1;" d="M 122.957031 97.46875 C 124.039062 96.90625 125.09375 96.292969 126.136719 95.652344 C 126.867188 95.214844 126.21875 94.109375 125.46875 94.507812 C 125.085938 94.714844 124.703125 94.917969 124.316406 95.121094 C 124.621094 94.863281 124.898438 94.578125 125.152344 94.269531 L 125.132812 94.253906 C 126.101562 93.382812 124.859375 91.746094 123.757812 92.460938 C 122.785156 93.164062 121.808594 93.882812 120.691406 94.347656 C 118.382812 95.324219 115.839844 95.488281 113.359375 95.515625 C 112.453125 95.449219 111.585938 95.605469 110.707031 95.78125 C 111.054688 94.394531 111.917969 93.351562 112.375 92.007812 C 112.710938 90.65625 110.757812 89.734375 110.066406 91.035156 C 109.898438 91.355469 109.734375 91.679688 109.578125 92.003906 C 108.082031 93.363281 105.582031 93.242188 104.074219 94.707031 C 103.214844 95.46875 102.792969 96.503906 102.628906 97.542969 C 102.515625 98.25 102.691406 98.957031 102.261719 99.582031 C 100.203125 102.5 96.945312 107.109375 95.289062 110.320312 C 94.117188 102.691406 90.988281 93.253906 87.757812 86.277344 C 86.691406 84.046875 85.46875 81.867188 83.863281 79.976562 C 84.042969 79.34375 83.402344 78.226562 82.992188 78.570312 C 81.738281 77.035156 79.515625 76.636719 77.730469 75.875 C 75.316406 74.839844 73.316406 72.699219 72.335938 70.261719 C 71.070312 65.621094 67.960938 65.03125 63.644531 65.234375 C 59.515625 65.230469 56.464844 66.996094 55.5625 71.203125 C 53.730469 74.394531 49.410156 73.863281 46.300781 74.710938 C 44.023438 75.230469 41.8125 76.035156 39.710938 77.058594 C 37.375 74.839844 29.003906 84.148438 28.242188 86.542969 C 28.6875 86.632812 29.132812 86.734375 29.574219 86.863281 C 29.96875 86.976562 29.804688 87.570312 29.40625 87.476562 C 28.914062 87.355469 28.417969 87.277344 27.917969 87.21875 C 27.902344 87.265625 27.890625 87.3125 27.878906 87.359375 C 27.824219 87.355469 27.769531 87.351562 27.710938 87.347656 C 27.835938 87.414062 27.957031 87.488281 28.074219 87.585938 C 28.355469 87.820312 27.988281 88.269531 27.6875 88.082031 C 27.40625 87.871094 27.039062 87.90625 26.699219 87.835938 C 26.679688 88.53125 24.199219 87.753906 23.816406 87.523438 C 22.101562 87.308594 20.34375 87.539062 18.746094 86.710938 C 16.617188 86.265625 14.476562 85.769531 12.375 85.199219 C 11.816406 85.414062 11.292969 86.191406 11.734375 86.761719 C 11.984375 87.023438 11.664062 87.445312 11.351562 87.261719 C 10.300781 86.640625 9.488281 85.675781 8.800781 84.636719 C 8.476562 84.308594 7.902344 84.378906 7.464844 84.246094 C 7.40625 84.351562 7.375 84.464844 7.375 84.585938 C 5.527344 84.890625 6.84375 86.90625 7.773438 87.535156 C 7.28125 87.859375 7.261719 88.484375 7.304688 89.011719 C 7.199219 89.199219 7.164062 89.429688 7.257812 89.640625 C 7.605469 90.4375 8.355469 91.113281 8.925781 91.761719 C 9.558594 92.480469 10.121094 93.199219 10.886719 93.78125 C 13.8125 96.011719 17.339844 97.257812 20.960938 97.746094 C 22.246094 97.941406 24.097656 98.246094 24.894531 99.332031 C 24.699219 100.625 24.339844 101.859375 24.011719 103.121094 C 23.558594 104.789062 23.589844 106.539062 23.582031 108.242188 C 23.519531 108.191406 23.398438 108.203125 23.378906 108.300781 C 23.273438 109.003906 23.195312 109.726562 22.765625 110.320312 C 22.390625 111.425781 22.140625 112.601562 22 113.757812 C 21.4375 119.253906 21.300781 124.910156 22.570312 130.320312 C 23.0625 132.328125 23.859375 134.234375 24.945312 135.988281 C 25.269531 136.511719 25.789062 136.667969 26.257812 136.5625 C 27.820312 137.375 29.792969 137.636719 31.476562 137.429688 C 37.226562 135.804688 35.222656 139.722656 43.285156 138.523438 C 57.195312 136.75 71.257812 140.234375 85.140625 138.1875 C 85.480469 140.832031 89.957031 140.074219 91.511719 138.957031 C 96.175781 135.488281 98.488281 124.511719 100.828125 118.941406 C 102.4375 114.554688 105.128906 106.78125 108.65625 103.835938 C 109.714844 103.007812 110.992188 102.570312 112.273438 102.21875 C 117.046875 100.988281 121.835938 99.824219 126.621094 98.628906 C 127.429688 98.429688 127.285156 97.046875 126.417969 97.132812 C 125.265625 97.253906 124.113281 97.359375 122.957031 97.46875 Z M 122.957031 97.46875 "/>
<path style=" stroke:none;fill-rule:evenodd;fill:rgb(0%,0%,0%);fill-opacity:1;" d="M 16.695312 96.648438 C 16.371094 96.605469 16.054688 96.492188 15.738281 96.402344 C 15.257812 96.261719 14.789062 96.097656 14.324219 95.910156 C 13.367188 95.527344 12.4375 95.074219 11.570312 94.519531 C 10.164062 93.621094 8.921875 92.472656 7.984375 91.085938 L 7.917969 90.988281 C 7.382812 90.175781 6.398438 88.363281 7.503906 87.746094 C 6.789062 87.148438 6.117188 86.078125 6.15625 85.253906 C 6.207031 84.085938 7.640625 84.101562 8.382812 84.597656 C 8.867188 84.921875 9.230469 85.375 9.59375 85.820312 C 9.996094 86.320312 10.429688 86.792969 10.875 87.246094 C 10.996094 87.367188 11.117188 87.484375 11.238281 87.601562 L 11.359375 87.71875 C 11.339844 87.671875 11.324219 87.625 11.308594 87.578125 C 11.0625 86.808594 11.355469 85.804688 12.128906 85.453125 C 12.597656 85.234375 13.089844 85.367188 13.542969 85.550781 L 13.613281 85.578125 C 14.230469 85.835938 14.851562 86.058594 15.492188 86.242188 C 18.101562 86.976562 20.824219 87.097656 23.496094 87.46875 C 24.527344 87.609375 25.578125 87.789062 26.601562 88.054688 C 26.992188 86.394531 27.949219 84.800781 28.988281 83.492188 C 33.96875 77.230469 42.175781 75.160156 49.683594 73.820312 C 50.371094 73.699219 50.9375 74.605469 51.335938 74.390625 C 52.089844 73.984375 52.753906 73.410156 53.339844 72.785156 C 54.582031 71.453125 55.464844 69.886719 56.5 68.398438 C 57.011719 67.667969 58.191406 68.324219 57.714844 69.109375 L 57.484375 69.496094 C 56.523438 71.070312 55.460938 72.695312 54.085938 73.917969 C 53.355469 74.566406 52.542969 75.078125 51.617188 75.398438 C 50.914062 75.640625 49.929688 75.84375 49.160156 75.609375 L 49.066406 75.476562 C 49.097656 75.519531 49.128906 75.566406 49.160156 75.609375 C 51.167969 78.519531 53.6875 80.980469 56.339844 83.304688 C 59.019531 85.648438 61.90625 87.75 64.8125 89.800781 L 65.054688 89.972656 C 69.792969 86.515625 73.792969 82.011719 76.597656 76.859375 C 76.011719 76.789062 75.429688 76.414062 74.925781 76.132812 C 74.320312 75.792969 73.75 75.386719 73.308594 74.84375 C 72.339844 73.664062 72.464844 72.148438 72.292969 70.71875 C 72.28125 70.628906 72.398438 70.605469 72.453125 70.652344 C 72.976562 71.085938 73.160156 71.800781 73.378906 72.414062 C 73.621094 73.09375 73.890625 73.652344 74.445312 74.128906 C 74.960938 74.570312 75.585938 74.898438 76.195312 75.1875 C 76.511719 75.335938 78.070312 75.722656 78.25 76.039062 C 80.945312 75.40625 83.570312 76.5 85.566406 78.34375 C 87.496094 80.128906 88.914062 82.445312 90.164062 84.730469 C 91.5 87.171875 92.59375 89.71875 93.535156 92.332031 C 94.488281 94.988281 95.222656 97.699219 95.625 100.496094 C 95.964844 102.851562 96.171875 105.242188 96.308594 107.625 L 96.324219 107.921875 C 98.316406 104.792969 100.363281 101.691406 102.449219 98.621094 C 101.972656 97.355469 102.5 96.0625 103.386719 95.082031 C 104.371094 94 105.734375 93.496094 107.035156 92.910156 L 107.207031 92.835938 C 107.835938 92.546875 108.460938 92.230469 109.003906 91.804688 C 109.523438 91.390625 109.910156 90.816406 110.457031 90.4375 C 111.257812 89.878906 112.707031 90 112.742188 91.214844 C 112.761719 91.878906 112.476562 92.613281 112.214844 93.210938 C 111.917969 93.886719 111.515625 94.5 111.039062 95.066406 C 111.019531 95.09375 110.996094 95.113281 110.96875 95.128906 L 110.953125 95.140625 C 111.609375 95.25 112.269531 95.335938 112.945312 95.367188 C 114.308594 95.429688 115.683594 95.332031 117.015625 95.042969 C 118.382812 94.75 119.703125 94.273438 120.933594 93.605469 C 121.980469 93.039062 122.953125 92.300781 124.144531 92.128906 C 124.253906 92.113281 124.367188 92.101562 124.480469 92.09375 C 124.667969 92.085938 124.859375 92.308594 124.785156 92.496094 C 124.742188 92.601562 124.699219 92.703125 124.652344 92.804688 C 124.242188 93.714844 123.609375 94.59375 122.820312 95.261719 L 122.757812 95.3125 C 123.039062 95.21875 123.3125 95.109375 123.582031 94.988281 C 125.164062 94.273438 126.601562 93.195312 128.296875 92.761719 C 128.378906 92.742188 128.460938 92.722656 128.539062 92.707031 C 129.066406 92.59375 129.34375 93.164062 129.035156 93.554688 C 128.984375 93.617188 128.933594 93.679688 128.882812 93.742188 C 128.125 94.683594 127.289062 95.554688 126.371094 96.339844 C 126.054688 96.609375 125.726562 96.867188 125.394531 97.117188 C 125.257812 97.222656 125.117188 97.324219 124.972656 97.425781 L 124.902344 97.476562 C 125.070312 97.359375 125.234375 97.238281 125.394531 97.117188 C 126.4375 96.800781 127.460938 96.429688 128.460938 96.015625 C 128.859375 95.851562 129.171875 96.253906 129.210938 96.585938 C 129.355469 97.699219 128.121094 98.503906 127.316406 99.039062 C 126.511719 99.574219 125.625 99.980469 124.71875 100.308594 C 122.972656 100.941406 121.140625 101.226562 119.3125 101.484375 L 118.425781 101.609375 C 114.90625 102.097656 111.234375 102.6875 108.710938 105.425781 C 107.292969 106.960938 106.335938 108.867188 105.460938 110.742188 C 104.585938 112.617188 103.820312 114.539062 103.089844 116.472656 C 102.335938 118.472656 101.675781 120.511719 100.976562 122.535156 C 100.335938 124.390625 99.570312 126.222656 98.808594 128.035156 L 98.6875 128.324219 C 97.074219 132.179688 95.148438 135.808594 92.464844 139.027344 C 92.019531 139.558594 91.304688 138.804688 91.714844 138.277344 C 94.523438 134.65625 96.476562 130.382812 98.089844 126.117188 C 98.824219 124.175781 99.441406 122.191406 100.144531 120.238281 L 100.566406 119.082031 C 101.125 117.535156 101.691406 115.992188 102.28125 114.460938 C 103.027344 112.523438 103.847656 110.605469 104.789062 108.753906 L 104.886719 108.558594 C 105.808594 106.769531 106.898438 105.007812 108.402344 103.652344 C 111.109375 101.214844 114.710938 100.632812 118.191406 100.167969 L 119.285156 100.023438 C 120.757812 99.828125 122.234375 99.613281 123.664062 99.21875 C 124.492188 98.992188 125.300781 98.703125 126.058594 98.304688 C 126.359375 98.144531 126.65625 97.972656 126.941406 97.78125 C 126.125 98.019531 125.300781 98.214844 124.460938 98.367188 C 124.050781 98.445312 123.644531 98.5 123.238281 98.539062 C 122.195312 98.640625 121.15625 98.636719 120.085938 98.582031 C 119.996094 98.578125 119.964844 98.433594 120.0625 98.417969 C 120.808594 98.285156 121.554688 98.117188 122.296875 97.9375 L 122.519531 97.882812 C 122.523438 97.761719 122.574219 97.628906 122.675781 97.503906 C 123.042969 97.054688 123.746094 96.824219 124.234375 96.503906 C 124.746094 96.171875 125.238281 95.8125 125.710938 95.429688 C 126.140625 95.078125 126.554688 94.703125 126.953125 94.316406 L 127.074219 94.199219 C 127.03125 94.238281 126.992188 94.277344 126.953125 94.316406 C 125.878906 94.8125 124.859375 95.449219 123.734375 95.84375 C 122.84375 96.15625 121.90625 96.367188 120.960938 96.441406 L 120.902344 96.449219 L 120.84375 96.453125 C 119.859375 96.523438 118.867188 96.492188 117.898438 96.707031 C 117.789062 96.730469 117.753906 96.585938 117.851562 96.542969 C 118.699219 96.191406 119.582031 96.054688 120.472656 95.890625 C 120.492188 95.820312 120.542969 95.757812 120.625 95.71875 L 120.855469 95.609375 C 121.535156 95.28125 122.167969 94.953125 122.730469 94.421875 C 123.230469 93.957031 123.644531 93.410156 123.957031 92.800781 C 122.707031 93.074219 121.613281 94.019531 120.480469 94.550781 C 119.242188 95.132812 117.933594 95.550781 116.589844 95.785156 L 116.4375 95.8125 C 113.925781 96.230469 110.90625 96.179688 108.660156 94.871094 C 108.585938 94.828125 108.636719 94.734375 108.710938 94.746094 C 109.351562 94.847656 109.980469 94.972656 110.613281 95.082031 C 110.492188 94.96875 110.433594 94.765625 110.578125 94.605469 C 111.144531 93.953125 111.59375 93.210938 111.878906 92.398438 L 111.9375 92.238281 C 112.066406 91.859375 112.289062 91.273438 112.0625 90.933594 C 111.84375 90.609375 111.332031 90.652344 111.027344 90.792969 C 110.390625 91.078125 109.964844 91.796875 109.429688 92.230469 C 108.84375 92.703125 108.179688 93.054688 107.496094 93.367188 L 107.355469 93.433594 C 106.175781 93.964844 104.917969 94.410156 103.988281 95.347656 C 103.492188 95.847656 103.0625 96.476562 102.917969 97.183594 C 102.851562 97.507812 102.851562 97.839844 102.941406 98.160156 C 103.007812 98.410156 103.152344 98.5625 103.070312 98.820312 C 102.960938 99.148438 102.582031 99.539062 102.382812 99.832031 C 102.15625 100.171875 101.929688 100.511719 101.703125 100.851562 C 101.25 101.527344 100.796875 102.207031 100.347656 102.886719 C 99.445312 104.25 98.550781 105.617188 97.667969 106.988281 C 97.378906 107.433594 97.089844 107.882812 96.804688 108.328125 L 96.375 109 L 96.148438 109.355469 L 95.765625 109.964844 C 95.777344 110.019531 95.777344 110.078125 95.757812 110.128906 C 95.691406 110.316406 95.570312 110.445312 95.417969 110.539062 L 95.390625 110.554688 C 93.132812 114.121094 90.917969 117.707031 88.675781 121.28125 C 88.554688 122.371094 88.445312 123.460938 88.347656 124.554688 C 88.125 127.023438 87.976562 129.5 87.925781 131.980469 C 87.902344 133.183594 88 134.390625 88.050781 135.589844 C 88.078125 136.160156 88.113281 136.734375 88.15625 137.304688 L 88.191406 137.710938 C 88.234375 138.265625 88.261719 138.820312 88.058594 139.351562 C 87.882812 139.816406 87.339844 139.921875 87.023438 139.566406 C 82.847656 139.398438 78.667969 139.269531 74.488281 139.191406 C 67.007812 139.046875 59.523438 139.070312 52.042969 139.214844 C 48.285156 139.285156 44.527344 139.390625 40.773438 139.515625 C 38.921875 139.578125 37.070312 139.664062 35.21875 139.691406 C 34.21875 139.703125 32.648438 139.339844 32.570312 138.21875 L 32.566406 138.183594 C 32.441406 138.214844 32.3125 138.242188 32.183594 138.265625 C 32.121094 138.273438 32.066406 138.269531 32.015625 138.257812 L 31.988281 138.25 C 30.5 138.703125 28.621094 138.058594 27.207031 137.679688 L 27.089844 137.648438 C 25.742188 137.296875 24.65625 136.796875 23.773438 135.675781 C 22.226562 133.71875 21.699219 131.089844 21.421875 128.667969 C 21.164062 126.386719 21.152344 124.0625 21.464844 121.789062 C 21.28125 119.933594 21.460938 118.019531 21.671875 116.175781 C 21.773438 115.261719 21.894531 114.351562 22.039062 113.445312 C 22.121094 112.9375 22.230469 112.4375 22.335938 111.9375 C 22.382812 111.738281 22.417969 111.523438 22.472656 111.316406 L 22.496094 111.226562 C 22.328125 111.25 22.144531 111.210938 21.964844 111.113281 C 21.539062 110.878906 21.417969 110.40625 21.410156 109.957031 C 21.386719 108.59375 21.546875 107.191406 21.691406 105.835938 C 21.835938 104.484375 22.035156 103.125 22.296875 101.789062 L 22.363281 101.445312 C 22.558594 100.445312 22.785156 99.414062 23.183594 98.476562 C 21.691406 98.222656 20.207031 97.953125 18.757812 97.492188 C 18.054688 97.269531 17.359375 96.988281 16.695312 96.648438 Z M 94.488281 110.835938 C 94.464844 110.839844 94.445312 110.84375 94.421875 110.851562 C 93.828125 111.019531 93.222656 111.160156 92.625 111.3125 C 91.585938 111.574219 90.574219 111.867188 89.609375 112.320312 C 89.40625 114.871094 89.105469 117.414062 88.824219 119.957031 L 88.765625 120.464844 C 89.203125 119.652344 89.652344 118.847656 90.117188 118.054688 C 91.542969 115.628906 93 113.222656 94.488281 110.835938 Z M 22.859375 111.085938 C 22.863281 111.390625 22.800781 111.703125 22.765625 111.996094 C 22.710938 112.46875 22.667969 112.945312 22.613281 113.417969 C 22.496094 114.371094 22.398438 115.320312 22.328125 116.277344 C 22.285156 116.886719 22.253906 117.5 22.226562 118.109375 C 22.828125 115.871094 23.621094 113.679688 24.375 111.488281 C 24.25 111.472656 24.121094 111.441406 23.988281 111.40625 L 23.761719 111.347656 C 23.628906 111.3125 23.203125 111.207031 22.859375 111.085938 Z M 96.375 109 L 96.378906 109.101562 C 96.398438 109.457031 96.183594 109.660156 95.925781 109.710938 C 96.074219 109.472656 96.226562 109.238281 96.375 109 Z M 27.839844 92.125 C 28.472656 92.179688 29.089844 92.3125 29.679688 92.546875 L 29.734375 92.566406 C 30.171875 92.738281 30.808594 92.949219 30.953125 93.414062 C 30.992188 93.546875 30.882812 93.65625 30.761719 93.664062 C 30.289062 93.703125 29.730469 93.195312 29.292969 93.023438 C 28.804688 92.835938 28.292969 92.691406 27.773438 92.617188 C 26.613281 92.449219 25.398438 92.578125 24.304688 93 C 24.242188 93.027344 24.199219 92.921875 24.257812 92.890625 C 25.359375 92.292969 26.585938 92.011719 27.839844 92.125 Z M 14.476562 95.144531 C 14.40625 95.082031 14.332031 95.011719 14.261719 94.945312 C 13.695312 94.410156 13.191406 93.785156 12.820312 93.097656 L 12.722656 92.910156 C 12.421875 92.324219 12.050781 91.492188 12.761719 91.070312 C 13.183594 90.816406 13.695312 90.878906 14.167969 91.03125 C 14.199219 91.042969 14.230469 91.054688 14.261719 91.0625 C 14.472656 91.136719 14.675781 91.226562 14.859375 91.308594 C 15.648438 91.671875 16.34375 92.199219 17.070312 92.664062 C 17.863281 93.167969 18.640625 93.492188 19.554688 93.679688 L 19.640625 93.699219 C 20.496094 93.867188 21.421875 93.976562 22.019531 94.679688 C 22.167969 94.855469 22.03125 95.191406 21.773438 95.101562 C 20.121094 94.546875 18.375 94.421875 16.863281 93.507812 C 16.234375 93.128906 15.640625 92.695312 15 92.335938 C 14.660156 92.148438 14.308594 91.980469 13.933594 91.867188 L 13.730469 91.804688 C 13.609375 91.769531 13.464844 91.738281 13.371094 91.769531 C 13.1875 91.835938 13.246094 91.933594 13.300781 92.105469 L 13.308594 92.121094 C 13.753906 93.496094 15.019531 94.648438 16.195312 95.410156 C 16.464844 95.585938 16.742188 95.746094 17.019531 95.894531 C 18.921875 96.910156 21.050781 97.382812 23.140625 97.941406 C 23.949219 98.167969 24.484375 98.320312 24.75 98.40625 C 25.195312 98.371094 25.703125 98.527344 26.039062 98.714844 C 26.367188 98.898438 26.628906 99.144531 26.828125 99.433594 C 26.828125 99.433594 27.019531 99.589844 27.054688 99.839844 C 27.15625 100.066406 27.222656 100.316406 27.257812 100.574219 C 27.273438 100.722656 27.238281 100.839844 27.164062 100.921875 C 27.382812 104.238281 26.484375 107.539062 25.476562 110.691406 L 25.375 111.003906 L 25.3125 111.199219 C 24.222656 114.542969 22.972656 117.859375 22.414062 121.34375 C 22.042969 123.671875 22.054688 126.082031 22.328125 128.421875 L 22.347656 128.582031 C 22.617188 130.792969 23.136719 133.273438 24.539062 135.054688 C 25.257812 135.960938 26.105469 136.367188 27.191406 136.65625 L 27.25 136.671875 C 28.234375 136.933594 29.25 137.300781 30.261719 137.410156 C 31.203125 137.511719 31.988281 137.164062 32.835938 136.835938 C 34.617188 135.257812 35.429688 132.960938 36.027344 130.640625 C 37.574219 124.640625 37.382812 118.410156 36.503906 112.324219 C 36.046875 109.144531 35.421875 105.988281 34.800781 102.835938 C 34.492188 101.261719 34.15625 99.691406 33.878906 98.109375 L 33.714844 97.179688 C 33.621094 96.660156 33.535156 96.144531 33.457031 95.625 C 33.359375 94.925781 33.328125 94.238281 33.292969 93.535156 C 32.4375 92.121094 31.199219 90.957031 29.765625 90.121094 C 28.734375 89.519531 27.648438 89.105469 26.523438 88.804688 C 23.316406 87.9375 19.816406 88 16.585938 87.335938 C 15.5 87.109375 14.46875 86.777344 13.441406 86.382812 L 13.300781 86.328125 C 12.828125 86.144531 12.347656 86.039062 12.113281 86.597656 C 11.945312 86.992188 12.042969 87.40625 12.292969 87.738281 C 12.90625 88.554688 14.140625 88.933594 15.070312 89.226562 C 15.628906 89.402344 16.199219 89.542969 16.777344 89.648438 C 17.351562 89.753906 17.933594 89.78125 18.484375 89.984375 C 18.699219 90.0625 18.742188 90.402344 18.484375 90.460938 C 17.785156 90.625 17.078125 90.484375 16.382812 90.347656 C 15.617188 90.199219 14.859375 89.984375 14.128906 89.710938 C 13.992188 89.660156 13.851562 89.609375 13.710938 89.554688 L 13.601562 89.511719 C 13.714844 89.589844 13.824219 89.671875 13.9375 89.75 C 13.964844 89.769531 13.949219 89.828125 13.910156 89.8125 C 12.183594 89.167969 10.617188 88.007812 9.402344 86.636719 L 9.339844 86.566406 C 8.914062 86.078125 7.9375 84.59375 7.117188 85.007812 C 6.34375 85.394531 7.660156 86.886719 8.160156 87.5 L 8.21875 87.570312 C 8.789062 87.585938 9.335938 87.9375 9.796875 88.222656 C 10.597656 88.71875 11.433594 89.144531 12.285156 89.546875 C 13.976562 90.339844 15.773438 90.902344 17.449219 91.738281 C 17.46875 91.75 17.453125 91.777344 17.433594 91.777344 C 16.367188 91.605469 15.3125 91.332031 14.28125 90.996094 L 14.234375 90.980469 L 14.191406 90.96875 C 13.546875 90.753906 12.914062 90.515625 12.289062 90.261719 C 11.59375 89.980469 10.914062 89.660156 10.257812 89.300781 C 9.660156 88.976562 9 88.390625 8.308594 88.300781 C 8.234375 88.292969 8.171875 88.292969 8.113281 88.296875 C 7.320312 88.363281 7.976562 89.679688 8.199219 90.070312 C 8.558594 90.714844 8.996094 91.3125 9.5 91.855469 C 10.515625 92.960938 11.75 93.839844 13.082031 94.519531 C 13.539062 94.753906 14.003906 94.957031 14.476562 95.144531 Z M 14.476562 95.144531 "/>
<path style=" stroke:none;fill-rule:evenodd;fill:rgb(100%,100%,100%);fill-opacity:1;" d="M 65.15625 25.226562 C 69.882812 25.226562 75.558594 27.519531 76.042969 27.566406 L 76.054688 27.566406 C 76.308594 27.566406 77.300781 28.320312 79.03125 29.832031 L 77.15625 33.488281 L 77.308594 33.632812 C 78.035156 34.328125 78.652344 34.964844 79.140625 35.464844 C 83.132812 39.546875 83.851562 55.578125 82.910156 61.167969 C 81.96875 66.757812 80.226562 72.226562 72.113281 72.226562 C 64.003906 72.226562 54.976562 67.347656 53.585938 65.828125 C 52.660156 64.8125 51.617188 64.328125 50.464844 64.371094 C 50.414062 64.3125 50.367188 64.25 50.320312 64.191406 L 50.152344 64.167969 C 48.554688 63.9375 47.40625 63.625 46.714844 63.234375 C 45.363281 62.46875 43.875 58.441406 43.875 57.558594 C 43.875 56.679688 41.65625 50.296875 41.613281 49.621094 L 41.609375 49.601562 C 41.609375 49.035156 38.710938 46.441406 38.710938 45.617188 C 38.710938 44.789062 38.125 44.839844 38.710938 41.933594 L 38.882812 41.082031 C 39.503906 37.988281 40.71875 32.867188 45.363281 30.640625 C 50.464844 28.195312 60.378906 25.226562 65.15625 25.226562 Z M 65.15625 25.226562 "/>
<path style=" stroke:none;fill-rule:evenodd;fill:rgb(0%,0%,0%);fill-opacity:1;" d="M 44.574219 30.527344 C 47.117188 27.824219 61.5625 23.644531 68.867188 24.53125 L 69.085938 24.558594 C 69.671875 24.632812 70.246094 24.746094 70.8125 24.898438 C 72.644531 25.328125 74.539062 25.976562 76.054688 27.058594 C 77.316406 27.945312 81.308594 29.390625 80.132812 31.710938 C 80.566406 32.535156 80.730469 33.558594 80.4375 34.371094 C 80.398438 34.652344 80.3125 34.910156 80.199219 35.179688 C 81.132812 36.554688 81.871094 38.109375 82.46875 39.589844 C 83.511719 43.308594 84.160156 47.183594 84.253906 50.980469 C 84.570312 58.195312 83.78125 66.8125 77.5 71.480469 C 73.703125 74.433594 67.761719 74.535156 63.496094 70.871094 C 63.253906 70.582031 62.117188 69.808594 62.496094 69.675781 C 62.609375 69.792969 62.726562 69.910156 62.84375 70.023438 C 62.839844 70.011719 62.835938 70 62.839844 69.984375 L 62.726562 69.882812 C 62.519531 69.691406 62.246094 69.410156 62.554688 69.464844 C 62.570312 69.480469 62.585938 69.492188 62.597656 69.507812 C 62.664062 69.546875 62.714844 69.582031 62.753906 69.613281 L 62.773438 69.628906 L 62.765625 69.621094 C 62.589844 69.433594 62.480469 69.238281 62.746094 69.363281 L 62.78125 69.378906 C 62.902344 69.503906 63.023438 69.625 63.144531 69.738281 C 63.140625 69.726562 63.144531 69.710938 63.152344 69.699219 L 63.039062 69.585938 C 62.925781 69.476562 62.941406 69.476562 62.996094 69.390625 C 62.761719 69.054688 63.203125 69.253906 63.234375 69.382812 C 63.511719 69.316406 63.753906 69.835938 63.933594 69.902344 C 71.75 75.914062 83.09375 70.578125 82.910156 53.828125 L 82.90625 53.5 C 82.851562 48.140625 82.402344 42.636719 80.1875 37.789062 C 79.972656 37.320312 79.730469 36.867188 79.464844 36.425781 C 79.28125 36.097656 79.085938 35.777344 78.878906 35.460938 C 78.289062 35.414062 77.707031 35.308594 77.136719 35.140625 C 76.9375 35.089844 76.746094 35.035156 76.550781 34.972656 C 73.710938 35.125 70.933594 35.292969 68.085938 35.453125 L 67.199219 35.511719 C 64.785156 35.664062 62.292969 35.914062 60.34375 37.40625 C 58.433594 38.765625 58.425781 41.445312 56.792969 42.9375 C 54.460938 44.519531 54.441406 45.945312 53.996094 48.277344 C 54.027344 50.039062 55.246094 52.59375 53.011719 53.332031 C 53.386719 53.871094 52.859375 53.613281 52.820312 53.421875 C 52.816406 53.425781 52.8125 53.425781 52.808594 53.425781 C 53.144531 54.050781 52.648438 53.65625 52.605469 53.457031 C 52.578125 53.449219 52.554688 53.429688 52.527344 53.402344 C 52.867188 53.949219 52.316406 53.566406 52.351562 53.46875 C 51.695312 52.460938 50.347656 52.304688 49.398438 52.570312 C 49.386719 52.609375 49.34375 52.609375 49.320312 52.589844 C 45.28125 53.46875 46.324219 61.828125 50.460938 61.019531 C 50.636719 60.984375 50.632812 61.070312 50.667969 61.078125 C 50.574219 60.828125 50.84375 60.929688 50.839844 60.980469 L 50.855469 60.980469 C 50.871094 60.980469 50.863281 60.980469 50.875 60.980469 C 50.78125 60.46875 51.300781 61.210938 51.261719 61.242188 C 51.277344 61.234375 51.292969 61.226562 51.308594 61.226562 L 51.292969 61.175781 C 51.207031 60.949219 51.214844 61.042969 51.214844 60.910156 C 51.148438 60.75 51.144531 60.820312 51.160156 60.714844 C 51.386719 60.535156 51.453125 61.074219 51.53125 61.113281 C 51.402344 60.929688 51.503906 60.78125 51.628906 60.878906 C 52.558594 62.84375 53.761719 64.683594 55.320312 66.136719 C 55.488281 66.269531 55.660156 66.402344 55.839844 66.527344 C 56.5 67.105469 57.515625 67.472656 58.136719 67.984375 C 58.136719 67.992188 58.132812 68.003906 58.125 68.015625 L 58.140625 68.027344 L 58.152344 68.042969 L 58.371094 68.144531 C 58.433594 68.199219 58.488281 68.257812 58.539062 68.324219 C 58.59375 68.386719 58.640625 68.457031 58.683594 68.53125 C 58.703125 68.617188 58.65625 68.65625 58.574219 68.617188 C 58.535156 68.605469 58.5 68.589844 58.460938 68.574219 C 58.464844 68.578125 58.464844 68.582031 58.46875 68.582031 C 58.480469 68.601562 58.5625 68.792969 58.46875 68.761719 L 58.457031 68.757812 C 58.40625 68.738281 58.351562 68.714844 58.300781 68.695312 C 58.363281 68.773438 58.417969 68.851562 58.464844 68.921875 C 58.519531 68.976562 58.550781 69.039062 58.5625 69.109375 C 58.558594 69.152344 58.539062 69.167969 58.496094 69.164062 C 58.4375 69.140625 58.375 69.121094 58.316406 69.097656 L 58.332031 69.132812 C 58.375 69.214844 58.4375 69.355469 58.328125 69.308594 C 58.238281 69.28125 58.148438 69.25 58.058594 69.210938 C 58.050781 69.226562 58.035156 69.230469 58.007812 69.21875 C 57.726562 69.117188 57.453125 68.996094 57.191406 68.851562 C 56.960938 68.683594 56.730469 68.519531 56.5 68.355469 C 56.285156 68.222656 56.074219 68.078125 55.875 67.917969 C 54.539062 67.054688 53.371094 65.957031 52.441406 64.734375 C 50.890625 66.082031 47.789062 64.796875 45.871094 63.742188 C 44.171875 62.804688 43.503906 61.0625 43.332031 59.1875 C 42.972656 56.664062 40.910156 55.800781 41.054688 50.261719 C 41.050781 50.261719 41.050781 50.261719 41.042969 50.261719 C 40.96875 50.242188 40.898438 50.210938 40.828125 50.171875 C 40.757812 50.140625 40.691406 50.101562 40.628906 50.050781 L 40.550781 49.945312 C 40.511719 49.921875 40.476562 49.898438 40.449219 49.875 L 40.433594 49.894531 C 40.386719 49.949219 40.417969 49.867188 40.421875 49.851562 L 40.289062 49.667969 C 39.96875 49.234375 39.621094 48.746094 39.335938 48.359375 L 39.328125 48.375 C 39.320312 48.386719 39.320312 48.394531 39.320312 48.398438 C 38.644531 47.425781 38.011719 46.253906 37.835938 45.121094 C 37.625 44.246094 37.707031 43.34375 37.890625 42.535156 C 38.667969 39.695312 41.222656 33.277344 44.574219 30.527344 Z M 62.90625 69.757812 L 62.863281 69.71875 L 62.902344 69.765625 C 62.921875 69.789062 62.941406 69.8125 62.972656 69.835938 C 62.972656 69.828125 62.972656 69.820312 62.972656 69.8125 C 62.953125 69.796875 62.929688 69.777344 62.90625 69.757812 Z M 68.835938 25.957031 C 63.878906 25.53125 59.007812 26.625 54.277344 27.945312 L 53.953125 28.039062 C 51.265625 28.804688 48.421875 29.496094 46.148438 31.140625 C 42.972656 33.570312 41.335938 37.441406 39.90625 41.015625 C 38.65625 43.667969 39.292969 46.660156 41.175781 48.515625 C 41.371094 46.671875 41.707031 44.886719 42.226562 43.113281 C 42.335938 42.835938 42.253906 42.742188 42.488281 42.707031 C 42.84375 47.488281 41.097656 51.019531 44.554688 56.683594 C 46.050781 59.355469 44.316406 61.3125 48.550781 62.71875 L 48.664062 62.761719 C 49.546875 63.09375 50.511719 63.355469 51.375 63.171875 L 51.296875 63.042969 C 51.21875 62.914062 51.195312 62.851562 51.308594 62.796875 C 51.304688 62.789062 51.300781 62.785156 51.296875 62.777344 C 51.203125 62.601562 51.113281 62.421875 51.027344 62.242188 C 50.996094 62.253906 50.960938 62.265625 50.921875 62.273438 C 50.945312 62.316406 50.949219 62.359375 50.882812 62.375 C 50.652344 62.453125 50.414062 62.488281 50.167969 62.472656 L 50.117188 62.46875 C 49.839844 62.449219 49.664062 62.402344 49.507812 62.355469 C 49.457031 62.34375 49.40625 62.335938 49.355469 62.328125 C 48.855469 62.214844 48.324219 61.933594 47.980469 61.652344 C 44.066406 59.429688 44.46875 51.855469 49.292969 51.140625 C 49.394531 46.375 51.660156 38.332031 55.421875 33.789062 C 58.820312 29.609375 68.105469 27.796875 74.5625 28.4375 C 74.65625 28.46875 74.75 28.5 74.84375 28.53125 C 75.839844 28.621094 76.789062 29.0625 77.789062 29.269531 C 77.070312 28.734375 76.261719 28.375 75.421875 28.074219 C 73.757812 27.050781 71.847656 26.5 70 26.113281 C 69.617188 26.015625 69.230469 25.964844 68.835938 25.957031 Z M 49.074219 54.96875 C 49.332031 54.828125 49.304688 54.964844 49.363281 54.925781 C 51.230469 54.773438 53.242188 56.410156 54.285156 57.769531 C 54.203125 57.855469 53.980469 57.601562 53.941406 57.5625 C 53.933594 57.566406 53.929688 57.570312 53.921875 57.574219 L 53.953125 57.617188 C 54.375 58.222656 53.535156 57.507812 53.457031 57.359375 C 53.445312 57.367188 53.429688 57.371094 53.414062 57.371094 C 53.480469 57.433594 53.683594 57.605469 53.71875 57.726562 L 53.773438 57.769531 C 54.28125 58.203125 54.238281 58.53125 53.660156 57.914062 C 53.675781 57.941406 53.679688 57.96875 53.671875 57.992188 L 53.691406 58.003906 C 53.972656 58.203125 54.207031 58.753906 53.613281 58.1875 C 53.675781 58.601562 53.027344 57.800781 53.007812 57.808594 C 51.886719 56.925781 50.234375 56.070312 48.828125 55.953125 L 48.78125 55.949219 C 48.519531 55.914062 48.398438 55.839844 48.488281 55.671875 C 48.171875 55.59375 48.246094 55.4375 48.398438 55.441406 C 48.171875 55.296875 48.375 55.152344 48.503906 55.210938 C 48.414062 54.960938 48.773438 55.125 48.808594 55.09375 C 48.992188 54.804688 49.042969 55.042969 49.074219 54.96875 Z M 45.164062 39.609375 C 46.058594 39.28125 48.707031 40.265625 48.496094 41.566406 C 48.367188 41.867188 47.953125 42.039062 47.660156 41.867188 L 47.28125 41.613281 C 46.617188 41.167969 46.015625 40.777344 45.304688 40.390625 C 44.917969 40.199219 44.75 39.789062 45.164062 39.609375 Z M 50.261719 37.675781 L 49.914062 37.449219 C 48.046875 36.226562 45.40625 34.375 50.089844 36.292969 C 50.625 36.519531 51.332031 36.65625 51.625 37.164062 C 52.082031 38.101562 50.878906 38.164062 50.261719 37.675781 Z M 50.472656 32.1875 C 50.320312 31.617188 52.1875 32.285156 52.730469 32.460938 L 52.8125 32.492188 C 53.339844 32.691406 53.945312 32.875 54.261719 33.328125 C 54.632812 33.960938 53.882812 34.089844 53.417969 33.804688 C 52.46875 33.183594 51.425781 32.714844 50.472656 32.1875 Z M 55.214844 29.535156 C 54.164062 28.390625 56.972656 29.488281 57.394531 29.792969 L 57.40625 29.804688 C 57.722656 30.023438 57.65625 30.5 57.363281 30.640625 C 56.523438 30.65625 55.90625 29.957031 55.214844 29.535156 Z M 59.992188 28.28125 C 58.324219 27.082031 60.523438 27.652344 61.285156 28.121094 C 61.804688 28.582031 61.269531 29.355469 59.992188 28.28125 Z M 59.992188 28.28125 "/>
<path style=" stroke:none;fill-rule:evenodd;fill:rgb(0%,0%,0%);fill-opacity:1;" d="M 76.0625 62.886719 C 76.730469 62.734375 77.253906 63.296875 77.125 63.949219 C 76.984375 64.640625 76.242188 64.875 75.621094 64.855469 C 74.917969 64.828125 74.214844 64.683594 73.503906 64.65625 C 72.777344 64.625 72.046875 64.617188 71.320312 64.636719 C 70.648438 64.65625 69.957031 64.777344 69.289062 64.667969 C 69.027344 64.628906 69.054688 64.285156 69.222656 64.160156 C 69.726562 63.800781 70.375 63.652344 70.96875 63.5 C 71.570312 63.34375 72.1875 63.226562 72.808594 63.152344 C 73.4375 63.078125 74.070312 63.042969 74.703125 63.035156 C 74.988281 63.03125 75.339844 63.097656 75.621094 63.042969 C 75.765625 63.019531 75.910156 62.925781 76.0625 62.886719 Z M 74.136719 53.933594 C 74.933594 54.417969 76.148438 55.550781 75.289062 56.75 C 74.28125 57.8125 72.824219 56.597656 72.109375 56.046875 C 71.445312 55.621094 70.699219 56.714844 71.316406 57.214844 C 76.492188 61.050781 78.59375 54.058594 74.539062 53.363281 C 74.09375 53.285156 73.925781 53.78125 74.136719 53.933594 Z M 68.351562 50.3125 C 69.417969 50.132812 69.605469 51.65625 68.546875 51.761719 C 68.324219 51.785156 68.105469 51.804688 67.882812 51.824219 C 67.90625 51.890625 67.921875 51.960938 67.929688 52.035156 C 67.9375 52.097656 67.945312 52.164062 67.953125 52.238281 C 67.984375 52.613281 67.71875 53 67.410156 53.183594 C 67.089844 53.371094 66.625 53.398438 66.304688 53.183594 C 66.140625 53.074219 65.976562 52.949219 65.886719 52.765625 C 65.761719 52.578125 65.695312 52.363281 65.691406 52.140625 C 65.203125 52.265625 64.707031 52.4375 64.214844 52.527344 C 64.234375 52.546875 64.253906 52.5625 64.269531 52.585938 C 64.28125 52.601562 64.265625 52.628906 64.246094 52.617188 L 64 52.5625 C 63.921875 52.570312 63.847656 52.578125 63.773438 52.585938 L 63.773438 52.578125 C 63.648438 52.574219 63.542969 52.425781 63.65625 52.304688 C 64.089844 51.847656 64.769531 51.542969 65.386719 51.289062 L 65.980469 51.042969 C 66.742188 50.734375 67.542969 50.445312 68.351562 50.3125 Z M 76.933594 50.78125 C 77.632812 50.703125 78.324219 50.734375 79.027344 50.777344 C 80.203125 50.847656 79.710938 52.566406 78.765625 52.171875 C 78.773438 52.234375 78.777344 52.296875 78.769531 52.355469 C 78.734375 52.65625 78.632812 52.910156 78.355469 53.074219 C 78.097656 53.226562 77.773438 53.222656 77.515625 53.074219 C 77.238281 52.914062 77.117188 52.6875 77.046875 52.390625 C 76.992188 52.164062 77.011719 51.972656 77.042969 51.746094 C 77.054688 51.671875 77.085938 51.601562 77.132812 51.539062 C 77.066406 51.523438 77 51.507812 76.933594 51.492188 C 76.347656 51.359375 75.765625 51.386719 75.179688 51.300781 C 75.117188 51.292969 75.109375 51.191406 75.164062 51.164062 C 75.6875 50.917969 76.359375 50.847656 76.933594 50.78125 Z M 68.242188 45.472656 C 68.648438 45.320312 69.152344 45.574219 69.359375 45.929688 C 69.59375 46.328125 69.492188 46.789062 69.203125 47.125 C 68.761719 47.640625 67.921875 47.960938 67.300781 48.253906 L 67.25 48.28125 C 66.613281 48.585938 65.957031 48.871094 65.292969 49.117188 C 64.640625 49.359375 63.960938 49.546875 63.285156 49.710938 C 62.925781 49.796875 62.5625 49.867188 62.199219 49.914062 C 61.910156 49.949219 61.6875 49.867188 61.410156 49.867188 C 61.371094 49.867188 61.359375 49.816406 61.390625 49.796875 C 61.648438 49.632812 61.839844 49.421875 62.121094 49.269531 C 62.414062 49.113281 62.707031 48.960938 63 48.808594 C 63.597656 48.5 64.171875 48.160156 64.746094 47.816406 C 65.351562 47.453125 65.941406 47.070312 66.519531 46.664062 C 67.082031 46.261719 67.601562 45.71875 68.242188 45.472656 Z M 75.429688 45.144531 C 75.933594 45.046875 76.433594 45.285156 76.582031 45.800781 C 76.726562 46.289062 76.574219 46.394531 76.957031 46.75 C 77.261719 47.027344 77.589844 47.277344 77.917969 47.527344 L 78.40625 47.886719 C 79.289062 48.539062 80.175781 49.15625 81.191406 49.597656 C 81.277344 49.636719 81.226562 49.761719 81.144531 49.765625 C 79.535156 49.796875 77.988281 49.578125 76.535156 48.855469 C 75.855469 48.519531 75.171875 48.09375 74.777344 47.417969 C 74.320312 46.640625 74.335938 45.355469 75.429688 45.144531 Z M 75.429688 45.144531 "/>
</g>
</svg>
