<?xml version="1.0" encoding="UTF-8"?>
<svg xmlns="http://www.w3.org/2000/svg" xmlns:xlink="http://www.w3.org/1999/xlink" width="px" height="px" viewBox="0 0 683 777" version="1.1">
<g id="surface1">
<path style=" stroke:none;fill-rule:nonzero;fill:rgb(100%,100%,100%);fill-opacity:1;" d="M 246.125 344.335938 C 245.476562 344.746094 245.015625 345.136719 244.480469 345.359375 C 233.664062 349.878906 222.910156 354.5625 211.996094 358.832031 C 197.445312 364.515625 182.496094 369.183594 168.671875 376.664062 C 149.921875 386.808594 136.558594 401.738281 128.109375 421.253906 C 119.847656 440.351562 113.425781 460.082031 108.074219 480.136719 C 102.148438 502.359375 96.816406 524.738281 91.28125 547.066406 C 90.519531 550.144531 90.753906 553.632812 89.375 556.351562 C 86.90625 561.226562 89.359375 566.335938 94.792969 567.328125 C 96.367188 567.613281 97.949219 567.882812 98.980469 568.0625 C 98.980469 580.667969 98.699219 592.929688 99.054688 605.171875 C 99.480469 619.933594 103.683594 633.511719 113.015625 645.300781 C 120.921875 655.289062 130.890625 660.6875 143.828125 659.570312 C 149.226562 659.101562 154.578125 658.167969 160.21875 657.410156 C 160.089844 658.207031 159.871094 659.179688 159.789062 660.160156 C 159.597656 662.496094 159.28125 664.851562 159.421875 667.171875 C 159.472656 667.957031 160.703125 669.199219 161.480469 669.273438 C 162.347656 669.351562 163.710938 668.546875 164.144531 667.742188 C 164.734375 666.648438 164.808594 665.191406 164.828125 663.886719 C 164.859375 661.832031 164.75 659.761719 164.53125 657.71875 C 164.34375 655.964844 165.113281 655.261719 166.667969 654.59375 C 173.933594 651.464844 181.296875 648.5 188.320312 644.886719 C 220.335938 628.410156 252.246094 611.730469 284.210938 595.160156 C 285.359375 594.5625 286.660156 594.097656 287.933594 593.9375 C 291.125 593.539062 293.902344 592.5625 295.792969 589.746094 C 296.226562 589.101562 296.890625 588.53125 297.578125 588.15625 C 300.917969 586.328125 304.273438 584.527344 307.6875 582.839844 C 308.410156 582.484375 309.503906 582.339844 310.226562 582.617188 C 316.660156 585.078125 323.074219 587.605469 329.449219 590.222656 C 334.109375 592.132812 338.621094 594.425781 343.339844 596.179688 C 354.351562 600.265625 365.175781 604.863281 377.554688 602.804688 C 384.050781 601.726562 390.816406 602.320312 397.453125 601.992188 C 401.613281 601.785156 405.761719 601.261719 409.953125 600.878906 C 410.015625 601.429688 410.117188 601.734375 410.078125 602.019531 C 407.527344 620.300781 407.648438 638.582031 410.179688 656.847656 C 410.871094 661.828125 411.628906 666.832031 412.859375 671.695312 C 413.238281 673.199219 415.300781 675.363281 416.550781 675.335938 C 419.039062 675.28125 418.878906 672.628906 418.78125 670.703125 C 418.675781 668.714844 418.257812 666.742188 417.984375 664.816406 C 420.542969 664.53125 422.800781 664.402344 425.015625 664.007812 C 434.738281 662.257812 442.21875 656.46875 449.511719 650.324219 C 455.089844 645.625 459.175781 640.007812 459.453125 632.527344 C 459.878906 620.910156 459.902344 609.277344 460.09375 597.652344 C 460.105469 596.875 460.097656 596.097656 460.097656 595.210938 C 475.144531 593.519531 489.972656 591.863281 504.796875 590.175781 C 521.0625 588.324219 537.339844 586.582031 553.585938 584.539062 C 565.484375 583.039062 571.390625 577.578125 574.109375 565.925781 C 575.277344 560.921875 576.039062 555.824219 576.90625 550.753906 C 580.722656 528.457031 584.597656 506.164062 588.289062 483.84375 C 591.59375 463.855469 594.664062 443.824219 597.878906 423.820312 C 598.546875 419.667969 597.90625 418.660156 593.710938 418.894531 C 572.628906 420.089844 551.476562 420.65625 530.488281 422.816406 C 504.707031 425.464844 479.0625 429.453125 453.371094 432.929688 C 451.664062 433.160156 450.726562 432.914062 450.0625 431.214844 C 446.957031 423.273438 443.515625 415.457031 440.632812 407.441406 C 435.546875 393.296875 427.417969 381.800781 413.300781 375.601562 C 402.390625 370.808594 391.25 366.535156 380.199219 362.054688 C 379.980469 361.964844 379.640625 362.167969 378.738281 362.382812 C 380.59375 363.789062 382.007812 365.121094 383.648438 366.058594 C 391.335938 370.4375 399.003906 374.847656 406.824219 378.980469 C 419.125 385.484375 427.710938 395.15625 432.605469 408.152344 C 433.472656 410.464844 434.445312 412.734375 435.34375 415.035156 C 437.867188 421.511719 440.378906 427.992188 442.941406 434.589844 C 437.421875 435.671875 432.09375 436.746094 426.75 437.746094 C 418.636719 439.269531 413.140625 443.765625 410.808594 451.78125 C 403.550781 476.714844 396.058594 501.585938 389.210938 526.628906 C 385.5625 539.976562 383.058594 553.636719 380.035156 567.152344 C 379.839844 567.234375 379.652344 567.386719 379.46875 567.382812 C 375.949219 567.296875 372.425781 567.21875 368.90625 567.050781 C 368.5 567.03125 368.09375 566.492188 367.734375 566.144531 C 359.476562 558.175781 348.964844 556.472656 338.183594 555.640625 C 337.273438 555.570312 336.273438 556.640625 335.316406 557.175781 C 336.191406 557.859375 336.980469 558.949219 337.953125 559.148438 C 341.078125 559.78125 344.3125 559.878906 347.417969 560.566406 C 353.742188 561.957031 360.21875 563.121094 364.898438 568.300781 C 366.726562 570.324219 368.257812 572.644531 366.582031 575.207031 C 364.910156 577.769531 362.238281 576.535156 360.113281 575.664062 C 356.023438 573.992188 352.046875 572.039062 348.039062 570.167969 C 341.671875 567.195312 335.738281 567.574219 329.601562 571.324219 C 325.640625 573.746094 320.980469 575.042969 316.59375 576.738281 C 315.953125 576.984375 315.089844 576.617188 314.324219 576.585938 C 312.941406 576.527344 311.328125 576.023438 310.210938 576.554688 C 304.175781 579.433594 298.265625 582.574219 292.308594 585.613281 C 287.59375 588.019531 285.050781 587.574219 282.460938 582.835938 C 277.738281 574.191406 275.476562 564.839844 276.027344 554.941406 C 276.171875 552.316406 277.320312 550.621094 280.382812 549.886719 C 290.078125 547.566406 299.683594 544.875 309.273438 542.140625 C 310.570312 541.769531 311.558594 540.320312 312.691406 539.371094 C 312.550781 539.148438 312.40625 538.929688 312.261719 538.707031 C 327.003906 534.195312 341.824219 529.929688 356.441406 525.058594 C 362.4375 523.058594 366.121094 526.367188 369.996094 529.359375 C 372.902344 531.597656 375.089844 534.75 377.863281 537.191406 C 378.8125 538.023438 380.578125 537.921875 381.96875 538.25 C 381.542969 536.832031 381.21875 535.367188 380.640625 534.011719 C 380.382812 533.410156 379.632812 533.007812 379.078125 532.546875 C 375.910156 529.921875 372.085938 527.785156 369.714844 524.574219 C 366.3125 519.957031 362.066406 519.34375 357.460938 520.710938 C 346.535156 523.953125 335.605469 527.28125 324.957031 531.308594 C 312.453125 536.039062 300.035156 540.902344 287.945312 543.429688 C 285.628906 542.515625 284.15625 541.578125 282.59375 541.390625 C 278.640625 540.910156 275.839844 543.121094 273.207031 545.792969 C 272.003906 547.015625 270.421875 548.1875 268.804688 548.628906 C 247.292969 554.496094 225.746094 560.222656 204.207031 566 C 197.910156 567.6875 191.621094 569.414062 185.078125 571.1875 C 185.792969 566.726562 186.46875 562.703125 187.078125 558.664062 C 189.855469 540.296875 191.144531 521.828125 190.46875 503.257812 C 190.347656 500.007812 190.375 496.492188 187.527344 493.0625 C 186.246094 496.453125 185.175781 499.28125 184.152344 501.992188 C 181.691406 498.96875 179.175781 495.875 176.65625 492.78125 C 176.308594 493.011719 175.957031 493.242188 175.609375 493.472656 C 177 496.820312 178.605469 500.101562 179.71875 503.539062 C 180.878906 507.113281 182.339844 510.855469 182.28125 514.5 C 182.183594 520.539062 180.835938 526.542969 180.261719 532.585938 C 178.980469 546.074219 177.855469 559.578125 176.628906 573.523438 C 176.59375 573.535156 175.734375 573.800781 174.875 574.070312 C 175.054688 573.835938 175.238281 573.601562 175.421875 573.367188 C 173.949219 571.902344 172.738281 569.785156 170.964844 569.078125 C 156.96875 563.496094 142.378906 559.984375 127.5625 557.40625 C 117.859375 555.71875 108.125 554.21875 98.214844 552.605469 C 98.332031 551.714844 98.355469 551.003906 98.527344 550.332031 C 103.671875 530.007812 108.300781 509.535156 114.132812 489.40625 C 120.050781 468.988281 126.707031 448.753906 133.902344 428.746094 C 139.148438 414.148438 147.574219 401.296875 159.890625 391.382812 C 169.46875 383.679688 180.460938 378.550781 191.695312 373.832031 C 210.757812 365.824219 231.027344 360.417969 247.953125 347.832031 C 258.152344 360.269531 266.839844 373.554688 273.324219 388.265625 C 276.011719 394.363281 279.171875 400.265625 282.367188 406.117188 C 283.371094 407.953125 285.007812 409.574219 286.683594 410.871094 C 288.980469 412.652344 291.265625 411.726562 292.273438 409.042969 C 292.699219 407.910156 293.167969 406.738281 293.875 405.773438 C 297.828125 400.390625 301.8125 395.023438 305.886719 389.730469 C 309.546875 384.976562 313.335938 380.320312 317.660156 374.875 C 317.660156 377.660156 317.945312 379.519531 317.601562 381.253906 C 316.960938 384.472656 315.964844 387.621094 315.101562 390.792969 C 313.265625 397.519531 314.8125 403.199219 320.296875 407.671875 C 321.253906 408.453125 322.203125 409.246094 323.15625 410.03125 C 328.566406 414.5 333.109375 419.722656 335.53125 426.34375 C 336.929688 430.164062 337.355469 434.332031 338.359375 438.308594 C 338.574219 439.15625 339.40625 439.84375 339.957031 440.609375 C 340.679688 439.886719 341.921875 439.238281 342.03125 438.433594 C 342.382812 435.828125 342.742188 433.097656 342.328125 430.539062 C 341.171875 423.355469 337.542969 417.269531 333.390625 412.300781 C 334.707031 409.824219 335.738281 407.667969 336.960938 405.625 C 339.097656 402.042969 340.671875 397.742188 343.6875 395.132812 C 352.316406 387.664062 357.128906 378.113281 360.777344 367.695312 C 361.078125 366.839844 361.34375 365.78125 361.984375 365.277344 C 364.1875 363.546875 364.066406 361.492188 363.316406 359.171875 C 362.054688 355.277344 360.84375 351.371094 359.671875 347.449219 C 359.476562 346.789062 359.582031 346.035156 359.546875 345.316406 C 363.304688 348.519531 366.945312 351.382812 370.273438 354.582031 C 371.402344 355.667969 372.160156 357.535156 372.347656 359.132812 C 373.292969 367.253906 369.972656 374.050781 364.550781 379.625 C 359.515625 384.800781 355.972656 390.332031 356.359375 398.4375 C 354.585938 397.054688 353.4375 395.832031 352.027344 395.148438 C 350.550781 394.425781 348.234375 393.332031 347.304688 393.941406 C 343.050781 396.75 340.839844 401.199219 338.84375 405.675781 C 339.136719 405.925781 339.425781 406.171875 339.71875 406.417969 C 342.296875 403.460938 344.878906 400.503906 347.398438 397.613281 C 351.03125 400.695312 353.925781 403.339844 357.050781 405.679688 C 357.949219 406.351562 359.617188 406.515625 360.714844 406.1875 C 361.34375 406 361.777344 404.371094 361.863281 403.355469 C 362 401.726562 361.730469 400.066406 361.714844 398.421875 C 361.683594 394.242188 362.15625 390.234375 364.964844 386.792969 C 367.882812 383.21875 370.609375 379.492188 373.429688 375.839844 C 373.664062 375.535156 373.980469 375.085938 374.273438 375.070312 C 376.90625 374.941406 377.054688 372.882812 377.238281 371.085938 C 377.601562 367.5 377.789062 363.898438 377.980469 360.296875 C 378.21875 355.730469 376.277344 352.34375 372.269531 350.15625 C 369.328125 348.550781 366.371094 346.976562 363.066406 345.199219 C 363.820312 344.984375 364.265625 344.839844 364.714844 344.726562 C 383.800781 339.90625 398.433594 329.832031 404.054688 310 C 406.847656 300.140625 409.488281 290.085938 410.589844 279.941406 C 411.941406 267.5 411.566406 254.871094 412.027344 242.328125 C 412.335938 233.925781 413.570312 225.929688 420.996094 220.289062 C 424.085938 217.941406 423.519531 213.859375 420.175781 211.738281 C 418.882812 210.917969 417.300781 210.535156 416.066406 209.65625 C 414.351562 208.433594 412.507812 207.164062 411.300781 205.496094 C 408.019531 200.957031 409.652344 195.460938 408.34375 190.359375 C 412.066406 190.046875 413.722656 187.816406 414.378906 185.003906 C 415.003906 182.332031 415.273438 179.519531 415.277344 176.765625 C 415.285156 170.804688 412.980469 165.605469 409.195312 161.09375 C 412.695312 156.574219 414.433594 151.742188 414.648438 146.308594 C 414.824219 141.804688 414.617188 137.644531 409.054688 136.742188 C 409.503906 130.859375 408.933594 129.976562 404.109375 128.703125 C 405.882812 124.351562 404.808594 122.355469 400.066406 121.851562 C 387.121094 120.46875 375.066406 116.054688 363.042969 111.410156 C 356.945312 109.054688 350.820312 106.890625 344.113281 106.433594 C 329.902344 105.46875 316.167969 107.859375 302.609375 111.617188 C 286.660156 116.035156 271.207031 121.683594 257.777344 131.714844 C 254.824219 133.921875 252.3125 136.738281 248.085938 134.515625 C 247.277344 134.089844 246.023438 134.261719 245.035156 134.460938 C 240.859375 135.3125 239.070312 137.628906 239.375 140.878906 C 239.449219 141.6875 238.953125 142.800781 238.347656 143.386719 C 234.136719 147.441406 233.957031 149.117188 237.421875 153.363281 C 224.289062 176.503906 218.699219 200.425781 228.78125 226.546875 C 226.417969 229.34375 226.578125 229.859375 230.921875 232.308594 C 229.921875 236.09375 228.722656 239.820312 227.976562 243.632812 C 226.402344 251.652344 226.394531 259.691406 232.066406 266.191406 C 234.832031 269.359375 238.925781 271.367188 242.503906 273.960938 C 242.207031 274.433594 241.074219 275.503906 240.890625 276.714844 C 240.621094 278.5 240.574219 280.582031 241.261719 282.183594 C 242.089844 284.105469 244.144531 284.171875 246.121094 283.554688 C 246.714844 283.367188 247.765625 283.308594 248.042969 283.648438 C 250.644531 286.847656 253.769531 286.6875 257.082031 285.074219 C 257.734375 286.257812 258.160156 287.34375 258.847656 288.222656 C 264.523438 295.484375 269.617188 303.132812 274.648438 310.859375 C 276.609375 313.871094 276.066406 315.613281 274.800781 318.035156 C 272.648438 317.902344 270.695312 317.726562 268.742188 317.671875 C 262.070312 317.488281 256.308594 319.476562 252.320312 325.109375 C 249.113281 329.644531 246.007812 334.257812 243.0625 338.964844 C 241.332031 341.734375 242.382812 343.476562 246.125 344.335938 Z M 195.191406 404.0625 C 194.800781 404.164062 194.410156 404.261719 194.019531 404.363281 C 194.808594 409.628906 195.554688 414.902344 196.394531 420.160156 C 198.753906 434.976562 201.160156 449.785156 203.53125 464.597656 C 204.378906 469.871094 205.105469 475.167969 206.074219 480.417969 C 206.222656 481.222656 207.386719 481.84375 208.078125 482.546875 C 208.636719 481.804688 209.28125 481.105469 209.714844 480.296875 C 209.925781 479.894531 209.742188 479.285156 209.734375 478.769531 C 209.425781 456.402344 205.316406 434.664062 198.75 413.351562 C 197.777344 410.1875 196.386719 407.15625 195.191406 404.0625 Z M 306.425781 597.40625 L 305.589844 596.933594 C 304.003906 598.632812 302.128906 600.148438 300.875 602.066406 C 291.410156 616.601562 282.058594 631.207031 272.695312 645.804688 C 271.875 647.085938 270.800781 648.539062 272.582031 649.855469 C 274.402344 651.199219 275.347656 649.605469 276.375 648.496094 C 276.859375 647.964844 277.320312 647.40625 277.773438 646.847656 C 288.832031 633.230469 297.3125 618.039062 304.878906 602.296875 C 305.613281 600.769531 305.917969 599.039062 306.425781 597.40625 Z M 225.648438 413.066406 C 225.4375 413.09375 225.226562 413.125 225.019531 413.152344 C 224.957031 414 224.824219 414.851562 224.851562 415.695312 C 225.363281 430.714844 225.855469 445.738281 226.503906 460.753906 C 226.554688 461.863281 227.777344 462.921875 228.457031 464.007812 C 229.269531 463.039062 230.570312 462.183594 230.824219 461.085938 C 234.460938 445.226562 232.449219 429.835938 226.691406 414.796875 C 226.453125 414.179688 226 413.640625 225.648438 413.066406 Z M 383.570312 547.273438 C 383.097656 545.980469 383.050781 545.40625 382.742188 545.070312 C 376.597656 538.324219 369.679688 532.746094 359.859375 534.074219 C 351.023438 535.269531 342.273438 537.152344 333.519531 538.890625 C 331.527344 539.289062 329.671875 540.351562 327.753906 541.109375 C 327.832031 541.457031 327.914062 541.808594 327.996094 542.15625 C 329.652344 542.019531 331.320312 541.980469 332.957031 541.726562 C 339.757812 540.675781 346.550781 539.570312 353.339844 538.464844 C 361.359375 537.160156 368.914062 537.605469 375.246094 543.644531 C 376.542969 544.878906 378.371094 545.59375 380.027344 546.394531 C 380.882812 546.804688 381.898438 546.875 383.570312 547.273438 Z M 335.671875 552.917969 L 335.820312 553.945312 C 343.757812 552.945312 351.707031 552.019531 359.628906 550.917969 C 363.640625 550.363281 366.882812 551.476562 369.65625 554.390625 C 371.136719 555.945312 372.652344 557.613281 374.484375 558.640625 C 375.980469 559.480469 377.957031 559.523438 379.742188 559.730469 C 380.128906 559.777344 381.003906 558.972656 380.960938 558.652344 C 380.882812 558.085938 380.335938 557.195312 379.882812 557.125 C 376.066406 556.550781 373.929688 553.710938 371.515625 551.207031 C 368.40625 547.984375 364.65625 546.878906 360.269531 547.828125 C 357.660156 548.390625 355.027344 548.835938 352.410156 549.382812 C 346.828125 550.542969 341.25 551.738281 335.671875 552.917969 Z M 306.164062 399.710938 L 305.230469 400.191406 C 306.480469 403.042969 307.980469 405.8125 308.933594 408.761719 C 310.371094 413.230469 313.527344 415.222656 317.824219 416.257812 C 319.402344 416.640625 320.777344 417.867188 322.253906 418.6875 C 323.105469 419.160156 323.976562 419.597656 324.839844 420.046875 C 325.015625 418.925781 325.738281 417.226562 325.269531 416.789062 C 323.632812 415.25 321.730469 413.449219 319.664062 413.015625 C 314.648438 411.964844 311.453125 409.148438 309.257812 404.746094 C 308.382812 402.988281 307.207031 401.382812 306.164062 399.710938 Z M 306.164062 399.710938 "/>
<path style=" stroke:none;fill-rule:nonzero;fill:rgb(0%,0%,0%);fill-opacity:1;" d="M 246.125 344.335938 C 242.382812 343.476562 241.332031 341.734375 243.0625 338.964844 C 246.007812 334.257812 249.113281 329.644531 252.320312 325.109375 C 256.308594 319.476562 262.070312 317.488281 268.742188 317.671875 C 270.695312 317.726562 272.648438 317.902344 274.800781 318.035156 C 276.066406 315.613281 276.609375 313.871094 274.648438 310.859375 C 269.617188 303.132812 264.523438 295.484375 258.847656 288.222656 C 258.160156 287.34375 257.734375 286.257812 257.082031 285.074219 C 253.769531 286.6875 250.644531 286.847656 248.042969 283.648438 C 247.769531 283.308594 246.714844 283.367188 246.121094 283.554688 C 244.144531 284.171875 242.089844 284.105469 241.261719 282.183594 C 240.574219 280.582031 240.621094 278.5 240.890625 276.714844 C 241.074219 275.503906 242.207031 274.433594 242.503906 273.960938 C 238.925781 271.367188 234.832031 269.359375 232.066406 266.191406 C 226.394531 259.691406 226.402344 251.652344 227.976562 243.632812 C 228.722656 239.820312 229.921875 236.09375 230.921875 232.308594 C 226.578125 229.859375 226.417969 229.34375 228.78125 226.546875 C 218.699219 200.425781 224.289062 176.503906 237.421875 153.363281 C 233.957031 149.117188 234.136719 147.441406 238.347656 143.386719 C 238.953125 142.800781 239.449219 141.6875 239.375 140.878906 C 239.070312 137.628906 240.859375 135.3125 245.035156 134.460938 C 246.023438 134.261719 247.277344 134.089844 248.085938 134.515625 C 252.3125 136.738281 254.824219 133.921875 257.777344 131.714844 C 271.207031 121.683594 286.660156 116.035156 302.609375 111.617188 C 316.167969 107.859375 329.902344 105.46875 344.113281 106.433594 C 350.820312 106.890625 356.945312 109.054688 363.042969 111.410156 C 375.066406 116.054688 387.121094 120.46875 400.066406 121.851562 C 404.808594 122.355469 405.882812 124.351562 404.109375 128.703125 C 408.933594 129.976562 409.503906 130.859375 409.054688 136.742188 C 414.617188 137.644531 414.824219 141.804688 414.648438 146.308594 C 414.433594 151.742188 412.695312 156.574219 409.195312 161.09375 C 412.980469 165.605469 415.285156 170.804688 415.277344 176.765625 C 415.273438 179.519531 415.003906 182.332031 414.378906 185.003906 C 413.722656 187.816406 412.066406 190.046875 408.34375 190.359375 C 409.652344 195.460938 408.019531 200.957031 411.300781 205.496094 C 412.507812 207.164062 414.351562 208.433594 416.066406 209.65625 C 417.300781 210.535156 418.882812 210.917969 420.175781 211.738281 C 423.519531 213.859375 424.085938 217.941406 420.996094 220.289062 C 413.570312 225.929688 412.335938 233.925781 412.027344 242.328125 C 411.566406 254.871094 411.941406 267.5 410.589844 279.941406 C 409.488281 290.085938 406.847656 300.140625 404.054688 310 C 398.433594 329.832031 383.800781 339.90625 364.714844 344.726562 C 364.265625 344.839844 363.820312 344.984375 363.066406 345.199219 C 366.371094 346.976562 369.328125 348.550781 372.269531 350.15625 C 376.277344 352.34375 378.21875 355.730469 377.980469 360.296875 C 377.789062 363.898438 377.601562 367.5 377.238281 371.085938 C 377.054688 372.882812 376.90625 374.941406 374.273438 375.070312 C 373.980469 375.085938 373.664062 375.535156 373.429688 375.839844 C 370.609375 379.492188 367.882812 383.21875 364.964844 386.792969 C 362.15625 390.234375 361.683594 394.242188 361.714844 398.421875 C 361.730469 400.066406 362 401.726562 361.863281 403.355469 C 361.777344 404.371094 361.34375 406 360.714844 406.1875 C 359.617188 406.515625 357.949219 406.351562 357.050781 405.679688 C 353.925781 403.339844 351.03125 400.695312 347.398438 397.613281 C 344.878906 400.503906 342.296875 403.460938 339.71875 406.417969 C 339.425781 406.171875 339.136719 405.925781 338.84375 405.675781 C 340.839844 401.199219 343.050781 396.75 347.304688 393.941406 C 348.234375 393.332031 350.550781 394.425781 352.027344 395.148438 C 353.4375 395.832031 354.585938 397.054688 356.359375 398.4375 C 355.972656 390.332031 359.515625 384.800781 364.550781 379.625 C 369.972656 374.050781 373.292969 367.253906 372.347656 359.132812 C 372.160156 357.535156 371.402344 355.667969 370.273438 354.582031 C 366.945312 351.382812 363.304688 348.519531 359.546875 345.316406 C 359.582031 346.035156 359.476562 346.789062 359.671875 347.449219 C 360.84375 351.371094 362.054688 355.277344 363.316406 359.171875 C 364.066406 361.492188 364.1875 363.546875 361.984375 365.277344 C 361.34375 365.78125 361.078125 366.839844 360.777344 367.695312 C 357.128906 378.113281 352.316406 387.664062 343.6875 395.132812 C 340.671875 397.742188 339.097656 402.042969 336.960938 405.625 C 335.738281 407.667969 334.707031 409.824219 333.390625 412.300781 C 337.542969 417.269531 341.171875 423.355469 342.328125 430.539062 C 342.742188 433.097656 342.382812 435.828125 342.03125 438.433594 C 341.921875 439.238281 340.679688 439.886719 339.957031 440.609375 C 339.40625 439.84375 338.574219 439.15625 338.359375 438.308594 C 337.355469 434.332031 336.929688 430.164062 335.53125 426.34375 C 333.109375 419.722656 328.566406 414.5 323.15625 410.03125 C 322.203125 409.246094 321.253906 408.453125 320.296875 407.671875 C 314.8125 403.199219 313.265625 397.519531 315.101562 390.792969 C 315.964844 387.621094 316.960938 384.472656 317.601562 381.253906 C 317.945312 379.519531 317.660156 377.660156 317.660156 374.875 C 313.335938 380.320312 309.546875 384.976562 305.886719 389.730469 C 301.8125 395.023438 297.828125 400.390625 293.875 405.773438 C 293.167969 406.738281 292.699219 407.910156 292.273438 409.042969 C 291.265625 411.726562 288.980469 412.652344 286.683594 410.871094 C 285.007812 409.574219 283.371094 407.953125 282.367188 406.117188 C 279.171875 400.265625 276.011719 394.363281 273.324219 388.265625 C 266.839844 373.554688 258.152344 360.269531 247.953125 347.832031 C 231.027344 360.417969 210.757812 365.824219 191.695312 373.832031 C 180.460938 378.550781 169.46875 383.679688 159.890625 391.382812 C 147.574219 401.296875 139.148438 414.148438 133.902344 428.746094 C 126.707031 448.753906 120.050781 468.988281 114.132812 489.40625 C 108.300781 509.535156 103.671875 530.007812 98.527344 550.332031 C 98.355469 551.003906 98.332031 551.714844 98.214844 552.605469 C 108.125 554.21875 117.859375 555.71875 127.5625 557.40625 C 142.378906 559.984375 156.96875 563.496094 170.964844 569.078125 C 172.738281 569.785156 173.949219 571.902344 175.421875 573.367188 C 175.238281 573.601562 175.054688 573.835938 174.875 574.070312 C 175.734375 573.800781 176.59375 573.535156 176.628906 573.523438 C 177.855469 559.578125 178.980469 546.074219 180.261719 532.585938 C 180.835938 526.542969 182.183594 520.539062 182.28125 514.5 C 182.339844 510.855469 180.878906 507.113281 179.71875 503.539062 C 178.605469 500.101562 177 496.820312 175.609375 493.472656 C 175.957031 493.242188 176.308594 493.011719 176.65625 492.78125 C 179.175781 495.875 181.691406 498.96875 184.152344 501.992188 C 185.175781 499.28125 186.246094 496.453125 187.527344 493.0625 C 190.375 496.492188 190.347656 500.007812 190.46875 503.257812 C 191.144531 521.828125 189.855469 540.296875 187.078125 558.664062 C 186.46875 562.703125 185.792969 566.726562 185.078125 571.1875 C 191.621094 569.414062 197.910156 567.6875 204.207031 566 C 225.746094 560.222656 247.292969 554.496094 268.804688 548.628906 C 270.421875 548.1875 272.003906 547.015625 273.207031 545.792969 C 275.839844 543.121094 278.640625 540.910156 282.59375 541.390625 C 284.15625 541.578125 285.628906 542.515625 287.945312 543.429688 C 300.035156 540.902344 312.453125 536.039062 324.957031 531.308594 C 335.605469 527.28125 346.535156 523.953125 357.460938 520.710938 C 362.066406 519.34375 366.3125 519.957031 369.714844 524.574219 C 372.085938 527.785156 375.910156 529.921875 379.078125 532.546875 C 379.632812 533.007812 380.382812 533.410156 380.640625 534.011719 C 381.21875 535.367188 381.542969 536.832031 381.96875 538.25 C 380.578125 537.921875 378.8125 538.023438 377.863281 537.191406 C 375.089844 534.75 372.902344 531.597656 369.996094 529.359375 C 366.121094 526.367188 362.4375 523.058594 356.441406 525.058594 C 341.824219 529.929688 327.003906 534.195312 312.261719 538.707031 C 312.40625 538.929688 312.550781 539.148438 312.691406 539.371094 C 311.558594 540.320312 310.570312 541.769531 309.273438 542.140625 C 299.683594 544.875 290.078125 547.566406 280.382812 549.886719 C 277.320312 550.621094 276.171875 552.316406 276.027344 554.941406 C 275.476562 564.839844 277.738281 574.191406 282.460938 582.835938 C 285.050781 587.574219 287.59375 588.019531 292.308594 585.613281 C 298.265625 582.574219 304.175781 579.433594 310.210938 576.554688 C 311.328125 576.023438 312.941406 576.527344 314.324219 576.585938 C 315.089844 576.617188 315.953125 576.984375 316.59375 576.738281 C 320.980469 575.042969 325.640625 573.746094 329.601562 571.324219 C 335.738281 567.574219 341.671875 567.195312 348.039062 570.167969 C 352.046875 572.039062 356.023438 573.992188 360.113281 575.664062 C 362.238281 576.535156 364.910156 577.769531 366.582031 575.207031 C 368.257812 572.644531 366.726562 570.324219 364.898438 568.300781 C 360.21875 563.121094 353.742188 561.957031 347.417969 560.566406 C 344.3125 559.878906 341.078125 559.78125 337.953125 559.148438 C 336.980469 558.949219 336.191406 557.859375 335.316406 557.175781 C 336.273438 556.640625 337.273438 555.570312 338.183594 555.640625 C 348.964844 556.472656 359.476562 558.175781 367.734375 566.144531 C 368.09375 566.492188 368.5 567.03125 368.90625 567.050781 C 372.425781 567.21875 375.949219 567.296875 379.46875 567.382812 C 379.652344 567.386719 379.839844 567.234375 380.035156 567.152344 C 383.058594 553.636719 385.5625 539.976562 389.210938 526.628906 C 396.058594 501.585938 403.550781 476.714844 410.808594 451.78125 C 413.140625 443.765625 418.636719 439.269531 426.75 437.746094 C 432.09375 436.746094 437.421875 435.671875 442.941406 434.589844 C 440.378906 427.992188 437.867188 421.511719 435.34375 415.035156 C 434.445312 412.734375 433.472656 410.464844 432.605469 408.152344 C 427.710938 395.15625 419.125 385.484375 406.824219 378.980469 C 399.003906 374.847656 391.335938 370.4375 383.648438 366.058594 C 382.007812 365.121094 380.59375 363.789062 378.738281 362.382812 C 379.640625 362.167969 379.980469 361.964844 380.199219 362.054688 C 391.25 366.535156 402.390625 370.808594 413.300781 375.601562 C 427.417969 381.800781 435.546875 393.296875 440.632812 407.441406 C 443.515625 415.457031 446.957031 423.273438 450.0625 431.214844 C 450.726562 432.914062 451.664062 433.160156 453.371094 432.929688 C 479.0625 429.453125 504.707031 425.464844 530.488281 422.816406 C 551.476562 420.65625 572.628906 420.089844 593.710938 418.894531 C 597.90625 418.660156 598.546875 419.667969 597.878906 423.820312 C 594.664062 443.824219 591.59375 463.855469 588.289062 483.84375 C 584.597656 506.164062 580.722656 528.457031 576.90625 550.753906 C 576.039062 555.824219 575.277344 560.921875 574.109375 565.925781 C 571.390625 577.578125 565.484375 583.039062 553.585938 584.539062 C 537.339844 586.582031 521.0625 588.324219 504.796875 590.175781 C 489.972656 591.863281 475.144531 593.519531 460.097656 595.210938 C 460.097656 596.097656 460.105469 596.875 460.09375 597.652344 C 459.902344 609.277344 459.878906 620.910156 459.453125 632.527344 C 459.175781 640.007812 455.089844 645.625 449.511719 650.324219 C 442.21875 656.46875 434.738281 662.257812 425.015625 664.007812 C 422.800781 664.402344 420.542969 664.53125 417.984375 664.816406 C 418.257812 666.742188 418.675781 668.714844 418.78125 670.703125 C 418.878906 672.628906 419.039062 675.28125 416.550781 675.335938 C 415.300781 675.363281 413.238281 673.199219 412.859375 671.695312 C 411.628906 666.832031 410.871094 661.828125 410.179688 656.847656 C 407.648438 638.582031 407.527344 620.300781 410.078125 602.019531 C 410.117188 601.734375 410.015625 601.429688 409.953125 600.878906 C 405.761719 601.261719 401.613281 601.785156 397.453125 601.992188 C 390.816406 602.320312 384.050781 601.726562 377.554688 602.804688 C 365.175781 604.863281 354.351562 600.265625 343.339844 596.179688 C 338.621094 594.425781 334.109375 592.132812 329.449219 590.222656 C 323.074219 587.605469 316.660156 585.078125 310.226562 582.617188 C 309.503906 582.339844 308.410156 582.484375 307.6875 582.839844 C 304.273438 584.527344 300.917969 586.328125 297.578125 588.15625 C 296.890625 588.53125 296.226562 589.101562 295.792969 589.746094 C 293.902344 592.5625 291.125 593.539062 287.933594 593.9375 C 286.660156 594.097656 285.359375 594.5625 284.210938 595.160156 C 252.246094 611.730469 220.335938 628.410156 188.320312 644.886719 C 181.296875 648.5 173.933594 651.464844 166.667969 654.59375 C 165.113281 655.261719 164.34375 655.964844 164.53125 657.71875 C 164.75 659.761719 164.859375 661.832031 164.828125 663.886719 C 164.808594 665.191406 164.734375 666.648438 164.144531 667.742188 C 163.710938 668.546875 162.347656 669.351562 161.480469 669.273438 C 160.703125 669.199219 159.472656 667.957031 159.421875 667.171875 C 159.28125 664.851562 159.597656 662.496094 159.789062 660.160156 C 159.871094 659.179688 160.089844 658.207031 160.21875 657.410156 C 154.578125 658.167969 149.226562 659.101562 143.828125 659.570312 C 130.890625 660.6875 120.921875 655.289062 113.015625 645.300781 C 103.683594 633.511719 99.480469 619.933594 99.054688 605.171875 C 98.699219 592.929688 98.980469 580.667969 98.980469 568.0625 C 97.949219 567.882812 96.367188 567.613281 94.792969 567.328125 C 89.359375 566.335938 86.90625 561.226562 89.375 556.351562 C 90.753906 553.632812 90.519531 550.144531 91.28125 547.066406 C 96.816406 524.738281 102.148438 502.359375 108.074219 480.136719 C 113.425781 460.082031 119.847656 440.351562 128.109375 421.253906 C 136.558594 401.738281 149.921875 386.808594 168.671875 376.664062 C 182.496094 369.183594 197.445312 364.515625 211.996094 358.832031 C 222.910156 354.5625 233.664062 349.878906 244.480469 345.359375 C 245.015625 345.136719 245.476562 344.746094 246.125 344.335938 Z M 592.1875 424.527344 C 589.960938 424.527344 588.214844 424.425781 586.480469 424.542969 C 564.789062 425.988281 543.0625 427.070312 521.417969 429.027344 C 490.4375 431.824219 459.765625 436.945312 429.160156 442.445312 C 422.351562 443.667969 417.730469 446.9375 415.722656 453.847656 C 411.332031 468.953125 406.246094 483.867188 402.285156 499.078125 C 395.496094 525.132812 389.355469 551.359375 382.933594 577.511719 C 381.359375 583.921875 379.75 590.324219 378.0625 597.097656 C 381.925781 596.386719 385.316406 595.578125 388.757812 595.164062 C 414.714844 592.03125 440.671875 588.882812 466.648438 585.929688 C 495.1875 582.683594 523.753906 579.664062 552.304688 576.496094 C 557.449219 575.925781 562.367188 574.648438 564.992188 569.535156 C 566.15625 567.261719 567.285156 564.859375 567.789062 562.382812 C 569.804688 552.40625 571.664062 542.390625 573.417969 532.363281 C 578.164062 505.226562 582.820312 478.070312 587.53125 450.925781 C 589.039062 442.222656 590.597656 433.527344 592.1875 424.527344 Z M 101.742188 559.011719 C 101.683594 559.539062 101.5625 560.039062 101.578125 560.535156 C 102.175781 577 102.273438 593.5 103.546875 609.910156 C 104.648438 624.140625 110.335938 636.738281 120.640625 646.988281 C 126.191406 652.507812 132.78125 655.230469 140.644531 655.144531 C 153.859375 654.996094 165.953125 650.777344 177.496094 644.871094 C 207.992188 629.257812 238.390625 613.457031 268.828125 597.726562 C 272.636719 595.761719 276.4375 593.777344 280.242188 591.804688 C 270.171875 580.585938 269.558594 566.976562 269.6875 552.910156 C 268.554688 553.167969 267.570312 553.371094 266.601562 553.617188 C 231.558594 562.632812 196.53125 571.695312 161.476562 580.648438 C 151.164062 583.28125 140.957031 586.027344 132.628906 593.179688 C 132.582031 593.222656 132.328125 593.019531 132.039062 592.855469 C 136.578125 587.953125 142.09375 584.613281 148.246094 582.367188 C 154.21875 580.183594 160.304688 578.3125 166.59375 576.222656 C 145.503906 567.933594 123.640625 563.617188 101.742188 559.011719 Z M 313.820312 173.003906 C 313.355469 172.847656 313.148438 172.695312 312.988281 172.734375 C 301.851562 175.589844 290.734375 178.507812 279.578125 181.28125 C 277.246094 181.863281 276.050781 183.253906 275.457031 185.355469 C 273.804688 191.1875 271.910156 196.976562 270.664062 202.898438 C 269.304688 209.375 268.570312 215.980469 267.484375 223.035156 C 274.824219 223.035156 281.394531 223.089844 287.960938 222.976562 C 288.992188 222.960938 290.191406 222.40625 291 221.726562 C 295.550781 217.90625 300 213.972656 304.503906 210.0625 C 302.070312 207.6875 303.417969 205.503906 304.460938 203.683594 C 310.574219 193.03125 320.265625 187.515625 331.996094 185.257812 C 335.085938 184.664062 337.957031 186.9375 338.472656 189.730469 C 339.0625 192.929688 337.382812 195.492188 333.953125 196.332031 C 331.0625 197.035156 327.984375 197.1875 325.234375 198.226562 C 320.886719 199.875 316.742188 202.0625 312.511719 204.019531 C 312.640625 204.28125 312.773438 204.542969 312.90625 204.804688 C 328.8125 199.363281 341.917969 203.871094 348.027344 216.476562 C 355.210938 216 362.125 215.539062 369.570312 215.042969 C 370.539062 213.507812 371.949219 211.269531 373.386719 208.984375 C 369.605469 208.011719 365.96875 207.304688 362.507812 206.089844 C 360.859375 205.507812 359.546875 203.960938 358.082031 202.851562 C 359.847656 202.296875 361.578125 201.414062 363.378906 201.253906 C 370.238281 200.644531 377.21875 200.832031 383.96875 199.648438 C 390.195312 198.554688 396.199219 196.273438 402.996094 198.996094 C 402.492188 190.859375 402.054688 183.367188 401.519531 175.882812 C 401.464844 175.082031 401 174.140625 400.417969 173.574219 C 398.375 171.574219 396.203125 169.707031 393.820312 167.558594 C 393.742188 167.578125 393.242188 167.660156 392.777344 167.828125 C 382.660156 171.511719 372.285156 173.125 361.519531 171.867188 C 360.46875 171.742188 359.28125 172.109375 358.257812 172.507812 C 346.941406 176.894531 335.625 181.292969 323.460938 182.804688 C 320.816406 183.132812 318.140625 183.539062 315.496094 183.4375 C 311.195312 183.269531 309.738281 180.445312 311.765625 176.710938 C 312.433594 175.484375 313.117188 174.273438 313.820312 173.003906 Z M 352.625 345.613281 C 328.675781 340.878906 306.289062 331.59375 284.867188 320.375 C 282.152344 325.054688 279.441406 329.726562 276.59375 334.640625 C 276.628906 334.683594 276.914062 335.113281 277.300781 335.410156 C 285.878906 341.953125 294.421875 348.546875 303.074219 354.992188 C 307.84375 358.546875 313.136719 361.46875 317.585938 365.371094 C 322.597656 369.761719 324.660156 375.660156 323.027344 382.425781 C 322.113281 386.214844 321.011719 389.960938 320.136719 393.761719 C 319.457031 396.71875 319.824219 399.601562 322.117188 401.789062 C 324.742188 404.292969 327.570312 406.585938 330.113281 408.800781 C 330.722656 406.34375 331.082031 404.019531 331.878906 401.855469 C 333.628906 397.101562 336.984375 393.503906 340.59375 390.042969 C 343.914062 386.855469 347.355469 383.640625 349.953125 379.890625 C 352.976562 375.523438 355.152344 370.566406 357.644531 365.835938 C 357.953125 365.253906 358.226562 364.425781 358.058594 363.847656 C 356.304688 357.761719 354.453125 351.703125 352.625 345.613281 Z M 246.800781 342.164062 C 248.179688 343.761719 249.316406 345.0625 250.441406 346.382812 C 254.90625 351.628906 259.511719 356.765625 263.800781 362.148438 C 271.097656 371.308594 275.855469 381.925781 280.8125 392.429688 C 282.839844 396.726562 285.300781 400.816406 287.449219 404.785156 C 297.03125 393.484375 306.242188 382.621094 315.714844 371.445312 C 313.050781 367.425781 308.332031 364.675781 303.683594 361.878906 C 290.304688 353.828125 277.667969 344.863281 267.714844 332.625 C 265.136719 329.453125 262.828125 326.0625 260.265625 322.597656 C 259.394531 323.300781 258.492188 323.734375 258.027344 324.453125 C 254.253906 330.304688 250.558594 336.207031 246.800781 342.164062 Z M 455.972656 595.707031 C 442.042969 597.246094 428.027344 598.796875 414.035156 600.34375 C 413.953125 601.089844 413.894531 601.492188 413.867188 601.898438 C 412.808594 618.484375 413.621094 634.996094 415.675781 651.46875 C 416.226562 655.882812 417.785156 657.171875 422.164062 656.367188 C 428.125 655.269531 433.0625 652.054688 437.476562 648.167969 C 443.085938 643.230469 449.160156 638.464844 449.597656 630.003906 C 449.667969 628.675781 449.816406 627.335938 450.066406 626.027344 C 451.988281 616.058594 453.945312 606.09375 455.972656 595.707031 Z M 368.046875 227.230469 C 368.28125 224.566406 366.003906 223.996094 363.933594 223.53125 C 358.871094 222.390625 350.910156 227.90625 350.164062 233.101562 C 348.433594 245.144531 341.175781 252.222656 329.875 255.34375 C 315.28125 259.371094 301.5 252.417969 297.652344 239.164062 C 296.765625 236.117188 296.359375 233.230469 292.460938 232.796875 C 291.835938 232.730469 291.09375 232.132812 290.734375 231.570312 C 288.621094 228.246094 285.429688 228.453125 282.09375 228.574219 C 278.289062 228.710938 274.46875 228.472656 270.65625 228.425781 C 269.804688 228.417969 268.949219 228.542969 268.273438 228.59375 C 269.65625 230.828125 271.082031 232.828125 272.195312 234.992188 C 275.570312 241.570312 279.011719 248.128906 282.085938 254.855469 C 286.664062 264.882812 293.597656 273.054688 301.390625 280.648438 C 302.695312 281.921875 303.847656 282.105469 305.492188 281.554688 C 311.539062 279.542969 317.066406 276.621094 321.539062 272.039062 C 324.773438 268.726562 327.792969 265.203125 330.8125 261.691406 C 337.371094 254.0625 345.070312 249.242188 355.664062 251.195312 C 356.367188 251.324219 357.109375 251.210938 358.007812 251.210938 C 355.332031 249.671875 352.875 248.40625 350.574219 246.894531 C 348.226562 245.351562 347.851562 243.308594 349.421875 241.433594 C 351.097656 239.4375 352.808594 239.804688 354.808594 241.21875 C 357.058594 242.808594 359.464844 244.257812 361.988281 245.34375 C 364.289062 246.335938 366.730469 245.953125 368.53125 244 C 370.394531 241.972656 370.640625 239.476562 369.429688 237.109375 C 368.558594 235.417969 367.136719 234.003906 365.957031 232.46875 C 364.976562 231.195312 363.992188 229.925781 363.011719 228.652344 C 364.554688 228.21875 366.097656 227.78125 368.046875 227.230469 Z M 309.921875 217.003906 C 299.90625 221.742188 298.214844 240.621094 309.222656 247.617188 C 317.808594 253.078125 329.5625 252.34375 337.277344 245.367188 C 344.214844 239.09375 346.367188 226.292969 341.527344 218.035156 C 340.183594 215.738281 338.082031 213.554688 335.804688 212.195312 C 329.203125 208.253906 317.230469 210.257812 311.554688 216.027344 C 315.335938 218.855469 315.710938 224.898438 321.671875 226.644531 C 321.671875 223.179688 321.582031 220.335938 321.695312 217.5 C 321.828125 214.1875 324.164062 211.804688 327.039062 211.835938 C 330.109375 211.867188 332.328125 214.410156 332.1875 217.90625 C 332.078125 220.574219 331.890625 223.246094 331.5625 225.894531 C 330.886719 231.390625 326.621094 235.269531 321.433594 235.253906 C 316.046875 235.242188 311.082031 231.386719 310.015625 225.785156 C 309.480469 222.972656 309.921875 219.972656 309.921875 217.003906 Z M 369.703125 568.398438 C 370.140625 569.761719 370.367188 570.332031 370.507812 570.921875 C 372.058594 577.386719 368.601562 581.246094 362.027344 580.222656 C 360.121094 579.925781 358.226562 579.265625 356.453125 578.480469 C 353.070312 576.984375 349.820312 575.191406 346.441406 573.691406 C 342.660156 572.015625 338.714844 571.238281 334.800781 573.210938 C 328.601562 576.339844 322.4375 579.496094 314.652344 579.59375 C 319.902344 581.117188 324.480469 582.273438 328.9375 583.777344 C 338.769531 587.101562 348.496094 590.730469 358.347656 593.976562 C 364.109375 595.875 370.117188 596.566406 376.394531 596.324219 C 377.414062 587.980469 378.402344 579.878906 379.382812 571.855469 C 376.054688 570.667969 373.1875 569.644531 369.703125 568.398438 Z M 375.074219 226.5625 C 374.144531 233.628906 377.449219 238.179688 381.71875 242.109375 C 389.054688 248.867188 397.839844 245.121094 402.15625 240.554688 C 404 238.605469 404.765625 236.328125 404.582031 233.535156 C 404.089844 225.929688 403.859375 218.308594 403.488281 210.695312 C 403.253906 205.839844 402.15625 204.828125 396.773438 204.46875 C 395.867188 208.492188 392.605469 209.464844 389.214844 209.160156 C 383.910156 208.6875 381.003906 211.300781 379 215.667969 C 378.742188 216.226562 378.382812 216.734375 378.101562 217.285156 C 376.550781 220.339844 378.472656 225.355469 381.757812 226.496094 C 382.632812 226.796875 384.003906 226.851562 384.613281 226.363281 C 385.128906 225.949219 385.136719 224.496094 384.890625 223.644531 C 384.378906 221.878906 383.546875 220.207031 382.847656 218.492188 C 381.847656 216.035156 382.273438 214.039062 384.808594 212.828125 C 387.1875 211.691406 390.21875 212.527344 390.921875 215.175781 C 391.875 218.761719 392.421875 222.59375 392.304688 226.292969 C 392.203125 229.523438 389.746094 231.542969 386.503906 232.253906 C 381.503906 233.347656 378.058594 230.953125 375.074219 226.5625 Z M 259.203125 252.90625 C 254.058594 256.777344 251.675781 252.359375 248.820312 249.328125 C 246.878906 251.261719 244.789062 252.078125 242.621094 250.34375 C 240.453125 248.605469 240.316406 246.40625 241.792969 244.035156 C 241.992188 243.710938 241.621094 243.03125 241.507812 242.515625 C 241.289062 241.492188 240.5625 240.074219 240.972656 239.546875 C 241.507812 238.863281 243.054688 238.46875 243.980469 238.699219 C 246.347656 239.28125 248.746094 240.03125 250.886719 241.171875 C 253.710938 242.671875 256.300781 244.613281 258.882812 246.292969 C 258.882812 242.734375 259.746094 238.964844 258.699219 235.835938 C 256.6875 229.820312 247.351562 226.386719 241.53125 228.851562 C 240.847656 229.144531 240.105469 229.816406 239.835938 230.492188 C 236.652344 238.476562 234.007812 246.601562 235.816406 255.367188 C 237.09375 261.578125 241.183594 264.554688 247.539062 264.289062 C 248.875 264.234375 250.222656 264.199219 251.554688 264.28125 C 253.910156 264.421875 254.851562 265.78125 254.144531 268.011719 C 253.882812 268.847656 253.417969 269.617188 253.046875 270.417969 C 253.375 270.300781 253.707031 270.179688 254.035156 270.0625 C 255.554688 272.570312 257.046875 275.097656 258.597656 277.585938 C 260.089844 279.984375 261.648438 282.339844 263.5625 285.3125 C 262.046875 274.042969 260.640625 263.609375 259.203125 252.90625 Z M 370.339844 250.121094 C 373.597656 251.949219 377.117188 253.671875 380.347656 255.824219 C 382.28125 257.113281 383.605469 259.289062 385.484375 260.683594 C 389.496094 263.65625 393.601562 266.53125 397.855469 269.148438 C 399.757812 270.316406 404.574219 267.691406 404.640625 265.484375 C 404.828125 259.179688 404.707031 252.867188 404.707031 246.058594 C 393.828125 253.671875 384.054688 253.148438 375.464844 243.953125 C 373.550781 246.257812 371.742188 248.433594 370.339844 250.121094 Z M 317.882812 290.515625 C 318.449219 290.996094 319.203125 291.929688 320.179688 292.417969 C 323.84375 294.253906 327.632812 295.847656 331.277344 297.722656 C 333.9375 299.089844 336.316406 298.753906 338.804688 297.363281 C 343.933594 294.507812 349.113281 291.738281 353.769531 289.207031 C 351.566406 287.464844 348.753906 285.738281 346.628906 283.390625 C 345.253906 281.871094 344.375 281.636719 342.574219 282.257812 C 334.449219 285.066406 326.273438 287.726562 317.882812 290.515625 Z M 366.179688 287.488281 C 370.644531 288.882812 375.886719 290.503906 381.113281 292.167969 C 383.265625 292.855469 385.363281 293.734375 387.542969 294.324219 C 388.273438 294.523438 389.578125 294.386719 389.9375 293.902344 C 391.796875 291.386719 393.4375 288.707031 395.4375 285.644531 C 386.519531 284.492188 380.503906 277.699219 373.011719 277.21875 C 370.378906 281.175781 368.105469 284.597656 366.179688 287.488281 Z M 272.394531 330.191406 C 273.148438 326.804688 273.875 323.542969 274.71875 319.738281 C 270.789062 320.210938 267.179688 320.648438 263.570312 321.082031 L 263.4375 321.992188 C 266.078125 324.570312 268.714844 327.152344 271.371094 329.71875 C 271.5625 329.902344 271.882812 329.960938 272.394531 330.191406 Z M 99.511719 566.453125 C 99.789062 564.40625 100.070312 562.917969 100.179688 561.414062 C 100.433594 557.890625 98.914062 556.957031 95.605469 558.550781 C 95.152344 558.769531 94.722656 559.050781 94.25 559.230469 C 91.929688 560.121094 91.574219 561.246094 93.46875 562.761719 C 95.183594 564.132812 97.230469 565.085938 99.511719 566.453125 Z M 99.511719 566.453125 "/>
<path style=" stroke:none;fill-rule:nonzero;fill:rgb(0%,0%,0%);fill-opacity:1;" d="M 195.191406 404.0625 C 196.386719 407.15625 197.777344 410.1875 198.75 413.351562 C 205.316406 434.664062 209.425781 456.402344 209.734375 478.769531 C 209.742188 479.285156 209.925781 479.894531 209.714844 480.296875 C 209.28125 481.105469 208.636719 481.804688 208.078125 482.546875 C 207.386719 481.84375 206.222656 481.222656 206.074219 480.417969 C 205.105469 475.167969 204.378906 469.871094 203.53125 464.597656 C 201.160156 449.785156 198.753906 434.976562 196.394531 420.160156 C 195.554688 414.902344 194.808594 409.628906 194.019531 404.363281 C 194.410156 404.261719 194.800781 404.164062 195.191406 404.0625 Z M 195.191406 404.0625 "/>
<path style=" stroke:none;fill-rule:nonzero;fill:rgb(0%,0%,0%);fill-opacity:1;" d="M 306.425781 597.40625 C 305.917969 599.039062 305.613281 600.769531 304.878906 602.296875 C 297.3125 618.039062 288.832031 633.230469 277.773438 646.847656 C 277.320312 647.40625 276.859375 647.964844 276.375 648.496094 C 275.347656 649.605469 274.402344 651.199219 272.582031 649.855469 C 270.800781 648.539062 271.875 647.085938 272.695312 645.804688 C 282.058594 631.207031 291.410156 616.601562 300.875 602.066406 C 302.128906 600.148438 304.003906 598.632812 305.589844 596.933594 Z M 306.425781 597.40625 "/>
<path style=" stroke:none;fill-rule:nonzero;fill:rgb(0%,0%,0%);fill-opacity:1;" d="M 225.648438 413.066406 C 226 413.640625 226.453125 414.179688 226.691406 414.796875 C 232.449219 429.835938 234.460938 445.226562 230.824219 461.085938 C 230.570312 462.183594 229.269531 463.039062 228.457031 464.007812 C 227.777344 462.921875 226.554688 461.863281 226.503906 460.753906 C 225.855469 445.738281 225.363281 430.714844 224.851562 415.695312 C 224.824219 414.851562 224.957031 414 225.019531 413.152344 C 225.226562 413.125 225.4375 413.09375 225.648438 413.066406 Z M 225.648438 413.066406 "/>
<path style=" stroke:none;fill-rule:nonzero;fill:rgb(0%,0%,0%);fill-opacity:1;" d="M 383.570312 547.273438 C 381.898438 546.875 380.882812 546.804688 380.027344 546.394531 C 378.371094 545.59375 376.542969 544.878906 375.246094 543.644531 C 368.914062 537.605469 361.359375 537.160156 353.339844 538.464844 C 346.550781 539.570312 339.757812 540.675781 332.957031 541.726562 C 331.320312 541.980469 329.652344 542.019531 327.996094 542.15625 C 327.914062 541.808594 327.832031 541.457031 327.753906 541.109375 C 329.671875 540.351562 331.527344 539.289062 333.519531 538.890625 C 342.273438 537.152344 351.023438 535.269531 359.859375 534.074219 C 369.679688 532.746094 376.597656 538.324219 382.742188 545.070312 C 383.050781 545.40625 383.097656 545.980469 383.570312 547.273438 Z M 383.570312 547.273438 "/>
<path style=" stroke:none;fill-rule:nonzero;fill:rgb(0%,0%,0%);fill-opacity:1;" d="M 335.671875 552.917969 C 341.25 551.738281 346.828125 550.542969 352.410156 549.382812 C 355.027344 548.835938 357.660156 548.390625 360.269531 547.828125 C 364.65625 546.878906 368.40625 547.984375 371.515625 551.207031 C 373.929688 553.710938 376.066406 556.550781 379.882812 557.125 C 380.335938 557.195312 380.882812 558.085938 380.960938 558.652344 C 381.003906 558.972656 380.128906 559.777344 379.742188 559.730469 C 377.957031 559.523438 375.980469 559.480469 374.484375 558.640625 C 372.652344 557.613281 371.136719 555.945312 369.65625 554.390625 C 366.882812 551.476562 363.640625 550.363281 359.628906 550.917969 C 351.707031 552.019531 343.757812 552.945312 335.820312 553.945312 Z M 335.671875 552.917969 "/>
<path style=" stroke:none;fill-rule:nonzero;fill:rgb(0%,0%,0%);fill-opacity:1;" d="M 306.164062 399.710938 C 307.207031 401.382812 308.382812 402.988281 309.257812 404.746094 C 311.453125 409.148438 314.648438 411.964844 319.664062 413.015625 C 321.730469 413.449219 323.632812 415.25 325.269531 416.789062 C 325.738281 417.226562 325.015625 418.925781 324.839844 420.046875 C 323.976562 419.597656 323.105469 419.160156 322.253906 418.6875 C 320.777344 417.867188 319.402344 416.640625 317.824219 416.257812 C 313.527344 415.222656 310.371094 413.230469 308.933594 408.761719 C 307.980469 405.8125 306.480469 403.042969 305.230469 400.191406 Z M 306.164062 399.710938 "/>
<path style=" stroke:none;fill-rule:nonzero;fill:rgb(100%,100%,100%);fill-opacity:1;" d="M 592.1875 424.527344 C 590.597656 433.527344 589.039062 442.222656 587.53125 450.925781 C 582.820312 478.070312 578.164062 505.226562 573.417969 532.363281 C 571.664062 542.390625 569.804688 552.40625 567.789062 562.382812 C 567.285156 564.859375 566.15625 567.261719 564.992188 569.535156 C 562.367188 574.648438 557.449219 575.925781 552.304688 576.496094 C 523.753906 579.664062 495.1875 582.683594 466.648438 585.929688 C 440.671875 588.882812 414.714844 592.03125 388.757812 595.164062 C 385.316406 595.578125 381.925781 596.386719 378.0625 597.097656 C 379.75 590.324219 381.359375 583.921875 382.933594 577.511719 C 389.355469 551.359375 395.496094 525.132812 402.285156 499.078125 C 406.246094 483.867188 411.332031 468.953125 415.722656 453.847656 C 417.730469 446.9375 422.351562 443.667969 429.160156 442.445312 C 459.765625 436.945312 490.4375 431.824219 521.417969 429.027344 C 543.0625 427.070312 564.789062 425.988281 586.480469 424.542969 C 588.214844 424.425781 589.960938 424.527344 592.1875 424.527344 Z M 492.910156 508.5 C 492.125 509.011719 491.519531 509.394531 490.929688 509.800781 C 484.53125 514.210938 484.714844 520.148438 491.664062 523.664062 C 494.421875 525.0625 497.691406 525.878906 500.792969 526.105469 C 508.761719 526.683594 516.707031 526.390625 523.367188 521.042969 C 529.480469 516.140625 528.640625 509.847656 521.59375 506.574219 C 520.871094 506.238281 519.859375 505.554688 519.785156 504.933594 C 519.34375 501.242188 516.867188 499.761719 515.019531 499.292969 C 512.03125 494.328125 509.65625 490.207031 507.0625 486.222656 C 506.578125 485.480469 505.0625 484.78125 504.324219 485.011719 C 503.65625 485.21875 502.972656 486.757812 503.027344 487.664062 C 503.269531 491.8125 501.644531 495.082031 498.679688 497.761719 C 497.546875 498.789062 496.160156 499.527344 494.933594 500.457031 C 491.546875 503.023438 491.160156 504.515625 492.910156 508.5 Z M 492.910156 508.5 "/>
<path style=" stroke:none;fill-rule:nonzero;fill:rgb(100%,100%,100%);fill-opacity:1;" d="M 101.742188 559.011719 C 123.640625 563.617188 145.503906 567.933594 166.59375 576.222656 C 160.304688 578.3125 154.21875 580.183594 148.246094 582.367188 C 142.09375 584.613281 136.578125 587.953125 132.039062 592.855469 C 132.328125 593.019531 132.582031 593.222656 132.628906 593.179688 C 140.957031 586.027344 151.164062 583.28125 161.476562 580.648438 C 196.53125 571.695312 231.558594 562.632812 266.601562 553.617188 C 267.570312 553.371094 268.554688 553.167969 269.6875 552.910156 C 269.558594 566.976562 270.171875 580.585938 280.242188 591.804688 C 276.4375 593.777344 272.636719 595.761719 268.828125 597.726562 C 238.390625 613.457031 207.992188 629.257812 177.496094 644.871094 C 165.953125 650.777344 153.859375 654.996094 140.644531 655.144531 C 132.78125 655.230469 126.191406 652.507812 120.640625 646.988281 C 110.335938 636.738281 104.648438 624.140625 103.546875 609.910156 C 102.273438 593.5 102.175781 577 101.578125 560.535156 C 101.5625 560.039062 101.683594 559.539062 101.742188 559.011719 Z M 101.742188 559.011719 "/>
<path style=" stroke:none;fill-rule:nonzero;fill:rgb(100%,100%,100%);fill-opacity:1;" d="M 313.820312 173.003906 C 313.117188 174.273438 312.433594 175.484375 311.765625 176.710938 C 309.738281 180.445312 311.195312 183.269531 315.496094 183.4375 C 318.140625 183.539062 320.816406 183.132812 323.460938 182.804688 C 335.625 181.292969 346.941406 176.894531 358.257812 172.507812 C 359.28125 172.109375 360.46875 171.742188 361.519531 171.867188 C 372.285156 173.125 382.660156 171.511719 392.777344 167.828125 C 393.242188 167.660156 393.742188 167.578125 393.820312 167.558594 C 396.203125 169.707031 398.375 171.574219 400.417969 173.574219 C 401 174.140625 401.464844 175.082031 401.519531 175.882812 C 402.054688 183.367188 402.492188 190.859375 402.996094 198.996094 C 396.199219 196.273438 390.195312 198.554688 383.96875 199.648438 C 377.21875 200.832031 370.238281 200.644531 363.378906 201.253906 C 361.578125 201.414062 359.847656 202.296875 358.082031 202.851562 C 359.546875 203.960938 360.859375 205.507812 362.507812 206.089844 C 365.96875 207.304688 369.605469 208.011719 373.386719 208.984375 C 371.949219 211.269531 370.539062 213.507812 369.570312 215.042969 C 362.125 215.539062 355.210938 216 348.027344 216.476562 C 341.917969 203.871094 328.8125 199.363281 312.90625 204.804688 C 312.773438 204.542969 312.640625 204.28125 312.511719 204.019531 C 316.742188 202.0625 320.886719 199.875 325.234375 198.226562 C 327.984375 197.1875 331.0625 197.035156 333.953125 196.332031 C 337.382812 195.492188 339.0625 192.929688 338.472656 189.730469 C 337.957031 186.9375 335.085938 184.664062 331.996094 185.257812 C 320.265625 187.515625 310.574219 193.03125 304.460938 203.683594 C 303.417969 205.503906 302.070312 207.6875 304.503906 210.0625 C 300 213.972656 295.550781 217.90625 291 221.726562 C 290.191406 222.40625 288.992188 222.960938 287.960938 222.976562 C 281.394531 223.089844 274.824219 223.035156 267.484375 223.035156 C 268.570312 215.980469 269.304688 209.375 270.664062 202.898438 C 271.910156 196.976562 273.804688 191.1875 275.457031 185.355469 C 276.050781 183.253906 277.246094 181.863281 279.578125 181.28125 C 290.734375 178.507812 301.851562 175.589844 312.988281 172.734375 C 313.148438 172.695312 313.355469 172.847656 313.820312 173.003906 Z M 313.820312 173.003906 "/>
<path style=" stroke:none;fill-rule:nonzero;fill:rgb(100%,100%,100%);fill-opacity:1;" d="M 352.625 345.613281 C 354.453125 351.703125 356.304688 357.761719 358.058594 363.847656 C 358.226562 364.425781 357.953125 365.253906 357.644531 365.835938 C 355.152344 370.566406 352.976562 375.523438 349.953125 379.890625 C 347.355469 383.640625 343.914062 386.855469 340.59375 390.042969 C 336.984375 393.503906 333.628906 397.101562 331.878906 401.855469 C 331.082031 404.019531 330.722656 406.34375 330.113281 408.800781 C 327.570312 406.585938 324.742188 404.292969 322.117188 401.789062 C 319.824219 399.601562 319.457031 396.71875 320.136719 393.761719 C 321.011719 389.960938 322.113281 386.214844 323.027344 382.425781 C 324.660156 375.660156 322.597656 369.761719 317.585938 365.371094 C 313.136719 361.46875 307.84375 358.546875 303.074219 354.992188 C 294.421875 348.546875 285.878906 341.953125 277.300781 335.410156 C 276.914062 335.113281 276.628906 334.683594 276.59375 334.640625 C 279.441406 329.726562 282.152344 325.054688 284.867188 320.375 C 306.289062 331.59375 328.675781 340.878906 352.625 345.613281 Z M 352.625 345.613281 "/>
<path style=" stroke:none;fill-rule:nonzero;fill:rgb(100%,100%,100%);fill-opacity:1;" d="M 246.800781 342.164062 C 250.558594 336.207031 254.253906 330.304688 258.027344 324.453125 C 258.492188 323.734375 259.394531 323.300781 260.265625 322.597656 C 262.828125 326.0625 265.136719 329.453125 267.714844 332.625 C 277.667969 344.863281 290.304688 353.828125 303.683594 361.878906 C 308.332031 364.675781 313.050781 367.425781 315.714844 371.445312 C 306.242188 382.621094 297.03125 393.484375 287.449219 404.785156 C 285.300781 400.816406 282.839844 396.726562 280.8125 392.429688 C 275.855469 381.925781 271.097656 371.308594 263.800781 362.148438 C 259.511719 356.765625 254.90625 351.628906 250.441406 346.382812 C 249.316406 345.0625 248.179688 343.761719 246.800781 342.164062 Z M 246.800781 342.164062 "/>
<path style=" stroke:none;fill-rule:nonzero;fill:rgb(100%,100%,100%);fill-opacity:1;" d="M 455.972656 595.707031 C 453.945312 606.09375 451.988281 616.058594 450.066406 626.027344 C 449.816406 627.335938 449.667969 628.675781 449.597656 630.003906 C 449.160156 638.464844 443.085938 643.230469 437.476562 648.167969 C 433.0625 652.054688 428.125 655.269531 422.164062 656.367188 C 417.785156 657.171875 416.226562 655.882812 415.675781 651.46875 C 413.621094 634.996094 412.808594 618.484375 413.867188 601.898438 C 413.894531 601.492188 413.953125 601.089844 414.035156 600.34375 C 428.027344 598.796875 442.042969 597.246094 455.972656 595.707031 Z M 455.972656 595.707031 "/>
<path style=" stroke:none;fill-rule:nonzero;fill:rgb(100%,100%,100%);fill-opacity:1;" d="M 368.046875 227.230469 C 366.097656 227.78125 364.554688 228.21875 363.011719 228.652344 C 363.992188 229.925781 364.976562 231.195312 365.957031 232.46875 C 367.136719 234.003906 368.558594 235.417969 369.429688 237.109375 C 370.640625 239.476562 370.394531 241.972656 368.53125 244 C 366.730469 245.953125 364.289062 246.335938 361.988281 245.34375 C 359.464844 244.257812 357.058594 242.808594 354.808594 241.21875 C 352.808594 239.804688 351.097656 239.4375 349.421875 241.433594 C 347.851562 243.308594 348.226562 245.351562 350.574219 246.894531 C 352.875 248.40625 355.332031 249.671875 358.007812 251.210938 C 357.109375 251.210938 356.367188 251.324219 355.664062 251.195312 C 345.070312 249.242188 337.371094 254.0625 330.8125 261.691406 C 327.792969 265.203125 324.773438 268.726562 321.539062 272.039062 C 317.066406 276.621094 311.539062 279.542969 305.492188 281.554688 C 303.847656 282.105469 302.695312 281.921875 301.390625 280.648438 C 293.597656 273.054688 286.664062 264.882812 282.085938 254.855469 C 279.011719 248.128906 275.570312 241.570312 272.195312 234.992188 C 271.082031 232.828125 269.65625 230.828125 268.273438 228.59375 C 268.949219 228.542969 269.804688 228.417969 270.65625 228.425781 C 274.46875 228.472656 278.289062 228.710938 282.09375 228.574219 C 285.429688 228.453125 288.621094 228.246094 290.734375 231.570312 C 291.09375 232.132812 291.835938 232.730469 292.460938 232.796875 C 296.359375 233.230469 296.765625 236.117188 297.652344 239.164062 C 301.5 252.417969 315.28125 259.371094 329.875 255.34375 C 341.175781 252.222656 348.433594 245.144531 350.164062 233.101562 C 350.910156 227.90625 358.871094 222.390625 363.933594 223.53125 C 366.003906 223.996094 368.28125 224.566406 368.046875 227.230469 Z M 368.046875 227.230469 "/>
<path style=" stroke:none;fill-rule:nonzero;fill:rgb(100%,100%,100%);fill-opacity:1;" d="M 309.921875 217.003906 C 309.921875 219.972656 309.480469 222.972656 310.015625 225.785156 C 311.082031 231.386719 316.046875 235.242188 321.433594 235.253906 C 326.621094 235.269531 330.886719 231.390625 331.5625 225.894531 C 331.890625 223.246094 332.078125 220.574219 332.1875 217.90625 C 332.328125 214.410156 330.109375 211.867188 327.039062 211.835938 C 324.164062 211.804688 321.828125 214.1875 321.695312 217.5 C 321.582031 220.335938 321.671875 223.179688 321.671875 226.644531 C 315.710938 224.898438 315.335938 218.855469 311.554688 216.027344 C 317.230469 210.257812 329.203125 208.253906 335.804688 212.195312 C 338.082031 213.554688 340.183594 215.738281 341.527344 218.035156 C 346.367188 226.292969 344.214844 239.09375 337.277344 245.367188 C 329.5625 252.34375 317.808594 253.078125 309.222656 247.617188 C 298.214844 240.621094 299.90625 221.742188 309.921875 217.003906 Z M 309.921875 217.003906 "/>
<path style=" stroke:none;fill-rule:nonzero;fill:rgb(100%,100%,100%);fill-opacity:1;" d="M 369.703125 568.398438 C 373.1875 569.644531 376.054688 570.667969 379.382812 571.855469 C 378.402344 579.878906 377.414062 587.980469 376.394531 596.324219 C 370.117188 596.566406 364.109375 595.875 358.347656 593.976562 C 348.496094 590.730469 338.769531 587.101562 328.9375 583.777344 C 324.480469 582.273438 319.902344 581.117188 314.652344 579.59375 C 322.4375 579.496094 328.601562 576.339844 334.800781 573.210938 C 338.714844 571.238281 342.660156 572.015625 346.441406 573.691406 C 349.820312 575.191406 353.070312 576.984375 356.453125 578.480469 C 358.226562 579.265625 360.121094 579.925781 362.027344 580.222656 C 368.601562 581.246094 372.058594 577.386719 370.507812 570.921875 C 370.367188 570.332031 370.140625 569.761719 369.703125 568.398438 Z M 369.703125 568.398438 "/>
<path style=" stroke:none;fill-rule:nonzero;fill:rgb(100%,100%,100%);fill-opacity:1;" d="M 375.074219 226.5625 C 378.058594 230.953125 381.503906 233.347656 386.503906 232.253906 C 389.746094 231.542969 392.203125 229.523438 392.304688 226.292969 C 392.421875 222.59375 391.875 218.761719 390.921875 215.175781 C 390.21875 212.527344 387.1875 211.691406 384.808594 212.828125 C 382.273438 214.039062 381.847656 216.035156 382.847656 218.492188 C 383.546875 220.207031 384.378906 221.878906 384.890625 223.644531 C 385.136719 224.496094 385.128906 225.949219 384.613281 226.363281 C 384.003906 226.851562 382.632812 226.796875 381.757812 226.496094 C 378.472656 225.355469 376.550781 220.339844 378.101562 217.285156 C 378.382812 216.734375 378.742188 216.226562 379 215.667969 C 381.003906 211.300781 383.910156 208.6875 389.214844 209.160156 C 392.605469 209.464844 395.867188 208.492188 396.773438 204.46875 C 402.15625 204.828125 403.253906 205.839844 403.488281 210.695312 C 403.859375 218.308594 404.089844 225.929688 404.582031 233.535156 C 404.765625 236.328125 404 238.605469 402.15625 240.554688 C 397.839844 245.121094 389.054688 248.867188 381.71875 242.109375 C 377.449219 238.179688 374.144531 233.628906 375.074219 226.5625 Z M 375.074219 226.5625 "/>
<path style=" stroke:none;fill-rule:nonzero;fill:rgb(100%,100%,100%);fill-opacity:1;" d="M 259.203125 252.90625 C 260.640625 263.609375 262.046875 274.042969 263.5625 285.3125 C 261.648438 282.339844 260.089844 279.984375 258.597656 277.585938 C 257.046875 275.097656 255.554688 272.570312 254.035156 270.0625 C 253.707031 270.179688 253.375 270.300781 253.046875 270.417969 C 253.417969 269.617188 253.882812 268.847656 254.144531 268.011719 C 254.851562 265.78125 253.910156 264.421875 251.554688 264.28125 C 250.222656 264.199219 248.875 264.234375 247.539062 264.289062 C 241.183594 264.554688 237.09375 261.578125 235.816406 255.367188 C 234.007812 246.601562 236.652344 238.476562 239.835938 230.492188 C 240.105469 229.816406 240.847656 229.144531 241.53125 228.851562 C 247.351562 226.386719 256.6875 229.820312 258.699219 235.835938 C 259.746094 238.964844 258.882812 242.734375 258.882812 246.292969 C 256.300781 244.613281 253.710938 242.671875 250.886719 241.171875 C 248.746094 240.03125 246.347656 239.28125 243.980469 238.699219 C 243.054688 238.46875 241.507812 238.863281 240.972656 239.546875 C 240.5625 240.074219 241.289062 241.492188 241.507812 242.515625 C 241.621094 243.03125 241.992188 243.710938 241.792969 244.035156 C 240.316406 246.40625 240.453125 248.605469 242.621094 250.34375 C 244.789062 252.078125 246.878906 251.261719 248.820312 249.328125 C 251.675781 252.359375 254.058594 256.777344 259.203125 252.90625 Z M 259.203125 252.90625 "/>
<path style=" stroke:none;fill-rule:nonzero;fill:rgb(100%,100%,100%);fill-opacity:1;" d="M 370.339844 250.121094 C 371.742188 248.433594 373.550781 246.257812 375.464844 243.953125 C 384.054688 253.148438 393.828125 253.671875 404.707031 246.058594 C 404.707031 252.867188 404.828125 259.179688 404.640625 265.484375 C 404.574219 267.691406 399.757812 270.316406 397.855469 269.148438 C 393.601562 266.53125 389.496094 263.65625 385.484375 260.683594 C 383.605469 259.289062 382.28125 257.113281 380.347656 255.824219 C 377.117188 253.671875 373.597656 251.949219 370.339844 250.121094 Z M 370.339844 250.121094 "/>
<path style=" stroke:none;fill-rule:nonzero;fill:rgb(100%,100%,100%);fill-opacity:1;" d="M 317.882812 290.515625 C 326.273438 287.726562 334.449219 285.066406 342.574219 282.257812 C 344.375 281.636719 345.253906 281.871094 346.628906 283.390625 C 348.753906 285.738281 351.566406 287.464844 353.769531 289.207031 C 349.113281 291.738281 343.933594 294.507812 338.804688 297.363281 C 336.316406 298.753906 333.9375 299.089844 331.277344 297.722656 C 327.632812 295.847656 323.84375 294.253906 320.179688 292.417969 C 319.203125 291.929688 318.449219 290.996094 317.882812 290.515625 Z M 317.882812 290.515625 "/>
<path style=" stroke:none;fill-rule:nonzero;fill:rgb(100%,100%,100%);fill-opacity:1;" d="M 366.179688 287.488281 C 368.105469 284.597656 370.378906 281.175781 373.011719 277.21875 C 380.503906 277.699219 386.519531 284.492188 395.4375 285.644531 C 393.4375 288.707031 391.796875 291.386719 389.9375 293.902344 C 389.578125 294.386719 388.273438 294.523438 387.542969 294.324219 C 385.363281 293.734375 383.265625 292.855469 381.113281 292.167969 C 375.886719 290.503906 370.644531 288.882812 366.179688 287.488281 Z M 366.179688 287.488281 "/>
<path style=" stroke:none;fill-rule:nonzero;fill:rgb(100%,100%,100%);fill-opacity:1;" d="M 272.394531 330.191406 C 271.882812 329.960938 271.5625 329.902344 271.371094 329.71875 C 268.714844 327.152344 266.078125 324.570312 263.4375 321.992188 L 263.570312 321.082031 C 267.179688 320.648438 270.789062 320.210938 274.71875 319.738281 C 273.875 323.542969 273.148438 326.804688 272.394531 330.191406 Z M 272.394531 330.191406 "/>
<path style=" stroke:none;fill-rule:nonzero;fill:rgb(100%,100%,100%);fill-opacity:1;" d="M 99.511719 566.453125 C 97.230469 565.085938 95.183594 564.132812 93.46875 562.761719 C 91.574219 561.246094 91.929688 560.121094 94.25 559.230469 C 94.722656 559.050781 95.152344 558.769531 95.605469 558.550781 C 98.914062 556.957031 100.433594 557.890625 100.179688 561.414062 C 100.070312 562.917969 99.789062 564.40625 99.511719 566.453125 Z M 99.511719 566.453125 "/>
<path style=" stroke:none;fill-rule:nonzero;fill:rgb(0%,0%,0%);fill-opacity:1;" d="M 492.910156 508.5 C 491.160156 504.515625 491.546875 503.023438 494.933594 500.457031 C 496.160156 499.527344 497.546875 498.789062 498.679688 497.761719 C 501.644531 495.082031 503.269531 491.8125 503.027344 487.664062 C 502.972656 486.757812 503.65625 485.21875 504.324219 485.011719 C 505.0625 484.78125 506.578125 485.480469 507.0625 486.222656 C 509.65625 490.207031 512.03125 494.328125 515.019531 499.292969 C 516.867188 499.761719 519.34375 501.242188 519.785156 504.933594 C 519.859375 505.554688 520.871094 506.238281 521.59375 506.574219 C 528.640625 509.847656 529.480469 516.140625 523.367188 521.042969 C 516.707031 526.390625 508.761719 526.683594 500.792969 526.105469 C 497.691406 525.878906 494.421875 525.0625 491.664062 523.664062 C 484.714844 520.148438 484.53125 514.210938 490.929688 509.800781 C 491.519531 509.394531 492.125 509.011719 492.910156 508.5 Z M 500.8125 509.285156 C 499.503906 509.648438 498.558594 510.253906 497.824219 510.0625 C 494.421875 509.164062 493.117188 511.777344 491.429688 513.6875 C 489.667969 515.679688 489.894531 517.734375 491.972656 519.292969 C 493.257812 520.261719 494.796875 521.09375 496.351562 521.464844 C 502.996094 523.046875 509.691406 522.964844 516.132812 520.675781 C 518.449219 519.855469 520.527344 518.066406 522.40625 516.378906 C 523.785156 515.136719 524.316406 513.140625 522.445312 511.832031 C 520.941406 510.78125 519.105469 509.617188 517.421875 512.015625 C 516.757812 512.960938 515.65625 513.816406 514.574219 514.179688 C 513.71875 514.464844 512.589844 513.925781 511.585938 513.753906 C 511.871094 512.882812 512 511.914062 512.472656 511.160156 C 513.488281 509.550781 515.09375 508.195312 515.691406 506.46875 C 516.488281 504.15625 514.351562 502.375 512.152344 503.363281 C 509.769531 504.433594 509.128906 503.585938 508.789062 501.273438 C 508.421875 498.738281 507.570312 496.277344 507.105469 494.476562 C 503.28125 498.171875 499.519531 501.808594 495.4375 505.75 C 496.957031 506.75 498.609375 507.835938 500.8125 509.285156 Z M 500.8125 509.285156 "/>
<path style=" stroke:none;fill-rule:nonzero;fill:rgb(100%,100%,100%);fill-opacity:1;" d="M 500.8125 509.285156 C 498.609375 507.835938 496.957031 506.75 495.4375 505.75 C 499.519531 501.808594 503.28125 498.171875 507.105469 494.476562 C 507.570312 496.277344 508.421875 498.738281 508.789062 501.273438 C 509.128906 503.585938 509.769531 504.433594 512.152344 503.363281 C 514.351562 502.375 516.488281 504.15625 515.691406 506.46875 C 515.09375 508.195312 513.488281 509.550781 512.472656 511.160156 C 512 511.914062 511.871094 512.882812 511.585938 513.753906 C 512.589844 513.925781 513.71875 514.464844 514.574219 514.179688 C 515.65625 513.816406 516.757812 512.960938 517.421875 512.015625 C 519.105469 509.617188 520.941406 510.78125 522.445312 511.832031 C 524.316406 513.140625 523.785156 515.136719 522.40625 516.378906 C 520.527344 518.066406 518.449219 519.855469 516.132812 520.675781 C 509.691406 522.964844 502.996094 523.046875 496.351562 521.464844 C 494.796875 521.09375 493.257812 520.261719 491.972656 519.292969 C 489.894531 517.734375 489.667969 515.679688 491.429688 513.6875 C 493.117188 511.777344 494.421875 509.164062 497.824219 510.0625 C 498.558594 510.253906 499.503906 509.648438 500.8125 509.285156 Z M 500.8125 509.285156 "/>
</g>
</svg>
