<?xml version="1.0" encoding="UTF-8"?>
<svg xmlns="http://www.w3.org/2000/svg" xmlns:xlink="http://www.w3.org/1999/xlink" width="px" height="px" viewBox="0 0 683 777" version="1.1">
<g id="surface1">
<path style=" stroke:none;fill-rule:nonzero;fill:rgb(100%,100%,100%);fill-opacity:1;" d="M 521.828125 539.542969 C 523.40625 536.40625 525.292969 532.984375 526.878906 529.429688 C 528.699219 525.347656 528.753906 521.429688 524.875 518.277344 C 523.1875 516.902344 523.421875 515.414062 524.457031 513.648438 C 527.945312 507.710938 527.644531 506.339844 522.246094 502.035156 C 519.183594 499.59375 517.742188 496.753906 518.816406 492.644531 C 520.460938 486.351562 517.972656 479.621094 513.671875 476.804688 C 521.375 459.800781 529.074219 442.875 536.695312 425.914062 C 538.734375 421.382812 538.386719 420.679688 533.316406 420.136719 C 522.269531 418.957031 511.207031 417.875 500.128906 417.042969 C 497.199219 416.824219 495.28125 415.949219 494.140625 413.269531 C 492.894531 410.339844 491.707031 407.363281 490.214844 404.554688 C 488.105469 400.59375 486.207031 396.382812 483.382812 392.96875 C 478.296875 386.828125 478.074219 387.089844 471.859375 391.960938 C 471.148438 392.519531 469.769531 392.226562 468.703125 392.332031 C 468.960938 391.265625 468.921875 389.960938 469.546875 389.191406 C 470.664062 387.808594 472.179688 386.75 474.257812 384.910156 C 461.785156 378.746094 449.882812 372.949219 438.066406 366.980469 C 433.480469 364.660156 428.042969 364.230469 425.097656 358.417969 C 423.511719 355.28125 420.746094 352.496094 419.460938 348.894531 C 416.949219 341.84375 413.8125 339.769531 406.300781 339.964844 C 405.699219 335.941406 405.097656 331.914062 404.488281 327.859375 C 404.804688 327.734375 405.078125 327.570312 405.371094 327.511719 C 421.296875 324.4375 433.882812 316.101562 443.4375 303.136719 C 452.496094 290.847656 455.707031 276.632812 455.472656 261.757812 C 455.164062 242.207031 454.082031 222.667969 453.238281 203.128906 C 453.007812 197.804688 452.4375 192.5 452.015625 187.105469 C 456.042969 186.28125 457.609375 183.453125 458.269531 179.859375 C 459.789062 171.605469 458.082031 164.15625 452.589844 157.6875 C 456.359375 152.867188 458.070312 147.527344 458.144531 141.535156 C 458.199219 137.351562 457.046875 134.25 452.871094 133.355469 C 452.574219 131.304688 452.789062 129.207031 451.90625 127.792969 C 451.113281 126.511719 449.121094 125.972656 447.613281 125.082031 C 449.066406 121.382812 448.132812 118.800781 444.699219 118.550781 C 429.582031 117.457031 415.84375 111.480469 401.894531 106.40625 C 396.464844 104.433594 391.078125 103.289062 385.402344 102.96875 C 372.167969 102.222656 359.328125 104.554688 346.671875 108.046875 C 330.625 112.476562 315.003906 118.019531 301.542969 128.171875 C 298.199219 130.699219 295.472656 132.394531 290.917969 131.128906 C 286.15625 129.800781 283.292969 132.769531 283.011719 137.808594 C 282.972656 138.507812 282.542969 139.328125 282.035156 139.832031 C 277.699219 144.171875 277.546875 145.445312 281.015625 150.144531 C 280.769531 150.585938 280.539062 151.042969 280.269531 151.480469 C 271.179688 166.367188 266.660156 182.535156 267.179688 199.964844 C 267.453125 209.078125 268.648438 218.050781 274.902344 225.460938 C 275.367188 226.007812 275.195312 227.308594 274.972656 228.175781 C 273.683594 233.242188 271.804688 238.210938 271.035156 243.347656 C 269.519531 253.464844 272.234375 265.8125 286.4375 269.597656 C 285.640625 271.035156 284.445312 272.390625 284.164062 273.914062 C 283.875 275.476562 283.945312 277.652344 284.851562 278.730469 C 285.703125 279.746094 287.835938 279.722656 289.421875 280.085938 C 290.25 280.273438 291.492188 279.984375 291.894531 280.460938 C 294.445312 283.488281 297.367188 283.140625 300.605469 281.5 C 303.664062 288.429688 309.019531 293.28125 314.113281 298.390625 C 316.9375 301.214844 319.378906 304.421875 322.003906 307.445312 C 323.347656 309 324.589844 310.671875 326.101562 312.039062 C 327.925781 313.6875 330.023438 313.082031 330.082031 310.722656 C 330.140625 308.292969 329.878906 305.3125 328.523438 303.5 C 325.589844 299.582031 322.113281 295.976562 318.410156 292.761719 C 312.382812 287.53125 306.691406 282.085938 302.625 275.136719 C 300.9375 272.25 299.207031 269.390625 297.5 266.515625 C 296.785156 266.40625 296.984375 265.960938 297.164062 265.511719 C 298.601562 261.914062 297.734375 260.671875 293.765625 260.648438 C 293.046875 260.644531 292.285156 260.507812 291.609375 260.6875 C 284.742188 262.492188 280.257812 256.742188 279.261719 251.566406 C 277.566406 242.773438 280.195312 234.664062 283.535156 226.753906 C 284.726562 223.925781 287.597656 222.71875 290.253906 223.824219 C 293.761719 225.28125 297.023438 227.46875 300.128906 229.707031 C 302.097656 231.125 303.472656 233.339844 305.320312 234.957031 C 307.542969 236.902344 309.964844 236.042969 310.691406 233.183594 C 310.917969 232.300781 310.890625 231.347656 310.898438 230.425781 C 311.050781 214.050781 313.441406 198.054688 318.734375 182.507812 C 319.667969 179.769531 321.097656 178.332031 323.976562 177.628906 C 334.847656 174.972656 345.648438 172.046875 356.480469 169.238281 C 356.699219 169.183594 356.984375 169.367188 357.378906 169.480469 C 356.558594 170.933594 355.777344 172.257812 355.050781 173.609375 C 353.398438 176.691406 354.621094 179.476562 358.078125 180.003906 C 359.976562 180.292969 362 180.199219 363.90625 179.910156 C 375.335938 178.175781 386.5 175.46875 397.105469 170.710938 C 400.476562 169.199219 403.910156 168.117188 407.816406 168.578125 C 416.222656 169.5625 424.507812 168.355469 432.429688 165.550781 C 436.070312 164.257812 438.738281 163.976562 440.859375 167.699219 C 441.332031 168.535156 442.570312 168.90625 443.167969 169.707031 C 443.957031 170.761719 444.9375 172 445.007812 173.207031 C 446.074219 192.433594 447.402344 211.65625 447.851562 230.898438 C 448.183594 245.070312 448.488281 259.414062 446.773438 273.433594 C 443.085938 303.550781 414.195312 323.492188 384.304688 317.625 C 378.757812 316.535156 373.300781 315.011719 367.753906 313.929688 C 366.691406 313.726562 364.8125 314.347656 364.382812 315.15625 C 363.917969 316.03125 364.273438 318.089844 365.03125 318.734375 C 367.734375 321.03125 370.511719 323.59375 373.730469 324.851562 C 377.984375 326.515625 382.636719 327.484375 387.195312 327.9375 C 392.335938 328.449219 397.566406 328.054688 402.628906 328.054688 C 402.242188 330.480469 401.8125 332.589844 401.597656 334.71875 C 401.382812 336.863281 401.246094 339.035156 401.3125 341.1875 C 401.527344 348.023438 401.457031 348.171875 394.613281 349.789062 C 393.613281 350.027344 392.601562 350.234375 391.585938 350.371094 C 382.589844 351.578125 373.707031 350.445312 364.84375 349.007812 C 352.164062 346.953125 339.792969 344.167969 329.449219 335.730469 C 327.371094 334.035156 326.433594 332.800781 327.167969 329.984375 C 328.136719 326.273438 328.160156 322.382812 325.582031 318.738281 C 324.734375 322.660156 323.890625 326.582031 322.96875 330.863281 C 320.492188 329.152344 319.390625 330.558594 318.148438 332.136719 C 316.566406 334.148438 314.902344 336.148438 313.003906 337.851562 C 306.746094 343.46875 298.886719 345.214844 290.925781 346.546875 C 273.191406 349.519531 255.414062 352.289062 238.207031 357.71875 C 219.761719 363.542969 203.015625 372.210938 190.054688 387.054688 C 189.152344 388.085938 188.332031 389.183594 187.292969 390.476562 C 189.6875 391.054688 191.640625 391.339844 193.417969 392.0625 C 194.074219 392.324219 194.308594 393.621094 194.734375 394.445312 C 193.996094 394.8125 193.242188 395.515625 192.527344 395.476562 C 191 395.390625 189.449219 395.066406 188 394.574219 C 185.265625 393.640625 183.605469 394.601562 182.289062 397.042969 C 181.074219 399.300781 179.4375 401.332031 178.144531 403.550781 C 163.0625 429.429688 153.167969 457.175781 148.257812 486.707031 C 147.679688 490.175781 147.253906 493.664062 146.675781 497.71875 C 148.726562 496.667969 150.023438 495.753906 151.460938 495.367188 C 152.316406 495.140625 153.394531 495.75 154.371094 495.984375 C 153.992188 496.820312 153.832031 497.953125 153.1875 498.433594 C 151.710938 499.523438 149.785156 500.0625 148.441406 501.265625 C 147.28125 502.308594 146.035156 503.902344 145.910156 505.347656 C 143.460938 532.914062 145.140625 560.265625 150.777344 587.347656 C 154.160156 603.609375 158.730469 619.519531 167.027344 634.066406 C 173.789062 645.921875 182.257812 656.167969 195.671875 660.917969 C 200.585938 662.660156 204.183594 664.832031 203.382812 670.921875 C 203.148438 672.714844 203.808594 674.640625 206.453125 674.621094 C 213.96875 674.574219 221.484375 674.605469 229.484375 674.605469 C 228.703125 672.292969 227.9375 670.6875 227.691406 669.007812 C 227.574219 668.179688 228.425781 667.214844 228.839844 666.3125 C 229.605469 666.808594 230.652344 667.144531 231.074219 667.847656 C 231.742188 668.972656 232.070312 670.324219 232.40625 671.613281 C 232.867188 673.375 233.78125 674.042969 235.714844 673.960938 C 245.699219 673.535156 255.6875 673.125 265.675781 672.957031 C 305.851562 672.285156 346.027344 671.625 386.203125 671.195312 C 390.820312 671.144531 394.707031 671.273438 396.1875 665.847656 C 396.34375 665.273438 397.882812 665.074219 398.78125 664.703125 C 398.957031 665.691406 399.429688 666.742188 399.234375 667.652344 C 398.972656 668.890625 398.199219 670.019531 397.539062 671.425781 C 398.59375 671.546875 399.28125 671.632812 399.976562 671.703125 C 411.339844 672.84375 422.726562 673.789062 434.058594 675.175781 C 446.074219 676.648438 458.050781 677.527344 470.054688 675.414062 C 471.277344 675.199219 472.839844 674.628906 473.460938 673.699219 C 475.675781 670.390625 478.933594 669.703125 482.496094 669.1875 C 486.351562 668.632812 490.355469 668.25 493.945312 666.878906 C 509.484375 660.953125 515.660156 646.886719 523.019531 632.96875 C 519.164062 632.363281 515.851562 631.820312 512.535156 631.324219 C 511.050781 631.105469 509.324219 630.835938 509.792969 628.941406 C 509.960938 628.269531 511.921875 627.566406 512.980469 627.679688 C 516.8125 628.09375 520.609375 628.847656 524.511719 629.492188 C 525.1875 627.679688 525.9375 625.984375 526.453125 624.226562 C 527.324219 621.269531 528.050781 618.269531 528.832031 615.285156 C 535.136719 591.121094 533.914062 567.402344 524.539062 544.191406 C 523.886719 542.578125 522.78125 541.152344 521.828125 539.542969 Z M 389.617188 287.539062 C 389.675781 287.277344 389.734375 287.015625 389.792969 286.753906 C 397.589844 286.6875 405.300781 285.832031 412.253906 282.128906 C 415.238281 280.542969 418.195312 278.226562 420.125 275.503906 C 423.320312 270.992188 421.242188 267.507812 415.753906 267.472656 C 403.289062 267.402344 390.820312 267.417969 378.355469 267.472656 C 374.34375 267.492188 370.320312 267.613281 366.320312 267.910156 C 362.996094 268.15625 362.335938 269.375 363.230469 272.664062 C 364.769531 278.304688 368.617188 282.078125 373.847656 283.890625 C 378.917969 285.644531 384.34375 286.367188 389.617188 287.539062 Z M 394.472656 235.222656 L 394.6875 236.273438 C 396.464844 236.058594 398.234375 235.734375 400.015625 235.660156 C 402.253906 235.566406 404.609375 235.269531 406.707031 235.835938 C 408.109375 236.214844 409.878906 237.792969 410.148438 239.109375 C 410.421875 240.453125 409.472656 242.636719 408.335938 243.554688 C 405.519531 245.824219 402.164062 246.859375 398.578125 245.101562 C 396.460938 244.066406 395.027344 244.949219 394.003906 246.695312 C 392.179688 249.8125 393.753906 253.351562 397.382812 254.507812 C 406.445312 257.386719 417.4375 247.929688 415.890625 238.582031 C 415.207031 234.453125 413.128906 231.851562 409.449219 231.238281 C 403.863281 230.304688 398.960938 232.148438 394.472656 235.222656 Z M 407.953125 204.554688 C 409.285156 204.335938 410.179688 204.179688 411.082031 204.042969 C 418.726562 202.886719 425.171875 206.484375 428.195312 213.464844 C 428.832031 214.9375 429.632812 216.472656 430.753906 217.578125 C 432.675781 219.480469 435.820312 219.179688 437.671875 217.238281 C 439.472656 215.347656 439.382812 213.207031 437.53125 210.90625 C 436.773438 209.96875 436.140625 208.914062 435.570312 207.847656 C 433.125 203.292969 429.5 200.136719 424.574219 198.550781 C 417.863281 196.386719 411.617188 198.519531 407.953125 204.554688 Z M 348.453125 224.726562 C 350.742188 220.375 352.558594 216.582031 354.683594 212.972656 C 357.363281 208.414062 361.363281 206.136719 366.804688 206.800781 C 368.332031 206.988281 369.886719 207.179688 371.417969 207.113281 C 374.667969 206.972656 376.125 204.28125 374.519531 201.480469 C 372.921875 198.691406 370.332031 197.527344 367.261719 197.660156 C 355.761719 198.15625 345.375 212.539062 348.453125 224.726562 Z M 358.273438 235.050781 C 359.507812 233.09375 360.59375 231.28125 361.765625 229.523438 C 364.207031 225.867188 368.851562 226.074219 371.03125 229.914062 C 371.484375 230.714844 371.765625 231.671875 372.378906 232.308594 C 373.914062 233.910156 375.808594 234.347656 377.523438 232.726562 C 379.066406 231.273438 380.144531 229.316406 378.71875 227.269531 C 377.566406 225.621094 376.0625 224.171875 374.535156 222.835938 C 367.929688 217.050781 358.113281 219.738281 355.726562 227.980469 C 354.988281 230.535156 354.859375 233.0625 358.273438 235.050781 Z M 292.398438 246.023438 C 293.699219 247.382812 294.765625 248.824219 296.136719 249.851562 C 298.148438 251.363281 300.441406 251.554688 302.21875 249.496094 C 303.875 247.570312 304.042969 245.1875 302.21875 243.328125 C 298.414062 239.457031 293.847656 236.660156 288.542969 235.386719 C 287.242188 235.074219 285.6875 235.828125 284.25 236.09375 C 284.601562 237.449219 284.957031 238.804688 285.394531 240.492188 C 283.980469 242.152344 283.640625 244.378906 285.617188 246.429688 C 287.925781 248.824219 290.269531 247.667969 292.398438 246.023438 Z M 415.875 230.933594 C 416.15625 229.921875 416.375 228.953125 416.695312 228.015625 C 417.328125 226.148438 418.324219 224.683594 420.617188 224.792969 C 422.855469 224.90625 424.308594 226.042969 424.78125 228.203125 C 425.085938 229.59375 424.808594 231.167969 425.339844 232.433594 C 425.890625 233.75 426.886719 235.429688 428.058594 235.8125 C 430.011719 236.449219 431.175781 234.945312 431.621094 232.960938 C 432.632812 228.464844 430.421875 222.726562 426.621094 220.179688 C 422.234375 217.246094 416.359375 218.191406 413.75 222.253906 C 411.667969 225.488281 412.464844 229.148438 415.875 230.933594 Z M 415.875 230.933594 "/>
<path style=" stroke:none;fill-rule:nonzero;fill:rgb(0%,0%,0%);fill-opacity:1;" d="M 521.828125 539.542969 C 522.78125 541.152344 523.886719 542.578125 524.539062 544.191406 C 533.914062 567.402344 535.136719 591.121094 528.832031 615.285156 C 528.050781 618.269531 527.324219 621.269531 526.453125 624.226562 C 525.9375 625.984375 525.1875 627.679688 524.511719 629.492188 C 520.609375 628.847656 516.8125 628.09375 512.980469 627.679688 C 511.921875 627.566406 509.960938 628.269531 509.792969 628.941406 C 509.324219 630.835938 511.050781 631.105469 512.535156 631.324219 C 515.851562 631.820312 519.164062 632.363281 523.019531 632.96875 C 515.660156 646.886719 509.484375 660.953125 493.945312 666.878906 C 490.355469 668.25 486.351562 668.632812 482.496094 669.1875 C 478.933594 669.703125 475.675781 670.390625 473.460938 673.699219 C 472.839844 674.628906 471.277344 675.199219 470.054688 675.414062 C 458.050781 677.527344 446.074219 676.648438 434.058594 675.175781 C 422.726562 673.789062 411.339844 672.84375 399.976562 671.703125 C 399.28125 671.632812 398.59375 671.546875 397.539062 671.425781 C 398.199219 670.019531 398.972656 668.890625 399.234375 667.652344 C 399.429688 666.742188 398.957031 665.691406 398.78125 664.703125 C 397.882812 665.074219 396.34375 665.273438 396.1875 665.847656 C 394.707031 671.273438 390.820312 671.144531 386.203125 671.195312 C 346.027344 671.625 305.851562 672.285156 265.675781 672.957031 C 255.6875 673.125 245.699219 673.535156 235.714844 673.960938 C 233.78125 674.042969 232.867188 673.375 232.40625 671.613281 C 232.070312 670.324219 231.742188 668.972656 231.074219 667.847656 C 230.652344 667.144531 229.605469 666.808594 228.839844 666.3125 C 228.425781 667.214844 227.574219 668.179688 227.691406 669.007812 C 227.9375 670.6875 228.703125 672.292969 229.484375 674.605469 C 221.484375 674.605469 213.96875 674.574219 206.453125 674.621094 C 203.808594 674.640625 203.148438 672.714844 203.382812 670.921875 C 204.183594 664.832031 200.585938 662.660156 195.671875 660.917969 C 182.257812 656.167969 173.789062 645.921875 167.027344 634.066406 C 158.730469 619.519531 154.160156 603.609375 150.777344 587.347656 C 145.140625 560.265625 143.460938 532.914062 145.910156 505.347656 C 146.035156 503.902344 147.28125 502.308594 148.441406 501.265625 C 149.785156 500.0625 151.710938 499.523438 153.1875 498.433594 C 153.832031 497.953125 153.992188 496.820312 154.371094 495.984375 C 153.394531 495.75 152.316406 495.140625 151.460938 495.367188 C 150.023438 495.753906 148.726562 496.667969 146.675781 497.71875 C 147.253906 493.664062 147.679688 490.171875 148.257812 486.707031 C 153.167969 457.175781 163.0625 429.429688 178.144531 403.550781 C 179.4375 401.332031 181.074219 399.300781 182.289062 397.042969 C 183.605469 394.601562 185.265625 393.640625 188 394.574219 C 189.449219 395.066406 191 395.390625 192.527344 395.476562 C 193.242188 395.515625 193.996094 394.8125 194.734375 394.445312 C 194.308594 393.621094 194.074219 392.324219 193.417969 392.0625 C 191.640625 391.339844 189.6875 391.054688 187.292969 390.476562 C 188.332031 389.183594 189.152344 388.085938 190.054688 387.054688 C 203.015625 372.210938 219.761719 363.542969 238.207031 357.71875 C 255.414062 352.289062 273.191406 349.519531 290.925781 346.546875 C 298.886719 345.214844 306.746094 343.46875 313.003906 337.851562 C 314.902344 336.148438 316.566406 334.148438 318.148438 332.136719 C 319.390625 330.558594 320.492188 329.152344 322.96875 330.863281 C 323.890625 326.582031 324.734375 322.660156 325.582031 318.738281 C 328.160156 322.382812 328.136719 326.273438 327.167969 329.984375 C 326.433594 332.800781 327.371094 334.035156 329.449219 335.730469 C 339.792969 344.167969 352.164062 346.953125 364.84375 349.007812 C 373.707031 350.445312 382.589844 351.578125 391.585938 350.371094 C 392.601562 350.234375 393.613281 350.027344 394.613281 349.789062 C 401.457031 348.171875 401.527344 348.023438 401.3125 341.1875 C 401.246094 339.035156 401.382812 336.863281 401.597656 334.71875 C 401.8125 332.589844 402.242188 330.480469 402.628906 328.054688 C 397.566406 328.054688 392.335938 328.449219 387.195312 327.9375 C 382.636719 327.484375 377.984375 326.515625 373.730469 324.851562 C 370.511719 323.59375 367.734375 321.03125 365.03125 318.734375 C 364.273438 318.089844 363.917969 316.03125 364.382812 315.15625 C 364.8125 314.347656 366.691406 313.722656 367.753906 313.929688 C 373.300781 315.011719 378.757812 316.535156 384.304688 317.625 C 414.195312 323.492188 443.085938 303.550781 446.773438 273.433594 C 448.488281 259.414062 448.183594 245.070312 447.851562 230.898438 C 447.402344 211.65625 446.074219 192.433594 445.007812 173.207031 C 444.9375 172 443.957031 170.761719 443.167969 169.707031 C 442.570312 168.90625 441.332031 168.535156 440.859375 167.699219 C 438.738281 163.976562 436.070312 164.257812 432.429688 165.550781 C 424.507812 168.355469 416.222656 169.5625 407.816406 168.578125 C 403.910156 168.117188 400.476562 169.199219 397.105469 170.710938 C 386.5 175.46875 375.335938 178.175781 363.90625 179.910156 C 362 180.199219 359.976562 180.292969 358.078125 180.003906 C 354.621094 179.476562 353.398438 176.691406 355.050781 173.609375 C 355.777344 172.257812 356.558594 170.933594 357.378906 169.480469 C 356.984375 169.367188 356.699219 169.183594 356.480469 169.238281 C 345.648438 172.046875 334.847656 174.972656 323.976562 177.628906 C 321.097656 178.332031 319.667969 179.769531 318.734375 182.507812 C 313.441406 198.054688 311.050781 214.050781 310.898438 230.425781 C 310.890625 231.347656 310.917969 232.300781 310.691406 233.183594 C 309.964844 236.042969 307.542969 236.902344 305.320312 234.957031 C 303.472656 233.339844 302.097656 231.125 300.128906 229.707031 C 297.023438 227.46875 293.761719 225.28125 290.253906 223.824219 C 287.597656 222.71875 284.726562 223.925781 283.535156 226.753906 C 280.195312 234.664062 277.566406 242.773438 279.261719 251.566406 C 280.257812 256.742188 284.742188 262.492188 291.609375 260.6875 C 292.285156 260.507812 293.046875 260.644531 293.765625 260.648438 C 297.734375 260.671875 298.601562 261.914062 297.164062 265.511719 C 296.984375 265.960938 296.785156 266.40625 297.5 266.515625 C 299.207031 269.390625 300.9375 272.25 302.625 275.136719 C 306.691406 282.085938 312.382812 287.53125 318.410156 292.761719 C 322.113281 295.976562 325.589844 299.582031 328.523438 303.5 C 329.878906 305.3125 330.140625 308.292969 330.082031 310.722656 C 330.023438 313.082031 327.925781 313.6875 326.101562 312.039062 C 324.589844 310.671875 323.347656 309 322.003906 307.445312 C 319.378906 304.421875 316.9375 301.214844 314.113281 298.390625 C 309.019531 293.28125 303.664062 288.429688 300.605469 281.5 C 297.367188 283.140625 294.445312 283.488281 291.894531 280.460938 C 291.492188 279.984375 290.25 280.273438 289.421875 280.085938 C 287.835938 279.722656 285.703125 279.746094 284.851562 278.730469 C 283.945312 277.652344 283.875 275.476562 284.164062 273.914062 C 284.445312 272.390625 285.640625 271.035156 286.4375 269.597656 C 272.234375 265.8125 269.519531 253.464844 271.035156 243.347656 C 271.804688 238.210938 273.683594 233.242188 274.972656 228.175781 C 275.195312 227.308594 275.367188 226.007812 274.902344 225.460938 C 268.648438 218.050781 267.453125 209.078125 267.179688 199.964844 C 266.660156 182.535156 271.179688 166.367188 280.269531 151.480469 C 280.539062 151.042969 280.769531 150.585938 281.015625 150.144531 C 277.546875 145.445312 277.699219 144.171875 282.035156 139.832031 C 282.542969 139.328125 282.972656 138.507812 283.011719 137.808594 C 283.292969 132.765625 286.15625 129.800781 290.917969 131.128906 C 295.472656 132.394531 298.199219 130.699219 301.542969 128.171875 C 315.003906 118.019531 330.625 112.476562 346.671875 108.046875 C 359.328125 104.554688 372.167969 102.222656 385.402344 102.96875 C 391.078125 103.289062 396.464844 104.433594 401.894531 106.40625 C 415.84375 111.480469 429.582031 117.457031 444.699219 118.550781 C 448.132812 118.800781 449.066406 121.382812 447.613281 125.082031 C 449.121094 125.972656 451.113281 126.511719 451.90625 127.792969 C 452.789062 129.207031 452.574219 131.304688 452.871094 133.355469 C 457.046875 134.25 458.199219 137.351562 458.144531 141.535156 C 458.070312 147.527344 456.359375 152.867188 452.589844 157.6875 C 458.082031 164.15625 459.789062 171.605469 458.269531 179.859375 C 457.609375 183.453125 456.042969 186.28125 452.015625 187.105469 C 452.4375 192.5 453.007812 197.804688 453.238281 203.128906 C 454.082031 222.667969 455.164062 242.207031 455.472656 261.757812 C 455.707031 276.632812 452.496094 290.847656 443.4375 303.136719 C 433.882812 316.101562 421.296875 324.4375 405.371094 327.511719 C 405.078125 327.570312 404.804688 327.734375 404.488281 327.859375 C 405.097656 331.914062 405.699219 335.941406 406.300781 339.964844 C 413.8125 339.769531 416.949219 341.84375 419.460938 348.894531 C 420.746094 352.496094 423.511719 355.28125 425.097656 358.417969 C 428.042969 364.230469 433.480469 364.660156 438.066406 366.980469 C 449.882812 372.949219 461.785156 378.746094 474.257812 384.910156 C 472.179688 386.75 470.664062 387.808594 469.546875 389.191406 C 468.921875 389.960938 468.960938 391.265625 468.703125 392.332031 C 469.769531 392.226562 471.148438 392.519531 471.859375 391.960938 C 478.074219 387.089844 478.296875 386.828125 483.382812 392.96875 C 486.207031 396.382812 488.105469 400.59375 490.214844 404.554688 C 491.707031 407.363281 492.894531 410.339844 494.140625 413.269531 C 495.28125 415.949219 497.199219 416.824219 500.128906 417.042969 C 511.207031 417.875 522.269531 418.957031 533.316406 420.136719 C 538.386719 420.679688 538.734375 421.382812 536.695312 425.914062 C 529.074219 442.875 521.375 459.800781 513.671875 476.804688 C 517.972656 479.621094 520.460938 486.351562 518.816406 492.644531 C 517.742188 496.753906 519.183594 499.59375 522.246094 502.035156 C 527.644531 506.339844 527.945312 507.710938 524.457031 513.648438 C 523.421875 515.414062 523.1875 516.902344 524.875 518.277344 C 528.753906 521.429688 528.699219 525.347656 526.878906 529.429688 C 525.292969 532.984375 523.40625 536.40625 521.828125 539.542969 Z M 358.988281 172.515625 C 359.078125 172.925781 359.167969 173.339844 359.257812 173.753906 C 360.328125 173.886719 361.398438 174.121094 362.472656 174.140625 C 374.582031 174.382812 385.902344 171.546875 396.351562 165.363281 C 399.351562 163.589844 402.230469 161.6875 406.015625 163.617188 C 407.300781 164.269531 409.035156 164.195312 410.558594 164.191406 C 419.847656 164.171875 429.058594 163.683594 437.675781 159.59375 C 439.890625 158.539062 441.722656 159.105469 443.253906 161.292969 C 444.398438 162.929688 445.957031 164.445312 447.648438 165.503906 C 449.542969 166.6875 452.09375 168.664062 453.992188 166.253906 C 455.945312 163.777344 453.449219 161.742188 451.910156 159.871094 C 450.53125 158.199219 449.09375 156.574219 447.140625 154.300781 C 452.167969 153.714844 454.101562 150.902344 454.691406 147.042969 C 455 145.019531 455.25 142.925781 455.039062 140.914062 C 454.84375 139.058594 454.464844 136.808594 453.277344 135.609375 C 452.425781 134.742188 450.117188 135.308594 448.464844 135.234375 C 449.101562 129.425781 447.636719 127.171875 442.140625 127.152344 C 440.832031 127.144531 439.527344 126.359375 437.898438 125.824219 C 438.949219 124.527344 439.667969 123.636719 440.804688 122.226562 C 437.230469 121.074219 434.160156 119.996094 431.035156 119.09375 C 422.167969 116.53125 413.089844 114.554688 404.453125 111.375 C 395.171875 107.957031 385.816406 106.394531 376.035156 106.96875 C 365.085938 107.609375 354.410156 109.800781 343.945312 112.992188 C 328.523438 117.695312 314.101562 124.335938 302.511719 135.910156 C 300.40625 138.011719 298.617188 138.808594 295.804688 137.925781 C 294.769531 137.597656 292.503906 137.925781 292.433594 138.285156 C 291.816406 141.332031 289.019531 140.941406 287.167969 141.976562 C 284.820312 143.292969 284.644531 144.53125 286.597656 146.109375 C 290.171875 149 290.078125 148.953125 287.980469 153.113281 C 284.507812 159.992188 281 166.863281 277.8125 173.878906 C 273.339844 183.71875 271.007812 194.042969 273.253906 204.816406 C 274.242188 209.566406 276.214844 214.140625 278.046875 218.675781 C 278.820312 220.589844 280.617188 221.25 282.644531 219.957031 C 288.824219 216.023438 297.070312 215.601562 302.835938 222.722656 C 303.996094 224.160156 305.46875 225.339844 306.554688 226.40625 C 307.195312 218.226562 307.425781 210.1875 308.554688 202.28125 C 309.714844 194.164062 311.671875 186.152344 313.433594 178.128906 C 314.285156 174.246094 316.683594 171.878906 320.867188 171.425781 C 325.667969 170.90625 330.53125 170.527344 335.214844 169.433594 C 343.707031 167.453125 352.09375 164.996094 360.515625 162.710938 C 365.503906 161.359375 370.382812 161.105469 375.640625 164.175781 C 372.519531 165.738281 369.800781 167.097656 367.082031 168.457031 C 364.382812 169.808594 361.6875 171.164062 358.988281 172.515625 Z M 474.003906 502.347656 C 470.710938 494.667969 472.257812 487.371094 480.582031 483.738281 C 488.101562 480.453125 495.847656 478.15625 504.046875 477.570312 C 506.082031 477.421875 507.382812 476.824219 508.363281 474.851562 C 512.253906 467.023438 516.515625 459.371094 520.324219 451.503906 C 524.566406 442.726562 528.460938 433.78125 532.667969 424.566406 C 530.796875 424.300781 529.402344 424.066406 527.996094 423.914062 C 523.089844 423.386719 518.1875 422.707031 513.265625 422.410156 C 499.492188 421.574219 485.710938 420.863281 471.929688 420.230469 C 470.625 420.167969 468.898438 420.617188 468.03125 421.488281 C 466.25 423.28125 464.652344 425.371094 463.449219 427.59375 C 457.867188 437.898438 452.550781 448.347656 446.921875 458.628906 C 444.679688 462.71875 441.878906 466.503906 439.222656 470.597656 C 441.171875 470.875 442.765625 471.101562 444.410156 471.335938 C 445.4375 469.253906 446.359375 467.3125 447.34375 465.398438 C 448.222656 463.683594 448.226562 461.179688 451.492188 460.789062 C 451.164062 465.574219 448.050781 468.457031 446.015625 471.566406 C 454.082031 478.222656 459.929688 486.433594 464.34375 495.714844 C 465.667969 498.492188 466.070312 501.445312 464.582031 504.351562 C 463.628906 506.210938 462.152344 507.796875 460.058594 506.855469 C 459.550781 506.625 459.691406 503.324219 460.53125 502.140625 C 461.648438 500.566406 461.496094 499.515625 460.851562 498 C 457.789062 490.777344 452.863281 484.84375 447.894531 478.925781 C 445.921875 476.582031 443.476562 475.09375 440.445312 475.132812 C 434.898438 475.199219 429.351562 475.527344 423.804688 475.761719 C 410.476562 476.328125 400.5625 481.585938 394.074219 494.09375 C 387.355469 507.058594 376.832031 516.71875 362.996094 522.324219 C 360.8125 523.210938 358.644531 524.265625 356.703125 525.582031 C 355.671875 526.285156 354.578125 527.679688 354.476562 528.839844 C 353.917969 535.398438 353.390625 541.980469 353.351562 548.554688 C 353.3125 555.230469 354.351562 561.816406 356.683594 567.660156 C 362.660156 565.078125 368.375 562.210938 374.355469 560.128906 C 380.964844 557.824219 387.8125 559.113281 394.542969 560.132812 C 400.609375 561.050781 405.484375 559.308594 409.019531 554.121094 C 410.640625 551.746094 412.386719 549.445312 414.21875 547.230469 C 416.65625 544.285156 419.933594 542.640625 423.707031 542.875 C 428.738281 543.195312 431.699219 541.152344 432.902344 536.03125 C 428.007812 532.511719 423.023438 528.921875 417.488281 524.941406 C 419.117188 524.941406 420.359375 524.613281 421.328125 524.992188 C 427.429688 527.390625 433.378906 530.066406 437.0625 536.289062 C 444.351562 532.3125 440.703125 525.753906 441.136719 520.121094 C 434.691406 517.882812 428.382812 515.722656 422.09375 513.496094 C 420.152344 512.808594 417.632812 511.878906 418.328125 509.464844 C 419.121094 506.722656 421.785156 507.867188 423.628906 508.472656 C 430.464844 510.71875 437.277344 513.050781 444.035156 515.519531 C 448.417969 517.121094 451.449219 520.1875 453.035156 524.667969 C 453.421875 525.769531 454.261719 526.710938 455.3125 528.394531 C 456.0625 526.667969 456.515625 525.878906 456.757812 525.027344 C 459.253906 516.164062 454.1875 504.625 445.554688 501.335938 C 438.875 498.789062 431.75 497.402344 424.808594 495.566406 C 422.957031 495.074219 421.046875 494.824219 419.164062 494.464844 C 421.503906 493.703125 423.742188 493.542969 425.933594 493.140625 C 430.25 492.351562 434.511719 491.027344 438.851562 490.71875 C 441.035156 490.566406 443.945312 491.542969 445.476562 493.066406 C 449.734375 497.3125 453.503906 502.0625 457.328125 506.726562 C 458.347656 507.96875 458.859375 509.628906 459.605469 511.09375 C 459.941406 511.75 460.28125 512.40625 460.261719 512.371094 C 464.847656 509.027344 469.28125 505.792969 474.003906 502.347656 Z M 476.980469 499.382812 C 483.148438 498 489.328125 496.582031 495.523438 495.238281 C 497.425781 494.828125 499.363281 494.492188 501.296875 494.390625 C 501.878906 494.359375 502.867188 495.148438 502.996094 495.71875 C 503.105469 496.179688 502.332031 497.199219 501.746094 497.410156 C 499.628906 498.171875 497.464844 498.957031 495.25 499.265625 C 484.621094 500.734375 475.128906 504.949219 466.46875 511.105469 C 463.199219 513.429688 462.117188 516.667969 463.539062 519.039062 C 465.363281 522.089844 468.226562 520.976562 470.746094 520.414062 C 481.875 517.941406 492.972656 515.308594 504.109375 512.878906 C 505.113281 512.660156 506.339844 513.464844 507.460938 513.792969 C 506.601562 514.484375 505.839844 515.570312 504.871094 515.800781 C 494.179688 518.355469 483.5 520.988281 472.726562 523.148438 C 467.277344 524.238281 463.476562 527.386719 460.03125 531.253906 C 459.335938 532.035156 459.328125 533.433594 459.003906 534.546875 C 460.21875 534.84375 461.503906 535.566406 462.640625 535.378906 C 472.066406 533.820312 481.445312 531.980469 490.875 530.464844 C 495.640625 529.699219 500.480469 529.34375 505.300781 528.992188 C 506.175781 528.925781 507.117188 529.78125 508.027344 530.210938 C 507.195312 530.894531 506.460938 531.84375 505.503906 532.199219 C 504.382812 532.617188 503.066406 532.476562 501.84375 532.652344 C 490.855469 534.222656 479.851562 535.734375 468.882812 537.441406 C 465.816406 537.917969 463.777344 541.945312 464.277344 545.6875 C 464.707031 548.898438 466.597656 550.335938 470.535156 549.945312 C 484.992188 548.523438 499.125 546.152344 512.519531 539.792969 C 518.425781 536.988281 521.101562 532.585938 523.378906 527.296875 C 524.449219 524.808594 524.003906 522.601562 521.808594 520.65625 C 518.625 517.835938 518.519531 515.816406 520.925781 512.339844 C 524.027344 507.855469 524.074219 507.679688 519.796875 504.097656 C 516.929688 501.691406 515.296875 498.6875 516.292969 495.136719 C 517.515625 490.769531 515.929688 487.066406 514.582031 483.226562 C 513.9375 481.386719 512.640625 480.625 510.550781 480.65625 C 500.511719 480.820312 490.945312 482.960938 481.886719 487.246094 C 476.417969 489.832031 475.214844 492.921875 476.980469 499.382812 Z M 202.957031 577.457031 C 206.015625 576.324219 208.710938 575.007812 211.558594 574.320312 C 227.601562 570.445312 243.6875 566.746094 259.746094 562.929688 C 270.035156 560.484375 280.355469 558.140625 290.554688 555.347656 C 294.5625 554.25 298.296875 552.113281 302.09375 550.3125 C 302.636719 550.054688 302.820312 549.035156 303.167969 548.367188 C 302.464844 548.144531 301.746094 547.695312 301.058594 547.746094 C 299.738281 547.839844 298.425781 548.160156 297.132812 548.484375 C 285.679688 551.339844 274.253906 554.289062 262.78125 557.058594 C 255.039062 558.925781 247.238281 560.554688 239.226562 562.339844 C 241.167969 539.191406 243.988281 516.289062 236.953125 493.75 C 239.546875 517.023438 237.457031 540.171875 235.054688 563.300781 C 229.644531 565.050781 224.035156 566.730469 218.519531 568.683594 C 212.929688 570.660156 207.128906 572.359375 202.957031 577.457031 Z M 227.601562 644.515625 C 227.796875 644.820312 227.992188 645.121094 228.1875 645.425781 C 232.078125 643.644531 235.972656 641.867188 239.863281 640.082031 C 264.148438 628.957031 288.433594 617.835938 312.707031 606.679688 C 314 606.085938 315.28125 605.335938 316.332031 604.394531 C 316.976562 603.8125 317.164062 602.730469 317.5625 601.871094 C 316.738281 601.664062 315.871094 601.1875 315.101562 601.316406 C 313.703125 601.546875 312.285156 601.972656 311.015625 602.601562 C 286.046875 614.964844 261.089844 627.355469 236.15625 639.78125 C 233.242188 641.234375 230.449219 642.933594 227.601562 644.515625 Z M 502.933594 576.371094 C 502.660156 576.507812 502.386719 576.640625 502.113281 576.773438 C 502.882812 579.285156 503.914062 581.75 504.375 584.320312 C 505.570312 590.964844 506.445312 597.664062 507.617188 604.3125 C 507.8125 605.417969 508.847656 606.371094 509.496094 607.394531 C 510.300781 606.367188 511.589844 605.433594 511.816406 604.289062 C 512.261719 602.015625 512.445312 599.585938 512.171875 597.289062 C 511.398438 590.789062 509.175781 584.753906 505.417969 579.347656 C 504.683594 578.292969 503.765625 577.363281 502.933594 576.371094 Z M 261.839844 423.902344 C 266.699219 422.820312 271.113281 421.914062 275.464844 420.78125 C 276.109375 420.613281 276.464844 419.355469 276.957031 418.601562 C 276.242188 418.148438 275.433594 417.199219 274.828125 417.3125 C 270.40625 418.136719 266.007812 419.097656 261.652344 420.222656 C 261.015625 420.390625 260.292969 421.652344 260.296875 422.402344 C 260.300781 422.964844 261.410156 423.519531 261.839844 423.902344 Z M 452.503906 583.363281 C 452.492188 583.015625 452.480469 582.671875 452.472656 582.328125 C 451.410156 582.050781 450.191406 581.300781 449.3125 581.585938 C 445.71875 582.761719 442.1875 584.164062 438.738281 585.707031 C 437.984375 586.046875 437.652344 587.328125 437.125 588.175781 C 438.15625 588.488281 439.359375 589.300781 440.191406 589.023438 C 443.6875 587.847656 447.089844 586.382812 450.484375 584.925781 C 451.242188 584.601562 451.835938 583.894531 452.503906 583.363281 Z M 329.570312 464.609375 C 330.164062 465.296875 330.921875 466.175781 331.683594 467.054688 C 332.304688 466.261719 333.265625 465.550781 333.488281 464.65625 C 334.3125 461.371094 335.003906 458.039062 335.476562 454.6875 C 335.59375 453.851562 334.703125 452.875 334.273438 451.960938 C 333.503906 452.546875 332.25 452.996094 332.042969 453.738281 C 331.105469 457.097656 330.464844 460.535156 329.570312 464.609375 Z M 195.375 609.710938 C 193.890625 609.113281 192.710938 608.164062 192.011719 608.441406 C 188.585938 609.78125 185.246094 611.378906 181.980469 613.078125 C 181.445312 613.355469 181.410156 614.597656 181.144531 615.394531 C 182.007812 615.660156 183.058594 616.382812 183.703125 616.117188 C 186.925781 614.792969 190.054688 613.238281 193.179688 611.695312 C 193.765625 611.40625 194.191406 610.800781 195.375 609.710938 Z M 178.660156 530.097656 C 178.148438 530.472656 177.222656 530.8125 177.144531 531.289062 C 177.023438 532.046875 177.203125 533.324219 177.710938 533.632812 C 180.398438 535.269531 183.175781 536.78125 186.039062 538.082031 C 186.789062 538.421875 187.953125 537.851562 188.925781 537.699219 C 188.445312 536.722656 188.21875 535.351562 187.433594 534.84375 C 185.046875 533.308594 182.449219 532.109375 179.933594 530.777344 C 179.574219 530.585938 179.21875 530.394531 178.660156 530.097656 Z M 288.203125 645.226562 C 287.773438 646.351562 286.925781 647.496094 287.210938 648.011719 C 288.890625 651.03125 290.769531 653.953125 292.765625 656.777344 C 293.070312 657.210938 294.652344 657.3125 295.089844 656.933594 C 295.558594 656.523438 295.746094 655.152344 295.410156 654.570312 C 293.835938 651.820312 292.070312 649.175781 290.296875 646.546875 C 290.003906 646.109375 289.335938 645.921875 288.203125 645.226562 Z M 190.851562 465.558594 C 194.371094 463.875 197.613281 462.398438 200.753906 460.726562 C 201.1875 460.496094 201.4375 459.140625 201.171875 458.601562 C 200.925781 458.109375 199.703125 457.605469 199.199219 457.8125 C 196.09375 459.078125 193.039062 460.480469 190.054688 462.007812 C 189.558594 462.261719 189.175781 463.433594 189.320312 464.039062 C 189.46875 464.648438 190.34375 465.085938 190.851562 465.558594 Z M 247.378906 367.765625 C 244.121094 368.640625 241.296875 369.222656 238.621094 370.214844 C 237.789062 370.527344 237.367188 371.949219 236.753906 372.859375 C 237.71875 373.144531 238.746094 373.796875 239.636719 373.648438 C 242.257812 373.207031 244.859375 372.558594 247.390625 371.742188 C 248.234375 371.472656 248.835938 370.441406 249.546875 369.757812 C 248.816406 369.085938 248.085938 368.414062 247.378906 367.765625 Z M 359.308594 625.121094 C 358.820312 624.585938 358.429688 623.769531 357.90625 623.675781 C 357.234375 623.554688 356.214844 623.789062 355.777344 624.265625 C 353.839844 626.363281 351.960938 628.53125 350.292969 630.839844 C 349.863281 631.433594 350.28125 632.632812 350.3125 633.550781 C 351.285156 633.359375 352.597656 633.5 353.175781 632.914062 C 355.101562 630.953125 356.773438 628.742188 358.515625 626.605469 C 358.820312 626.230469 358.984375 625.738281 359.308594 625.121094 Z M 272.902344 481.835938 C 272.144531 480.992188 271.796875 480.273438 271.25 480.058594 C 268.597656 479.007812 265.921875 477.996094 263.1875 477.207031 C 262.542969 477.023438 261.269531 477.558594 260.964844 478.125 C 260.695312 478.632812 261.15625 480.132812 261.65625 480.347656 C 264.457031 481.53125 267.335938 482.578125 270.269531 483.382812 C 270.875 483.550781 271.8125 482.507812 272.902344 481.835938 Z M 205.746094 416.902344 C 206.019531 416.398438 206.296875 415.890625 206.570312 415.386719 C 205.660156 414.957031 204.777344 414.457031 203.835938 414.109375 C 201.429688 413.21875 199.03125 412.277344 196.5625 411.625 C 195.84375 411.433594 194.886719 412.15625 194.042969 412.457031 C 194.4375 413.308594 194.617188 414.644531 195.261719 414.925781 C 197.882812 416.0625 200.621094 416.972656 203.382812 417.734375 C 204.042969 417.917969 204.953125 417.203125 205.746094 416.902344 Z M 326.113281 396.652344 C 324.332031 396.652344 323.324219 396.414062 322.519531 396.71875 C 321.71875 397.023438 321.125 397.871094 320.441406 398.480469 C 321.101562 399.097656 321.691406 400.144531 322.425781 400.253906 C 325.039062 400.644531 327.703125 400.875 330.339844 400.820312 C 331.132812 400.800781 331.902344 399.65625 332.6875 399.027344 C 332.03125 398.4375 331.460938 397.511719 330.703125 397.320312 C 328.9375 396.871094 327.082031 396.78125 326.113281 396.652344 Z M 402.746094 592.394531 C 401.3125 589.203125 400.050781 586.199219 398.578125 583.296875 C 398.34375 582.84375 397.050781 582.546875 396.464844 582.765625 C 395.957031 582.953125 395.316406 584.140625 395.488281 584.597656 C 396.613281 587.542969 397.875 590.445312 399.28125 593.265625 C 399.511719 593.722656 400.726562 593.945312 401.414062 593.835938 C 401.90625 593.753906 402.277344 592.933594 402.746094 592.394531 Z M 407.109375 423.300781 C 406.050781 423.765625 405.449219 423.84375 405.371094 424.089844 C 404.363281 427.230469 403.386719 430.382812 402.554688 433.574219 C 402.484375 433.855469 403.625 434.859375 403.988281 434.757812 C 404.742188 434.546875 405.703125 433.953125 405.957031 433.28125 C 406.816406 431.011719 407.542969 428.667969 408.011719 426.296875 C 408.179688 425.441406 407.472656 424.414062 407.109375 423.300781 Z M 445.089844 635.679688 C 444.777344 637.207031 444.035156 638.636719 444.453125 639.179688 C 445.933594 641.117188 447.699219 642.882812 449.59375 644.417969 C 450.175781 644.886719 451.519531 644.414062 452.515625 644.371094 C 452.324219 643.464844 452.402344 642.339844 451.882812 641.695312 C 450.613281 640.109375 449.09375 638.71875 447.617188 637.304688 C 447.128906 636.839844 446.46875 636.554688 445.089844 635.679688 Z M 268.949219 579.113281 L 267.6875 579.273438 C 267.375 580.265625 266.484375 581.722656 266.84375 582.164062 C 268.574219 584.296875 270.523438 586.296875 272.640625 588.050781 C 273.792969 589 275.949219 587.429688 275.210938 586.375 C 273.386719 583.769531 271.066406 581.511719 268.949219 579.113281 Z M 319.722656 508.292969 C 319.152344 508.800781 318.367188 509.5 317.582031 510.199219 C 318.390625 510.898438 319.09375 511.890625 320.03125 512.234375 C 321.652344 512.824219 323.40625 513.203125 325.125 513.277344 C 325.878906 513.308594 326.679688 512.375 327.460938 511.878906 C 326.996094 511.179688 326.675781 510.082031 326.042969 509.855469 C 324.230469 509.199219 322.285156 508.894531 319.722656 508.292969 Z M 426.613281 381.492188 C 428.898438 379.734375 431.15625 378.066406 433.289062 376.25 C 433.519531 376.054688 433.207031 374.792969 432.792969 374.394531 C 432.402344 374.019531 431.363281 373.820312 430.925781 374.078125 C 428.988281 375.21875 427.097656 376.46875 425.351562 377.878906 C 424.917969 378.230469 424.898438 379.355469 425.035156 380.058594 C 425.125 380.507812 425.851562 380.832031 426.613281 381.492188 Z M 352.902344 367.613281 C 353.003906 367.109375 353.105469 366.601562 353.210938 366.097656 C 350.792969 364.40625 348.546875 362.316406 345.886719 361.207031 C 344.722656 360.71875 343.746094 362.722656 345.015625 364.042969 C 346.5 365.589844 348.132812 367.070312 349.9375 368.199219 C 350.558594 368.589844 351.894531 367.84375 352.902344 367.613281 Z M 352.902344 367.613281 "/>
<path style=" stroke:none;fill-rule:nonzero;fill:rgb(0%,0%,0%);fill-opacity:1;" d="M 389.617188 287.539062 C 384.34375 286.367188 378.917969 285.644531 373.847656 283.890625 C 368.617188 282.078125 364.769531 278.304688 363.230469 272.664062 C 362.335938 269.375 362.996094 268.15625 366.320312 267.910156 C 370.320312 267.613281 374.34375 267.492188 378.355469 267.472656 C 390.820312 267.417969 403.289062 267.402344 415.753906 267.472656 C 421.242188 267.507812 423.320312 270.992188 420.125 275.503906 C 418.195312 278.226562 415.238281 280.542969 412.253906 282.128906 C 405.300781 285.832031 397.589844 286.6875 389.792969 286.753906 C 389.734375 287.015625 389.675781 287.277344 389.617188 287.539062 Z M 414.609375 271.542969 C 414.542969 271.164062 414.476562 270.789062 414.414062 270.410156 L 373.382812 270.410156 L 372.976562 271.652344 C 374.269531 272.308594 375.550781 273.511719 376.855469 273.535156 C 385.273438 273.695312 393.699219 273.8125 402.105469 273.492188 C 406.292969 273.332031 410.445312 272.222656 414.609375 271.542969 Z M 414.609375 271.542969 "/>
<path style=" stroke:none;fill-rule:nonzero;fill:rgb(0%,0%,0%);fill-opacity:1;" d="M 394.472656 235.222656 C 398.960938 232.148438 403.863281 230.304688 409.449219 231.238281 C 413.128906 231.851562 415.207031 234.453125 415.890625 238.582031 C 417.4375 247.929688 406.445312 257.386719 397.382812 254.507812 C 393.753906 253.351562 392.179688 249.8125 394.003906 246.695312 C 395.027344 244.949219 396.460938 244.066406 398.578125 245.101562 C 402.164062 246.859375 405.519531 245.824219 408.335938 243.554688 C 409.472656 242.636719 410.421875 240.453125 410.148438 239.109375 C 409.878906 237.792969 408.109375 236.214844 406.707031 235.835938 C 404.609375 235.269531 402.253906 235.566406 400.015625 235.660156 C 398.234375 235.734375 396.464844 236.058594 394.6875 236.273438 Z M 394.472656 235.222656 "/>
<path style=" stroke:none;fill-rule:nonzero;fill:rgb(0%,0%,0%);fill-opacity:1;" d="M 407.953125 204.554688 C 411.617188 198.519531 417.863281 196.386719 424.574219 198.550781 C 429.5 200.136719 433.125 203.292969 435.570312 207.847656 C 436.140625 208.914062 436.773438 209.96875 437.53125 210.90625 C 439.382812 213.207031 439.472656 215.347656 437.671875 217.238281 C 435.820312 219.179688 432.675781 219.480469 430.753906 217.578125 C 429.632812 216.472656 428.832031 214.9375 428.195312 213.464844 C 425.171875 206.484375 418.726562 202.886719 411.082031 204.042969 C 410.179688 204.179688 409.285156 204.335938 407.953125 204.554688 Z M 407.953125 204.554688 "/>
<path style=" stroke:none;fill-rule:nonzero;fill:rgb(0%,0%,0%);fill-opacity:1;" d="M 348.453125 224.726562 C 345.375 212.539062 355.761719 198.15625 367.261719 197.660156 C 370.332031 197.527344 372.921875 198.691406 374.519531 201.480469 C 376.125 204.28125 374.667969 206.972656 371.417969 207.113281 C 369.886719 207.179688 368.332031 206.988281 366.804688 206.800781 C 361.363281 206.136719 357.363281 208.414062 354.683594 212.972656 C 352.558594 216.582031 350.742188 220.375 348.453125 224.726562 Z M 348.453125 224.726562 "/>
<path style=" stroke:none;fill-rule:nonzero;fill:rgb(0%,0%,0%);fill-opacity:1;" d="M 358.273438 235.050781 C 354.859375 233.0625 354.988281 230.535156 355.726562 227.980469 C 358.113281 219.738281 367.929688 217.050781 374.535156 222.835938 C 376.0625 224.171875 377.566406 225.621094 378.71875 227.269531 C 380.144531 229.316406 379.066406 231.273438 377.523438 232.726562 C 375.808594 234.347656 373.914062 233.910156 372.378906 232.308594 C 371.765625 231.671875 371.484375 230.714844 371.03125 229.914062 C 368.851562 226.074219 364.207031 225.867188 361.765625 229.523438 C 360.59375 231.28125 359.507812 233.09375 358.273438 235.050781 Z M 358.273438 235.050781 "/>
<path style=" stroke:none;fill-rule:nonzero;fill:rgb(0%,0%,0%);fill-opacity:1;" d="M 292.398438 246.023438 C 290.269531 247.667969 287.925781 248.824219 285.617188 246.429688 C 283.640625 244.378906 283.980469 242.152344 285.394531 240.492188 C 284.957031 238.804688 284.601562 237.449219 284.25 236.09375 C 285.6875 235.828125 287.242188 235.074219 288.542969 235.386719 C 293.847656 236.660156 298.414062 239.457031 302.21875 243.328125 C 304.042969 245.1875 303.875 247.570312 302.21875 249.496094 C 300.441406 251.554688 298.148438 251.363281 296.136719 249.851562 C 294.765625 248.824219 293.699219 247.382812 292.398438 246.023438 Z M 292.398438 246.023438 "/>
<path style=" stroke:none;fill-rule:nonzero;fill:rgb(0%,0%,0%);fill-opacity:1;" d="M 415.875 230.933594 C 412.464844 229.148438 411.667969 225.488281 413.75 222.253906 C 416.359375 218.191406 422.234375 217.246094 426.621094 220.179688 C 430.421875 222.726562 432.632812 228.464844 431.621094 232.960938 C 431.175781 234.945312 430.011719 236.449219 428.058594 235.8125 C 426.886719 235.429688 425.890625 233.75 425.339844 232.433594 C 424.808594 231.167969 425.085938 229.59375 424.78125 228.203125 C 424.308594 226.042969 422.855469 224.90625 420.617188 224.792969 C 418.324219 224.683594 417.328125 226.148438 416.695312 228.015625 C 416.375 228.953125 416.15625 229.921875 415.875 230.933594 Z M 415.875 230.933594 "/>
<path style=" stroke:none;fill-rule:nonzero;fill:rgb(100%,100%,100%);fill-opacity:1;" d="M 358.988281 172.515625 C 361.6875 171.164062 364.382812 169.808594 367.082031 168.457031 C 369.800781 167.097656 372.519531 165.738281 375.640625 164.175781 C 370.382812 161.105469 365.503906 161.359375 360.515625 162.710938 C 352.09375 164.996094 343.707031 167.453125 335.214844 169.433594 C 330.53125 170.527344 325.667969 170.90625 320.867188 171.425781 C 316.683594 171.878906 314.285156 174.246094 313.433594 178.128906 C 311.671875 186.152344 309.714844 194.164062 308.554688 202.28125 C 307.425781 210.1875 307.195312 218.226562 306.554688 226.40625 C 305.46875 225.339844 303.996094 224.160156 302.835938 222.722656 C 297.070312 215.601562 288.824219 216.023438 282.644531 219.957031 C 280.617188 221.25 278.820312 220.589844 278.046875 218.675781 C 276.214844 214.140625 274.242188 209.566406 273.253906 204.816406 C 271.007812 194.042969 273.339844 183.71875 277.8125 173.878906 C 281 166.863281 284.507812 159.992188 287.980469 153.113281 C 290.078125 148.953125 290.171875 149 286.597656 146.109375 C 284.644531 144.53125 284.820312 143.292969 287.167969 141.976562 C 289.019531 140.941406 291.816406 141.332031 292.433594 138.285156 C 292.503906 137.925781 294.769531 137.597656 295.804688 137.925781 C 298.617188 138.808594 300.40625 138.011719 302.511719 135.910156 C 314.101562 124.335938 328.523438 117.695312 343.945312 112.992188 C 354.410156 109.800781 365.085938 107.609375 376.035156 106.96875 C 385.816406 106.394531 395.171875 107.957031 404.453125 111.375 C 413.089844 114.554688 422.167969 116.53125 431.035156 119.09375 C 434.160156 119.996094 437.230469 121.074219 440.804688 122.226562 C 439.667969 123.636719 438.949219 124.527344 437.898438 125.824219 C 439.527344 126.359375 440.832031 127.144531 442.140625 127.152344 C 447.636719 127.171875 449.101562 129.425781 448.464844 135.234375 C 450.117188 135.308594 452.425781 134.742188 453.277344 135.609375 C 454.464844 136.808594 454.84375 139.058594 455.039062 140.914062 C 455.25 142.925781 455 145.019531 454.691406 147.042969 C 454.101562 150.902344 452.167969 153.714844 447.140625 154.300781 C 449.09375 156.574219 450.53125 158.199219 451.910156 159.871094 C 453.449219 161.742188 455.945312 163.777344 453.992188 166.253906 C 452.09375 168.664062 449.542969 166.6875 447.648438 165.503906 C 445.957031 164.445312 444.398438 162.929688 443.253906 161.292969 C 441.722656 159.105469 439.890625 158.539062 437.675781 159.59375 C 429.058594 163.683594 419.847656 164.171875 410.558594 164.191406 C 409.035156 164.195312 407.300781 164.269531 406.015625 163.617188 C 402.230469 161.6875 399.351562 163.589844 396.351562 165.363281 C 385.902344 171.546875 374.582031 174.382812 362.472656 174.140625 C 361.398438 174.121094 360.328125 173.886719 359.257812 173.753906 C 359.167969 173.339844 359.078125 172.925781 358.988281 172.515625 Z M 358.988281 172.515625 "/>
<path style=" stroke:none;fill-rule:nonzero;fill:rgb(100%,100%,100%);fill-opacity:1;" d="M 474.003906 502.347656 C 469.28125 505.792969 464.847656 509.027344 460.261719 512.371094 C 460.28125 512.40625 459.941406 511.75 459.605469 511.09375 C 458.859375 509.628906 458.347656 507.96875 457.328125 506.726562 C 453.503906 502.0625 449.734375 497.3125 445.476562 493.066406 C 443.945312 491.542969 441.035156 490.566406 438.851562 490.71875 C 434.511719 491.027344 430.25 492.351562 425.933594 493.140625 C 423.742188 493.542969 421.503906 493.703125 419.164062 494.464844 C 421.046875 494.824219 422.957031 495.074219 424.808594 495.566406 C 431.75 497.402344 438.875 498.789062 445.554688 501.335938 C 454.1875 504.625 459.253906 516.164062 456.757812 525.027344 C 456.515625 525.878906 456.0625 526.667969 455.3125 528.394531 C 454.261719 526.710938 453.421875 525.769531 453.035156 524.667969 C 451.449219 520.1875 448.417969 517.121094 444.035156 515.519531 C 437.277344 513.050781 430.46875 510.71875 423.628906 508.472656 C 421.785156 507.867188 419.121094 506.722656 418.328125 509.464844 C 417.632812 511.878906 420.152344 512.808594 422.09375 513.496094 C 428.382812 515.722656 434.691406 517.882812 441.136719 520.121094 C 440.703125 525.753906 444.351562 532.3125 437.0625 536.289062 C 433.378906 530.066406 427.429688 527.390625 421.328125 524.992188 C 420.359375 524.613281 419.117188 524.941406 417.488281 524.941406 C 423.023438 528.921875 428.007812 532.511719 432.902344 536.03125 C 431.699219 541.152344 428.738281 543.195312 423.707031 542.875 C 419.933594 542.640625 416.65625 544.285156 414.21875 547.230469 C 412.386719 549.445312 410.640625 551.746094 409.019531 554.121094 C 405.484375 559.308594 400.609375 561.050781 394.542969 560.132812 C 387.8125 559.113281 380.964844 557.824219 374.355469 560.128906 C 368.375 562.210938 362.660156 565.078125 356.683594 567.660156 C 354.351562 561.816406 353.3125 555.230469 353.351562 548.554688 C 353.390625 541.980469 353.917969 535.398438 354.476562 528.839844 C 354.578125 527.679688 355.671875 526.285156 356.703125 525.582031 C 358.644531 524.265625 360.8125 523.210938 362.996094 522.324219 C 376.832031 516.71875 387.355469 507.058594 394.074219 494.09375 C 400.5625 481.585938 410.476562 476.328125 423.804688 475.761719 C 429.351562 475.527344 434.898438 475.199219 440.445312 475.132812 C 443.476562 475.09375 445.921875 476.582031 447.894531 478.925781 C 452.863281 484.84375 457.789062 490.777344 460.851562 498 C 461.496094 499.515625 461.648438 500.566406 460.53125 502.140625 C 459.691406 503.324219 459.550781 506.625 460.058594 506.855469 C 462.152344 507.796875 463.628906 506.210938 464.582031 504.351562 C 466.070312 501.445312 465.667969 498.492188 464.34375 495.714844 C 459.929688 486.433594 454.082031 478.222656 446.015625 471.566406 C 448.050781 468.457031 451.164062 465.574219 451.492188 460.789062 C 448.226562 461.179688 448.222656 463.683594 447.34375 465.398438 C 446.359375 467.3125 445.4375 469.253906 444.414062 471.335938 C 442.765625 471.101562 441.171875 470.875 439.222656 470.597656 C 441.878906 466.503906 444.679688 462.71875 446.921875 458.628906 C 452.550781 448.347656 457.867188 437.898438 463.449219 427.59375 C 464.652344 425.371094 466.25 423.28125 468.03125 421.488281 C 468.898438 420.617188 470.625 420.167969 471.929688 420.230469 C 485.710938 420.863281 499.492188 421.574219 513.265625 422.410156 C 518.1875 422.707031 523.089844 423.386719 527.996094 423.914062 C 529.402344 424.066406 530.796875 424.300781 532.667969 424.566406 C 528.460938 433.78125 524.566406 442.726562 520.324219 451.503906 C 516.515625 459.371094 512.253906 467.023438 508.363281 474.851562 C 507.382812 476.824219 506.082031 477.421875 504.046875 477.570312 C 495.847656 478.15625 488.101562 480.453125 480.582031 483.738281 C 472.257812 487.371094 470.710938 494.667969 474.003906 502.347656 Z M 474.003906 502.347656 "/>
<path style=" stroke:none;fill-rule:nonzero;fill:rgb(100%,100%,100%);fill-opacity:1;" d="M 476.980469 499.382812 C 475.214844 492.921875 476.417969 489.832031 481.886719 487.246094 C 490.945312 482.960938 500.511719 480.820312 510.550781 480.65625 C 512.640625 480.625 513.9375 481.386719 514.582031 483.226562 C 515.929688 487.066406 517.515625 490.769531 516.292969 495.136719 C 515.296875 498.6875 516.929688 501.691406 519.796875 504.097656 C 524.074219 507.679688 524.027344 507.855469 520.925781 512.339844 C 518.519531 515.816406 518.625 517.835938 521.808594 520.65625 C 524.003906 522.601562 524.449219 524.808594 523.378906 527.296875 C 521.101562 532.585938 518.425781 536.988281 512.519531 539.792969 C 499.125 546.152344 484.992188 548.523438 470.535156 549.945312 C 466.597656 550.335938 464.707031 548.898438 464.277344 545.6875 C 463.777344 541.945312 465.816406 537.917969 468.882812 537.441406 C 479.851562 535.734375 490.855469 534.222656 501.84375 532.652344 C 503.066406 532.476562 504.382812 532.617188 505.503906 532.199219 C 506.460938 531.84375 507.195312 530.894531 508.027344 530.210938 C 507.117188 529.78125 506.175781 528.925781 505.300781 528.992188 C 500.480469 529.34375 495.640625 529.699219 490.875 530.464844 C 481.445312 531.980469 472.066406 533.820312 462.640625 535.378906 C 461.503906 535.566406 460.21875 534.84375 459.003906 534.546875 C 459.328125 533.433594 459.335938 532.035156 460.03125 531.253906 C 463.476562 527.386719 467.277344 524.238281 472.726562 523.148438 C 483.5 520.988281 494.179688 518.355469 504.871094 515.800781 C 505.839844 515.570312 506.601562 514.484375 507.460938 513.792969 C 506.339844 513.464844 505.113281 512.660156 504.109375 512.878906 C 492.972656 515.308594 481.875 517.941406 470.746094 520.414062 C 468.226562 520.976562 465.363281 522.089844 463.539062 519.039062 C 462.117188 516.667969 463.199219 513.429688 466.46875 511.105469 C 475.128906 504.949219 484.621094 500.734375 495.25 499.265625 C 497.464844 498.957031 499.628906 498.171875 501.746094 497.410156 C 502.332031 497.199219 503.105469 496.179688 502.996094 495.71875 C 502.867188 495.148438 501.878906 494.359375 501.296875 494.390625 C 499.363281 494.492188 497.425781 494.828125 495.523438 495.238281 C 489.328125 496.582031 483.148438 498 476.980469 499.382812 Z M 476.980469 499.382812 "/>
<path style=" stroke:none;fill-rule:nonzero;fill:rgb(100%,100%,100%);fill-opacity:1;" d="M 202.957031 577.457031 C 207.128906 572.359375 212.929688 570.660156 218.519531 568.683594 C 224.035156 566.730469 229.644531 565.050781 235.054688 563.300781 C 237.457031 540.171875 239.546875 517.023438 236.953125 493.75 C 243.988281 516.289062 241.167969 539.191406 239.226562 562.339844 C 247.238281 560.554688 255.039062 558.925781 262.78125 557.058594 C 274.253906 554.289062 285.679688 551.339844 297.132812 548.484375 C 298.425781 548.160156 299.738281 547.839844 301.058594 547.746094 C 301.746094 547.695312 302.464844 548.144531 303.167969 548.367188 C 302.820312 549.035156 302.636719 550.054688 302.09375 550.3125 C 298.296875 552.113281 294.5625 554.25 290.554688 555.347656 C 280.355469 558.140625 270.035156 560.484375 259.746094 562.929688 C 243.6875 566.746094 227.601562 570.445312 211.558594 574.320312 C 208.710938 575.007812 206.015625 576.324219 202.957031 577.457031 Z M 202.957031 577.457031 "/>
<path style=" stroke:none;fill-rule:nonzero;fill:rgb(100%,100%,100%);fill-opacity:1;" d="M 227.601562 644.515625 C 230.449219 642.933594 233.242188 641.234375 236.15625 639.78125 C 261.089844 627.355469 286.046875 614.964844 311.015625 602.601562 C 312.285156 601.972656 313.703125 601.546875 315.101562 601.316406 C 315.871094 601.1875 316.738281 601.664062 317.5625 601.871094 C 317.164062 602.730469 316.976562 603.8125 316.332031 604.394531 C 315.28125 605.335938 314 606.085938 312.707031 606.679688 C 288.433594 617.835938 264.148438 628.957031 239.863281 640.082031 C 235.972656 641.867188 232.078125 643.644531 228.1875 645.425781 C 227.992188 645.121094 227.796875 644.820312 227.601562 644.515625 Z M 227.601562 644.515625 "/>
<path style=" stroke:none;fill-rule:nonzero;fill:rgb(100%,100%,100%);fill-opacity:1;" d="M 502.933594 576.371094 C 503.765625 577.363281 504.683594 578.292969 505.417969 579.347656 C 509.175781 584.753906 511.398438 590.789062 512.171875 597.289062 C 512.445312 599.585938 512.261719 602.015625 511.816406 604.289062 C 511.589844 605.433594 510.300781 606.367188 509.496094 607.394531 C 508.847656 606.371094 507.8125 605.417969 507.617188 604.3125 C 506.445312 597.664062 505.570312 590.964844 504.375 584.320312 C 503.914062 581.75 502.882812 579.285156 502.113281 576.773438 C 502.386719 576.640625 502.660156 576.507812 502.933594 576.371094 Z M 502.933594 576.371094 "/>
<path style=" stroke:none;fill-rule:nonzero;fill:rgb(100%,100%,100%);fill-opacity:1;" d="M 261.839844 423.902344 C 261.410156 423.519531 260.300781 422.964844 260.296875 422.402344 C 260.292969 421.652344 261.015625 420.390625 261.652344 420.222656 C 266.007812 419.097656 270.40625 418.136719 274.828125 417.3125 C 275.433594 417.199219 276.242188 418.148438 276.957031 418.601562 C 276.464844 419.355469 276.109375 420.613281 275.464844 420.78125 C 271.113281 421.914062 266.699219 422.820312 261.839844 423.902344 Z M 261.839844 423.902344 "/>
<path style=" stroke:none;fill-rule:nonzero;fill:rgb(100%,100%,100%);fill-opacity:1;" d="M 452.503906 583.363281 C 451.835938 583.894531 451.242188 584.601562 450.484375 584.925781 C 447.089844 586.382812 443.6875 587.847656 440.191406 589.023438 C 439.359375 589.300781 438.15625 588.488281 437.125 588.175781 C 437.652344 587.328125 437.984375 586.046875 438.738281 585.707031 C 442.1875 584.164062 445.71875 582.761719 449.3125 581.585938 C 450.191406 581.300781 451.410156 582.050781 452.472656 582.328125 C 452.480469 582.671875 452.492188 583.015625 452.503906 583.363281 Z M 452.503906 583.363281 "/>
<path style=" stroke:none;fill-rule:nonzero;fill:rgb(100%,100%,100%);fill-opacity:1;" d="M 329.570312 464.609375 C 330.464844 460.535156 331.105469 457.097656 332.042969 453.738281 C 332.25 452.996094 333.503906 452.546875 334.273438 451.960938 C 334.703125 452.875 335.59375 453.851562 335.476562 454.6875 C 335.003906 458.039062 334.3125 461.371094 333.488281 464.65625 C 333.265625 465.550781 332.304688 466.261719 331.683594 467.054688 C 330.921875 466.175781 330.164062 465.296875 329.570312 464.609375 Z M 329.570312 464.609375 "/>
<path style=" stroke:none;fill-rule:nonzero;fill:rgb(100%,100%,100%);fill-opacity:1;" d="M 195.375 609.710938 C 194.191406 610.800781 193.765625 611.40625 193.179688 611.695312 C 190.054688 613.238281 186.925781 614.792969 183.703125 616.117188 C 183.058594 616.382812 182.007812 615.660156 181.144531 615.394531 C 181.410156 614.597656 181.445312 613.355469 181.980469 613.078125 C 185.246094 611.378906 188.585938 609.78125 192.011719 608.441406 C 192.710938 608.164062 193.890625 609.113281 195.375 609.710938 Z M 195.375 609.710938 "/>
<path style=" stroke:none;fill-rule:nonzero;fill:rgb(100%,100%,100%);fill-opacity:1;" d="M 178.660156 530.097656 C 179.21875 530.394531 179.574219 530.585938 179.933594 530.777344 C 182.449219 532.109375 185.046875 533.308594 187.433594 534.84375 C 188.21875 535.351562 188.445312 536.722656 188.925781 537.699219 C 187.953125 537.851562 186.789062 538.421875 186.039062 538.082031 C 183.175781 536.78125 180.398438 535.269531 177.710938 533.632812 C 177.203125 533.324219 177.023438 532.046875 177.144531 531.289062 C 177.222656 530.8125 178.148438 530.472656 178.660156 530.097656 Z M 178.660156 530.097656 "/>
<path style=" stroke:none;fill-rule:nonzero;fill:rgb(100%,100%,100%);fill-opacity:1;" d="M 288.203125 645.226562 C 289.335938 645.921875 290.003906 646.109375 290.296875 646.546875 C 292.070312 649.175781 293.835938 651.820312 295.410156 654.570312 C 295.746094 655.152344 295.558594 656.523438 295.089844 656.933594 C 294.652344 657.3125 293.070312 657.210938 292.765625 656.777344 C 290.769531 653.953125 288.890625 651.03125 287.210938 648.011719 C 286.925781 647.496094 287.773438 646.351562 288.203125 645.226562 Z M 288.203125 645.226562 "/>
<path style=" stroke:none;fill-rule:nonzero;fill:rgb(100%,100%,100%);fill-opacity:1;" d="M 190.851562 465.558594 C 190.34375 465.085938 189.46875 464.648438 189.320312 464.039062 C 189.175781 463.433594 189.558594 462.261719 190.054688 462.007812 C 193.039062 460.480469 196.09375 459.078125 199.199219 457.8125 C 199.703125 457.605469 200.925781 458.109375 201.171875 458.601562 C 201.4375 459.140625 201.1875 460.496094 200.753906 460.726562 C 197.613281 462.398438 194.371094 463.875 190.851562 465.558594 Z M 190.851562 465.558594 "/>
<path style=" stroke:none;fill-rule:nonzero;fill:rgb(100%,100%,100%);fill-opacity:1;" d="M 247.378906 367.765625 C 248.085938 368.414062 248.816406 369.085938 249.546875 369.757812 C 248.835938 370.441406 248.234375 371.472656 247.390625 371.742188 C 244.859375 372.558594 242.257812 373.207031 239.636719 373.648438 C 238.746094 373.796875 237.71875 373.144531 236.753906 372.859375 C 237.367188 371.949219 237.789062 370.527344 238.621094 370.214844 C 241.296875 369.222656 244.121094 368.640625 247.378906 367.765625 Z M 247.378906 367.765625 "/>
<path style=" stroke:none;fill-rule:nonzero;fill:rgb(100%,100%,100%);fill-opacity:1;" d="M 359.308594 625.121094 C 358.984375 625.738281 358.820312 626.230469 358.515625 626.605469 C 356.773438 628.742188 355.101562 630.953125 353.175781 632.914062 C 352.597656 633.5 351.285156 633.359375 350.3125 633.550781 C 350.28125 632.632812 349.863281 631.433594 350.292969 630.839844 C 351.960938 628.53125 353.839844 626.363281 355.777344 624.265625 C 356.214844 623.789062 357.234375 623.554688 357.90625 623.675781 C 358.429688 623.769531 358.820312 624.585938 359.308594 625.121094 Z M 359.308594 625.121094 "/>
<path style=" stroke:none;fill-rule:nonzero;fill:rgb(100%,100%,100%);fill-opacity:1;" d="M 272.902344 481.835938 C 271.8125 482.507812 270.875 483.550781 270.269531 483.382812 C 267.335938 482.578125 264.457031 481.53125 261.65625 480.34375 C 261.15625 480.132812 260.695312 478.632812 260.964844 478.125 C 261.269531 477.558594 262.542969 477.023438 263.1875 477.207031 C 265.921875 477.996094 268.597656 479.007812 271.25 480.058594 C 271.796875 480.273438 272.144531 480.992188 272.902344 481.835938 Z M 272.902344 481.835938 "/>
<path style=" stroke:none;fill-rule:nonzero;fill:rgb(100%,100%,100%);fill-opacity:1;" d="M 205.746094 416.902344 C 204.953125 417.203125 204.042969 417.917969 203.382812 417.734375 C 200.621094 416.972656 197.882812 416.0625 195.261719 414.925781 C 194.617188 414.644531 194.4375 413.308594 194.042969 412.457031 C 194.886719 412.15625 195.84375 411.433594 196.5625 411.625 C 199.03125 412.277344 201.429688 413.21875 203.835938 414.109375 C 204.777344 414.457031 205.660156 414.957031 206.570312 415.386719 C 206.296875 415.890625 206.019531 416.398438 205.746094 416.902344 Z M 205.746094 416.902344 "/>
<path style=" stroke:none;fill-rule:nonzero;fill:rgb(100%,100%,100%);fill-opacity:1;" d="M 326.113281 396.652344 C 327.082031 396.78125 328.9375 396.871094 330.703125 397.320312 C 331.460938 397.511719 332.03125 398.4375 332.6875 399.027344 C 331.902344 399.65625 331.132812 400.800781 330.339844 400.820312 C 327.703125 400.875 325.039062 400.644531 322.425781 400.253906 C 321.691406 400.144531 321.101562 399.097656 320.441406 398.480469 C 321.125 397.871094 321.71875 397.023438 322.519531 396.71875 C 323.324219 396.414062 324.332031 396.652344 326.113281 396.652344 Z M 326.113281 396.652344 "/>
<path style=" stroke:none;fill-rule:nonzero;fill:rgb(100%,100%,100%);fill-opacity:1;" d="M 402.746094 592.394531 C 402.277344 592.933594 401.90625 593.753906 401.414062 593.835938 C 400.726562 593.945312 399.511719 593.722656 399.28125 593.265625 C 397.875 590.445312 396.613281 587.542969 395.488281 584.597656 C 395.316406 584.140625 395.957031 582.953125 396.464844 582.765625 C 397.050781 582.546875 398.34375 582.84375 398.578125 583.296875 C 400.050781 586.199219 401.3125 589.203125 402.746094 592.394531 Z M 402.746094 592.394531 "/>
<path style=" stroke:none;fill-rule:nonzero;fill:rgb(100%,100%,100%);fill-opacity:1;" d="M 407.109375 423.300781 C 407.472656 424.414062 408.179688 425.441406 408.011719 426.296875 C 407.542969 428.667969 406.816406 431.011719 405.957031 433.28125 C 405.703125 433.953125 404.742188 434.546875 403.988281 434.757812 C 403.625 434.859375 402.484375 433.855469 402.554688 433.574219 C 403.386719 430.382812 404.363281 427.230469 405.371094 424.089844 C 405.449219 423.84375 406.050781 423.765625 407.109375 423.300781 Z M 407.109375 423.300781 "/>
<path style=" stroke:none;fill-rule:nonzero;fill:rgb(100%,100%,100%);fill-opacity:1;" d="M 445.089844 635.679688 C 446.46875 636.554688 447.128906 636.839844 447.617188 637.304688 C 449.09375 638.71875 450.613281 640.109375 451.882812 641.695312 C 452.402344 642.339844 452.324219 643.464844 452.515625 644.371094 C 451.519531 644.414062 450.175781 644.886719 449.59375 644.417969 C 447.699219 642.882812 445.933594 641.117188 444.453125 639.179688 C 444.035156 638.636719 444.777344 637.207031 445.089844 635.679688 Z M 445.089844 635.679688 "/>
<path style=" stroke:none;fill-rule:nonzero;fill:rgb(100%,100%,100%);fill-opacity:1;" d="M 268.949219 579.113281 C 271.066406 581.511719 273.386719 583.769531 275.210938 586.375 C 275.949219 587.429688 273.792969 589 272.640625 588.050781 C 270.523438 586.296875 268.574219 584.296875 266.84375 582.164062 C 266.484375 581.722656 267.375 580.265625 267.6875 579.273438 Z M 268.949219 579.113281 "/>
<path style=" stroke:none;fill-rule:nonzero;fill:rgb(100%,100%,100%);fill-opacity:1;" d="M 319.722656 508.292969 C 322.285156 508.894531 324.230469 509.199219 326.042969 509.855469 C 326.679688 510.082031 326.996094 511.179688 327.460938 511.878906 C 326.679688 512.375 325.878906 513.308594 325.125 513.277344 C 323.40625 513.203125 321.652344 512.824219 320.03125 512.234375 C 319.09375 511.890625 318.390625 510.898438 317.582031 510.199219 C 318.367188 509.5 319.152344 508.800781 319.722656 508.292969 Z M 319.722656 508.292969 "/>
<path style=" stroke:none;fill-rule:nonzero;fill:rgb(100%,100%,100%);fill-opacity:1;" d="M 426.613281 381.492188 C 425.851562 380.832031 425.125 380.507812 425.035156 380.058594 C 424.898438 379.355469 424.917969 378.230469 425.351562 377.878906 C 427.097656 376.46875 428.988281 375.21875 430.925781 374.078125 C 431.363281 373.820312 432.402344 374.019531 432.792969 374.394531 C 433.207031 374.792969 433.519531 376.054688 433.289062 376.25 C 431.15625 378.066406 428.898438 379.734375 426.613281 381.492188 Z M 426.613281 381.492188 "/>
<path style=" stroke:none;fill-rule:nonzero;fill:rgb(100%,100%,100%);fill-opacity:1;" d="M 352.902344 367.613281 C 351.894531 367.84375 350.558594 368.589844 349.9375 368.199219 C 348.132812 367.070312 346.5 365.589844 345.015625 364.042969 C 343.746094 362.722656 344.722656 360.71875 345.886719 361.207031 C 348.546875 362.316406 350.792969 364.40625 353.210938 366.097656 C 353.105469 366.601562 353.003906 367.109375 352.902344 367.613281 Z M 352.902344 367.613281 "/>
<path style=" stroke:none;fill-rule:nonzero;fill:rgb(100%,100%,100%);fill-opacity:1;" d="M 414.609375 271.542969 C 410.445312 272.222656 406.292969 273.332031 402.105469 273.492188 C 393.699219 273.8125 385.273438 273.695312 376.855469 273.535156 C 375.550781 273.511719 374.269531 272.308594 372.976562 271.652344 L 373.382812 270.410156 L 414.414062 270.410156 C 414.476562 270.789062 414.542969 271.164062 414.609375 271.542969 Z M 414.609375 271.542969 "/>
</g>
</svg>
