<?xml version="1.0" encoding="UTF-8"?>
<svg xmlns="http://www.w3.org/2000/svg" xmlns:xlink="http://www.w3.org/1999/xlink" width="px" height="px" viewBox="0 0 683 777" version="1.1">
<g id="surface1">
<path style=" stroke:none;fill-rule:nonzero;fill:rgb(100%,100%,100%);fill-opacity:1;" d="M 505.253906 460.210938 C 505.457031 460.246094 505.664062 460.28125 505.867188 460.316406 C 505.867188 467.722656 505.691406 475.136719 505.898438 482.539062 C 506.6875 510.597656 509.898438 538.433594 513.769531 566.210938 C 515.726562 580.238281 517.699219 594.28125 519.019531 608.378906 C 520.855469 628.007812 522.042969 647.699219 523.636719 667.355469 C 523.773438 669.058594 524.582031 670.863281 525.546875 672.308594 C 526.933594 674.398438 529.074219 674.375 530.570312 672.367188 C 531.296875 671.394531 531.949219 670.054688 531.925781 668.894531 C 531.777344 661.679688 531.8125 654.429688 531.066406 647.261719 C 529.238281 629.695312 527.144531 612.152344 524.929688 594.625 C 521.976562 571.273438 518.683594 547.964844 515.769531 524.605469 C 512.769531 500.597656 509.601562 476.582031 510.179688 452.296875 C 510.214844 450.769531 510.5625 449.15625 511.164062 447.757812 C 516.953125 434.304688 522.835938 420.886719 528.675781 407.453125 C 530.152344 404.054688 529.449219 402.851562 525.644531 402.457031 C 516.847656 401.546875 508.039062 400.765625 499.253906 399.765625 C 497.808594 399.601562 496.140625 398.917969 495.125 397.917969 C 492.035156 394.863281 489.144531 391.597656 486.320312 388.289062 C 485.34375 387.148438 484.515625 385.722656 484.089844 384.289062 C 481.148438 374.296875 478.738281 364.132812 475.320312 354.3125 C 473.261719 348.398438 471.929688 342.519531 472.859375 336.484375 C 474.863281 323.457031 477.070312 310.441406 479.78125 297.546875 C 485.375 270.9375 489.121094 244.21875 486.46875 216.949219 C 484.441406 196.09375 478.914062 176.308594 467.933594 158.320312 C 454.003906 135.507812 434.992188 118.835938 408.601562 112.324219 C 397.382812 109.554688 385.722656 108.425781 374.199219 107.058594 C 353.847656 104.644531 333.6875 105.582031 314.191406 112.546875 C 286.289062 122.511719 265.914062 140.40625 256.988281 169.3125 C 253.992188 179.019531 252.691406 189.261719 250.78125 199.289062 C 248.683594 210.285156 246.660156 221.261719 241.519531 231.390625 C 236.277344 241.714844 229.515625 250.921875 222.136719 259.804688 C 215.398438 267.917969 210.914062 277.179688 211.101562 288.109375 C 211.265625 297.605469 214.921875 305.953125 219.890625 313.789062 C 224.683594 321.34375 229.851562 328.664062 234.523438 336.292969 C 238.679688 343.089844 241.625 350.34375 240.691406 358.65625 C 240.421875 361.058594 239.472656 362.410156 237.210938 363.378906 C 216.40625 372.300781 200.539062 386.75 189.195312 406.316406 C 157.304688 461.339844 145.058594 520.125 155.441406 583.167969 C 158.464844 601.507812 163.457031 619.339844 172.152344 635.902344 C 176.457031 644.09375 181.921875 651.414062 191.816406 653.226562 C 196.917969 654.164062 202.164062 654.320312 207.351562 654.789062 C 208.457031 654.886719 209.578125 654.800781 210.632812 654.800781 C 210.347656 658.5 210.078125 661.898438 209.816406 665.292969 C 209.621094 667.824219 210.527344 669.550781 213.308594 669.515625 C 215.980469 669.484375 216.6875 667.621094 216.589844 665.359375 C 216.417969 661.4375 216.140625 657.519531 215.957031 654.421875 C 237.015625 643.417969 257.84375 632.539062 278.648438 621.667969 C 280.550781 623.363281 282.472656 625.386719 284.707031 626.976562 C 286.707031 628.398438 289.148438 628.488281 290.6875 626.277344 C 292.214844 624.09375 291.277344 621.917969 289.367188 620.359375 C 288.09375 619.316406 286.546875 618.613281 285.0625 617.722656 C 285.265625 617.480469 285.421875 617.179688 285.671875 617.027344 C 313.070312 600.289062 339.320312 581.894531 364.660156 562.1875 C 365.363281 561.640625 366.761719 561.679688 367.753906 561.871094 C 370.988281 562.503906 373.777344 562.085938 376.304688 559.695312 C 377.835938 558.246094 379.675781 556.792969 381.636719 556.191406 C 387.324219 554.445312 393.144531 553.132812 398.910156 551.640625 C 406.296875 549.726562 412.480469 546.289062 416.246094 539.167969 C 417.121094 537.507812 419.339844 536.371094 421.171875 535.457031 C 422.847656 534.617188 424.832031 534.378906 426.691406 533.921875 C 434.613281 531.96875 442.464844 529.914062 447.777344 522.921875 C 448.109375 522.484375 449.0625 522.304688 449.699219 522.351562 C 454.578125 522.6875 459.484375 522.875 464.316406 523.5625 C 470.15625 524.390625 473.894531 521.898438 476.496094 516.972656 C 482.851562 504.9375 489.355469 492.976562 495.566406 480.867188 C 499.035156 474.101562 502.039062 467.101562 505.253906 460.210938 Z M 487.207031 651.679688 C 486.441406 641.925781 485.699219 632.421875 484.925781 622.558594 C 487.652344 623.054688 489.820312 623.496094 492.007812 623.832031 C 494.734375 624.253906 496.988281 622.691406 497.183594 620.339844 C 497.378906 617.941406 495.496094 615.964844 492.671875 616.179688 C 489.988281 616.390625 487.347656 617.15625 484.535156 617.707031 C 483.898438 605.929688 483.296875 594.011719 482.59375 582.101562 C 481.8125 568.914062 480.953125 555.730469 480.066406 542.550781 C 479.996094 541.46875 479.460938 540.414062 479.144531 539.347656 C 478.066406 541.152344 477.554688 542.785156 477.523438 544.429688 C 477.273438 557.324219 476.640625 570.234375 477.046875 583.113281 C 477.652344 602.28125 478.824219 621.441406 480.140625 640.578125 C 480.714844 648.941406 482.171875 657.253906 483.425781 665.5625 C 483.585938 666.609375 484.957031 667.476562 485.765625 668.429688 C 486.394531 667.34375 487.460938 666.300781 487.566406 665.167969 C 487.832031 662.375 487.652344 659.539062 487.652344 656.636719 C 489.488281 656.777344 490.761719 656.96875 492.035156 656.949219 C 494.253906 656.914062 496.632812 657.199219 498.628906 656.476562 C 499.964844 655.996094 501.675781 653.910156 501.546875 652.726562 C 501.410156 651.5 499.414062 650.082031 497.9375 649.523438 C 496.703125 649.058594 495.015625 649.578125 493.582031 649.894531 C 491.523438 650.351562 489.511719 651.023438 487.207031 651.679688 Z M 346.351562 633.019531 C 348.90625 631.179688 351.28125 629.945312 353.023438 628.113281 C 356.894531 624.039062 360.503906 619.707031 364.085938 615.371094 C 364.660156 614.675781 364.554688 613.417969 364.761719 612.421875 C 363.738281 612.308594 362.546875 611.796875 361.726562 612.148438 C 356.671875 614.339844 351.644531 616.617188 346.730469 619.101562 C 344.882812 620.035156 343.1875 621.433594 341.730469 622.925781 C 340.089844 624.609375 339.867188 626.945312 341.265625 628.78125 C 342.453125 630.339844 344.320312 631.375 346.351562 633.019531 Z M 464.328125 601.066406 C 459.011719 602.152344 453.621094 604.300781 448.957031 608.035156 C 448.339844 608.53125 447.960938 609.433594 447.6875 610.21875 C 446.636719 613.21875 449.773438 617.027344 452.757812 616.039062 C 458.777344 614.046875 463.640625 610.238281 467.171875 604.96875 C 468.644531 602.769531 467.488281 601.101562 464.328125 601.066406 Z M 507.09375 573.261719 C 510.53125 573.585938 512.921875 570.621094 511.433594 567.671875 C 508.523438 561.886719 503.320312 558.515625 497.605469 556.007812 C 495.585938 555.121094 493.894531 557.039062 494.589844 559.246094 C 495.195312 561.152344 495.882812 563.132812 496.996094 564.765625 C 499.578125 568.554688 502.371094 572.238281 507.09375 573.261719 Z M 395.851562 637.5 C 394.503906 638.167969 392.859375 638.5 392.703125 639.175781 C 392.472656 640.15625 392.976562 641.902344 393.765625 642.429688 C 398.230469 645.410156 402.800781 648.25 407.484375 650.871094 C 409.800781 652.167969 412.339844 652.007812 413.921875 649.457031 C 415.226562 647.355469 414.109375 644.25 411.058594 642.953125 C 406.117188 640.847656 400.945312 639.292969 395.851562 637.5 Z M 469.378906 658.820312 C 468.984375 656.703125 468.835938 654.992188 468.332031 653.394531 C 467.519531 650.832031 465.546875 650.355469 463.535156 652.164062 C 460.054688 655.289062 458.433594 659.308594 458.140625 663.902344 C 457.992188 666.292969 458.929688 668.070312 461.339844 668.742188 C 463.820312 669.433594 465.902344 668.5 466.917969 666.289062 C 468.054688 663.824219 468.648438 661.113281 469.378906 658.820312 Z M 396.429688 561.726562 C 396.347656 567.433594 403.507812 576.175781 408.75 576.640625 C 410.214844 576.769531 412.789062 575.699219 413.113281 574.644531 C 413.554688 573.207031 412.871094 570.496094 411.714844 569.664062 C 407.863281 566.894531 403.609375 564.671875 399.445312 562.359375 C 398.605469 561.890625 397.480469 561.933594 396.429688 561.726562 Z M 269.410156 657.28125 C 268.90625 656.617188 268.15625 654.6875 266.789062 654.023438 C 263.878906 652.609375 260.683594 651.726562 257.539062 650.863281 C 255.125 650.199219 254.332031 651.621094 254.417969 653.855469 C 254.566406 657.699219 260.441406 663.410156 264.269531 663.363281 C 267.109375 663.332031 269.359375 661.140625 269.410156 657.28125 Z M 462.128906 537.023438 C 461.445312 535.53125 461.144531 533.5625 460.199219 533.175781 C 459.230469 532.777344 457.171875 533.550781 456.386719 534.480469 C 454.238281 537.039062 452.21875 539.804688 450.695312 542.765625 C 449.464844 545.160156 450.628906 547.417969 453.0625 548.558594 C 455.59375 549.742188 457.832031 548.824219 458.910156 546.386719 C 460.222656 543.421875 461.050781 540.234375 462.128906 537.023438 Z M 462.128906 537.023438 "/>
<path style=" stroke:none;fill-rule:nonzero;fill:rgb(0%,0%,0%);fill-opacity:1;" d="M 505.253906 460.210938 C 502.039062 467.101562 499.035156 474.101562 495.566406 480.867188 C 489.355469 492.976562 482.851562 504.9375 476.496094 516.972656 C 473.894531 521.898438 470.15625 524.390625 464.316406 523.5625 C 459.484375 522.875 454.578125 522.6875 449.699219 522.351562 C 449.0625 522.304688 448.109375 522.484375 447.777344 522.921875 C 442.464844 529.914062 434.613281 531.96875 426.691406 533.921875 C 424.832031 534.378906 422.847656 534.617188 421.171875 535.457031 C 419.339844 536.371094 417.121094 537.507812 416.246094 539.167969 C 412.480469 546.289062 406.296875 549.726562 398.910156 551.640625 C 393.144531 553.132812 387.324219 554.445312 381.636719 556.191406 C 379.675781 556.792969 377.835938 558.246094 376.304688 559.695312 C 373.777344 562.085938 370.988281 562.503906 367.753906 561.871094 C 366.761719 561.679688 365.363281 561.640625 364.660156 562.1875 C 339.320312 581.894531 313.070312 600.289062 285.671875 617.027344 C 285.421875 617.179688 285.265625 617.480469 285.0625 617.722656 C 286.546875 618.613281 288.09375 619.316406 289.367188 620.359375 C 291.277344 621.917969 292.214844 624.09375 290.6875 626.277344 C 289.148438 628.488281 286.707031 628.398438 284.707031 626.976562 C 282.472656 625.386719 280.550781 623.363281 278.648438 621.667969 C 257.84375 632.539062 237.015625 643.417969 215.957031 654.421875 C 216.140625 657.519531 216.417969 661.4375 216.589844 665.359375 C 216.6875 667.621094 215.980469 669.484375 213.308594 669.515625 C 210.527344 669.550781 209.621094 667.824219 209.816406 665.292969 C 210.078125 661.898438 210.347656 658.5 210.632812 654.800781 C 209.578125 654.800781 208.457031 654.886719 207.351562 654.789062 C 202.164062 654.320312 196.917969 654.164062 191.816406 653.226562 C 181.921875 651.414062 176.457031 644.09375 172.152344 635.902344 C 163.457031 619.339844 158.464844 601.507812 155.441406 583.167969 C 145.058594 520.125 157.304688 461.339844 189.195312 406.316406 C 200.539062 386.75 216.40625 372.300781 237.210938 363.378906 C 239.472656 362.410156 240.421875 361.058594 240.691406 358.65625 C 241.625 350.34375 238.679688 343.089844 234.523438 336.292969 C 229.851562 328.664062 224.683594 321.34375 219.890625 313.789062 C 214.921875 305.953125 211.265625 297.605469 211.101562 288.109375 C 210.914062 277.179688 215.398438 267.917969 222.136719 259.804688 C 229.515625 250.921875 236.277344 241.714844 241.519531 231.390625 C 246.660156 221.261719 248.683594 210.285156 250.78125 199.289062 C 252.691406 189.261719 253.992188 179.019531 256.988281 169.3125 C 265.914062 140.40625 286.289062 122.511719 314.191406 112.546875 C 333.6875 105.582031 353.847656 104.644531 374.199219 107.058594 C 385.722656 108.425781 397.382812 109.554688 408.601562 112.324219 C 434.992188 118.835938 454.003906 135.507812 467.933594 158.320312 C 478.914062 176.308594 484.441406 196.09375 486.46875 216.949219 C 489.121094 244.21875 485.375 270.9375 479.78125 297.546875 C 477.070312 310.441406 474.863281 323.457031 472.859375 336.484375 C 471.929688 342.519531 473.261719 348.398438 475.320312 354.3125 C 478.738281 364.132812 481.148438 374.296875 484.089844 384.289062 C 484.515625 385.722656 485.34375 387.148438 486.320312 388.289062 C 489.144531 391.597656 492.035156 394.863281 495.125 397.917969 C 496.140625 398.917969 497.808594 399.601562 499.253906 399.765625 C 508.039062 400.765625 516.847656 401.546875 525.644531 402.457031 C 529.449219 402.851562 530.152344 404.054688 528.675781 407.453125 C 522.835938 420.886719 516.953125 434.304688 511.164062 447.757812 C 510.5625 449.15625 510.214844 450.769531 510.179688 452.296875 C 509.601562 476.582031 512.769531 500.597656 515.769531 524.605469 C 518.683594 547.964844 521.976562 571.273438 524.929688 594.625 C 527.144531 612.152344 529.238281 629.695312 531.066406 647.261719 C 531.8125 654.429688 531.777344 661.679688 531.925781 668.894531 C 531.949219 670.054688 531.296875 671.394531 530.570312 672.367188 C 529.074219 674.375 526.933594 674.398438 525.546875 672.308594 C 524.582031 670.863281 523.773438 669.058594 523.636719 667.355469 C 522.042969 647.699219 520.855469 628.007812 519.019531 608.378906 C 517.699219 594.28125 515.726562 580.238281 513.769531 566.210938 C 509.898438 538.433594 506.6875 510.597656 505.898438 482.539062 C 505.691406 475.136719 505.867188 467.722656 505.867188 460.316406 C 505.664062 460.28125 505.457031 460.246094 505.253906 460.210938 Z M 213.082031 431.546875 C 206.414062 407.527344 216.683594 389.257812 233.558594 372.773438 C 232.484375 372.9375 232.273438 372.921875 232.113281 373.003906 C 231.453125 373.347656 230.796875 373.703125 230.160156 374.089844 C 220 380.234375 211.324219 388.0625 204.214844 397.550781 C 187.976562 419.230469 177.242188 443.585938 169.546875 469.394531 C 168.851562 471.71875 168.28125 474.078125 167.609375 476.574219 C 170.382812 475.207031 172.742188 473.996094 175.148438 472.875 C 177.496094 471.78125 179.371094 472.472656 180.394531 474.796875 C 181.355469 476.992188 180.007812 479.058594 177.378906 479.820312 C 174.519531 480.648438 171.710938 481.753906 168.796875 482.265625 C 166.3125 482.703125 165.609375 484.128906 165.152344 486.25 C 160.796875 506.460938 158.78125 526.890625 159.425781 547.554688 C 159.613281 553.550781 160.210938 559.535156 160.632812 565.699219 C 163.390625 564.933594 165.664062 564.390625 167.871094 563.660156 C 170.582031 562.761719 172.328125 563.796875 173.023438 566.328125 C 173.730469 568.902344 172.25 570.375 169.804688 570.824219 C 167.210938 571.300781 164.582031 571.613281 161.734375 572.03125 C 161.8125 573.007812 161.789062 574.070312 162 575.082031 C 164.074219 585.082031 165.894531 595.148438 168.371094 605.054688 C 170.898438 615.171875 173.96875 625.179688 179.601562 634.132812 C 188.199219 647.800781 200.476562 651.949219 215.371094 645.742188 C 222.625 642.71875 229.503906 638.796875 236.601562 635.386719 C 238.992188 634.234375 240.957031 633.082031 240.914062 629.933594 C 240.894531 628.644531 241.535156 627.167969 242.316406 626.101562 C 242.972656 625.207031 244.3125 624.234375 245.269531 624.308594 C 246.28125 624.382812 247.296875 625.570312 248.117188 626.453125 C 248.539062 626.914062 248.535156 627.765625 248.828125 628.804688 C 287.925781 606.960938 325.375 583.207031 361.148438 556.386719 C 350.988281 543.46875 350.085938 528.484375 350.730469 512.753906 C 315.265625 532.589844 280.011719 551.371094 240.527344 560.972656 C 241.0625 561.726562 241.488281 562.316406 241.898438 562.914062 C 243.136719 564.722656 244.382812 566.835938 242.457031 568.609375 C 240.316406 570.585938 237.976562 569.4375 236.234375 567.621094 C 234.792969 566.109375 233.664062 564.300781 232.511719 562.777344 C 221.867188 563.824219 211.949219 567.003906 202.171875 571.386719 C 202.640625 569.800781 203.316406 568.421875 204.398438 567.929688 C 210.476562 565.144531 216.59375 562.417969 222.824219 559.992188 C 226.445312 558.582031 230.300781 557.769531 233.507812 556.84375 C 234.222656 545.585938 234.65625 534.835938 235.714844 524.144531 C 236.09375 520.328125 235.492188 518.078125 231.710938 516.972656 C 231.121094 516.800781 230.265625 515.59375 230.417969 515.246094 C 230.726562 514.535156 231.566406 513.746094 232.308594 513.597656 C 233.617188 513.332031 235.015625 513.523438 236.46875 513.523438 C 237.859375 505.742188 239.265625 497.890625 240.671875 490.035156 L 242.257812 490.007812 C 242.984375 492.460938 244.253906 494.898438 244.347656 497.378906 C 244.828125 510.574219 245.042969 523.78125 245.28125 536.988281 C 245.378906 542.34375 245.300781 547.703125 245.300781 553.203125 C 249.398438 551.773438 253.730469 550.316406 258.03125 548.761719 C 286.210938 538.585938 312.1875 523.851562 338.644531 510.082031 C 344.339844 507.113281 349.304688 501.527344 356.867188 503.40625 C 357.109375 503.464844 357.429688 503.082031 357.730469 503.039062 C 361.324219 502.550781 363.203125 499.996094 365.261719 497.339844 C 373.261719 487.035156 380.164062 475.617188 392.367188 469.53125 C 387.527344 463.4375 387.84375 456.445312 388.59375 449.40625 C 388.648438 448.878906 389.515625 448.117188 390.0625 448.0625 C 390.601562 448.011719 391.535156 448.59375 391.746094 449.117188 C 394.140625 455.066406 397.941406 460.492188 398.527344 467.144531 C 398.808594 467.144531 399.132812 467.214844 399.421875 467.136719 C 409.066406 464.492188 418.714844 461.871094 428.328125 459.125 C 429.136719 458.894531 430.050781 457.929688 430.316406 457.113281 C 431.566406 453.285156 432.609375 449.386719 433.675781 445.695312 C 431.527344 443.355469 429.347656 441.171875 427.421875 438.78125 C 426.824219 438.035156 426.410156 436.386719 426.828125 435.773438 C 427.304688 435.074219 428.882812 434.664062 429.84375 434.847656 C 432.292969 435.308594 434.667969 436.171875 437.386719 436.96875 C 438.980469 433.515625 440.691406 429.882812 442.316406 426.214844 C 442.546875 425.695312 442.546875 424.941406 442.367188 424.390625 C 439.417969 415.386719 435.113281 407.035156 430.589844 399.320312 C 398.273438 435.453125 359.039062 439.226562 315.386719 425.574219 C 315.390625 425.570312 315.128906 426.027344 314.921875 426.511719 C 308.738281 441.097656 310.808594 454.824219 319.363281 467.804688 C 320.765625 469.929688 321.242188 471.824219 319.523438 473.894531 C 317.816406 475.953125 315.917969 475.449219 313.773438 474.53125 C 304.953125 470.75 296.210938 466.859375 289.285156 460.308594 C 284.101562 463.769531 279.183594 467.054688 273.804688 470.648438 C 277.019531 474.898438 280.136719 479.054688 283.300781 483.171875 C 284.832031 485.164062 285.023438 487.082031 283.035156 488.8125 C 281.003906 490.574219 278.78125 490.914062 276.785156 488.804688 C 274.878906 486.796875 272.9375 484.765625 271.390625 482.492188 C 264.875 472.917969 256.074219 466.347656 245.4375 461.992188 C 236.214844 458.210938 227.3125 453.890625 220.921875 445.78125 C 220.519531 445.269531 219.710938 445.019531 219.046875 444.78125 C 215.488281 443.492188 211.773438 442.535156 208.382812 440.898438 C 205.226562 439.375 202.914062 436.714844 201.082031 432.5 C 205.375 432.160156 209.097656 431.863281 213.082031 431.546875 Z M 324.402344 319.261719 C 324.289062 319.355469 324.179688 319.449219 324.066406 319.542969 C 324.347656 320.078125 324.621094 320.617188 324.90625 321.148438 C 329.105469 328.921875 333.5 336.601562 337.472656 344.488281 C 346.6875 362.78125 346.332031 380.519531 333.953125 397.457031 C 328.988281 404.242188 324.207031 411.164062 319.183594 418.253906 C 320.386719 418.796875 321.3125 419.289062 322.285156 419.648438 C 345.429688 428.140625 368.484375 427.332031 391.375 418.734375 C 403.28125 414.261719 413.46875 407.375 421.203125 397.027344 C 424.417969 392.730469 426.242188 388.753906 422.078125 384.128906 C 421.664062 383.667969 421.492188 383 421.175781 382.445312 C 413.289062 368.625 409.097656 353.472656 405.171875 337.960938 C 396.957031 339.507812 388.707031 339.464844 380.460938 337.859375 C 372.632812 336.335938 365.269531 333.605469 358.527344 329.367188 C 357.457031 328.695312 356.46875 327.070312 356.417969 325.84375 C 356.375 324.769531 357.511719 322.976562 358.476562 322.695312 C 359.804688 322.308594 361.640625 322.691406 362.953125 323.347656 C 372.101562 327.921875 381.578125 331.167969 391.910156 331.671875 C 410.082031 332.558594 435.042969 322.898438 440.992188 295.359375 C 442.714844 287.378906 443.730469 279.167969 444.203125 271.011719 C 445.453125 249.410156 446.238281 227.777344 447.179688 206.160156 C 447.285156 203.765625 447.195312 201.359375 447.195312 199.304688 C 445.070312 201.054688 443.136719 202.699219 441.148438 204.273438 C 439.183594 205.824219 437.167969 207.308594 435.175781 208.824219 C 435.015625 208.597656 434.855469 208.371094 434.691406 208.144531 C 437.214844 200.613281 439.738281 193.085938 442.261719 185.554688 C 436.378906 193.863281 430.144531 201.539062 421.578125 206.976562 L 420.875 206.511719 C 424.109375 200.660156 427.347656 194.8125 430.875 188.441406 C 424.964844 193.453125 419.523438 197.992188 414.167969 202.628906 C 409.621094 206.566406 404.339844 208.71875 399.988281 208.023438 C 407.625 204.464844 410.410156 197.765625 412.953125 189.894531 C 409.703125 191.839844 406.808594 192.992188 404.671875 194.96875 C 398.402344 200.753906 392.199219 206.558594 383.984375 210.199219 C 384.570312 210.6875 384.992188 210.878906 385.152344 211.199219 C 385.867188 212.636719 387.175781 214.21875 386.964844 215.542969 C 386.792969 216.644531 384.9375 217.882812 383.59375 218.296875 C 381.816406 218.84375 379.75 218.378906 377.921875 218.816406 C 373 219.996094 367.769531 220.703125 363.359375 222.957031 C 359.113281 225.125 354.378906 226.53125 350.710938 229.941406 C 342.523438 237.566406 334.125 244.964844 325.859375 252.503906 C 322.628906 255.449219 319.464844 258.464844 316.371094 261.550781 C 310.050781 267.867188 310.042969 275.59375 311.570312 283.644531 C 313.875 295.832031 315.878906 308.140625 327.09375 316.085938 C 329 317.433594 330.707031 319.070312 332.492188 320.585938 C 333.710938 321.625 335.046875 322.570312 336.050781 323.789062 C 336.585938 324.4375 336.523438 325.574219 336.730469 326.492188 C 335.695312 326.617188 334.496094 327.125 333.65625 326.773438 C 332.320312 326.21875 331.179688 325.144531 330.039062 324.191406 C 328.125 322.589844 326.277344 320.910156 324.402344 319.261719 Z M 407.402344 485.773438 C 407.246094 485.476562 407.085938 485.179688 406.929688 484.882812 C 408.191406 483.929688 409.324219 482.679688 410.734375 482.066406 C 423.207031 476.652344 436.058594 472.714844 449.796875 472.222656 C 452.3125 472.132812 454.9375 471.683594 457.261719 470.765625 C 458.703125 470.195312 460.566406 468.449219 460.597656 467.1875 C 460.632812 465.910156 458.726562 464.5 457.511719 463.308594 C 457.039062 462.84375 456.148438 462.746094 455.425781 462.613281 C 448.207031 461.289062 441.167969 461.648438 434.066406 463.863281 C 422.902344 467.339844 411.585938 470.335938 400.324219 473.503906 C 393.550781 475.410156 388.105469 479.285156 383.3125 484.355469 C 377.238281 490.789062 371.132812 497.214844 364.683594 503.269531 C 361.539062 506.226562 360.347656 509.363281 360.789062 513.472656 C 361.175781 517.074219 361.265625 520.707031 361.652344 524.304688 C 362.492188 532.148438 363.242188 540.046875 367.363281 547.046875 C 368.898438 549.65625 370.191406 551.636719 374.480469 551.238281 C 384.371094 550.316406 393.714844 547.628906 402.902344 544.347656 C 405.648438 543.363281 408.417969 540.820312 409.898438 538.253906 C 412.945312 532.984375 417.15625 530.070312 422.996094 529.132812 C 425.308594 528.761719 427.621094 528.367188 429.914062 527.902344 C 437.496094 526.367188 444.65625 524.109375 448.859375 516.433594 C 447.714844 516.566406 446.78125 516.707031 445.839844 516.773438 C 437.976562 517.335938 430.117188 517.910156 422.25 518.417969 C 420.621094 518.523438 418.648438 518.460938 419.253906 516.050781 C 419.441406 515.320312 421.144531 514.566406 422.183594 514.519531 C 438.292969 513.824219 454.289062 512.214844 470.042969 508.660156 C 471.550781 508.320312 472.972656 507.597656 474.433594 507.050781 C 474.363281 506.6875 474.292969 506.320312 474.222656 505.957031 C 473.234375 505.816406 472.246094 505.5625 471.253906 505.558594 C 454.933594 505.5 438.613281 505.515625 422.292969 505.347656 C 421.023438 505.332031 419.15625 504.347656 418.636719 503.289062 C 417.695312 501.375 419.5 500.398438 421.097656 500.015625 C 428.019531 498.371094 434.933594 496.652344 441.917969 495.320312 C 451.839844 493.429688 461.839844 491.941406 471.769531 490.09375 C 474.035156 489.671875 476.152344 488.476562 479.082031 487.355469 C 477.675781 486.796875 477.207031 486.480469 476.707031 486.425781 C 453.632812 483.902344 430.515625 485.015625 407.402344 485.773438 Z M 524.683594 405.625 C 524.117188 405.453125 523.625 405.195312 523.125 405.164062 C 504.71875 404.027344 486.308594 403.042969 467.917969 401.710938 C 462.015625 401.285156 458.847656 404.054688 456.5 408.921875 C 451.464844 419.367188 446.246094 429.722656 441.152344 440.140625 C 438.273438 446.023438 435.484375 451.953125 432.527344 458.140625 C 433.566406 458.140625 434.386719 458.199219 435.195312 458.128906 C 438.257812 457.867188 440.59375 457.191406 441.265625 453.324219 C 441.835938 450.046875 443.546875 446.921875 445.0625 443.882812 C 445.714844 442.578125 447.152344 441.664062 448.234375 440.574219 C 448.578125 440.832031 448.921875 441.09375 449.261719 441.351562 C 449.410156 447.496094 443.15625 450.941406 442.179688 456.949219 C 444.097656 456.847656 445.980469 456.570312 447.84375 456.683594 C 451.855469 456.929688 455.921875 457.042969 459.839844 457.835938 C 463.621094 458.601562 465.679688 461.332031 466.007812 465.339844 C 466.324219 469.25 464.957031 472.40625 461.625 474.246094 C 459.363281 475.492188 456.695312 476.253906 454.121094 476.628906 C 445.492188 477.882812 436.8125 478.769531 428.179688 480 C 424.851562 480.476562 421.601562 481.5 418.316406 482.273438 C 418.375 482.554688 418.4375 482.839844 418.496094 483.121094 C 419.015625 483.121094 419.542969 483.191406 420.050781 483.113281 C 436.253906 480.582031 452.550781 480.363281 468.878906 481.230469 C 474.78125 481.546875 480.867188 481.242188 485.832031 485.4375 C 486.101562 485.664062 486.621094 485.59375 487.382812 485.722656 C 499.757812 459.148438 512.152344 432.535156 524.683594 405.625 Z M 273.566406 430.0625 C 268.90625 439.679688 267.757812 449.628906 270.425781 460.199219 C 275.441406 458.289062 280.082031 456.519531 284.457031 454.851562 C 281.636719 446.21875 279.613281 437.382812 273.566406 430.0625 Z M 482.625 491.460938 C 478.167969 493.042969 474.046875 494.761719 469.773438 495.953125 C 465.585938 497.121094 461.261719 497.835938 456.972656 498.597656 C 452.734375 499.351562 448.460938 499.910156 444.203125 500.554688 L 444.265625 500.769531 C 455.050781 501.117188 465.832031 501.464844 477.101562 501.828125 C 478.6875 498.847656 480.667969 495.132812 482.625 491.460938 Z M 388.160156 196.992188 C 377.976562 199.238281 371.863281 206.308594 365.902344 214.617188 C 375.601562 210.949219 381.25 203.300781 388.160156 196.992188 Z M 450.8125 516.234375 C 450.804688 516.339844 450.800781 516.449219 450.796875 516.554688 C 455.566406 516.554688 460.332031 516.570312 465.101562 516.546875 C 468.535156 516.527344 468.742188 516.347656 470.085938 512.675781 C 466.820312 513.3125 463.609375 513.964844 460.386719 514.558594 C 457.199219 515.148438 454.003906 515.679688 450.8125 516.234375 Z M 450.8125 516.234375 "/>
<path style=" stroke:none;fill-rule:nonzero;fill:rgb(0%,0%,0%);fill-opacity:1;" d="M 487.207031 651.679688 C 489.511719 651.023438 491.523438 650.351562 493.582031 649.894531 C 495.015625 649.578125 496.703125 649.058594 497.9375 649.523438 C 499.414062 650.082031 501.410156 651.5 501.546875 652.726562 C 501.675781 653.910156 499.964844 655.996094 498.628906 656.476562 C 496.632812 657.199219 494.253906 656.914062 492.035156 656.949219 C 490.761719 656.96875 489.488281 656.777344 487.652344 656.636719 C 487.652344 659.539062 487.832031 662.375 487.566406 665.167969 C 487.460938 666.300781 486.394531 667.34375 485.765625 668.429688 C 484.957031 667.476562 483.585938 666.609375 483.425781 665.5625 C 482.171875 657.253906 480.714844 648.941406 480.140625 640.578125 C 478.824219 621.441406 477.652344 602.28125 477.046875 583.113281 C 476.640625 570.234375 477.273438 557.324219 477.523438 544.429688 C 477.554688 542.785156 478.066406 541.152344 479.144531 539.347656 C 479.460938 540.414062 479.996094 541.46875 480.066406 542.550781 C 480.953125 555.730469 481.8125 568.914062 482.59375 582.101562 C 483.296875 594.011719 483.898438 605.929688 484.535156 617.707031 C 487.347656 617.15625 489.988281 616.390625 492.671875 616.179688 C 495.496094 615.964844 497.378906 617.941406 497.183594 620.339844 C 496.988281 622.691406 494.734375 624.253906 492.007812 623.832031 C 489.820312 623.496094 487.652344 623.054688 484.925781 622.558594 C 485.699219 632.421875 486.441406 641.925781 487.207031 651.679688 Z M 487.207031 651.679688 "/>
<path style=" stroke:none;fill-rule:nonzero;fill:rgb(0%,0%,0%);fill-opacity:1;" d="M 346.351562 633.019531 C 344.320312 631.375 342.453125 630.339844 341.265625 628.78125 C 339.867188 626.945312 340.089844 624.609375 341.730469 622.925781 C 343.1875 621.433594 344.882812 620.035156 346.730469 619.101562 C 351.644531 616.617188 356.671875 614.339844 361.726562 612.148438 C 362.546875 611.796875 363.738281 612.308594 364.761719 612.421875 C 364.554688 613.417969 364.660156 614.675781 364.085938 615.371094 C 360.503906 619.707031 356.894531 624.039062 353.023438 628.113281 C 351.28125 629.945312 348.90625 631.179688 346.351562 633.019531 Z M 346.351562 633.019531 "/>
<path style=" stroke:none;fill-rule:nonzero;fill:rgb(0%,0%,0%);fill-opacity:1;" d="M 464.328125 601.066406 C 467.488281 601.101562 468.644531 602.769531 467.171875 604.96875 C 463.640625 610.238281 458.777344 614.046875 452.757812 616.039062 C 449.773438 617.027344 446.636719 613.21875 447.6875 610.21875 C 447.960938 609.433594 448.339844 608.53125 448.957031 608.035156 C 453.621094 604.300781 459.011719 602.152344 464.328125 601.066406 Z M 464.328125 601.066406 "/>
<path style=" stroke:none;fill-rule:nonzero;fill:rgb(0%,0%,0%);fill-opacity:1;" d="M 507.09375 573.261719 C 502.371094 572.238281 499.578125 568.554688 496.996094 564.765625 C 495.882812 563.132812 495.195312 561.152344 494.589844 559.246094 C 493.894531 557.039062 495.585938 555.121094 497.605469 556.007812 C 503.320312 558.515625 508.523438 561.886719 511.433594 567.671875 C 512.921875 570.621094 510.53125 573.585938 507.09375 573.261719 Z M 507.09375 573.261719 "/>
<path style=" stroke:none;fill-rule:nonzero;fill:rgb(0%,0%,0%);fill-opacity:1;" d="M 395.851562 637.5 C 400.945312 639.292969 406.117188 640.847656 411.058594 642.953125 C 414.109375 644.25 415.226562 647.355469 413.921875 649.457031 C 412.339844 652.007812 409.800781 652.167969 407.484375 650.871094 C 402.800781 648.25 398.230469 645.410156 393.765625 642.429688 C 392.976562 641.902344 392.472656 640.15625 392.703125 639.175781 C 392.859375 638.5 394.503906 638.167969 395.851562 637.5 Z M 395.851562 637.5 "/>
<path style=" stroke:none;fill-rule:nonzero;fill:rgb(0%,0%,0%);fill-opacity:1;" d="M 469.378906 658.820312 C 468.648438 661.113281 468.054688 663.824219 466.917969 666.289062 C 465.902344 668.5 463.820312 669.433594 461.339844 668.742188 C 458.929688 668.070312 457.992188 666.292969 458.140625 663.902344 C 458.433594 659.308594 460.054688 655.289062 463.535156 652.164062 C 465.546875 650.355469 467.519531 650.832031 468.332031 653.394531 C 468.835938 654.992188 468.984375 656.703125 469.378906 658.820312 Z M 469.378906 658.820312 "/>
<path style=" stroke:none;fill-rule:nonzero;fill:rgb(0%,0%,0%);fill-opacity:1;" d="M 396.429688 561.726562 C 397.480469 561.933594 398.605469 561.890625 399.445312 562.359375 C 403.609375 564.671875 407.863281 566.894531 411.714844 569.664062 C 412.871094 570.496094 413.554688 573.207031 413.113281 574.644531 C 412.789062 575.699219 410.214844 576.769531 408.75 576.640625 C 403.507812 576.175781 396.347656 567.433594 396.429688 561.726562 Z M 396.429688 561.726562 "/>
<path style=" stroke:none;fill-rule:nonzero;fill:rgb(0%,0%,0%);fill-opacity:1;" d="M 269.410156 657.28125 C 269.359375 661.140625 267.109375 663.332031 264.269531 663.363281 C 260.441406 663.410156 254.566406 657.699219 254.417969 653.855469 C 254.332031 651.621094 255.125 650.199219 257.539062 650.863281 C 260.683594 651.726562 263.878906 652.609375 266.789062 654.023438 C 268.15625 654.6875 268.90625 656.617188 269.410156 657.28125 Z M 269.410156 657.28125 "/>
<path style=" stroke:none;fill-rule:nonzero;fill:rgb(0%,0%,0%);fill-opacity:1;" d="M 462.128906 537.023438 C 461.050781 540.234375 460.222656 543.421875 458.910156 546.386719 C 457.832031 548.824219 455.59375 549.742188 453.0625 548.558594 C 450.628906 547.417969 449.464844 545.160156 450.695312 542.765625 C 452.21875 539.804688 454.238281 537.039062 456.386719 534.480469 C 457.171875 533.550781 459.230469 532.777344 460.199219 533.175781 C 461.144531 533.5625 461.445312 535.53125 462.128906 537.023438 Z M 462.128906 537.023438 "/>
<path style=" stroke:none;fill-rule:nonzero;fill:rgb(100%,100%,100%);fill-opacity:1;" d="M 213.082031 431.546875 C 209.097656 431.863281 205.375 432.160156 201.082031 432.5 C 202.914062 436.714844 205.226562 439.375 208.382812 440.898438 C 211.773438 442.535156 215.488281 443.492188 219.046875 444.78125 C 219.710938 445.019531 220.519531 445.269531 220.921875 445.78125 C 227.3125 453.890625 236.214844 458.210938 245.4375 461.992188 C 256.074219 466.347656 264.875 472.917969 271.390625 482.492188 C 272.9375 484.765625 274.878906 486.796875 276.785156 488.804688 C 278.78125 490.914062 281.003906 490.574219 283.035156 488.8125 C 285.023438 487.082031 284.832031 485.164062 283.300781 483.171875 C 280.136719 479.054688 277.019531 474.898438 273.804688 470.648438 C 279.183594 467.054688 284.101562 463.769531 289.285156 460.308594 C 296.210938 466.859375 304.953125 470.75 313.773438 474.53125 C 315.917969 475.449219 317.816406 475.953125 319.523438 473.894531 C 321.242188 471.824219 320.765625 469.929688 319.363281 467.804688 C 310.808594 454.824219 308.738281 441.097656 314.921875 426.511719 C 315.128906 426.027344 315.390625 425.570312 315.386719 425.574219 C 359.039062 439.226562 398.273438 435.453125 430.589844 399.320312 C 435.113281 407.035156 439.417969 415.386719 442.367188 424.390625 C 442.546875 424.941406 442.546875 425.695312 442.316406 426.214844 C 440.691406 429.882812 438.980469 433.515625 437.386719 436.96875 C 434.667969 436.171875 432.292969 435.308594 429.84375 434.847656 C 428.882812 434.664062 427.304688 435.074219 426.828125 435.773438 C 426.410156 436.386719 426.824219 438.035156 427.421875 438.78125 C 429.347656 441.171875 431.527344 443.355469 433.675781 445.695312 C 432.609375 449.386719 431.566406 453.285156 430.316406 457.113281 C 430.050781 457.929688 429.136719 458.894531 428.328125 459.125 C 418.714844 461.871094 409.066406 464.492188 399.421875 467.136719 C 399.132812 467.214844 398.808594 467.144531 398.527344 467.144531 C 397.941406 460.492188 394.140625 455.066406 391.746094 449.117188 C 391.535156 448.59375 390.601562 448.011719 390.0625 448.0625 C 389.515625 448.117188 388.648438 448.878906 388.59375 449.40625 C 387.84375 456.445312 387.527344 463.4375 392.367188 469.53125 C 380.164062 475.617188 373.261719 487.035156 365.261719 497.339844 C 363.203125 499.996094 361.324219 502.550781 357.730469 503.039062 C 357.429688 503.082031 357.109375 503.464844 356.867188 503.40625 C 349.304688 501.527344 344.339844 507.113281 338.644531 510.082031 C 312.1875 523.851562 286.210938 538.585938 258.03125 548.761719 C 253.730469 550.316406 249.398438 551.773438 245.300781 553.203125 C 245.300781 547.703125 245.378906 542.34375 245.28125 536.988281 C 245.042969 523.78125 244.828125 510.574219 244.347656 497.378906 C 244.253906 494.898438 242.984375 492.460938 242.257812 490.007812 L 240.671875 490.035156 C 239.265625 497.890625 237.859375 505.742188 236.46875 513.523438 C 235.015625 513.523438 233.617188 513.332031 232.308594 513.597656 C 231.566406 513.746094 230.726562 514.535156 230.417969 515.246094 C 230.265625 515.59375 231.121094 516.800781 231.710938 516.972656 C 235.492188 518.078125 236.09375 520.328125 235.714844 524.144531 C 234.65625 534.835938 234.222656 545.585938 233.507812 556.84375 C 230.300781 557.769531 226.445312 558.582031 222.824219 559.992188 C 216.59375 562.417969 210.476562 565.144531 204.398438 567.929688 C 203.316406 568.421875 202.640625 569.800781 202.171875 571.386719 C 211.949219 567.003906 221.867188 563.824219 232.511719 562.777344 C 233.664062 564.300781 234.792969 566.109375 236.234375 567.621094 C 237.976562 569.4375 240.316406 570.585938 242.457031 568.609375 C 244.382812 566.835938 243.136719 564.722656 241.898438 562.914062 C 241.488281 562.316406 241.0625 561.726562 240.527344 560.972656 C 280.011719 551.371094 315.265625 532.589844 350.730469 512.753906 C 350.085938 528.484375 350.988281 543.46875 361.148438 556.386719 C 325.375 583.207031 287.925781 606.960938 248.828125 628.804688 C 248.535156 627.765625 248.539062 626.914062 248.117188 626.453125 C 247.296875 625.570312 246.28125 624.382812 245.269531 624.308594 C 244.3125 624.234375 242.972656 625.207031 242.316406 626.101562 C 241.535156 627.167969 240.894531 628.644531 240.914062 629.933594 C 240.957031 633.082031 238.992188 634.234375 236.601562 635.386719 C 229.503906 638.796875 222.625 642.71875 215.371094 645.742188 C 200.476562 651.949219 188.199219 647.800781 179.601562 634.132812 C 173.96875 625.179688 170.898438 615.171875 168.371094 605.054688 C 165.894531 595.148438 164.074219 585.082031 162 575.082031 C 161.789062 574.070312 161.8125 573.007812 161.734375 572.03125 C 164.582031 571.613281 167.210938 571.300781 169.804688 570.824219 C 172.25 570.375 173.730469 568.902344 173.023438 566.328125 C 172.328125 563.796875 170.582031 562.761719 167.871094 563.660156 C 165.664062 564.390625 163.390625 564.933594 160.632812 565.699219 C 160.210938 559.535156 159.613281 553.550781 159.425781 547.554688 C 158.78125 526.890625 160.796875 506.460938 165.152344 486.25 C 165.609375 484.128906 166.3125 482.703125 168.796875 482.265625 C 171.710938 481.753906 174.519531 480.648438 177.378906 479.820312 C 180.007812 479.058594 181.355469 476.992188 180.394531 474.796875 C 179.371094 472.472656 177.496094 471.78125 175.148438 472.875 C 172.742188 473.996094 170.382812 475.207031 167.609375 476.574219 C 168.28125 474.078125 168.851562 471.71875 169.542969 469.394531 C 177.242188 443.585938 187.976562 419.230469 204.214844 397.550781 C 211.324219 388.0625 220 380.234375 230.160156 374.089844 C 230.796875 373.703125 231.453125 373.347656 232.113281 373.003906 C 232.273438 372.921875 232.484375 372.9375 233.558594 372.773438 C 216.683594 389.257812 206.414062 407.527344 213.082031 431.546875 Z M 205.734375 617.394531 C 207.765625 615.972656 209.589844 615.175781 210.726562 613.808594 C 214.804688 608.902344 215.96875 602.742188 217.441406 596.761719 C 217.589844 596.148438 217.0625 594.875 216.585938 594.722656 C 215.964844 594.523438 214.933594 594.953125 214.34375 595.4375 C 212.949219 596.570312 211.726562 597.910156 210.414062 599.144531 C 207.625 601.765625 204.71875 604.277344 202.058594 607.023438 C 200.300781 608.839844 199.714844 611.351562 201.082031 613.503906 C 202.046875 615.027344 203.949219 615.957031 205.734375 617.394531 Z M 187.136719 514.234375 C 186.953125 514.511719 186.765625 514.792969 186.578125 515.070312 C 187.066406 515.957031 187.449219 516.925781 188.0625 517.714844 C 192.226562 523.078125 197.996094 526.230469 204.054688 528.832031 C 207.132812 530.15625 209.875 528.761719 210.75 525.984375 C 211.597656 523.300781 210.320312 521.070312 207.125 519.960938 C 202.53125 518.359375 197.925781 516.78125 193.269531 515.363281 C 191.292969 514.761719 189.1875 514.597656 187.136719 514.234375 Z M 269.019531 522.082031 C 264.292969 522.144531 260.855469 524.539062 258.078125 528.160156 C 256.726562 529.921875 257.121094 531.347656 258.976562 532.34375 C 262.515625 534.25 266.257812 535.289062 270.3125 534.457031 C 274.117188 533.671875 276.1875 530.976562 275.769531 527.460938 C 275.375 524.121094 272.851562 522.121094 269.019531 522.082031 Z M 296.398438 578.722656 C 299.183594 578.515625 300.875 577.238281 301.234375 574.890625 C 301.625 572.332031 300.0625 570.746094 297.769531 569.804688 C 293.847656 568.195312 289.964844 566.496094 286.007812 564.984375 C 285.167969 564.664062 284.085938 564.972656 283.117188 564.988281 C 283.210938 565.878906 283.035156 566.917969 283.4375 567.636719 C 285.988281 572.207031 289.601562 575.738281 294.308594 578.082031 C 295.050781 578.453125 295.910156 578.578125 296.398438 578.722656 Z M 350.980469 448.847656 L 350.980469 448.488281 C 348.644531 448.488281 346.296875 448.367188 343.972656 448.546875 C 343.003906 448.621094 342.085938 449.335938 341.144531 449.761719 C 341.875 450.550781 342.464844 451.71875 343.367188 452.066406 C 347.917969 453.808594 352.53125 455.394531 357.164062 456.917969 C 360.019531 457.859375 361.78125 456.800781 362.253906 454.101562 C 362.730469 451.367188 361.375 449.449219 358.628906 449.21875 C 356.085938 449 353.53125 448.964844 350.980469 448.847656 Z M 322.308594 513.933594 C 325.425781 514.214844 327.367188 511.691406 325.769531 509.628906 C 323.0625 506.144531 319.742188 503.125 316.578125 500.015625 C 316.246094 499.691406 314.878906 499.820312 314.597656 500.191406 C 314.167969 500.761719 313.90625 501.917969 314.207031 502.492188 C 315.960938 505.84375 317.804688 509.15625 319.847656 512.335938 C 320.40625 513.207031 321.738281 513.582031 322.308594 513.933594 Z M 322.308594 513.933594 "/>
<path style=" stroke:none;fill-rule:nonzero;fill:rgb(100%,100%,100%);fill-opacity:1;" d="M 324.402344 319.261719 C 326.277344 320.910156 328.125 322.589844 330.039062 324.191406 C 331.179688 325.144531 332.320312 326.21875 333.65625 326.773438 C 334.496094 327.125 335.695312 326.617188 336.730469 326.492188 C 336.523438 325.574219 336.585938 324.4375 336.050781 323.789062 C 335.046875 322.570312 333.710938 321.625 332.492188 320.585938 C 330.707031 319.070312 329 317.433594 327.09375 316.085938 C 315.878906 308.140625 313.875 295.832031 311.570312 283.644531 C 310.042969 275.59375 310.050781 267.867188 316.371094 261.550781 C 319.464844 258.464844 322.628906 255.449219 325.859375 252.503906 C 334.125 244.964844 342.523438 237.566406 350.710938 229.941406 C 354.378906 226.53125 359.113281 225.125 363.359375 222.957031 C 367.769531 220.703125 373 219.996094 377.921875 218.816406 C 379.75 218.378906 381.816406 218.84375 383.59375 218.296875 C 384.9375 217.882812 386.792969 216.644531 386.964844 215.542969 C 387.175781 214.21875 385.867188 212.636719 385.152344 211.199219 C 384.992188 210.878906 384.570312 210.6875 383.984375 210.199219 C 392.199219 206.558594 398.402344 200.753906 404.671875 194.96875 C 406.808594 192.992188 409.703125 191.839844 412.953125 189.894531 C 410.410156 197.765625 407.625 204.464844 399.988281 208.023438 C 404.339844 208.71875 409.621094 206.566406 414.167969 202.628906 C 419.523438 197.992188 424.964844 193.453125 430.875 188.441406 C 427.347656 194.8125 424.109375 200.660156 420.875 206.511719 L 421.578125 206.976562 C 430.144531 201.539062 436.378906 193.863281 442.261719 185.554688 C 439.738281 193.085938 437.214844 200.613281 434.691406 208.144531 C 434.855469 208.371094 435.015625 208.597656 435.175781 208.824219 C 437.167969 207.308594 439.183594 205.824219 441.148438 204.273438 C 443.136719 202.699219 445.070312 201.054688 447.195312 199.304688 C 447.195312 201.359375 447.285156 203.765625 447.179688 206.160156 C 446.238281 227.777344 445.453125 249.410156 444.203125 271.011719 C 443.730469 279.167969 442.714844 287.378906 440.992188 295.359375 C 435.042969 322.898438 410.082031 332.558594 391.910156 331.671875 C 381.578125 331.167969 372.101562 327.921875 362.953125 323.347656 C 361.640625 322.691406 359.804688 322.308594 358.476562 322.695312 C 357.511719 322.976562 356.375 324.769531 356.417969 325.84375 C 356.46875 327.070312 357.457031 328.695312 358.527344 329.367188 C 365.269531 333.605469 372.632812 336.335938 380.460938 337.859375 C 388.707031 339.464844 396.957031 339.507812 405.171875 337.960938 C 409.097656 353.472656 413.289062 368.625 421.175781 382.445312 C 421.492188 383 421.664062 383.667969 422.078125 384.128906 C 426.242188 388.753906 424.417969 392.730469 421.203125 397.027344 C 413.46875 407.375 403.28125 414.261719 391.375 418.734375 C 368.484375 427.332031 345.429688 428.140625 322.285156 419.648438 C 321.3125 419.289062 320.386719 418.796875 319.183594 418.253906 C 324.207031 411.164062 328.988281 404.242188 333.953125 397.457031 C 346.332031 380.519531 346.6875 362.78125 337.472656 344.488281 C 333.5 336.601562 329.105469 328.921875 324.90625 321.148438 C 324.621094 320.617188 324.347656 320.078125 324.066406 319.542969 C 324.179688 319.449219 324.289062 319.355469 324.402344 319.261719 Z M 401.96875 307.628906 C 407.332031 307.441406 412.496094 305.503906 416.835938 301.496094 C 419.40625 299.125 419.714844 296.632812 417.699219 294.574219 C 415.660156 292.492188 413.800781 292.679688 411.179688 295.230469 C 404.820312 301.414062 396.855469 301.542969 390.382812 295.457031 C 388.765625 293.9375 387.46875 292.074219 385.921875 290.464844 C 385.476562 290 384.472656 289.484375 384.074219 289.683594 C 383.449219 290 382.859375 290.859375 382.734375 291.570312 C 382.578125 292.46875 382.796875 293.476562 383.03125 294.390625 C 384.902344 301.691406 393.097656 307.554688 401.96875 307.628906 Z M 407.566406 284.792969 C 413.992188 284.894531 419.140625 280.242188 419.8125 273.71875 C 420.476562 267.300781 416.570312 261.925781 410.175781 260.726562 C 409.257812 260.554688 408.171875 261.304688 407.164062 261.625 C 407.578125 262.484375 407.839844 263.476562 408.441406 264.167969 C 409.824219 265.757812 411.632812 267.023438 412.800781 268.738281 C 414.84375 271.726562 414.710938 274.960938 412.746094 276.976562 C 410.386719 279.402344 407.566406 279.324219 404.800781 277.90625 C 402.449219 276.703125 400.238281 275.21875 398.015625 273.777344 C 396.109375 272.542969 394.523438 272.960938 393.382812 274.722656 C 392.269531 276.433594 392.359375 278.234375 394.128906 279.53125 C 398.132812 282.464844 402.425781 284.730469 407.566406 284.792969 Z M 432.640625 244.976562 C 431.554688 241.949219 430.914062 238.992188 429.492188 236.480469 C 427.628906 233.195312 423.847656 233.132812 421.464844 235.925781 C 417.894531 240.121094 417.863281 249.441406 421.40625 253.59375 C 423.828125 256.425781 427.164062 256.625 429.152344 253.519531 C 430.753906 251.015625 431.472656 247.945312 432.640625 244.976562 Z M 385.523438 244.351562 C 384.503906 241.425781 383.96875 238.410156 382.484375 235.96875 C 380.273438 232.316406 376.328125 232.605469 373.933594 236.183594 C 371.039062 240.511719 371.089844 248.289062 374.042969 252.566406 C 376.476562 256.09375 380.421875 256.238281 382.578125 252.527344 C 383.96875 250.132812 384.515625 247.246094 385.523438 244.351562 Z M 418.136719 209.140625 C 414.835938 208.898438 413.042969 209.792969 412.671875 212.359375 C 412.28125 215.085938 413.800781 216.503906 416.386719 216.949219 C 418.058594 217.238281 419.808594 217.316406 421.394531 217.863281 C 426.695312 219.683594 431.921875 221.710938 437.214844 223.5625 C 438.117188 223.878906 439.191406 223.703125 440.1875 223.757812 C 439.984375 222.6875 439.9375 221.554688 439.53125 220.574219 C 439.179688 219.722656 438.476562 218.984375 437.824219 218.296875 C 432.242188 212.429688 424.835938 210.601562 418.136719 209.140625 Z M 418.136719 209.140625 "/>
<path style=" stroke:none;fill-rule:nonzero;fill:rgb(100%,100%,100%);fill-opacity:1;" d="M 407.402344 485.773438 C 430.515625 485.015625 453.632812 483.902344 476.707031 486.425781 C 477.207031 486.480469 477.675781 486.796875 479.082031 487.355469 C 476.152344 488.476562 474.035156 489.671875 471.769531 490.09375 C 461.839844 491.941406 451.839844 493.429688 441.917969 495.320312 C 434.933594 496.652344 428.019531 498.371094 421.097656 500.015625 C 419.5 500.398438 417.695312 501.375 418.636719 503.289062 C 419.15625 504.347656 421.023438 505.332031 422.292969 505.347656 C 438.613281 505.519531 454.933594 505.5 471.253906 505.558594 C 472.246094 505.5625 473.234375 505.816406 474.222656 505.957031 C 474.292969 506.320312 474.363281 506.6875 474.433594 507.050781 C 472.972656 507.597656 471.550781 508.320312 470.042969 508.660156 C 454.289062 512.214844 438.292969 513.824219 422.183594 514.519531 C 421.144531 514.566406 419.441406 515.320312 419.253906 516.050781 C 418.648438 518.460938 420.621094 518.523438 422.25 518.417969 C 430.117188 517.910156 437.976562 517.335938 445.839844 516.773438 C 446.78125 516.707031 447.714844 516.566406 448.859375 516.433594 C 444.65625 524.109375 437.496094 526.367188 429.914062 527.902344 C 427.621094 528.367188 425.308594 528.761719 422.996094 529.132812 C 417.15625 530.070312 412.945312 532.984375 409.898438 538.253906 C 408.417969 540.820312 405.648438 543.363281 402.902344 544.347656 C 393.714844 547.628906 384.371094 550.316406 374.480469 551.238281 C 370.191406 551.636719 368.898438 549.65625 367.363281 547.046875 C 363.242188 540.046875 362.492188 532.148438 361.652344 524.304688 C 361.265625 520.707031 361.175781 517.074219 360.789062 513.472656 C 360.347656 509.363281 361.539062 506.226562 364.683594 503.269531 C 371.132812 497.214844 377.238281 490.789062 383.3125 484.355469 C 388.105469 479.285156 393.550781 475.410156 400.324219 473.503906 C 411.585938 470.335938 422.902344 467.339844 434.066406 463.863281 C 441.167969 461.648438 448.207031 461.289062 455.425781 462.613281 C 456.148438 462.746094 457.039062 462.84375 457.511719 463.308594 C 458.726562 464.5 460.632812 465.910156 460.597656 467.1875 C 460.566406 468.449219 458.703125 470.195312 457.261719 470.765625 C 454.9375 471.683594 452.3125 472.132812 449.796875 472.222656 C 436.058594 472.714844 423.207031 476.652344 410.734375 482.066406 C 409.324219 482.679688 408.191406 483.929688 406.929688 484.882812 C 407.085938 485.179688 407.246094 485.476562 407.402344 485.773438 Z M 407.402344 485.773438 "/>
<path style=" stroke:none;fill-rule:nonzero;fill:rgb(100%,100%,100%);fill-opacity:1;" d="M 524.683594 405.625 C 512.152344 432.535156 499.757812 459.148438 487.382812 485.722656 C 486.621094 485.59375 486.101562 485.664062 485.832031 485.4375 C 480.867188 481.242188 474.78125 481.546875 468.878906 481.230469 C 452.550781 480.363281 436.253906 480.582031 420.050781 483.113281 C 419.542969 483.191406 419.015625 483.121094 418.496094 483.121094 C 418.4375 482.839844 418.375 482.554688 418.316406 482.273438 C 421.601562 481.5 424.851562 480.476562 428.179688 480 C 436.8125 478.769531 445.492188 477.882812 454.121094 476.628906 C 456.695312 476.253906 459.363281 475.492188 461.625 474.246094 C 464.957031 472.40625 466.324219 469.25 466.007812 465.339844 C 465.679688 461.332031 463.621094 458.601562 459.839844 457.835938 C 455.921875 457.042969 451.855469 456.929688 447.84375 456.683594 C 445.980469 456.570312 444.097656 456.847656 442.179688 456.949219 C 443.15625 450.941406 449.410156 447.496094 449.261719 441.351562 C 448.921875 441.09375 448.578125 440.832031 448.234375 440.574219 C 447.152344 441.664062 445.714844 442.578125 445.0625 443.882812 C 443.546875 446.921875 441.835938 450.046875 441.265625 453.324219 C 440.59375 457.191406 438.257812 457.867188 435.195312 458.128906 C 434.386719 458.199219 433.566406 458.140625 432.527344 458.140625 C 435.484375 451.953125 438.273438 446.023438 441.152344 440.140625 C 446.246094 429.722656 451.464844 419.367188 456.5 408.921875 C 458.847656 404.054688 462.015625 401.285156 467.917969 401.710938 C 486.308594 403.042969 504.71875 404.027344 523.125 405.164062 C 523.625 405.195312 524.117188 405.453125 524.683594 405.625 Z M 470.199219 414.144531 C 468.753906 412.554688 467.84375 410.683594 466.667969 410.5 C 465.429688 410.300781 463.75 411.503906 462.609375 412.496094 C 461.625 413.351562 461.007812 414.710938 460.433594 415.945312 C 459.285156 418.425781 457.75 420.902344 457.402344 423.515625 C 457.199219 425.0625 458.675781 427.175781 459.984375 428.40625 C 460.476562 428.871094 463.34375 427.984375 463.902344 427.011719 C 466.179688 423.03125 467.988281 418.777344 470.199219 414.144531 Z M 470.199219 414.144531 "/>
<path style=" stroke:none;fill-rule:nonzero;fill:rgb(100%,100%,100%);fill-opacity:1;" d="M 273.566406 430.0625 C 279.613281 437.382812 281.636719 446.21875 284.457031 454.851562 C 280.082031 456.519531 275.441406 458.289062 270.425781 460.199219 C 267.757812 449.628906 268.90625 439.679688 273.566406 430.0625 Z M 273.566406 430.0625 "/>
<path style=" stroke:none;fill-rule:nonzero;fill:rgb(100%,100%,100%);fill-opacity:1;" d="M 482.625 491.460938 C 480.667969 495.132812 478.6875 498.847656 477.101562 501.828125 C 465.832031 501.464844 455.050781 501.117188 444.265625 500.769531 L 444.203125 500.554688 C 448.460938 499.910156 452.734375 499.351562 456.972656 498.597656 C 461.261719 497.835938 465.585938 497.121094 469.773438 495.953125 C 474.046875 494.761719 478.167969 493.042969 482.625 491.460938 Z M 482.625 491.460938 "/>
<path style=" stroke:none;fill-rule:nonzero;fill:rgb(100%,100%,100%);fill-opacity:1;" d="M 388.160156 196.992188 C 381.25 203.300781 375.601562 210.949219 365.902344 214.617188 C 371.863281 206.308594 377.976562 199.238281 388.160156 196.992188 Z M 388.160156 196.992188 "/>
<path style=" stroke:none;fill-rule:nonzero;fill:rgb(100%,100%,100%);fill-opacity:1;" d="M 450.8125 516.234375 C 454.003906 515.679688 457.199219 515.148438 460.386719 514.558594 C 463.609375 513.964844 466.820312 513.3125 470.085938 512.675781 C 468.742188 516.347656 468.535156 516.527344 465.101562 516.546875 C 460.332031 516.570312 455.566406 516.554688 450.796875 516.554688 C 450.800781 516.449219 450.804688 516.339844 450.8125 516.234375 Z M 450.8125 516.234375 "/>
<path style=" stroke:none;fill-rule:nonzero;fill:rgb(0%,0%,0%);fill-opacity:1;" d="M 205.734375 617.394531 C 203.949219 615.957031 202.046875 615.027344 201.082031 613.503906 C 199.714844 611.351562 200.300781 608.839844 202.058594 607.023438 C 204.71875 604.277344 207.625 601.765625 210.414062 599.144531 C 211.726562 597.910156 212.949219 596.570312 214.34375 595.4375 C 214.933594 594.953125 215.964844 594.523438 216.585938 594.722656 C 217.0625 594.875 217.589844 596.148438 217.441406 596.761719 C 215.96875 602.742188 214.804688 608.902344 210.726562 613.808594 C 209.589844 615.175781 207.765625 615.972656 205.734375 617.394531 Z M 205.734375 617.394531 "/>
<path style=" stroke:none;fill-rule:nonzero;fill:rgb(0%,0%,0%);fill-opacity:1;" d="M 187.136719 514.234375 C 189.1875 514.597656 191.292969 514.761719 193.269531 515.363281 C 197.925781 516.78125 202.53125 518.359375 207.125 519.960938 C 210.320312 521.070312 211.597656 523.300781 210.75 525.984375 C 209.875 528.761719 207.132812 530.15625 204.054688 528.832031 C 197.996094 526.230469 192.226562 523.078125 188.0625 517.714844 C 187.449219 516.925781 187.066406 515.957031 186.578125 515.070312 C 186.765625 514.792969 186.953125 514.511719 187.136719 514.234375 Z M 187.136719 514.234375 "/>
<path style=" stroke:none;fill-rule:nonzero;fill:rgb(0%,0%,0%);fill-opacity:1;" d="M 269.019531 522.082031 C 272.851562 522.121094 275.375 524.121094 275.769531 527.460938 C 276.1875 530.976562 274.117188 533.671875 270.3125 534.457031 C 266.257812 535.289062 262.515625 534.25 258.976562 532.34375 C 257.121094 531.347656 256.726562 529.921875 258.078125 528.160156 C 260.855469 524.539062 264.292969 522.144531 269.019531 522.082031 Z M 269.019531 522.082031 "/>
<path style=" stroke:none;fill-rule:nonzero;fill:rgb(0%,0%,0%);fill-opacity:1;" d="M 296.398438 578.722656 C 295.910156 578.578125 295.050781 578.453125 294.308594 578.082031 C 289.601562 575.738281 285.988281 572.207031 283.4375 567.636719 C 283.035156 566.917969 283.210938 565.878906 283.117188 564.988281 C 284.085938 564.972656 285.167969 564.664062 286.007812 564.984375 C 289.964844 566.496094 293.847656 568.195312 297.769531 569.804688 C 300.0625 570.746094 301.625 572.332031 301.234375 574.890625 C 300.875 577.238281 299.183594 578.515625 296.398438 578.722656 Z M 296.398438 578.722656 "/>
<path style=" stroke:none;fill-rule:nonzero;fill:rgb(0%,0%,0%);fill-opacity:1;" d="M 350.980469 448.847656 C 353.53125 448.964844 356.085938 449 358.628906 449.21875 C 361.375 449.449219 362.730469 451.367188 362.253906 454.101562 C 361.78125 456.800781 360.019531 457.859375 357.164062 456.917969 C 352.53125 455.394531 347.917969 453.808594 343.367188 452.066406 C 342.464844 451.71875 341.875 450.550781 341.144531 449.761719 C 342.085938 449.335938 343.003906 448.621094 343.972656 448.546875 C 346.296875 448.367188 348.644531 448.488281 350.980469 448.488281 Z M 350.980469 448.847656 "/>
<path style=" stroke:none;fill-rule:nonzero;fill:rgb(0%,0%,0%);fill-opacity:1;" d="M 322.308594 513.933594 C 321.738281 513.582031 320.40625 513.207031 319.847656 512.335938 C 317.804688 509.15625 315.960938 505.84375 314.207031 502.492188 C 313.90625 501.917969 314.167969 500.761719 314.597656 500.191406 C 314.878906 499.820312 316.246094 499.691406 316.578125 500.015625 C 319.742188 503.125 323.0625 506.144531 325.769531 509.628906 C 327.367188 511.691406 325.425781 514.214844 322.308594 513.933594 Z M 322.308594 513.933594 "/>
<path style=" stroke:none;fill-rule:nonzero;fill:rgb(0%,0%,0%);fill-opacity:1;" d="M 401.96875 307.628906 C 393.097656 307.554688 384.902344 301.691406 383.03125 294.390625 C 382.796875 293.476562 382.578125 292.46875 382.734375 291.570312 C 382.859375 290.859375 383.449219 290 384.074219 289.683594 C 384.472656 289.484375 385.476562 290 385.921875 290.464844 C 387.46875 292.074219 388.765625 293.9375 390.382812 295.457031 C 396.855469 301.542969 404.820312 301.414062 411.179688 295.230469 C 413.800781 292.679688 415.660156 292.492188 417.699219 294.574219 C 419.714844 296.632812 419.40625 299.125 416.835938 301.496094 C 412.496094 305.503906 407.332031 307.441406 401.96875 307.628906 Z M 401.96875 307.628906 "/>
<path style=" stroke:none;fill-rule:nonzero;fill:rgb(0%,0%,0%);fill-opacity:1;" d="M 407.566406 284.792969 C 402.425781 284.730469 398.132812 282.464844 394.128906 279.53125 C 392.359375 278.234375 392.269531 276.433594 393.382812 274.722656 C 394.523438 272.960938 396.109375 272.542969 398.015625 273.777344 C 400.238281 275.21875 402.449219 276.703125 404.800781 277.910156 C 407.566406 279.324219 410.386719 279.402344 412.746094 276.976562 C 414.710938 274.960938 414.84375 271.726562 412.800781 268.738281 C 411.632812 267.023438 409.824219 265.757812 408.441406 264.167969 C 407.839844 263.476562 407.578125 262.484375 407.164062 261.625 C 408.171875 261.304688 409.257812 260.554688 410.175781 260.726562 C 416.570312 261.925781 420.476562 267.300781 419.8125 273.71875 C 419.140625 280.242188 413.992188 284.894531 407.566406 284.792969 Z M 407.566406 284.792969 "/>
<path style=" stroke:none;fill-rule:nonzero;fill:rgb(0%,0%,0%);fill-opacity:1;" d="M 432.640625 244.976562 C 431.472656 247.945312 430.753906 251.015625 429.152344 253.519531 C 427.164062 256.625 423.828125 256.425781 421.40625 253.59375 C 417.863281 249.441406 417.894531 240.121094 421.464844 235.925781 C 423.847656 233.132812 427.628906 233.195312 429.492188 236.480469 C 430.914062 238.992188 431.554688 241.949219 432.640625 244.976562 Z M 432.640625 244.976562 "/>
<path style=" stroke:none;fill-rule:nonzero;fill:rgb(0%,0%,0%);fill-opacity:1;" d="M 385.523438 244.351562 C 384.515625 247.246094 383.96875 250.132812 382.578125 252.527344 C 380.421875 256.238281 376.476562 256.09375 374.042969 252.570312 C 371.089844 248.289062 371.039062 240.511719 373.933594 236.183594 C 376.328125 232.605469 380.273438 232.316406 382.484375 235.96875 C 383.96875 238.410156 384.503906 241.425781 385.523438 244.351562 Z M 385.523438 244.351562 "/>
<path style=" stroke:none;fill-rule:nonzero;fill:rgb(0%,0%,0%);fill-opacity:1;" d="M 418.136719 209.140625 C 424.835938 210.601562 432.242188 212.429688 437.824219 218.296875 C 438.476562 218.984375 439.179688 219.722656 439.53125 220.574219 C 439.9375 221.554688 439.984375 222.6875 440.1875 223.757812 C 439.191406 223.703125 438.117188 223.878906 437.214844 223.5625 C 431.921875 221.710938 426.695312 219.683594 421.394531 217.863281 C 419.808594 217.316406 418.058594 217.238281 416.386719 216.949219 C 413.800781 216.503906 412.28125 215.085938 412.671875 212.359375 C 413.042969 209.792969 414.835938 208.898438 418.136719 209.140625 Z M 418.136719 209.140625 "/>
<path style=" stroke:none;fill-rule:nonzero;fill:rgb(0%,0%,0%);fill-opacity:1;" d="M 470.199219 414.144531 C 467.988281 418.777344 466.179688 423.03125 463.902344 427.011719 C 463.34375 427.984375 460.476562 428.871094 459.984375 428.40625 C 458.675781 427.175781 457.199219 425.0625 457.402344 423.515625 C 457.75 420.902344 459.285156 418.425781 460.433594 415.945312 C 461.007812 414.710938 461.625 413.351562 462.609375 412.496094 C 463.75 411.503906 465.429688 410.300781 466.667969 410.5 C 467.84375 410.683594 468.753906 412.554688 470.199219 414.144531 Z M 470.199219 414.144531 "/>
</g>
</svg>
