<?xml version="1.0" encoding="UTF-8"?>
<svg xmlns="http://www.w3.org/2000/svg" xmlns:xlink="http://www.w3.org/1999/xlink" width="px" height="px" viewBox="0 0 120 162" version="1.1">
<g id="surface1">
<path style=" stroke:none;fill-rule:evenodd;fill:rgb(100%,100%,100%);fill-opacity:1;" d="M 85.238281 90.5625 C 84.320312 90.234375 83.4375 89.855469 82.632812 89.300781 C 80.308594 87.570312 78.796875 84.96875 77.367188 82.503906 C 75.351562 78.917969 73.914062 75.097656 72.921875 71.109375 C 72.496094 69.398438 72.351562 67.414062 71.382812 65.894531 C 69.183594 62.714844 62.746094 63.125 59.324219 63.683594 C 57.035156 64.089844 56.5625 66.652344 56.042969 68.550781 C 55.609375 70.128906 55.324219 71.722656 55.085938 73.335938 C 54.519531 73.710938 53.882812 74.011719 53.273438 74.277344 C 46.632812 76.3125 45.464844 80.089844 42.929688 85.921875 C 38.644531 94.398438 27.023438 97.71875 25.265625 107.753906 C 24.136719 114.378906 27.351562 120.609375 30.667969 126.117188 C 33.757812 132.132812 38.070312 135.019531 44.9375 133.597656 C 51.378906 132.152344 57.566406 129.734375 63.894531 127.867188 C 66.960938 127.113281 70.019531 125.152344 73.242188 125.835938 C 79.886719 127.328125 86.710938 128.027344 93.519531 127.835938 C 103.078125 128.222656 103.074219 119.042969 102.09375 111.9375 C 101.40625 100.878906 95.832031 93.777344 85.238281 90.5625 Z M 85.238281 90.5625 "/>
<path style=" stroke:none;fill-rule:evenodd;fill:rgb(0%,0%,0%);fill-opacity:1;" d="M 85.878906 106.566406 C 86.675781 107.09375 87.347656 107.894531 87.886719 108.738281 C 85.636719 108.503906 83.390625 108.234375 81.148438 107.925781 C 81.441406 107.738281 81.738281 107.554688 82.039062 107.382812 C 83.144531 106.757812 84.644531 105.75 85.878906 106.566406 Z M 48.476562 113.222656 C 48.0625 113.0625 47.902344 112.433594 47.742188 112.070312 C 47.238281 110.941406 46.777344 109.789062 46.300781 108.648438 C 48.117188 108.128906 49.882812 107.554688 51.765625 107.277344 C 53.789062 106.980469 55.84375 106.910156 57.886719 106.976562 C 62.027344 107.113281 66.125 107.789062 70.195312 108.511719 C 74.257812 109.238281 78.320312 109.933594 82.414062 110.480469 C 86.421875 111.015625 90.445312 111.40625 94.472656 111.75 C 95.257812 111.816406 96.5625 112.101562 97.191406 111.484375 C 97.691406 110.996094 97.707031 110.09375 97.082031 109.699219 C 96.695312 109.449219 96.128906 109.449219 95.6875 109.390625 C 95.128906 109.320312 94.566406 109.269531 94.003906 109.234375 C 93.773438 109.21875 93.546875 109.203125 93.316406 109.191406 C 95.15625 108.496094 97.078125 108.117188 99.074219 108.222656 C 99.183594 108.910156 99.695312 109.613281 99.972656 110.179688 C 100.457031 111.167969 100.835938 112.164062 101.085938 113.238281 C 101.605469 115.480469 101.625 117.808594 101.480469 120.097656 C 101.34375 122.003906 101.054688 124.117188 99.558594 125.46875 C 98.425781 126.488281 96.828125 126.867188 95.347656 126.988281 C 93.625 127.125 91.875 126.976562 90.167969 126.746094 C 87.769531 126.421875 85.363281 125.996094 83.015625 125.421875 C 78.464844 124.308594 74.101562 122.539062 70.078125 120.136719 C 68.117188 118.96875 66.246094 117.648438 64.257812 116.523438 C 62.230469 115.375 60.074219 114.488281 57.808594 113.933594 C 55.273438 113.316406 52.625 113.050781 50.019531 113.203125 C 49.566406 113.230469 48.914062 113.394531 48.476562 113.222656 Z M 45.539062 112.074219 C 45.804688 112.9375 46.007812 113.925781 46.578125 114.652344 C 47.140625 115.371094 47.988281 115.625 48.867188 115.691406 C 49.929688 115.765625 51.003906 115.71875 52.066406 115.757812 C 54.246094 115.839844 56.398438 116.191406 58.484375 116.84375 C 60.425781 117.449219 62.230469 118.394531 63.96875 119.441406 C 65.574219 120.410156 67.132812 121.453125 68.738281 122.417969 C 68.3125 122.613281 67.890625 122.828125 67.464844 123.011719 C 66.574219 123.398438 65.675781 123.773438 64.773438 124.136719 C 62.996094 124.855469 61.210938 125.558594 59.410156 126.207031 C 55.773438 127.523438 52.078125 128.667969 48.335938 129.648438 C 46.554688 130.113281 44.746094 130.65625 42.890625 130.734375 C 41.25 130.804688 39.726562 130.339844 38.402344 129.363281 C 35.652344 127.335938 33.464844 124.410156 31.699219 121.523438 C 30.648438 119.808594 29.730469 118.003906 28.972656 116.140625 C 28.589844 115.199219 28.242188 114.242188 27.929688 113.277344 C 27.78125 112.820312 27.640625 112.363281 27.511719 111.90625 C 27.453125 111.703125 27.398438 111.5 27.339844 111.296875 C 30.152344 110.441406 32.996094 109.664062 35.90625 109.234375 C 37.460938 109.007812 39.035156 108.890625 40.609375 108.90625 C 41.386719 108.914062 42.167969 108.957031 42.941406 109.039062 C 43.359375 109.082031 43.777344 109.136719 44.191406 109.207031 C 44.363281 109.234375 44.539062 109.277344 44.714844 109.308594 C 44.984375 110.230469 45.253906 111.15625 45.539062 112.074219 Z M 103.640625 108.402344 C 103.792969 108.09375 103.855469 107.792969 103.910156 107.460938 C 103.953125 107.203125 104.0625 106.847656 103.964844 106.515625 C 103.859375 106.144531 103.566406 105.816406 103.355469 105.5 C 103.121094 105.148438 102.890625 104.800781 102.65625 104.453125 C 102.191406 103.753906 101.730469 103.054688 101.265625 102.355469 C 99.375 99.496094 97.5 96.628906 95.621094 93.765625 C 93.953125 91.226562 92.3125 88.660156 90.59375 86.152344 C 89.125 84.007812 87.523438 81.898438 85.511719 80.234375 C 82.96875 78.125 79.9375 77.132812 76.773438 76.355469 C 76.429688 75.996094 75.96875 75.800781 75.472656 75.839844 C 74.777344 75.050781 74.222656 74.496094 73.972656 73.492188 C 73.851562 73.011719 73.890625 71.65625 73.421875 71.371094 C 72.863281 71.035156 72.574219 71.480469 72.417969 71.988281 C 71.90625 73.675781 72.496094 75.949219 73.851562 77.640625 C 73.28125 79.617188 72.523438 82.429688 71.167969 84.011719 C 69.722656 85.707031 67.71875 86.238281 65.558594 86.269531 C 61.433594 86.335938 57.316406 84.804688 54.175781 82.148438 C 53.21875 81.34375 52.332031 80.441406 51.527344 79.480469 C 50.925781 78.761719 50.214844 77.652344 49.742188 76.8125 C 49.742188 76.488281 49.355469 76.144531 53.285156 75.878906 C 57.214844 75.617188 57.511719 70.234375 57.601562 69.503906 C 57.671875 68.90625 57.972656 67.984375 57.554688 67.5 C 57.375 67.292969 57.011719 67.261719 56.785156 67.398438 C 56.359375 67.664062 56.222656 68.339844 56.085938 68.796875 C 55.898438 69.441406 55.289062 73.425781 54.128906 73.886719 C 53.585938 74.105469 52.964844 74.109375 52.390625 74.148438 C 51.679688 74.199219 50.96875 74.234375 50.261719 74.316406 C 50.003906 74.347656 49.71875 74.433594 49.460938 74.433594 C 49.292969 74.4375 49.121094 74.355469 48.960938 74.296875 C 48.414062 74.105469 47.871094 74.25 47.308594 74.324219 C 42.339844 74.992188 37.222656 76.515625 32.984375 79.261719 C 29.25 81.679688 26.617188 85.15625 24.882812 89.222656 C 23.109375 93.371094 22.09375 97.855469 21.242188 102.273438 C 20.957031 103.753906 20.707031 105.242188 20.496094 106.730469 C 20.289062 108.171875 20.03125 109.648438 19.96875 111.101562 C 19.941406 111.679688 20.082031 112.214844 20.292969 112.742188 C 20.53125 113.332031 21.09375 113.566406 21.636719 113.84375 C 22.824219 114.449219 24.074219 114.921875 25.363281 115.253906 C 26.152344 116.691406 26.816406 118.179688 27.347656 119.726562 C 27.152344 120.117188 27.148438 120.703125 27.109375 121.085938 C 27.015625 122.035156 26.976562 122.988281 26.964844 123.941406 C 26.949219 125.851562 27.0625 127.757812 27.152344 129.664062 C 27.246094 131.601562 27.546875 139.230469 27.597656 140.164062 C 27.636719 140.886719 27.585938 141.902344 27.964844 142.542969 C 28.550781 143.53125 29.996094 143.496094 30.667969 142.695312 C 47.308594 146.277344 78.585938 145.199219 91.183594 143.398438 C 92.820312 143.164062 92.308594 143.421875 92.722656 143.007812 C 93.035156 142.699219 93.304688 142.164062 93.390625 141.738281 C 93.503906 141.164062 93.320312 140.648438 92.992188 140.183594 C 92.648438 139.699219 92.585938 138.910156 92.457031 138.335938 C 92.15625 136.96875 92.003906 130.964844 91.863281 130.300781 C 91.820312 130.09375 91.777344 129.875 91.726562 129.65625 C 94.035156 129.875 96.445312 129.875 98.644531 129.101562 C 99.890625 128.664062 101.050781 127.972656 101.945312 126.992188 C 103.03125 125.800781 103.632812 124.300781 103.945312 122.738281 C 104.34375 120.71875 104.429688 118.628906 104.351562 116.578125 C 104.242188 114.15625 103.839844 111.699219 102.839844 109.472656 C 103.167969 109.167969 103.445312 108.800781 103.640625 108.402344 Z M 103.640625 108.402344 "/>
<path style=" stroke:none;fill-rule:evenodd;fill:rgb(100%,100%,100%);fill-opacity:1;" d="M 52.015625 21.824219 C 58.675781 21.460938 64.570312 19.589844 69.257812 23.777344 C 74.308594 20 77.257812 18.832031 78.101562 20.269531 C 78.949219 21.714844 77.773438 23.65625 78.089844 25.4375 C 80.144531 28.945312 80.027344 34.875 80.144531 36.265625 C 80.4375 39.769531 82.28125 52.953125 82.28125 56.082031 C 82.28125 57.679688 80.964844 61.867188 80.144531 64.195312 C 78.316406 69.378906 74.832031 72.019531 69.117188 72.019531 C 63.402344 72.019531 54.074219 67.242188 51.085938 63 C 50.820312 62.628906 49.125 63.714844 47.351562 61.832031 C 45.433594 59.792969 44.367188 55.90625 44.367188 53.585938 C 44.367188 50.644531 42.464844 48.605469 42.6875 44.84375 C 43.179688 36.433594 44.894531 22.214844 52.015625 21.824219 Z M 52.015625 21.824219 "/>
<path style=" stroke:none;fill-rule:evenodd;fill:rgb(0%,0%,0%);fill-opacity:1;" d="M 51.273438 12.050781 C 51.359375 12.042969 51.449219 12.046875 51.535156 12.058594 C 51.632812 12.0625 51.726562 12.070312 51.824219 12.089844 C 52.3125 12.183594 52.75 12.441406 53.085938 12.808594 C 53.097656 12.816406 53.105469 12.828125 53.113281 12.835938 C 53.269531 12.957031 53.417969 13.089844 53.550781 13.234375 C 53.574219 13.210938 53.59375 13.191406 53.621094 13.167969 C 53.691406 13.105469 53.761719 13.050781 53.839844 12.992188 C 54.15625 12.722656 54.53125 12.523438 54.933594 12.410156 L 54.988281 12.394531 C 54.996094 12.390625 55.007812 12.390625 55.019531 12.386719 C 55.304688 12.292969 55.605469 12.242188 55.90625 12.246094 C 56.265625 12.234375 56.628906 12.292969 56.96875 12.433594 C 57.367188 12.597656 57.714844 12.859375 58.007812 13.175781 C 58.203125 13.332031 58.371094 13.503906 58.546875 13.691406 C 58.914062 14.085938 59.203125 14.542969 59.386719 15.046875 C 59.410156 15.121094 59.433594 15.191406 59.453125 15.265625 C 59.898438 15.214844 60.347656 15.175781 60.796875 15.160156 C 61.300781 15.128906 61.804688 15.117188 62.308594 15.132812 C 63.703125 15.179688 65.0625 15.425781 66.378906 15.875 C 66.644531 15.953125 66.898438 16.050781 67.148438 16.171875 C 67.535156 16.328125 67.902344 16.523438 68.246094 16.761719 L 68.542969 16.9375 C 68.6875 17.023438 68.835938 17.113281 68.980469 17.207031 C 69.320312 17.425781 69.644531 17.667969 69.949219 17.933594 C 70.273438 18.195312 70.578125 18.480469 70.871094 18.777344 C 70.949219 18.855469 71.023438 18.9375 71.101562 19.019531 C 71.769531 19.382812 72.363281 19.84375 72.917969 20.398438 C 73.359375 20.144531 73.816406 19.914062 74.285156 19.710938 C 74.769531 19.5 75.386719 19.285156 75.894531 19.140625 C 76.351562 19.011719 76.800781 18.925781 77.257812 18.859375 C 77.464844 18.824219 77.675781 18.796875 77.886719 18.773438 L 77.878906 18.777344 C 78.027344 18.757812 78.171875 18.746094 78.320312 18.734375 L 78.316406 18.730469 C 78.378906 18.726562 78.445312 18.722656 78.507812 18.71875 L 78.664062 18.703125 C 78.710938 18.699219 78.777344 18.808594 78.78125 18.847656 L 78.785156 18.886719 C 78.820312 18.925781 78.851562 18.96875 78.875 18.996094 C 78.902344 18.992188 78.929688 18.992188 78.957031 18.988281 C 79.039062 18.984375 79.132812 19.128906 79.183594 19.183594 L 79.226562 19.238281 C 79.277344 19.296875 79.328125 19.367188 79.335938 19.441406 C 79.390625 19.882812 79.441406 20.320312 79.488281 20.761719 C 79.503906 21.09375 79.488281 21.421875 79.429688 21.75 C 79.390625 22.066406 79.347656 22.382812 79.304688 22.699219 C 79.238281 22.921875 79.171875 23.144531 79.105469 23.363281 C 79.078125 23.449219 79.050781 23.53125 79.019531 23.617188 C 78.851562 24.175781 78.652344 24.714844 78.417969 25.242188 C 78.589844 25.433594 78.75 25.628906 78.898438 25.835938 C 78.933594 25.871094 78.972656 25.90625 79.003906 25.945312 C 79.015625 25.929688 79.027344 25.917969 79.042969 25.910156 C 79.09375 25.886719 79.128906 25.914062 79.164062 25.957031 C 79.496094 26.273438 79.738281 26.644531 79.886719 27.070312 L 79.980469 27.289062 C 79.996094 27.328125 80.011719 27.363281 80.027344 27.402344 C 80.144531 27.722656 80.238281 28.054688 80.3125 28.386719 C 80.382812 28.648438 80.429688 28.914062 80.460938 29.183594 C 80.691406 29.953125 80.871094 30.734375 81.039062 31.507812 C 81.066406 31.628906 81.054688 31.738281 81.015625 31.832031 L 81.117188 31.929688 L 81.285156 32.097656 C 81.570312 32.382812 81.863281 32.683594 82.074219 33.023438 C 82.292969 33.375 82.457031 33.75 82.636719 34.121094 L 82.675781 34.203125 L 82.753906 34.359375 C 82.839844 34.535156 82.878906 34.628906 82.957031 34.839844 C 83.082031 35.191406 83.148438 35.542969 83.179688 35.914062 C 83.226562 36.453125 83.21875 37.042969 82.984375 37.542969 C 82.984375 37.546875 82.980469 37.550781 82.980469 37.554688 C 82.871094 38.039062 82.605469 38.488281 82.199219 38.777344 C 82.113281 38.859375 82.019531 38.929688 81.921875 38.988281 C 81.683594 39.128906 81.464844 39.140625 81.203125 39.078125 L 81.171875 39.066406 C 81.136719 39.058594 81.109375 39.050781 81.082031 39.046875 C 81.121094 39.082031 81.144531 39.121094 81.082031 39.152344 C 81.019531 39.179688 80.964844 39.199219 80.914062 39.203125 C 80.933594 39.234375 80.9375 39.265625 80.890625 39.289062 C 80.789062 39.34375 80.707031 39.359375 80.621094 39.34375 L 80.640625 39.492188 C 80.777344 40.605469 80.902344 40.824219 81.011719 42.019531 C 81.082031 43.242188 81.195312 44.460938 81.355469 45.675781 L 81.410156 46.117188 C 81.582031 47.515625 81.777344 48.921875 82.078125 50.296875 C 82.226562 50.898438 82.359375 51.503906 82.46875 52.113281 C 82.621094 52.578125 82.730469 53.054688 82.792969 53.539062 C 82.878906 54.03125 82.941406 54.527344 82.972656 55.027344 C 83.097656 55.347656 83.15625 55.671875 83.152344 56.003906 C 83.167969 56.449219 83.152344 56.894531 83.105469 57.339844 C 83.078125 57.800781 83.015625 58.253906 82.914062 58.707031 C 82.824219 59.328125 82.660156 59.925781 82.425781 60.507812 C 82.238281 61.15625 82.007812 61.792969 81.746094 62.417969 C 81.339844 63.378906 80.847656 64.273438 80.289062 65.15625 C 79.765625 65.984375 79.203125 66.78125 78.5625 67.523438 C 77.730469 68.480469 76.785156 69.355469 75.75 70.097656 C 75.15625 70.535156 74.53125 70.925781 73.878906 71.261719 C 73.082031 71.675781 72.269531 72.046875 71.40625 72.296875 C 70.863281 72.453125 70.316406 72.5625 69.757812 72.644531 C 68.667969 72.804688 67.539062 72.78125 66.441406 72.589844 C 65.734375 72.496094 65.035156 72.332031 64.378906 72.097656 C 63.835938 71.902344 63.324219 71.679688 62.808594 71.425781 C 62.542969 71.300781 62.285156 71.152344 62.042969 70.984375 C 61.628906 70.71875 61.242188 70.414062 60.882812 70.082031 C 60.765625 69.980469 60.652344 69.878906 60.542969 69.769531 C 60.488281 69.722656 60.515625 69.652344 60.578125 69.636719 L 60.597656 69.632812 C 60.574219 69.613281 60.546875 69.589844 60.523438 69.566406 C 60.519531 69.5625 60.515625 69.558594 60.511719 69.550781 C 60.5 69.539062 60.484375 69.53125 60.476562 69.519531 C 60.433594 69.484375 60.476562 69.402344 60.511719 69.382812 C 60.523438 69.378906 60.542969 69.375 60.5625 69.378906 C 60.558594 69.375 60.554688 69.371094 60.550781 69.367188 C 60.546875 69.363281 60.546875 69.355469 60.546875 69.347656 L 60.53125 69.335938 C 60.476562 69.289062 60.503906 69.21875 60.570312 69.199219 C 60.597656 69.191406 60.652344 69.195312 60.703125 69.207031 L 60.722656 69.210938 L 60.6875 69.175781 C 60.625 69.121094 60.644531 69.0625 60.722656 69.042969 C 60.78125 69.046875 60.839844 69.054688 60.894531 69.066406 L 60.9375 69.078125 C 60.960938 69.085938 60.980469 69.089844 61 69.097656 C 60.964844 69.0625 60.929688 69.03125 60.894531 69 C 60.859375 68.96875 60.894531 68.882812 60.925781 68.863281 C 60.972656 68.839844 61.054688 68.871094 61.09375 68.902344 C 61.191406 68.914062 61.316406 68.953125 61.363281 68.996094 C 61.492188 69.117188 61.625 69.234375 61.757812 69.347656 C 61.839844 69.375 61.917969 69.40625 61.976562 69.457031 C 62.128906 69.605469 62.285156 69.742188 62.449219 69.875 L 62.570312 69.960938 C 62.589844 69.972656 62.613281 69.988281 62.632812 70 C 62.863281 70.136719 63.097656 70.273438 63.328125 70.410156 C 64.175781 70.695312 65.023438 70.984375 65.871094 71.269531 L 65.984375 71.304688 L 66.808594 71.40625 C 67.347656 71.460938 67.890625 71.457031 68.429688 71.394531 C 68.835938 71.402344 69.238281 71.363281 69.636719 71.277344 C 70.308594 71.164062 70.96875 70.996094 71.609375 70.761719 C 72.351562 70.492188 73.054688 70.136719 73.742188 69.753906 C 73.988281 69.617188 74.230469 69.46875 74.472656 69.316406 C 74.546875 69.261719 74.625 69.203125 74.703125 69.148438 C 75.210938 68.765625 75.695312 68.359375 76.164062 67.929688 C 76.382812 67.726562 76.59375 67.515625 76.800781 67.296875 C 76.828125 67.265625 76.855469 67.234375 76.886719 67.203125 C 77.082031 66.992188 77.269531 66.769531 77.449219 66.542969 L 77.625 66.347656 C 78.316406 65.480469 78.9375 64.550781 79.492188 63.59375 C 80.042969 62.640625 80.496094 61.644531 80.859375 60.609375 C 80.976562 60.238281 81.078125 59.867188 81.160156 59.488281 C 81.316406 59.03125 81.417969 58.566406 81.46875 58.089844 C 81.484375 57.996094 81.496094 57.90625 81.507812 57.8125 L 81.515625 57.664062 C 81.515625 57.640625 81.515625 57.617188 81.519531 57.59375 C 81.539062 57.445312 81.558594 57.296875 81.570312 57.148438 C 81.578125 57 81.585938 56.851562 81.585938 56.703125 L 81.574219 55.789062 C 81.570312 55.757812 81.566406 55.730469 81.566406 55.699219 L 81.542969 55.496094 C 81.492188 55.082031 81.453125 54.664062 81.402344 54.246094 C 81.402344 54.246094 81.402344 54.242188 81.402344 54.238281 C 81.382812 54.082031 81.363281 53.925781 81.339844 53.769531 C 81.328125 53.679688 81.3125 53.585938 81.296875 53.492188 L 81.273438 53.328125 C 81.222656 53.046875 81.164062 52.765625 81.089844 52.488281 L 81.058594 52.367188 L 80.875 51.445312 L 80.667969 50.535156 C 80.535156 49.925781 80.421875 49.308594 80.332031 48.691406 C 80.171875 47.703125 80.035156 46.714844 79.917969 45.722656 C 79.910156 45.675781 79.902344 45.628906 79.898438 45.578125 C 79.777344 44.660156 79.6875 43.734375 79.632812 42.808594 C 79.554688 41.894531 79.511719 40.980469 79.5 40.066406 C 79.5 40.023438 79.527344 39.988281 79.558594 39.972656 L 79.554688 39.792969 C 79.550781 39.640625 79.546875 39.824219 79.546875 39.648438 L 79.546875 39.160156 C 79.546875 39.117188 79.546875 39.089844 79.546875 39.089844 C 78.980469 39.128906 78.601562 39.09375 78.058594 39.066406 L 77.964844 39.0625 C 77.464844 39.039062 76.96875 38.984375 76.476562 38.902344 C 76.472656 38.925781 76.457031 38.945312 76.429688 38.949219 C 76.378906 38.953125 76.332031 38.953125 76.28125 38.953125 L 76.300781 39.023438 C 76.300781 39.058594 76.285156 39.078125 76.25 39.089844 L 76.109375 39.09375 C 75.921875 39.101562 75.734375 39.105469 75.546875 39.082031 C 75.378906 39.058594 75.214844 39.019531 75.050781 38.972656 C 74.953125 38.957031 74.847656 38.933594 74.746094 38.902344 C 74.476562 38.828125 74.210938 38.722656 73.941406 38.640625 C 73.667969 38.582031 73.386719 38.5625 73.09375 38.632812 C 72.789062 38.707031 72.527344 38.839844 72.203125 38.757812 C 72.136719 38.742188 72.078125 38.71875 72.015625 38.691406 L 71.957031 38.6875 C 71.945312 38.6875 71.9375 38.6875 71.925781 38.683594 C 71.589844 38.636719 71.289062 38.421875 70.96875 38.308594 C 70.855469 38.28125 70.746094 38.289062 70.636719 38.332031 L 70.609375 38.34375 L 70.503906 38.425781 C 70.460938 38.476562 70.417969 38.527344 70.375 38.578125 L 70.3125 38.65625 C 70.195312 38.796875 70.074219 38.925781 69.925781 39.019531 C 69.746094 39.183594 69.53125 39.28125 69.277344 39.289062 C 69.132812 39.292969 68.988281 39.261719 68.851562 39.21875 C 68.324219 39.378906 67.761719 39.414062 67.234375 39.253906 C 67.027344 39.222656 66.824219 39.167969 66.628906 39.078125 C 66.535156 39.039062 66.445312 38.988281 66.355469 38.933594 C 65.984375 39.089844 65.632812 39.300781 65.277344 39.480469 L 65.195312 39.519531 C 64.828125 39.703125 64.425781 39.878906 64.011719 39.855469 C 63.488281 39.820312 62.976562 39.75 62.464844 39.664062 C 62.460938 39.664062 62.457031 39.660156 62.453125 39.660156 L 62.382812 39.648438 L 62.125 39.601562 L 61.917969 39.566406 L 61.8125 39.605469 C 60.96875 39.925781 60.039062 40.175781 59.1875 39.953125 C 58.816406 39.90625 58.46875 39.78125 58.15625 39.570312 C 58.144531 39.5625 58.136719 39.554688 58.125 39.546875 C 58.074219 39.519531 58.027344 39.492188 57.988281 39.460938 L 57.980469 39.453125 L 57.964844 39.445312 C 57.503906 39.230469 57.238281 38.777344 57.285156 38.269531 C 57.253906 38.105469 57.253906 37.949219 57.289062 37.777344 C 57.136719 37.957031 56.980469 38.132812 56.824219 38.308594 C 56.253906 39 55.695312 39.699219 55.175781 40.433594 L 55.054688 40.601562 C 54.769531 41.003906 54.507812 41.421875 54.261719 41.851562 C 54.011719 42.273438 53.757812 42.691406 53.496094 43.105469 C 53.152344 43.484375 52.824219 43.871094 52.503906 44.269531 L 52.367188 44.441406 L 51.910156 45.042969 C 51.585938 45.429688 51.316406 45.847656 51.105469 46.304688 C 50.929688 46.628906 50.769531 46.960938 50.625 47.300781 C 50.578125 47.402344 50.535156 47.503906 50.488281 47.609375 C 50.339844 48.015625 50.214844 48.425781 50.117188 48.851562 C 50.039062 49.160156 49.980469 49.472656 49.949219 49.789062 L 49.9375 49.894531 C 49.925781 50.019531 49.914062 50.144531 49.910156 50.269531 C 49.941406 50.285156 49.964844 50.304688 49.984375 50.324219 L 50.0625 50.351562 L 50.125 50.367188 C 50.222656 50.398438 50.390625 50.460938 50.347656 50.539062 L 50.144531 50.925781 C 50.167969 50.949219 50.175781 50.972656 50.164062 51 C 50.027344 51.257812 49.890625 51.519531 49.75 51.78125 C 49.746094 51.789062 49.738281 51.796875 49.734375 51.804688 C 49.851562 51.855469 49.964844 51.917969 50.074219 51.980469 C 50.285156 52.109375 50.441406 52.253906 50.585938 52.425781 C 50.738281 52.515625 50.882812 52.617188 51.015625 52.730469 C 51.183594 52.90625 51.328125 53.097656 51.453125 53.304688 C 51.566406 53.503906 51.660156 53.707031 51.730469 53.921875 C 51.765625 54.035156 51.777344 54.152344 51.777344 54.273438 C 51.648438 55.175781 50.617188 54.554688 50.597656 54.476562 C 50.457031 53.929688 50.292969 53.585938 49.929688 53.179688 L 49.917969 53.175781 C 49.707031 53.082031 49.5 52.988281 49.28125 52.917969 C 49.246094 52.925781 49.210938 52.929688 49.179688 52.933594 C 49.21875 52.988281 49.199219 53.039062 49.121094 53.050781 C 48.789062 53.117188 48.453125 53.132812 48.113281 53.105469 L 47.601562 53.03125 C 47.386719 53.113281 47.183594 53.21875 46.992188 53.34375 L 46.929688 53.386719 L 46.917969 53.394531 C 46.421875 53.792969 46.039062 54.324219 45.777344 54.898438 C 45.753906 54.949219 45.730469 55.003906 45.710938 55.054688 L 45.679688 55.132812 L 45.675781 55.136719 C 45.335938 56.484375 45.640625 57.960938 46.265625 59.179688 C 46.605469 59.726562 46.960938 60.261719 47.335938 60.789062 L 47.695312 61.261719 C 47.910156 61.460938 48.117188 61.667969 48.324219 61.878906 C 48.355469 61.910156 48.386719 61.941406 48.421875 61.972656 C 48.53125 62.042969 48.640625 62.105469 48.75 62.160156 C 48.792969 62.175781 48.839844 62.1875 48.882812 62.199219 C 49.097656 62.304688 49.324219 62.359375 49.5625 62.363281 C 49.875 62.386719 50.179688 62.347656 50.476562 62.253906 L 50.535156 62.234375 L 50.578125 62.21875 C 50.738281 62.117188 50.886719 61.988281 51.027344 61.839844 C 51.058594 61.804688 51.121094 61.804688 51.1875 61.824219 C 51.222656 61.785156 51.261719 61.746094 51.296875 61.703125 C 51.320312 61.675781 51.359375 61.675781 51.386719 61.695312 C 51.488281 61.683594 51.757812 61.839844 51.6875 61.917969 C 51.675781 61.9375 51.664062 61.957031 51.648438 61.972656 C 51.699219 61.996094 51.746094 62.023438 51.789062 62.054688 C 52.007812 62.117188 52.335938 62.335938 52.308594 62.402344 L 52.308594 62.410156 C 52.253906 62.507812 52.1875 62.585938 52.105469 62.652344 L 52.078125 62.671875 L 52.015625 62.714844 C 52.105469 62.769531 52.179688 62.835938 52.140625 62.878906 C 52.125 62.910156 52.105469 62.945312 52.085938 62.972656 C 52.265625 63.195312 52.441406 63.417969 52.621094 63.640625 C 52.796875 64.027344 53.019531 64.386719 53.28125 64.71875 C 53.5 65.082031 53.761719 65.40625 54.070312 65.695312 C 54.09375 65.71875 54.121094 65.742188 54.144531 65.769531 C 54.371094 65.9375 54.609375 66.09375 54.855469 66.242188 L 54.960938 66.308594 C 55.019531 66.339844 55.113281 66.382812 55.066406 66.464844 C 55.0625 66.476562 55.054688 66.484375 55.050781 66.488281 C 55.203125 66.589844 55.363281 66.6875 55.53125 66.777344 L 55.546875 66.785156 C 55.609375 66.824219 55.695312 66.898438 55.605469 66.957031 C 55.527344 67.007812 55.328125 66.871094 55.230469 66.808594 C 55.214844 66.808594 55.191406 66.804688 55.171875 66.796875 C 55.203125 66.8125 55.234375 66.832031 55.265625 66.847656 L 55.3125 66.875 C 55.351562 66.898438 55.53125 67.019531 55.40625 67.070312 C 55.34375 67.074219 55.285156 67.058594 55.234375 67.023438 C 55.171875 66.992188 55.109375 66.960938 55.050781 66.925781 C 55.070312 66.957031 55.070312 66.992188 55.019531 67.011719 C 55 67.011719 54.984375 67.011719 54.964844 67.011719 C 55.089844 67.089844 55.21875 67.164062 55.347656 67.234375 L 55.371094 67.246094 C 55.425781 67.28125 55.515625 67.351562 55.449219 67.410156 C 55.378906 67.476562 55.175781 67.335938 55.125 67.304688 L 54.972656 67.210938 C 54.960938 67.21875 54.945312 67.21875 54.933594 67.222656 C 54.980469 67.25 55.023438 67.28125 55.070312 67.308594 L 55.136719 67.34375 C 55.214844 67.386719 55.332031 67.460938 55.289062 67.535156 C 55.246094 67.609375 55.125 67.546875 55.042969 67.5 L 54.960938 67.449219 C 54.957031 67.445312 54.953125 67.441406 54.949219 67.441406 L 54.945312 67.453125 C 54.945312 67.457031 54.941406 67.457031 54.941406 67.460938 C 54.902344 67.527344 54.800781 67.484375 54.734375 67.445312 L 54.679688 67.410156 C 54.585938 67.355469 54.492188 67.296875 54.398438 67.242188 L 54.261719 67.15625 C 53.785156 66.871094 53.34375 66.585938 52.929688 66.21875 C 52.679688 65.996094 52.449219 65.765625 52.230469 65.515625 C 51.789062 65.019531 51.457031 64.449219 51.140625 63.867188 C 51.136719 63.859375 51.144531 63.835938 51.15625 63.808594 C 51.121094 63.734375 51.085938 63.664062 51.054688 63.589844 C 50.730469 63.679688 50.367188 63.707031 50.03125 63.683594 C 49.851562 63.671875 49.671875 63.640625 49.496094 63.59375 C 48.933594 63.515625 48.390625 63.257812 47.921875 62.949219 C 47.890625 62.929688 47.867188 62.910156 47.839844 62.890625 C 47.644531 62.78125 47.460938 62.65625 47.289062 62.511719 C 46.945312 62.230469 46.621094 61.917969 46.328125 61.589844 C 46.113281 61.335938 45.914062 61.074219 45.722656 60.800781 C 45.53125 60.53125 45.335938 60.261719 45.144531 59.992188 C 44.601562 59.148438 44.257812 58.171875 44.125 57.179688 C 44.058594 56.8125 44.023438 56.441406 44.03125 56.070312 C 44.035156 55.804688 44.066406 55.535156 44.117188 55.265625 C 44.085938 55.234375 44.058594 55.203125 44.027344 55.175781 C 44.007812 55.203125 43.992188 55.226562 43.980469 55.214844 L 43.738281 54.972656 C 43.566406 54.796875 43.453125 54.671875 43.253906 54.390625 C 42.941406 53.945312 42.707031 53.453125 42.53125 52.933594 C 42.40625 52.566406 42.324219 52.144531 42.289062 51.738281 C 42.277344 51.671875 42.269531 51.601562 42.261719 51.53125 C 42.191406 50.980469 42.253906 50.453125 42.339844 49.910156 C 42.34375 49.875 42.363281 49.851562 42.386719 49.839844 C 42.390625 49.796875 42.398438 49.753906 42.40625 49.710938 C 41.707031 48.96875 41.203125 48.074219 41.246094 46.996094 C 41.257812 46.65625 41.328125 46.320312 41.460938 46.007812 L 41.476562 45.972656 C 40.890625 45.882812 40.429688 45.472656 40.082031 44.964844 C 40.050781 44.941406 40.019531 44.917969 39.992188 44.890625 C 39.367188 44.359375 38.9375 43.605469 38.640625 42.8125 C 38.429688 42.351562 38.289062 41.855469 38.230469 41.34375 C 38.226562 41.308594 38.222656 41.273438 38.21875 41.234375 C 38.074219 40.425781 38.039062 39.609375 38.105469 38.804688 C 37.960938 38.304688 37.84375 37.796875 37.761719 37.277344 C 37.722656 37.03125 37.699219 36.785156 37.675781 36.535156 L 37.675781 36.523438 L 37.671875 36.476562 L 37.664062 36.367188 C 37.660156 36.347656 37.660156 36.332031 37.660156 36.3125 C 37.480469 34.046875 37.988281 31.820312 38.824219 29.722656 C 38.898438 29.535156 38.972656 29.347656 39.050781 29.160156 L 39.132812 28.964844 C 39.972656 27.613281 41.234375 26.515625 42.300781 25.359375 C 42.667969 24.960938 42.074219 24.359375 41.703125 24.761719 C 40.992188 25.53125 40.230469 26.265625 39.546875 27.054688 C 39.421875 27.066406 39.300781 27.070312 39.179688 27.0625 C 38.96875 27.050781 38.765625 27.019531 38.566406 26.964844 C 38.070312 26.890625 37.621094 26.691406 37.210938 26.398438 C 36.660156 26.140625 36.195312 25.660156 36.148438 25.03125 C 36.140625 24.96875 36.144531 24.90625 36.148438 24.84375 C 36.097656 24.535156 36.140625 24.214844 36.269531 23.917969 C 36.292969 23.835938 36.320312 23.753906 36.355469 23.675781 C 36.460938 23.441406 36.632812 23.214844 36.84375 23.0625 C 36.847656 23.058594 36.855469 23.054688 36.859375 23.050781 C 36.878906 23.027344 36.902344 23.003906 36.925781 22.984375 C 36.960938 22.953125 37 22.921875 37.039062 22.894531 C 36.898438 22.65625 36.769531 22.417969 36.660156 22.160156 C 36.539062 21.882812 36.476562 21.597656 36.445312 21.300781 C 36.429688 21.179688 36.425781 21.0625 36.421875 20.945312 C 36.417969 20.890625 36.414062 20.835938 36.40625 20.78125 C 36.382812 20.363281 36.429688 19.929688 36.585938 19.539062 C 36.597656 19.507812 36.613281 19.480469 36.625 19.449219 C 36.65625 19.359375 36.6875 19.269531 36.730469 19.183594 C 36.886719 18.851562 37.105469 18.570312 37.378906 18.339844 C 37.527344 18.1875 37.695312 18.058594 37.875 17.945312 C 37.980469 17.878906 38.101562 17.820312 38.230469 17.769531 C 38.460938 17.648438 38.75 17.539062 38.988281 17.53125 C 39.019531 17.53125 39.042969 17.535156 39.070312 17.535156 C 39.09375 16.925781 39.171875 16.265625 39.410156 15.71875 C 39.550781 15.320312 39.757812 14.964844 40.074219 14.710938 C 40.257812 14.519531 40.480469 14.363281 40.761719 14.261719 L 40.8125 14.246094 L 40.832031 14.242188 C 41.085938 14.117188 41.355469 14.070312 41.636719 14.070312 C 41.964844 14.054688 42.296875 14.117188 42.582031 14.265625 C 42.640625 14.296875 42.703125 14.335938 42.761719 14.378906 C 42.808594 14.289062 42.859375 14.195312 42.917969 14.105469 C 43.121094 13.777344 43.367188 13.492188 43.652344 13.234375 C 43.6875 13.203125 43.722656 13.175781 43.757812 13.144531 C 43.898438 13.019531 44.042969 12.90625 44.195312 12.796875 C 44.523438 12.570312 44.886719 12.398438 45.261719 12.289062 C 45.699219 12.128906 46.160156 12.054688 46.621094 12.070312 L 46.714844 12.074219 C 46.738281 12.074219 46.757812 12.078125 46.777344 12.078125 C 47.238281 12.109375 47.6875 12.21875 48.117188 12.386719 C 48.566406 12.566406 48.945312 12.832031 49.296875 13.140625 C 49.378906 13.023438 49.472656 12.917969 49.585938 12.816406 C 49.621094 12.785156 49.65625 12.761719 49.6875 12.734375 C 49.710938 12.710938 49.738281 12.683594 49.765625 12.660156 C 49.890625 12.550781 50.023438 12.453125 50.171875 12.367188 C 50.335938 12.273438 50.511719 12.207031 50.695312 12.164062 C 50.878906 12.101562 51.074219 12.0625 51.273438 12.050781 Z M 49.101562 55.613281 C 49.121094 55.613281 50.101562 55.980469 50.585938 56.21875 L 50.613281 56.230469 C 51.171875 56.507812 51.445312 56.707031 51.949219 57.066406 C 51.984375 57.089844 52.015625 57.128906 52.015625 57.164062 C 52.015625 57.6875 51.890625 58.324219 51.453125 58.042969 C 51.390625 58 51.324219 57.960938 51.261719 57.921875 L 51.164062 57.863281 L 51.160156 57.863281 C 51.160156 57.863281 51.164062 57.863281 51.164062 57.863281 C 50.210938 57.28125 49.199219 56.824219 48.136719 56.496094 C 48.0625 56.46875 48.601562 55.652344 48.75 55.699219 C 48.664062 55.664062 49.089844 55.613281 49.101562 55.613281 Z M 59.136719 32.566406 C 58.5 32.636719 57.867188 32.703125 57.230469 32.769531 C 56.828125 32.816406 56.421875 32.855469 56.015625 32.890625 C 55.40625 32.9375 54.796875 32.945312 54.1875 32.859375 C 53.972656 32.832031 53.761719 32.789062 53.554688 32.734375 C 53.410156 32.839844 53.261719 32.9375 53.113281 33.035156 L 51.433594 34.316406 C 50.308594 35.203125 49.207031 36.140625 48.21875 37.171875 C 46.488281 38.980469 45.078125 41.09375 44.191406 43.4375 C 44.109375 43.484375 44.050781 43.566406 44.027344 43.695312 C 43.871094 44.65625 43.414062 45.53125 43.25 46.488281 C 43.085938 47.429688 43.300781 48.230469 43.894531 48.976562 C 44.019531 49.136719 44.277344 49.125 44.4375 49.019531 C 44.472656 49.089844 44.632812 49.089844 44.691406 48.769531 C 44.953125 48.484375 45.179688 48.183594 45.332031 47.816406 C 45.441406 47.542969 45.253906 47.355469 45.023438 47.316406 C 45.121094 46.976562 45.226562 46.636719 45.347656 46.300781 C 45.703125 45.300781 46.160156 44.347656 46.730469 43.453125 C 47.234375 42.667969 47.816406 41.984375 48.441406 41.296875 C 48.449219 41.289062 48.460938 41.285156 48.472656 41.28125 L 48.605469 41.136719 C 48.621094 41.117188 48.660156 41.121094 48.699219 41.132812 C 48.738281 41.089844 48.777344 41.046875 48.816406 41.007812 C 48.855469 40.964844 48.898438 40.976562 48.925781 41.011719 C 48.992188 40.996094 49.113281 41.066406 49.148438 41.089844 C 49.210938 41.132812 49.234375 41.179688 49.179688 41.242188 C 49.167969 41.25 49.160156 41.261719 49.152344 41.273438 C 49.222656 41.300781 49.296875 41.34375 49.351562 41.382812 C 49.546875 41.425781 49.820312 41.609375 49.773438 41.664062 C 49.671875 41.765625 49.578125 41.875 49.480469 41.984375 C 49.566406 42.042969 49.621094 42.101562 49.597656 42.125 C 49.183594 42.558594 48.804688 43.019531 48.457031 43.507812 C 48.191406 43.871094 47.953125 44.25 47.738281 44.644531 C 47.417969 45.199219 47.148438 45.773438 46.90625 46.363281 C 46.875 46.453125 46.839844 46.542969 46.808594 46.632812 C 46.460938 47.617188 46.195312 48.632812 46.085938 49.671875 L 46.082031 49.742188 C 46.0625 50.117188 46.050781 51.117188 46.015625 51.355469 C 46.246094 51.46875 46.492188 51.570312 46.742188 51.648438 C 46.789062 51.664062 46.839844 51.675781 46.886719 51.6875 C 46.914062 51.675781 46.945312 51.664062 46.972656 51.65625 C 47.203125 51.5625 47.449219 51.496094 47.695312 51.464844 C 47.863281 51.441406 48.03125 51.433594 48.195312 51.4375 L 48.265625 51.441406 C 48.339844 51.441406 48.414062 51.449219 48.488281 51.457031 C 48.484375 51.414062 48.480469 51.371094 48.480469 51.328125 C 48.457031 51.316406 48.441406 51.296875 48.441406 51.273438 C 48.390625 50.796875 48.390625 50.320312 48.4375 49.84375 C 48.46875 49.597656 48.507812 49.347656 48.546875 49.101562 C 48.585938 48.898438 48.636719 48.699219 48.6875 48.5 C 48.824219 47.941406 49.007812 47.394531 49.230469 46.859375 C 49.859375 45.332031 50.765625 43.957031 51.675781 42.589844 C 52.339844 41.59375 52.96875 40.570312 53.65625 39.589844 C 54.242188 38.753906 54.855469 37.929688 55.511719 37.148438 C 56.167969 36.367188 56.859375 35.617188 57.605469 34.921875 C 57.726562 34.8125 57.847656 34.703125 57.972656 34.597656 C 58.679688 33.960938 59.449219 33.441406 60.25 32.929688 C 60.28125 32.910156 60.335938 32.933594 60.378906 32.96875 L 60.507812 32.890625 C 60.53125 32.878906 60.554688 32.863281 60.574219 32.851562 C 60.59375 32.839844 60.617188 32.859375 60.628906 32.878906 C 60.683594 32.847656 60.738281 32.820312 60.792969 32.792969 C 60.832031 32.761719 60.875 32.730469 60.914062 32.699219 C 60.320312 32.667969 59.726562 32.625 59.136719 32.566406 Z M 66.582031 25.523438 C 66.105469 25.425781 65.621094 25.414062 65.136719 25.484375 C 64.933594 25.515625 64.734375 25.550781 64.535156 25.59375 C 64.988281 25.988281 65.351562 26.496094 65.589844 27.082031 C 65.847656 27.710938 64.824219 27.984375 64.570312 27.363281 C 64.328125 26.761719 63.867188 26.300781 63.308594 26.027344 C 63.1875 26.09375 63.074219 26.164062 62.960938 26.246094 C 62.816406 26.363281 62.679688 26.492188 62.550781 26.632812 C 62.269531 26.9375 62.011719 27.347656 61.839844 27.75 C 61.777344 27.96875 61.726562 28.195312 61.695312 28.429688 C 61.691406 28.480469 61.683594 28.535156 61.679688 28.589844 C 61.574219 29.683594 61.886719 30.746094 62.425781 31.6875 L 62.445312 31.6875 C 62.925781 31.429688 63.429688 31.210938 63.945312 31.03125 C 64.359375 30.75 64.789062 30.492188 65.230469 30.261719 C 66.171875 29.765625 67.167969 29.382812 68.191406 29.117188 L 68.308594 29.089844 C 68.550781 29.027344 68.792969 28.972656 69.039062 28.925781 L 69.183594 28.898438 L 69.1875 28.898438 L 69.171875 28.742188 C 69.089844 28.121094 68.847656 27.546875 68.535156 27.019531 C 68.300781 26.617188 67.945312 26.207031 67.554688 25.878906 L 67.550781 25.878906 C 67.371094 25.777344 67.183594 25.695312 66.992188 25.625 L 66.917969 25.597656 Z M 53.707031 24.582031 C 52.710938 24.488281 51.710938 24.5 50.714844 24.582031 C 50.0625 24.644531 49.414062 24.734375 48.769531 24.847656 C 48.335938 24.921875 47.90625 25.03125 47.488281 25.160156 L 47.726562 25.648438 C 48.128906 26.457031 48.539062 27.261719 49.027344 28.027344 C 49.277344 28.421875 49.546875 28.796875 49.84375 29.15625 C 50.042969 29.414062 50.261719 29.652344 50.503906 29.875 C 50.566406 29.949219 50.632812 30.023438 50.703125 30.09375 C 50.921875 30.28125 51.160156 30.449219 51.417969 30.582031 C 51.625 30.734375 51.84375 30.867188 52.070312 30.984375 L 52.152344 31.027344 L 52.945312 31.328125 C 52.988281 31.339844 53.03125 31.355469 53.074219 31.363281 L 53.136719 31.382812 L 53.257812 31.40625 L 53.347656 31.359375 C 53.363281 31.351562 53.378906 31.339844 53.394531 31.332031 C 53.421875 31.320312 53.4375 31.347656 53.445312 31.367188 C 53.445312 31.375 53.441406 31.382812 53.4375 31.394531 L 53.550781 31.332031 C 53.75 31.414062 53.960938 31.476562 54.1875 31.519531 C 54.289062 31.539062 54.390625 31.554688 54.496094 31.566406 L 54.507812 31.574219 C 54.511719 31.578125 54.511719 31.578125 54.515625 31.582031 L 54.628906 31.582031 C 55.417969 31.65625 56.21875 31.554688 57.007812 31.414062 C 58.121094 31.300781 59.238281 31.179688 60.351562 31.0625 C 60.375 31.058594 60.382812 31.070312 60.382812 31.085938 L 60.453125 31.078125 C 60.550781 31.066406 60.667969 31.234375 60.589844 31.292969 C 60.652344 31.328125 60.710938 31.382812 60.753906 31.421875 L 60.777344 31.417969 C 60.625 31.121094 60.507812 30.804688 60.421875 30.480469 L 60.316406 29.929688 C 60.285156 29.726562 60.269531 29.511719 60.265625 29.296875 C 60.257812 29.195312 60.253906 29.105469 60.253906 29.023438 C 60.253906 28.949219 60.253906 28.871094 60.257812 28.796875 C 60.046875 28.710938 59.832031 28.632812 59.617188 28.570312 C 58.996094 28.492188 58.378906 28.417969 57.761719 28.34375 C 57.390625 28.355469 57.019531 28.382812 56.652344 28.421875 C 56.230469 28.460938 55.8125 28.507812 55.398438 28.566406 C 55.359375 28.570312 55.289062 28.515625 55.246094 28.457031 L 55.066406 28.480469 C 54.972656 28.492188 54.875 28.304688 55 28.265625 C 55.042969 28.25 55.089844 28.234375 55.132812 28.21875 L 55.199219 28.191406 L 55.160156 28.199219 C 55.148438 28.199219 55.132812 28.195312 55.113281 28.1875 C 55.015625 28.203125 54.917969 28.214844 54.820312 28.226562 C 54.699219 28.242188 54.726562 28.078125 54.8125 28.039062 L 54.855469 28.023438 C 54.78125 27.980469 54.714844 27.855469 54.808594 27.8125 L 54.820312 27.808594 C 54.859375 27.792969 54.902344 27.777344 54.945312 27.761719 C 54.941406 27.75 54.941406 27.738281 54.945312 27.726562 L 54.769531 27.746094 C 54.753906 27.75 54.832031 27.636719 54.867188 27.617188 L 54.875 27.613281 L 54.957031 27.585938 C 54.96875 27.550781 55.039062 27.472656 55.0625 27.464844 C 55.367188 27.367188 55.652344 27.28125 55.949219 27.214844 C 55.964844 27.199219 55.980469 27.183594 56 27.179688 C 56.1875 27.136719 56.375 27.101562 56.5625 27.070312 C 56.574219 27.050781 56.589844 27.039062 56.601562 27.039062 C 57.070312 26.976562 57.535156 26.964844 58.003906 26.996094 C 58.09375 27.003906 58.183594 27.015625 58.273438 27.027344 C 58.445312 27.042969 58.617188 27.070312 58.789062 27.101562 C 59.21875 27.175781 59.636719 27.289062 60.042969 27.4375 L 60.136719 27.472656 C 60.242188 27.511719 60.34375 27.550781 60.441406 27.59375 C 60.492188 27.414062 60.558594 27.238281 60.632812 27.0625 C 60.644531 27.027344 60.65625 26.996094 60.667969 26.964844 L 60.566406 26.902344 C 60.546875 26.945312 60.5 26.976562 60.46875 26.960938 C 59.734375 26.464844 58.960938 26.050781 58.140625 25.71875 C 57.683594 25.519531 57.214844 25.34375 56.734375 25.203125 C 56.492188 25.125 56.25 25.054688 56.007812 24.988281 C 55.886719 24.960938 55.765625 24.9375 55.640625 24.917969 C 55.007812 24.746094 54.363281 24.632812 53.707031 24.582031 Z M 77.898438 26.261719 C 77.808594 26.414062 77.714844 26.566406 77.617188 26.71875 C 77.140625 27.449219 76.566406 28.136719 75.917969 28.734375 C 76.085938 28.734375 76.257812 28.738281 76.421875 28.753906 C 76.710938 28.78125 76.992188 28.832031 77.265625 28.898438 C 77.289062 28.878906 77.316406 28.871094 77.335938 28.882812 L 77.40625 28.933594 C 77.996094 29.09375 78.546875 29.34375 79.050781 29.679688 L 79.039062 29.613281 C 79.039062 29.601562 79.039062 29.589844 79.035156 29.578125 C 79.042969 29.449219 79.046875 29.320312 79.042969 29.191406 C 78.9375 28.429688 78.679688 27.726562 78.382812 27.015625 C 78.378906 27.003906 78.382812 26.984375 78.390625 26.964844 C 78.242188 26.722656 78.078125 26.488281 77.898438 26.261719 Z M 78.035156 20.269531 C 77.8125 20.3125 77.59375 20.363281 77.375 20.425781 C 76.96875 20.488281 76.570312 20.597656 76.191406 20.75 C 75.664062 20.9375 75.152344 21.152344 74.640625 21.382812 C 73.652344 21.832031 72.726562 22.398438 71.882812 23.082031 C 71.828125 23.121094 71.777344 23.164062 71.722656 23.207031 C 71.535156 23.371094 71.351562 23.542969 71.175781 23.722656 C 70.996094 23.921875 70.8125 24.121094 70.628906 24.320312 C 70.402344 24.554688 70.144531 24.765625 69.945312 25.019531 C 69.902344 25.074219 69.867188 25.128906 69.832031 25.1875 L 69.953125 25.226562 C 70.054688 25.261719 70.035156 25.449219 69.9375 25.421875 C 69.902344 25.414062 69.871094 25.402344 69.839844 25.390625 C 69.855469 25.40625 69.863281 25.425781 69.867188 25.441406 C 69.871094 25.492188 69.832031 25.5625 69.769531 25.542969 C 69.742188 25.535156 69.714844 25.523438 69.683594 25.511719 C 69.675781 25.546875 69.667969 25.578125 69.667969 25.609375 C 69.675781 25.613281 69.679688 25.613281 69.6875 25.617188 C 69.757812 25.640625 69.886719 25.75 69.90625 25.824219 C 69.921875 25.878906 69.871094 25.941406 69.808594 25.925781 C 69.765625 25.910156 69.71875 25.894531 69.675781 25.871094 C 69.703125 25.898438 69.726562 25.929688 69.730469 25.957031 C 69.734375 26.007812 69.691406 26.074219 69.632812 26.058594 C 69.523438 26.027344 69.4375 25.984375 69.367188 25.925781 C 69.347656 25.953125 69.320312 25.972656 69.296875 25.964844 L 69.257812 25.953125 C 69.269531 25.964844 69.277344 25.976562 69.289062 25.984375 L 69.304688 26 C 69.59375 26.316406 69.847656 26.664062 70.054688 27.039062 C 70.0625 27.03125 70.074219 27.019531 70.089844 27.007812 C 70.183594 26.929688 70.28125 26.851562 70.378906 26.773438 L 70.410156 26.75 L 70.441406 26.722656 L 70.21875 26.796875 L 70.226562 26.789062 C 70.242188 26.769531 70.289062 26.703125 70.3125 26.679688 L 70.316406 26.675781 C 70.621094 26.40625 70.953125 26.175781 71.308594 25.984375 C 71.539062 25.835938 71.78125 25.707031 72.039062 25.605469 C 72.644531 25.320312 73.261719 25.109375 73.898438 24.910156 C 73.996094 24.878906 74.089844 24.84375 74.183594 24.816406 C 74.210938 24.804688 74.21875 24.816406 74.214844 24.835938 L 74.261719 24.820312 C 74.351562 24.792969 74.503906 24.949219 74.441406 25.023438 C 74.480469 25.050781 74.515625 25.085938 74.546875 25.117188 L 74.566406 25.140625 L 74.59375 25.132812 C 74.667969 25.109375 74.796875 25.226562 74.878906 25.308594 L 74.9375 25.371094 C 74.980469 25.421875 75.070312 25.523438 74.960938 25.5625 L 74.824219 25.605469 C 74.832031 25.636719 74.820312 25.65625 74.777344 25.675781 C 74.730469 25.691406 74.683594 25.707031 74.636719 25.722656 C 74.664062 25.75 74.691406 25.773438 74.71875 25.800781 L 74.757812 25.839844 C 74.808594 25.886719 74.921875 25.996094 74.820312 26.042969 L 74.808594 26.046875 L 74.679688 26.09375 C 74.695312 26.132812 74.691406 26.167969 74.632812 26.191406 C 73.875 26.449219 73.132812 26.75 72.410156 27.09375 C 71.871094 27.394531 71.296875 27.617188 70.695312 27.765625 C 70.644531 27.78125 70.535156 27.707031 70.492188 27.628906 L 70.402344 27.65625 C 70.386719 27.660156 70.371094 27.664062 70.355469 27.667969 L 70.339844 27.671875 C 70.453125 27.972656 70.539062 28.300781 70.585938 28.617188 C 70.589844 28.644531 70.59375 28.675781 70.597656 28.703125 C 70.714844 28.691406 70.832031 28.683594 70.953125 28.679688 C 71.769531 28.636719 72.597656 28.660156 73.417969 28.757812 C 73.75 28.5625 74.070312 28.34375 74.375 28.109375 C 74.46875 28.039062 74.558594 27.964844 74.652344 27.890625 C 75.195312 27.414062 75.6875 26.882812 76.125 26.308594 C 76.53125 25.777344 76.882812 25.207031 77.179688 24.609375 C 77.441406 24.046875 77.65625 23.464844 77.820312 22.863281 C 77.96875 22.3125 78.023438 21.777344 78.058594 21.207031 C 78.074219 21.113281 78.082031 21.019531 78.089844 20.929688 L 78.089844 20.886719 L 78.085938 20.867188 C 78.078125 20.667969 78.054688 20.46875 78.035156 20.269531 Z M 70.292969 27.347656 C 70.269531 27.355469 70.246094 27.363281 70.21875 27.371094 C 70.234375 27.40625 70.246094 27.4375 70.261719 27.46875 L 70.363281 27.390625 C 70.339844 27.378906 70.316406 27.367188 70.292969 27.347656 Z M 77.886719 18.773438 C 78.078125 18.703125 78.21875 18.6875 78.316406 18.730469 C 78.171875 18.742188 78.03125 18.757812 77.886719 18.773438 Z M 77.886719 18.773438 "/>
<path style=" stroke:none;fill-rule:evenodd;fill:rgb(0%,0%,0%);fill-opacity:1;" d="M 71.574219 64.136719 C 70.867188 63.847656 70.230469 63.363281 69.769531 62.746094 C 69.609375 62.53125 69.566406 62.304688 69.601562 62.097656 C 69.636719 61.863281 69.777344 61.652344 69.964844 61.511719 C 70.152344 61.371094 70.386719 61.300781 70.617188 61.335938 C 70.816406 61.367188 71.011719 61.472656 71.167969 61.699219 L 71.199219 61.746094 C 71.476562 62.117188 71.835938 62.421875 72.242188 62.621094 C 72.636719 62.808594 73.078125 62.898438 73.535156 62.847656 C 74.402344 62.75 75.003906 62.277344 75.640625 61.640625 C 75.71875 61.558594 75.796875 61.476562 75.875 61.394531 C 75.925781 61.316406 75.996094 61.265625 76.074219 61.242188 C 76.160156 61.210938 76.253906 61.214844 76.34375 61.246094 C 76.429688 61.273438 76.507812 61.332031 76.558594 61.40625 C 76.605469 61.480469 76.632812 61.566406 76.625 61.667969 C 76.566406 62.332031 76.222656 62.921875 75.730469 63.382812 C 75.183594 63.898438 74.460938 64.253906 73.78125 64.378906 C 73.03125 64.519531 72.269531 64.417969 71.574219 64.136719 Z M 74.136719 53.933594 C 74.933594 54.417969 76.148438 55.550781 75.289062 56.75 C 74.28125 57.8125 72.824219 56.597656 72.109375 56.046875 C 71.445312 55.621094 70.699219 56.714844 71.316406 57.214844 C 76.492188 61.050781 78.59375 54.058594 74.539062 53.363281 C 74.09375 53.285156 73.925781 53.78125 74.136719 53.933594 Z M 64.855469 49.472656 C 64.945312 48.378906 66.609375 48.128906 66.773438 49.210938 C 66.921875 50.179688 66.75 51.074219 66.3125 51.945312 C 65.894531 52.78125 64.847656 52.390625 64.765625 51.632812 C 64.660156 50.613281 64.800781 50.152344 64.855469 49.472656 Z M 77.539062 48.988281 C 77.769531 48.683594 78.105469 48.476562 78.507812 48.59375 C 79.761719 48.960938 79.394531 50.742188 78.953125 51.609375 C 78.710938 52.082031 77.9375 52.199219 77.589844 51.785156 C 77.019531 51.109375 76.746094 49.757812 77.46875 49.089844 C 77.488281 49.058594 77.511719 49.023438 77.539062 48.988281 Z M 66.292969 44.683594 L 66.492188 44.648438 C 67.105469 44.542969 67.867188 44.441406 68.304688 44.933594 C 68.535156 45.195312 68.613281 45.679688 68.304688 45.933594 C 67.757812 46.371094 67.15625 46.203125 66.503906 46.238281 C 65.96875 46.269531 65.449219 46.359375 64.933594 46.507812 C 63.796875 46.832031 62.871094 47.425781 61.902344 48.074219 C 61.773438 48.160156 61.644531 47.996094 61.707031 47.878906 C 62.265625 46.78125 63.351562 45.878906 64.4375 45.332031 C 65.019531 45.039062 65.652344 44.792969 66.292969 44.683594 Z M 76.394531 44.191406 L 76.546875 44.222656 C 78.195312 44.566406 80.34375 45.257812 81.125 46.878906 C 81.15625 47.109375 81.125 47.160156 81.097656 47.191406 L 81.089844 47.203125 C 81.070312 47.230469 81.050781 47.265625 80.953125 47.296875 C 80.925781 47.292969 80.898438 47.285156 80.867188 47.277344 C 80.511719 47.183594 80.226562 47.054688 79.953125 46.921875 L 79.652344 46.773438 C 79.308594 46.605469 78.960938 46.441406 78.589844 46.320312 C 77.800781 46.0625 76.992188 45.882812 76.167969 45.785156 C 75.988281 45.765625 75.816406 45.703125 75.683594 45.601562 C 75.554688 45.503906 75.457031 45.367188 75.410156 45.1875 C 75.351562 44.953125 75.371094 44.777344 75.496094 44.566406 C 75.589844 44.40625 75.722656 44.296875 75.878906 44.234375 C 76.035156 44.171875 76.214844 44.15625 76.394531 44.191406 Z M 76.394531 44.191406 "/>
</g>
</svg>
